<svg width="300" height="221" viewBox="0 0 300 221" fill="none" xmlns="http://www.w3.org/2000/svg">
<g id="dazzle-line-startup-investment">
<g id="Group">
<g id="Frame" clip-path="url(#clip0_33_262)">
<path id="Vector" d="M215.553 199.269H36.9108V66.8982L38.6949 60.2202L43.5756 55.3313L50.2423 53.5443H202.221L208.888 55.3313L213.769 60.2202L215.553 66.8982V155.145V199.269Z" fill="#231F20"/>
<path id="Vector_2" d="M215.553 199.77H36.9108L36.7445 199.603L36.5778 199.436L36.4112 199.269V66.8982L38.2663 59.9731L43.3286 54.9017L50.2423 53.0435H202.221L209.135 54.9017L214.198 59.9731L216.053 66.8982V199.269L215.887 199.436L215.72 199.602L215.553 199.77ZM37.4107 198.768H215.053V66.8982L213.332 60.4736L208.635 55.7687L202.221 54.045H50.2423L43.8285 55.7687L39.1315 60.4736L37.4107 66.8982V154.811V198.768Z" fill="#231F20"/>
<path id="Vector_3" d="M202.221 63.5597L203.888 64.0064L205.108 65.2286L205.554 66.8982V174.23L205.108 175.9L203.888 177.122L202.221 177.569H50.2423L48.5755 177.122L47.3554 175.9L46.9094 174.23V66.8982L47.3554 65.2286L48.5755 64.0064L50.2423 63.5597H151.561H202.221Z" fill="white"/>
<path id="Vector_4" d="M202.221 178.07H50.2423L48.3266 177.555L46.9238 176.15L46.4095 174.23V66.8982L46.9234 64.9792L48.3263 63.574L50.2423 63.0589H202.221L204.137 63.5737L205.54 64.9789L206.054 66.8982V174.23L205.54 176.149L204.138 177.554L202.221 178.07ZM50.2423 64.0604L48.8262 64.441L47.7893 65.4796L47.4094 66.8982V174.23L47.7893 175.649L48.8262 176.687L50.2423 177.068H202.221L203.638 176.687L204.674 175.649L205.054 174.23V66.8982L204.674 65.4796L203.638 64.441L202.221 64.0604H100.903H50.2423Z" fill="#231F20"/>
<path id="Vector_5" d="M162.394 187.584L161.638 188.611L160.882 189.639L160.125 190.668L158.359 192.418L156.14 193.541L153.686 193.927H98.4447L95.99 193.541L93.772 192.418L92.0053 190.668L91.25 189.641L90.4935 188.613L89.7369 187.584H21.0797V194.261L22.8637 200.939L27.7444 205.828L34.4112 207.615H218.053L224.719 205.828L229.6 200.939L231.384 194.261V187.584H185.391H162.394Z" fill="#D566FA"/>
<path id="Vector_6" d="M218.053 208.116H34.4111L27.4978 206.258L22.4348 201.186L20.5797 194.261V187.584L20.746 187.418L20.913 187.25L21.0796 187.083H89.7369L89.8709 187.151L90.0052 187.219L90.1395 187.287L90.8947 188.314L91.6513 189.343L92.4079 190.372L94.0656 192.01L96.1447 193.062L98.445 193.427H153.686L155.986 193.062L158.065 192.01L159.723 190.372L160.478 189.345L161.235 188.316L161.991 187.287L162.125 187.22L162.26 187.152L162.394 187.083H231.384L231.55 187.25L231.717 187.417L231.884 187.584V194.261L230.029 201.186L224.966 206.258L218.053 208.116ZM21.5796 188.085V194.261L23.3003 200.686L27.9974 205.391L34.4111 207.114H218.053L224.466 205.391L229.163 200.686L230.884 194.261V188.085H162.647L161.941 189.044L161.234 190.004L160.528 190.965L158.649 192.822L156.293 194.015L153.686 194.428H98.4454L95.8384 194.015L93.4824 192.822L91.6036 190.965L90.8984 190.006L90.1918 189.046L89.4853 188.085H44.2148H21.5796Z" fill="#231F20"/>
</g>
</g>
<g id="Group_2">
<g id="Frame_2" clip-path="url(#clip1_33_262)">
<path id="Vector_7" d="M239.659 185.009H157.894V162.237H239.659V181.212V185.009Z" fill="white"/>
<path id="Vector_8" d="M239.659 185.507H157.894L157.391 185.009V162.237L157.894 161.739H239.659L240.162 162.237V185.009L239.659 185.507ZM158.396 184.511H239.157V162.736H158.396V184.511Z" fill="#231F20"/>
<path id="Vector_9" d="M275.15 185.009H239.659V162.237H275.15V181.212V185.009Z" fill="#7E95D9"/>
<path id="Vector_10" d="M275.15 185.507H239.659L239.157 185.009V162.237L239.659 161.739H275.15L275.652 162.237V185.009L275.15 185.507ZM240.162 184.51H274.647V162.736H240.162V184.51Z" fill="#231F20"/>
<path id="Vector_11" d="M208.996 185.009H188.557V162.237H208.996V181.212V185.009Z" fill="#7E95D9"/>
<path id="Vector_12" d="M208.996 185.507H188.557L188.055 185.009V162.237L188.557 161.739H208.996L209.498 162.237V185.009L208.996 185.507ZM189.06 184.51H208.493V162.736H189.06V184.51Z" fill="#231F20"/>
<path id="Vector_13" d="M205.623 185.009H191.93V162.237H205.623V181.212V185.009Z" fill="white"/>
<g id="Group_3">
<path id="Vector_14" d="M205.623 185.507H191.93L191.427 185.009V162.237L191.93 161.739H205.623L206.126 162.237V185.009L205.623 185.507ZM192.432 184.51H205.121V162.736H192.432V184.51ZM223.645 167.626H254.5V168.623H223.645V167.626ZM259.878 173.468H275.15V174.465H259.878V173.468ZM233.813 179.311H252.708V180.308H233.813V179.311ZM170.106 179.846H188.052V180.843H170.106V179.846Z" fill="#231F20"/>
</g>
</g>
</g>
<g id="Group_4">
<g id="Frame_3" clip-path="url(#clip2_33_262)">
<path id="Vector_15" d="M290.225 162.116H173.543V139.623H290.225V158.366V162.116Z" fill="white"/>
<path id="Vector_16" d="M290.225 162.609H173.543L173.043 162.116V139.623L173.543 139.13H290.225L290.725 139.623V162.116L290.225 162.609ZM174.043 161.624H289.725V140.115H174.043V161.624Z" fill="#231F20"/>
<path id="Vector_17" d="M245.087 162.116H218.681V139.623H245.087V158.366V162.116Z" fill="#50A4F2"/>
<path id="Vector_18" d="M245.087 162.609H218.681L218.181 162.116V139.623L218.681 139.13H245.087L245.587 139.623V162.116L245.087 162.609H245.087ZM219.181 161.624H244.587V140.115H219.181V161.624Z" fill="#231F20"/>
<path id="Vector_19" d="M241.895 162.116H221.873V139.623H241.895V158.366V162.116Z" fill="white"/>
<g id="Group_5">
<path id="Vector_20" d="M241.895 162.609H221.873L221.373 162.116V139.623L221.873 139.13H241.895L242.395 139.623V162.116L241.895 162.609ZM222.373 161.624H241.395V140.115H222.373V161.624ZM189.406 152.562H218.681V153.546H189.406V152.562ZM174.121 158.535H197.559V159.519H174.121V158.535ZM177.557 144.407H202.018V145.392H177.557V144.407ZM245.087 142.902H272.345V143.886H245.087V142.902ZM255.019 149.174H284.703V150.159H255.019V149.174ZM245.087 154.694H274.639V155.679H245.087V154.694ZM280.754 158.535H290.225V159.519H280.754V158.535Z" fill="#231F20"/>
</g>
</g>
</g>
<g id="Group_6">
<g id="Frame_4" clip-path="url(#clip3_33_262)">
<path id="Vector_21" d="M290.225 207.624H173.543V185.13H290.225V203.873V207.624Z" fill="white"/>
<path id="Vector_22" d="M290.225 208.116H173.543L173.043 207.624V185.13L173.543 184.638H290.225L290.725 185.13V207.624L290.225 208.116ZM174.043 207.131H289.725V185.622H174.043V207.131Z" fill="#231F20"/>
<path id="Vector_23" d="M245.087 207.624H218.681V185.13H245.087V203.873V207.624Z" fill="#50A4F2"/>
<path id="Vector_24" d="M245.087 208.116H218.681L218.181 207.624V185.13L218.681 184.638H245.087L245.587 185.13V207.624L245.087 208.116H245.087ZM219.181 207.131H244.587V185.622H219.181V207.131Z" fill="#231F20"/>
<path id="Vector_25" d="M241.895 207.624H221.873V185.13H241.895V203.873V207.624Z" fill="white"/>
<g id="Group_7">
<path id="Vector_26" d="M241.895 208.116H221.873L221.373 207.624V185.13L221.873 184.638H241.895L242.395 185.13V207.624L241.895 208.116ZM222.373 207.131H241.395V185.622H222.373V207.131ZM189.406 198.069H218.681V199.053H189.406V198.069ZM174.121 204.042H197.559V205.026H174.121V204.042ZM177.557 189.914H202.018V190.899H177.557V189.914ZM245.087 188.409H272.345V189.393H245.087V188.409ZM255.019 194.682H284.703V195.666H255.019V194.682ZM245.087 200.202H274.639V201.186H245.087V200.202ZM280.754 204.042H290.225V205.026H280.754V204.042Z" fill="#231F20"/>
</g>
</g>
</g>
<g id="Group_8">
<g id="Frame_5" clip-path="url(#clip4_33_262)">
<path id="Vector_27" d="M99.6257 108.26C97.319 110.454 71.3037 135.488 60.3629 145.417C60.0954 145.465 59.9227 145.008 59.7561 144.894C59.5917 144.698 59.2415 144.32 59.0821 144.118C58.8642 143.763 58.0261 143.282 58.4348 142.823C62.6916 138.771 95.1799 107.851 97.5631 105.541L99.6257 108.26Z" fill="#231F20"/>
<path id="Vector_28" d="M60.3178 145.791C59.979 145.791 59.7667 145.499 59.6347 145.317C59.6036 145.274 59.557 145.209 59.5372 145.192C59.5123 145.175 59.4903 145.154 59.4718 145.131C59.3826 145.026 59.2919 144.923 59.1999 144.82C59.0476 144.649 58.8901 144.472 58.7917 144.348C58.7826 144.336 58.7741 144.324 58.7663 144.311C58.7273 144.248 58.6197 144.141 58.5249 144.048C58.2357 143.762 57.6335 143.166 58.1579 142.577C58.1646 142.569 58.1717 142.562 58.1792 142.555C66.7942 134.355 95.0767 107.435 97.3052 105.276C97.3427 105.239 97.3876 105.211 97.437 105.193C97.4863 105.175 97.5389 105.168 97.5912 105.173C97.6969 105.181 97.7941 105.234 97.8583 105.318L99.9206 108.037C100.034 108.187 100.017 108.398 99.8809 108.528C99.5396 108.852 98.6796 109.677 97.4259 110.879C89.9078 118.085 69.9371 137.227 60.6117 145.691C60.5603 145.737 60.4967 145.769 60.4284 145.781C60.3919 145.788 60.3549 145.791 60.3178 145.791V145.791ZM60.0143 144.626C60.1006 144.699 60.1683 144.792 60.2341 144.883C60.2529 144.909 60.2771 144.942 60.3013 144.973C69.6969 136.433 89.447 117.502 96.9131 110.345C97.938 109.363 98.7 108.632 99.1309 108.22L97.5197 106.097C93.7626 109.707 67.0536 135.13 58.7038 143.077C58.6995 143.082 58.6958 143.087 58.693 143.093C58.6977 143.178 58.9328 143.411 59.0459 143.522C59.1754 143.651 59.2983 143.772 59.384 143.904C59.4716 144.013 59.6209 144.181 59.7534 144.33C59.8511 144.439 59.9447 144.544 60.0143 144.626V144.626Z" fill="#231F20"/>
<path id="Vector_29" d="M62.0357 144.341C61.7539 148.109 56.5921 148.108 56.311 144.341C56.5931 140.574 61.7546 140.575 62.0357 144.341Z" fill="white"/>
<g id="Group_9">
<path id="Vector_30" d="M59.1737 147.536C59.1734 147.536 59.1734 147.536 59.1737 147.536C57.731 147.536 56.1044 146.545 55.9423 144.369V144.314C56.1049 142.138 57.7312 141.146 59.1734 141.146H59.1737C60.6162 141.146 62.2425 142.138 62.4049 144.314V144.369C62.2422 146.545 60.6159 147.536 59.1737 147.536V147.536ZM56.6824 144.341C56.8213 146.037 58.0308 146.797 59.1732 146.797C60.3156 146.797 61.5251 146.037 61.6643 144.341C61.5253 142.645 60.3158 141.886 59.1734 141.886C58.0311 141.886 56.8216 142.645 56.6824 144.341V144.341ZM108.243 102.942C108.243 102.942 148.371 111.305 147.196 112.124C146.954 112.513 146.622 113.037 146.385 113.427C146.106 113.715 145.965 114.438 145.512 114.483C134.769 112.116 107.646 106.108 107.646 106.108L108.243 102.942Z" fill="#231F20"/>
<path id="Vector_31" d="M145.513 114.853C145.486 114.853 145.459 114.85 145.433 114.844C134.812 112.504 107.837 106.528 107.566 106.468C107.472 106.447 107.39 106.391 107.337 106.311C107.284 106.231 107.264 106.133 107.282 106.039L107.88 102.874C107.889 102.826 107.908 102.78 107.935 102.739C107.962 102.698 107.997 102.663 108.038 102.635C108.079 102.608 108.125 102.589 108.173 102.58C108.221 102.57 108.271 102.571 108.319 102.581C108.416 102.601 118.123 104.625 127.731 106.753C147.4 111.107 147.501 111.603 147.583 112.002C147.596 112.065 147.594 112.13 147.577 112.192C147.56 112.254 147.529 112.311 147.486 112.359L147.26 112.72C147.072 113.018 146.886 113.318 146.702 113.618C146.688 113.642 146.671 113.664 146.651 113.684C146.59 113.747 146.518 113.885 146.449 114.018C146.277 114.349 146.041 114.802 145.549 114.851C145.537 114.852 145.525 114.853 145.513 114.853V114.853ZM108.076 105.824C111.28 106.534 135.496 111.898 145.508 114.103C145.599 114.049 145.718 113.82 145.792 113.677C145.878 113.511 145.968 113.34 146.088 113.203C146.268 112.91 146.449 112.618 146.632 112.328L146.724 112.18C144.166 111.037 122.946 106.388 108.537 103.381L108.076 105.824Z" fill="#231F20"/>
<path id="Vector_32" d="M147.642 113.394C147.258 113.351 146.932 112.818 146.617 112.63C146.28 112.319 145.791 111.922 145.452 111.615C144.321 111.291 186.442 76.8115 186.442 76.8115C186.749 76.5311 187.108 76.9742 187.327 77.1581C187.673 77.4531 188.141 77.8661 188.488 78.1601C188.709 78.3886 189.284 78.73 188.87 79.0799C175.621 90.0401 160.968 102.591 147.642 113.394V113.394Z" fill="#231F20"/>
<path id="Vector_33" d="M147.642 113.764C147.628 113.764 147.614 113.763 147.601 113.761C147.234 113.72 146.962 113.449 146.722 113.209C146.617 113.104 146.508 112.996 146.427 112.948C146.405 112.934 146.384 112.919 146.365 112.901C146.188 112.738 145.962 112.545 145.743 112.358C145.563 112.204 145.384 112.052 145.232 111.915C145.148 111.857 145.088 111.769 145.068 111.668C145.002 111.35 144.95 111.1 151.506 105.442C154.901 102.513 159.649 98.5052 165.619 93.5304C175.783 85.0612 186.105 76.6099 186.208 76.5257C186.703 76.0719 187.258 76.59 187.466 76.7852C187.502 76.8187 187.536 76.8502 187.566 76.8756C187.728 77.0141 187.915 77.1763 188.104 77.3402C188.322 77.5295 188.543 77.721 188.728 77.8785C188.738 77.8866 188.747 77.8952 188.755 77.9041C188.79 77.9398 188.835 77.978 188.882 78.0197C189.096 78.2065 189.39 78.4623 189.387 78.8234C189.386 78.9634 189.337 79.1704 189.11 79.3624C183.883 83.6857 178.325 88.3524 172.949 92.8655C164.591 99.8814 155.95 107.136 147.875 113.681C147.809 113.734 147.726 113.764 147.642 113.764V113.764ZM146.842 112.335C146.987 112.429 147.118 112.56 147.245 112.686C147.343 112.784 147.467 112.908 147.57 112.976C155.593 106.469 164.173 99.2665 172.472 92.2991C177.846 87.7875 183.403 83.1226 188.626 78.8019C188.575 78.7332 188.457 78.6304 188.395 78.5762C188.34 78.5295 188.287 78.481 188.236 78.4308C188.029 78.2542 187.823 78.0766 187.618 77.8979C187.43 77.7353 187.245 77.5746 187.086 77.439C187.049 77.4077 187.006 77.3676 186.96 77.3244C186.89 77.2596 186.753 77.1315 186.677 77.0974C171.106 89.8429 147.913 109.108 145.902 111.519C146.005 111.608 146.114 111.701 146.224 111.795C146.438 111.978 146.66 112.167 146.842 112.335V112.335ZM231.374 99.661C218.08 92.9897 203.297 85.3109 190.028 78.5629C189.476 78.2151 190.232 77.5391 190.373 77.1433C190.592 76.7425 190.901 76.1996 191.121 75.7996C191.052 74.8559 199.693 79.9805 199.862 79.859C207.202 83.6027 217.229 88.7428 224.568 92.4857C224.486 92.675 233.82 96.6898 232.961 97.2243C232.739 97.6226 232.432 98.1643 232.215 98.5643C231.948 98.8628 231.837 99.6216 231.374 99.661Z" fill="#231F20"/>
<path id="Vector_34" d="M231.374 100.031C231.316 100.031 231.259 100.017 231.207 99.9913C223.059 95.9024 214.274 91.3949 205.778 87.0358C200.478 84.3167 194.997 81.5049 189.86 78.8924C189.85 78.8874 189.84 78.8818 189.831 78.8757C189.591 78.7243 189.505 78.5291 189.476 78.3921C189.392 78.0059 189.641 77.6306 189.841 77.3289C189.915 77.2165 189.999 77.0893 190.024 77.0203C190.03 77.0018 190.039 76.9839 190.048 76.9666C190.17 76.7438 190.319 76.4771 190.466 76.2154C190.57 76.0306 190.672 75.8479 190.762 75.6855C190.788 75.568 190.857 75.4662 190.961 75.3994C191.415 75.1064 192.461 75.4962 197.759 78.3687C198.697 78.8769 199.665 79.4018 199.899 79.4918C199.944 79.4965 199.988 79.5091 200.03 79.5305C203.652 81.3774 207.927 83.5645 212.211 85.7557C216.61 88.0059 221.018 90.2607 224.736 92.157C224.783 92.1811 224.823 92.2136 224.855 92.2523C225.079 92.397 226.062 92.8685 227.014 93.3254C232.044 95.7395 233.354 96.5173 233.386 97.1083C233.39 97.1734 233.38 97.2386 233.357 97.2995C233.334 97.3605 233.298 97.416 233.252 97.4624L233.05 97.8242C232.878 98.1289 232.708 98.4347 232.539 98.7415C232.526 98.7663 232.51 98.7895 232.491 98.8106C232.434 98.8739 232.367 99.021 232.307 99.1507C232.144 99.5033 231.921 99.9862 231.405 100.03L231.374 100.031V100.031ZM190.214 78.2428C195.347 80.8532 200.821 83.6618 206.116 86.3783C214.562 90.7115 223.293 95.1906 231.397 99.2594C231.479 99.1775 231.577 98.9658 231.634 98.8406C231.713 98.6703 231.794 98.4948 231.907 98.3546C232.071 98.0562 232.237 97.7586 232.404 97.4619L232.588 97.1334C231.953 96.516 228.433 94.8266 226.693 93.9913C226.028 93.6719 225.454 93.3961 225.04 93.1884C224.715 93.0245 224.475 92.9042 224.334 92.7817C220.629 90.8922 216.247 88.6504 211.873 86.4133C207.613 84.2341 203.362 82.0591 199.753 80.2188C199.475 80.14 198.901 79.8285 197.406 79.0179C195.705 78.0959 192.265 76.2304 191.398 76.0648C191.31 76.223 191.211 76.3985 191.112 76.5765C190.971 76.8271 190.828 77.0819 190.71 77.2981C190.653 77.442 190.558 77.5855 190.458 77.7365C190.371 77.8669 190.194 78.1355 190.199 78.2324C190.201 78.2327 190.206 78.2366 190.214 78.2428V78.2428ZM232.765 96.9106L232.765 96.9109L232.765 96.9106ZM224.908 92.6324L224.907 92.6334L224.908 92.6324ZM224.908 92.6314L224.908 92.6321L224.908 92.6314ZM199.647 79.5581C199.647 79.5583 199.647 79.5583 199.647 79.5581V79.5581ZM199.648 79.5576C199.648 79.5576 199.647 79.5579 199.648 79.5576C199.647 79.5579 199.648 79.5576 199.648 79.5576ZM199.649 79.5564L199.649 79.5566L199.649 79.5564ZM199.65 79.5559C199.65 79.5559 199.65 79.5561 199.65 79.5559C199.65 79.5561 199.65 79.5559 199.65 79.5559ZM199.651 79.5551L199.651 79.5554L199.651 79.5551ZM199.653 79.5537L199.651 79.5549C199.652 79.5546 199.652 79.5542 199.653 79.5537ZM199.654 79.5532L199.653 79.5537L199.654 79.5532ZM199.655 79.5527L199.654 79.5532L199.655 79.5527ZM199.656 79.5522L199.655 79.5524L199.656 79.5522ZM199.656 79.5517L199.656 79.5522L199.656 79.5517ZM199.657 79.5512C199.657 79.5514 199.657 79.5514 199.657 79.5512V79.5512ZM199.658 79.5507L199.657 79.551L199.658 79.5507ZM199.66 79.5492L199.658 79.5505L199.66 79.5492ZM199.661 79.5487L199.66 79.549L199.661 79.5487Z" fill="#231F20"/>
<path id="Vector_35" d="M277.494 45.8177L272.382 52.214C260.465 66.8779 246.646 84.8251 234.577 99.2552C234.065 99.1071 233.548 98.5902 233.082 98.3278C232.814 98.0638 232.167 97.8969 232.066 97.5014C236.499 91.3858 246.233 79.7737 250.897 73.7585C257.96 64.9159 267.237 53.3282 274.98 43.6422" fill="#231F20"/>
<path id="Vector_36" d="M234.576 99.6251C234.542 99.6251 234.507 99.6201 234.473 99.6103C234.089 99.4991 233.74 99.2423 233.403 98.9937C233.224 98.8618 233.055 98.7371 232.9 98.6501C232.871 98.634 232.845 98.6141 232.822 98.5909C232.759 98.5291 232.626 98.4547 232.498 98.3829C232.192 98.2109 231.811 97.997 231.707 97.593C231.694 97.5405 231.692 97.4856 231.702 97.4324C231.712 97.3791 231.734 97.3287 231.766 97.2847C234.488 93.53 239.281 87.6118 243.51 82.3904C246.23 79.0316 248.8 75.8593 250.604 73.5322C254.786 68.296 259.74 62.1033 264.693 55.912C268.111 51.6392 271.528 47.3669 274.691 43.4115L275.269 43.8729C272.107 47.828 268.69 52.1003 265.271 56.3734C260.319 62.5646 255.365 68.7571 251.186 73.9889C249.381 76.3177 246.809 79.493 244.086 82.8552C239.938 87.9768 235.246 93.7698 232.512 97.5171C232.605 97.594 232.752 97.6766 232.861 97.7382C233.016 97.825 233.175 97.9144 233.303 98.0285C233.484 98.1345 233.666 98.2686 233.843 98.3982C234.051 98.5518 234.265 98.709 234.465 98.8118C241.619 90.2506 249.433 80.401 256.991 70.8739C262.287 64.1989 267.289 57.894 272.094 51.9808L277.205 45.587L277.783 46.0481L272.671 52.4444C267.866 58.3566 262.866 64.6598 257.572 71.3331C249.949 80.9407 242.068 90.8756 234.861 99.492C234.826 99.5336 234.782 99.5671 234.733 99.5901C234.684 99.6131 234.631 99.6251 234.576 99.6251V99.6251Z" fill="#231F20"/>
</g>
<path id="Vector_37" d="M192.084 77.1061L191.94 77.9879L191.537 78.7862L190.901 79.4147L190.106 79.8253L189.222 79.9593L188.337 79.8253L187.542 79.4147L186.906 78.7862L186.504 77.9879L186.359 77.1061L186.504 76.224L186.906 75.4258L187.542 74.7973L188.337 74.3867L189.222 74.2526L190.106 74.3867L190.901 74.7973L191.537 75.4258L191.94 76.224L192.084 77.1061Z" fill="white"/>
<path id="Vector_38" d="M189.277 80.3248H189.166L188.281 80.1907L188.167 80.1535L187.372 79.7427L187.282 79.6771L186.645 79.0489L186.575 78.9523L186.173 78.154L186.138 78.0473L185.994 77.1652V77.0462L186.138 76.1641L186.173 76.0574L186.575 75.2591L186.645 75.1625L187.282 74.534L187.372 74.4685L188.167 74.0579L188.281 74.0209L189.166 73.8868H189.277L190.162 74.0209L190.277 74.0581L191.071 74.4687L191.161 74.5343L191.798 75.1627L191.868 75.2594L192.27 76.0576L192.305 76.1643L192.449 77.0464V77.1657L192.305 78.0478L192.27 78.1542L191.868 78.9525L191.798 79.0491L191.161 79.6776L191.071 79.7431L190.276 80.1537L190.162 80.1907L189.277 80.3248ZM188.453 79.4688L189.222 79.5854L189.99 79.4688L190.681 79.1122L191.234 78.5661L191.583 77.8725L191.709 77.1061L191.584 76.3396L191.234 75.6463L190.681 75.0999L189.991 74.7433L189.222 74.6267L188.453 74.7433L187.762 75.0999L187.209 75.646L186.86 76.3396L186.734 77.1061L186.86 77.8725L187.209 78.5658L187.762 79.112L188.453 79.4688Z" fill="#231F20"/>
<path id="Vector_39" d="M148.83 112.422C148.548 116.189 143.386 116.188 143.105 112.422C143.387 108.654 148.549 108.655 148.83 112.422Z" fill="white"/>
<path id="Vector_40" d="M145.968 115.617C144.525 115.617 142.899 114.625 142.736 112.449V112.394C142.899 110.218 144.526 109.227 145.968 109.227H145.968C147.41 109.227 149.037 110.218 149.199 112.395V112.449C149.036 114.625 147.41 115.617 145.968 115.617V115.617ZM143.477 112.422C143.616 114.117 144.825 114.877 145.968 114.877H145.968C147.11 114.877 148.319 114.117 148.459 112.422C148.32 110.726 147.11 109.966 145.968 109.966C144.825 109.966 143.616 110.726 143.477 112.422Z" fill="#231F20"/>
<path id="Vector_41" d="M99.5033 108.017L98.2649 106.788L97.4755 105.232L97.1988 103.51L97.4757 101.788L98.2649 100.232L99.5033 99.0023L101.057 98.205L102.783 97.9386L104.509 98.205L106.062 99.0023L107.301 100.232L108.09 101.788L108.366 103.51L108.09 105.232L107.3 106.788L106.062 108.017L104.509 108.815L102.783 109.081L101.057 108.815L99.5033 108.017Z" fill="white"/>
<path id="Vector_42" d="M102.839 109.446H102.726L101 109.18L100.887 109.143L99.334 108.346L99.2422 108.279L98.0039 107.05L97.9348 106.955L97.1453 105.399L97.11 105.291L96.8333 103.569V103.451L97.1102 101.729L97.1455 101.621L97.9348 100.065L98.0039 99.9698L99.2425 98.74L99.3343 98.6732L100.888 97.8762L101 97.8397L102.726 97.5733H102.839L104.566 97.8397L104.678 97.8762L106.231 98.6735L106.323 98.74L107.562 99.9696L107.631 100.065L108.42 101.62L108.456 101.729L108.732 103.451V103.568L108.456 105.291L108.42 105.399L107.631 106.955L107.562 107.05L106.323 108.279L106.231 108.346L104.678 109.143L104.565 109.18L102.839 109.446ZM101.172 108.458L102.783 108.707L104.393 108.458L105.842 107.715L106.997 106.567L107.734 105.116L107.992 103.51L107.734 101.903L106.997 100.452L105.842 99.3047L104.393 98.5611L102.783 98.3124L101.173 98.5611L99.7242 99.3047L98.5687 100.452L97.8326 101.903L97.5744 103.51L97.8326 105.116L98.569 106.567L99.7244 107.715L101.172 108.458Z" fill="#231F20"/>
<path id="Vector_43" d="M105.611 103.495C105.329 107.263 100.167 107.262 99.8858 103.495C100.168 99.7274 105.329 99.7286 105.611 103.495Z" fill="#231F20"/>
<path id="Vector_44" d="M102.748 106.69C101.306 106.69 99.679 105.699 99.5169 103.522V103.467C99.6795 101.291 101.306 100.3 102.748 100.3H102.749C104.191 100.3 105.817 101.291 105.98 103.467V103.522C105.817 105.699 104.191 106.69 102.748 106.69ZM100.257 103.495C100.396 105.191 101.606 105.951 102.748 105.951C103.89 105.951 105.1 105.191 105.239 103.495C105.1 101.799 103.891 101.04 102.748 101.04C101.606 101.039 100.396 101.799 100.257 103.495Z" fill="#231F20"/>
<path id="Vector_45" d="M235.269 98.1432C234.987 101.911 229.825 101.91 229.544 98.1432C229.826 94.3753 234.988 94.3766 235.269 98.1432Z" fill="white"/>
<path id="Vector_46" d="M232.407 101.338C232.407 101.338 232.407 101.338 232.407 101.338C230.964 101.338 229.338 100.347 229.175 98.1702V98.1153C229.338 95.9391 230.964 94.9478 232.407 94.9478H232.407C233.849 94.9478 235.476 95.9391 235.638 98.1155V98.1705C235.475 100.347 233.849 101.338 232.407 101.338ZM229.916 98.1429C230.054 99.8388 231.264 100.598 232.407 100.599H232.407C233.549 100.599 234.758 99.839 234.898 98.1431C234.759 96.4473 233.549 95.6877 232.407 95.6874H232.407C231.264 95.6874 230.055 96.447 229.916 98.1429Z" fill="#231F20"/>
<path id="Vector_47" d="M282.049 30.8045L282.048 30.8072L282.053 30.806L282.048 30.8072L282.053 30.806L282.048 30.8072L282.725 32.6081L283.823 34.1879L285.289 35.4357L287.016 36.2872L288.904 36.6694L288.903 36.6746L288.904 36.6694L288.903 36.6746L288.904 36.6694L288.902 36.6744L288.905 36.6739L288.902 36.6702L288.905 36.6739L288.902 36.6702L288.905 36.6739L287.674 38.1534L286.863 39.8978L286.504 41.7876L286.639 43.7063L287.241 45.533L287.246 45.5308L287.241 45.533L287.246 45.5308L287.241 45.533L287.246 45.5318L287.245 45.5296L287.243 45.5345L287.245 45.5296L287.243 45.5345L287.245 45.5296L285.344 45.2146L283.425 45.3748L281.61 46.0185L280.008 47.0864L278.733 48.5279L278.728 48.525L278.733 48.5279L278.728 48.525L278.733 48.5279L278.729 48.5245L278.728 48.527L278.733 48.526L278.728 48.527L278.733 48.526L278.728 48.527L278.061 46.7226L276.954 45.1485L275.495 43.8931L273.763 43.0507L271.878 42.6586L271.877 42.6635L271.878 42.6586L271.877 42.6635L271.878 42.6586L271.876 42.6633L271.879 42.6628L271.876 42.6591L271.879 42.6628L271.876 42.6591L271.879 42.6628L273.102 41.1769L273.923 39.4369L274.272 37.5453L274.147 35.6259L273.535 33.8022L273.54 33.7999L273.535 33.8022L273.54 33.7999L273.535 33.8022L273.54 33.8009L273.538 33.7987L273.536 33.8034L273.538 33.7987L273.536 33.8034L273.538 33.7987L275.436 34.1235L277.355 33.9532L279.173 33.3189L280.769 32.2428L282.052 30.808L282.048 30.8052L282.052 30.808L282.048 30.8052L282.052 30.805L282.049 30.8045Z" fill="white"/>
<path id="Vector_48" d="M278.733 48.8976C278.665 48.8978 278.598 48.8792 278.54 48.8439C278.467 48.8013 278.41 48.7347 278.381 48.6553L277.73 46.8959L276.677 45.3989L275.289 44.2046L273.642 43.4033L271.858 43.0322C271.779 43.0278 271.703 42.9983 271.642 42.9478C271.58 42.8974 271.537 42.8287 271.517 42.7517C271.494 42.6611 271.507 42.5651 271.552 42.4836C271.57 42.4507 271.593 42.4208 271.62 42.3948L272.787 40.978L273.567 39.3228L273.9 37.5234L273.781 35.6979L273.184 33.9197C273.157 33.8388 273.158 33.751 273.189 33.6712C273.219 33.5914 273.276 33.5245 273.35 33.482C273.423 33.4384 273.511 33.4191 273.6 33.4344L275.452 33.7514L277.276 33.5892L279.006 32.9859L280.524 31.9623L281.738 30.6046C281.778 30.5437 281.835 30.4958 281.902 30.4667C281.968 30.4376 282.042 30.4287 282.114 30.441L282.117 30.4414C282.271 30.4688 282.386 30.5873 282.415 30.733L283.055 32.4353L284.1 33.9379L285.494 35.1246L287.137 35.9347L288.977 36.3076C289.061 36.3247 289.136 36.37 289.19 36.436C289.244 36.5019 289.273 36.5844 289.274 36.6697V36.6709C289.275 36.7559 289.247 36.8412 289.19 36.9104L287.989 38.353L287.218 40.0121L286.876 41.8095L287.004 43.6343L287.575 45.3632C287.6 45.4121 287.613 45.4659 287.615 45.5207C287.617 45.5756 287.606 45.6301 287.584 45.6803C287.562 45.7306 287.529 45.7753 287.487 45.8113C287.446 45.8473 287.397 45.8736 287.344 45.8884C287.309 45.8982 287.274 45.9046 287.238 45.9017C287.205 45.9014 287.172 45.8966 287.14 45.8874L285.329 45.587L283.503 45.7395L281.777 46.352L280.253 47.3676L279.01 48.7731C278.975 48.8123 278.932 48.8437 278.885 48.8652C278.837 48.8866 278.785 48.8977 278.733 48.8976V48.8976ZM272.557 42.422L273.839 42.6889C273.869 42.695 273.898 42.7049 273.925 42.7184L275.657 43.5608C275.686 43.5749 275.712 43.5924 275.736 43.6131L277.196 44.8685C277.219 44.8884 277.239 44.9111 277.257 44.9361L278.364 46.5099C278.382 46.5361 278.397 46.5644 278.408 46.5945L278.862 47.8231L279.731 46.8417C279.752 46.8178 279.777 46.7966 279.803 46.7791L281.405 45.7112C281.43 45.6942 281.457 45.6804 281.486 45.6703L283.301 45.0265C283.331 45.0159 283.362 45.0092 283.394 45.0065L285.313 44.8461C285.344 44.8436 285.375 44.8449 285.405 44.8498L286.697 45.064L286.287 43.8218C286.278 43.7928 286.272 43.7626 286.27 43.7321L286.134 41.8135C286.132 41.7817 286.134 41.7498 286.14 41.7186L286.499 39.829C286.505 39.7989 286.514 39.7698 286.527 39.7422L287.338 37.9978C287.352 37.969 287.369 37.9416 287.389 37.9172L288.227 36.9099L286.942 36.6497C286.911 36.6433 286.881 36.6329 286.852 36.6189L285.125 35.7674C285.098 35.7538 285.072 35.7369 285.049 35.7171L283.583 34.4695C283.559 34.4489 283.537 34.4252 283.519 34.399L282.42 32.8193C282.403 32.794 282.389 32.7668 282.378 32.7382L281.918 31.5138L281.045 32.4893C281.025 32.5121 281.002 32.5323 280.976 32.5494L279.38 33.6257C279.354 33.6434 279.325 33.6577 279.295 33.6683L277.477 34.3027C277.448 34.3128 277.418 34.3192 277.387 34.3219L275.469 34.4922C275.437 34.495 275.405 34.4936 275.374 34.4883L274.081 34.2669L274.498 35.5086C274.508 35.5389 274.514 35.5702 274.516 35.602L274.641 37.5214C274.643 37.552 274.642 37.5825 274.636 37.6123L274.287 39.5039C274.281 39.5352 274.271 39.5655 274.258 39.5944L273.437 41.3346C273.424 41.3622 273.408 41.3883 273.388 41.4117L272.557 42.422Z" fill="#231F20"/>
<path id="Vector_49" d="M283.218 39.6518C282.937 43.4194 277.775 43.4182 277.494 39.6518C277.776 35.8842 282.937 35.8855 283.218 39.6518Z" fill="#231F20"/>
<path id="Vector_50" d="M280.356 42.8466C280.356 42.8466 280.356 42.8466 280.356 42.8466C278.913 42.8466 277.287 41.8554 277.125 39.6791V39.6242C277.287 37.448 278.914 36.4567 280.356 36.4567H280.356C281.799 36.4567 283.425 37.4482 283.588 39.6244V39.6794C283.425 41.8556 281.798 42.8466 280.356 42.8466ZM277.865 39.6518C278.004 41.3477 279.213 42.1072 280.356 42.1072H280.356C281.499 42.1072 282.708 41.3477 282.847 39.6518C282.708 37.9559 281.499 37.1963 280.356 37.1961C279.214 37.1961 278.004 37.9557 277.865 39.6518V39.6518Z" fill="#231F20"/>
<path id="Vector_51" d="M104.251 81.6833L104.242 81.2968L104.022 80.9784L103.787 80.672L103.422 80.5427L103.051 80.4335L102.68 80.5427L102.315 80.672L102.08 80.9786L101.861 81.2971L101.85 81.6833L101.861 82.0697L102.08 82.3881L102.315 82.6945L102.68 82.8239L103.051 82.933L103.422 82.8239L103.787 82.6945L104.022 82.3879L104.242 82.0697L104.251 81.6833Z" fill="white"/>
<path id="Vector_52" d="M103.156 83.2877H102.946L102.575 83.1785L102.191 83.0427L102.022 82.9198L101.786 82.6134L101.555 82.2795L101.49 82.0793L101.48 81.6929L101.49 81.2875L101.555 81.0876L101.774 80.7692L102.021 80.4471L102.191 80.3238L102.555 80.1944L102.946 80.0789H103.155L103.526 80.188L103.91 80.3238L104.08 80.4468L104.316 80.7532L104.546 81.0871L104.612 81.2872L104.622 81.6927L104.612 82.0789L104.547 82.2787L104.327 82.5972L104.08 82.9195L103.911 83.0425L103.546 83.1719L103.156 83.2877ZM102.542 82.3825L102.804 82.4754L103.051 82.5474L103.318 82.469L103.56 82.3827L103.729 82.1624L103.875 81.9504L103.882 81.683L103.875 81.4159L103.718 81.1879L103.56 80.9838L103.298 80.8909L103.052 80.819L102.785 80.8973L102.543 80.9836L102.374 81.2037L102.228 81.4156L102.221 81.6927L102.228 81.9502L102.385 82.1784L102.542 82.3825Z" fill="#231F20"/>
<path id="Vector_53" d="M120.531 84.6888L120.514 84.0165L120.133 83.4625L119.723 82.9291L119.088 82.7041L118.442 82.5141L117.797 82.7041L117.162 82.9294L116.752 83.4625L116.371 84.0165L116.353 84.6888L116.371 85.3612L116.752 85.9152L117.162 86.4483L117.797 86.6735L118.442 86.8636L119.088 86.6735L119.723 86.4483L120.133 85.9152L120.514 85.3612L120.531 84.6888Z" fill="white"/>
<path id="Vector_54" d="M118.547 87.2182H118.338L117.692 87.0282L117.038 86.7965L116.868 86.6735L116.458 86.1404L116.065 85.5706L116 85.3708L115.983 84.6984L116 84.0069L116.065 83.807L116.447 83.2527L116.868 82.7039L117.038 82.5806L117.672 82.3554L118.337 82.1589H118.547L119.192 82.349L119.846 82.5804L120.015 82.7036L120.426 83.2369L120.819 83.8067L120.883 84.0066L120.901 84.6982L120.883 85.3705L120.819 85.5704L120.437 86.1247L120.016 86.6735L119.846 86.7968L119.212 87.022L118.547 87.2182ZM117.389 86.1365L117.921 86.3253L118.442 86.4783L118.984 86.3191L119.496 86.137L119.84 85.6904L120.147 85.2426L120.162 84.6893L120.147 84.136L119.828 83.6722L119.496 83.2414L118.965 83.0528L118.443 82.8998L117.901 83.059L117.39 83.2411L117.046 83.6877L116.738 84.1355L116.724 84.6984L116.738 85.2419L117.057 85.7057L117.389 86.1365Z" fill="#231F20"/>
<path id="Vector_55" d="M276.042 82.8715L275.973 82.1067C275.799 81.7575 275.353 81.1406 275.072 80.8697C274.727 80.6883 274.003 80.451 273.616 80.3975C273.23 80.4535 272.504 80.6861 272.159 80.87C271.614 81.4423 271.15 82.036 271.189 82.8717L271.259 83.6365C271.432 83.9857 271.879 84.6026 272.159 84.8734C272.505 85.0548 273.229 85.2922 273.616 85.3456C274.002 85.2897 274.727 85.057 275.072 84.8732C275.617 84.3012 276.082 83.7072 276.042 82.8715Z" fill="white"/>
<path id="Vector_56" d="M273.565 85.7118C273.143 85.6534 272.376 85.4047 271.987 85.2004L271.902 85.1391C271.596 84.8436 271.122 84.1929 270.927 83.8003L270.89 83.6697L270.82 82.9049C270.772 81.8782 271.348 81.1852 271.891 80.6149L271.985 80.5436C272.361 80.3435 273.128 80.0943 273.563 80.0315L273.667 80.0312C274.089 80.0897 274.855 80.3383 275.245 80.5426L275.329 80.604C275.635 80.8993 276.109 81.5497 276.304 81.9425L276.342 82.0734L276.412 82.8542C276.46 83.8649 275.884 84.5579 275.34 85.1282L275.246 85.1994C274.871 85.3998 274.104 85.6487 273.669 85.7116L273.565 85.7118ZM272.379 84.57C272.693 84.7226 273.282 84.914 273.615 84.9712C273.956 84.9116 274.542 84.7221 274.847 84.573C275.378 84.0083 275.7 83.5253 275.673 82.8966L275.611 82.2126C275.444 81.9048 275.085 81.4129 274.852 81.1731C274.539 81.0205 273.95 80.829 273.617 80.7718C273.275 80.8315 272.689 81.0213 272.385 81.1704C271.851 81.737 271.529 82.222 271.559 82.8544L271.621 83.5309C271.787 83.838 272.146 84.3302 272.379 84.57V84.57Z" fill="#231F20"/>
<path id="Vector_57" d="M288.121 88.0214L288.12 87.9896C288.114 87.7366 288.027 87.4921 287.873 87.2914L287.872 87.2904C287.718 87.0897 287.503 86.943 287.26 86.8714L287.26 86.8712C287.038 86.8061 286.803 86.8061 286.582 86.8712L286.581 86.8714C286.338 86.943 286.124 87.0897 285.97 87.2904L285.969 87.2914C285.815 87.4922 285.728 87.7366 285.721 87.9896L285.721 88.0214L285.721 88.0532C285.728 88.3062 285.815 88.5507 285.969 88.7514L285.97 88.7524C286.124 88.9531 286.338 89.0998 286.581 89.1714L286.582 89.1716C286.803 89.2367 287.038 89.2367 287.26 89.1716L287.26 89.1714C287.503 89.0998 287.718 88.9531 287.872 88.7524L287.873 88.7514C288.027 88.5506 288.114 88.3062 288.12 88.0532L288.121 88.0214Z" fill="white"/>
<path id="Vector_58" d="M286.92 89.5901C286.68 89.5901 286.442 89.5348 286.227 89.4286C286.011 89.3224 285.823 89.1681 285.676 88.9777L285.674 88.9755C285.472 88.7132 285.359 88.3935 285.351 88.0628L285.35 88.0325L285.351 87.9783C285.359 87.648 285.473 87.329 285.674 87.0671L285.676 87.0649C285.878 86.8022 286.158 86.6103 286.476 86.517C286.794 86.4229 287.134 86.4322 287.446 86.5434C287.731 86.6443 287.981 86.8256 288.165 87.0652L288.167 87.0674C288.369 87.3297 288.482 87.6493 288.49 87.98L288.491 88.0325L288.49 88.0643C288.482 88.3945 288.369 88.7136 288.167 88.9755L288.165 88.9777C287.963 89.2404 287.683 89.4323 287.365 89.5255C287.221 89.5683 287.071 89.5901 286.92 89.5901V89.5901ZM286.262 88.5259L286.263 88.5271C286.365 88.6598 286.505 88.7585 286.664 88.8103C286.823 88.862 286.994 88.8644 287.154 88.817C287.323 88.7678 287.471 88.6663 287.578 88.5271L287.603 88.4929C287.696 88.3581 287.746 88.2038 287.75 88.0438L287.751 88.0214L287.75 88.001C287.747 87.8404 287.696 87.6845 287.605 87.5522L287.578 87.5159C287.477 87.3833 287.337 87.2845 287.178 87.2328C287.019 87.1811 286.848 87.1787 286.687 87.2261C286.519 87.2753 286.37 87.3768 286.263 87.5159L286.238 87.5502C286.147 87.6823 286.095 87.8384 286.091 87.9992L286.09 88.033L286.091 88.0424C286.095 88.2029 286.146 88.3588 286.237 88.4912L286.262 88.5259Z" fill="#231F20"/>
</g>
</g>
<g id="Group_10">
<g id="Frame_6" clip-path="url(#clip5_33_262)">
<path id="Vector_59" d="M289.929 173.769C289.932 173.546 289.891 173.325 289.809 173.118C289.727 172.911 289.604 172.722 289.449 172.563C289.294 172.404 289.109 172.278 288.905 172.192C288.701 172.106 288.482 172.062 288.261 172.062C288.04 172.062 287.821 172.106 287.617 172.192C287.414 172.278 287.229 172.404 287.073 172.563C286.918 172.722 286.796 172.911 286.714 173.118C286.631 173.325 286.59 173.546 286.593 173.769C286.6 174.211 286.778 174.633 287.09 174.944C287.402 175.255 287.823 175.429 288.261 175.429C288.7 175.429 289.12 175.255 289.432 174.944C289.744 174.633 289.923 174.211 289.929 173.769Z" fill="#7248EE"/>
<path id="Vector_60" d="M288.261 175.942C287.692 175.945 287.144 175.722 286.737 175.32C286.33 174.919 286.097 174.371 286.087 173.797V173.741C286.094 173.164 286.326 172.613 286.733 172.208C287.14 171.802 287.689 171.575 288.261 171.575C288.833 171.575 289.382 171.802 289.789 172.208C290.196 172.613 290.428 173.165 290.435 173.742V173.798C290.425 174.372 290.192 174.92 289.785 175.321C289.378 175.723 288.83 175.946 288.261 175.942V175.942ZM287.1 173.769C287.096 174.001 287.16 174.228 287.284 174.423C287.408 174.618 287.587 174.771 287.797 174.864C288.007 174.956 288.24 174.984 288.466 174.943C288.692 174.902 288.9 174.794 289.066 174.633C289.231 174.473 289.345 174.266 289.394 174.04C289.443 173.814 289.424 173.578 289.34 173.362C289.256 173.147 289.111 172.961 288.923 172.829C288.734 172.697 288.511 172.624 288.282 172.62H288.261C288.109 172.615 287.958 172.642 287.817 172.698C287.675 172.754 287.547 172.838 287.438 172.945C287.33 173.053 287.244 173.181 287.186 173.322C287.128 173.464 287.099 173.616 287.1 173.769V173.769Z" fill="#231F20"/>
</g>
</g>
<g id="Group_11">
<g id="Frame_7" clip-path="url(#clip6_33_262)">
<g id="Group_12">
<path id="Vector_61" d="M99.9794 207.811L98.4977 194.622L97.0159 181.433L95.5342 168.242L91.8963 163.413L88.2576 158.584L84.6191 153.754L87.2509 144.656L89.8833 135.557L92.5154 126.458L98.1375 136.081L103.76 145.705L109.383 155.328L111.409 160.256L112.025 165.545L111.186 170.802L107.45 183.138L103.715 195.474L99.9794 207.811Z" fill="#231F20"/>
<path id="Vector_62" d="M100.402 207.938L99.5403 207.86L95.1087 168.41L84.2657 154.018L84.1947 153.633L92.091 126.337L92.8974 126.237L109.792 155.162L111.818 160.09L111.848 160.206L112.464 165.494L112.461 165.614L111.608 170.929L100.402 207.938ZM85.1045 153.666L95.888 167.979L95.9734 168.194L100.179 205.629L110.754 170.704L111.579 165.535L110.977 160.367L108.986 155.523L92.6539 127.569L85.1045 153.666ZM21.7574 207.811L23.2388 194.622L24.7205 181.433L26.2022 168.242L29.8404 163.413L33.4789 158.584L37.1174 153.754L34.4856 144.656L31.8535 135.557L29.221 126.458L23.599 136.081L17.9763 145.705L12.3534 155.328L10.3277 160.256L9.71155 165.545L10.5509 170.802L14.286 183.138L18.0217 195.474L21.7574 207.811Z" fill="#231F20"/>
<path id="Vector_63" d="M21.3341 207.938L10.1147 170.872L9.27536 165.614L9.27271 165.494L9.88854 160.206L9.91858 160.09L11.9714 155.108L28.839 126.237L29.6454 126.337L37.5418 153.633L37.4708 154.018L26.6278 168.41L22.1962 207.86L21.3341 207.938ZM10.9827 170.704L21.558 205.629L25.7634 168.194L25.8488 167.979L36.6323 153.666L29.0829 127.569L12.7507 155.523L10.7594 160.367L10.1574 165.535L10.9827 170.704Z" fill="#231F20"/>
</g>
<path id="Vector_64" d="M39.4803 158.72L38.7782 160.83L38.1182 162.953L37.5044 165.09L36.9533 167.245L36.503 169.423L36.2745 171.631L38.1618 178.73L41.7849 185.181L46.0875 191.212L50.7692 196.96L55.7103 202.489L60.8682 207.811L66.0282 202.487L70.9679 196.959L75.6487 191.213L79.9513 185.182L83.575 178.73L85.4623 171.631L85.2338 169.424L84.7837 167.247L84.2327 165.091L83.6186 162.953L82.9583 160.829L82.2562 158.72H46.6106H39.4803Z" fill="#F2D344"/>
<path id="Vector_65" d="M61.1863 208.116H60.5502L55.3923 202.794L50.439 197.252L45.7441 191.489L41.3994 185.396L37.7759 178.944L37.7344 178.842L35.8471 171.743L35.8347 171.586L36.0701 169.334L36.5201 167.157L37.0758 164.982L37.6929 162.832L38.3555 160.7L39.0603 158.583L39.4797 158.281H82.2556L82.675 158.583L83.3771 160.692L84.0401 162.824L84.6568 164.971L85.2114 167.139L85.6726 169.379L85.9011 171.586L85.8888 171.744L84.0018 178.843L83.9603 178.945L80.3112 185.436L76.0086 191.468L71.3107 197.236L66.3581 202.779L61.1863 208.116ZM42.1589 184.946L46.4477 190.958L51.1126 196.683L56.0405 202.197L60.8682 207.178L65.7101 202.182L70.6377 196.667L75.3055 190.937L79.5772 184.947L83.1621 178.564L85.0143 171.596L84.7964 169.491L84.3508 167.335L83.8042 165.2L83.1936 163.074L82.536 160.96L81.9369 159.16H39.7996L39.1979 160.968L38.5405 163.083L37.9297 165.211L37.3819 167.354L36.9407 169.49L36.7227 171.597L38.5752 178.565L42.1589 184.946Z" fill="#231F20"/>
<path id="Vector_66" d="M67.3509 158.72L67.9417 161.621L68.5328 164.523L69.1239 167.425L69.715 170.327L70.3064 173.231L70.8978 176.135L69.8681 175.735L68.8373 175.335L67.8065 174.935L66.7754 174.534L65.7425 174.134L64.7096 173.733L64.0696 175.221L63.4297 176.709L62.79 178.196L62.1497 179.685L61.5091 181.175L60.8682 182.665L60.2285 181.177L59.5883 179.689L58.9486 178.201L58.3083 176.712L57.6677 175.223L57.0268 173.733L55.9975 174.132L54.9667 174.532L53.9359 174.933L52.9044 175.333L51.8719 175.734L50.839 176.135L51.4298 173.234L52.0206 170.332L52.612 167.429L53.2028 164.528L53.7942 161.624L54.3859 158.72H65.1891H67.3509Z" fill="white"/>
<path id="Vector_67" d="M61.2744 182.838H60.4621L56.7892 174.297L50.9998 176.544L50.4061 176.048L53.953 158.633L54.3859 158.281H67.3509L67.7838 158.633L71.3307 176.048L70.737 176.544L64.9476 174.297L61.2744 182.838ZM56.8663 173.323L57.4333 173.56L60.8685 181.547L64.3038 173.56L64.8708 173.323L70.3043 175.433L66.9901 159.16H54.7476L51.4328 175.433L56.8663 173.323Z" fill="#231F20"/>
<path id="Vector_68" d="M82.2562 158.72L86.7432 148.418L90.0633 137.684L92.4701 126.71L94.1055 115.595L95.0536 104.401L95.3625 93.1697L94.5064 78.3987L91.8098 63.8498L87.1278 49.8109L80.4037 36.6204L71.6638 24.6585L60.8682 14.5174L50.0721 24.6591L41.3334 36.6195L34.609 49.8097L29.927 63.8492L27.2301 78.3978L26.3739 93.1697L26.6829 104.4L27.6306 115.594L29.2664 126.71L31.6735 137.685L34.9936 148.419L39.4803 158.72H75.1262H82.2562Z" fill="white"/>
<path id="Vector_69" d="M82.5463 159.16H39.1902L34.5712 148.548L31.2417 137.779L28.8293 126.773L27.1936 115.658L26.2426 104.437L25.9315 93.1632L26.7957 78.3181L29.5076 63.7109L34.2149 49.6111L40.9759 36.3614L49.739 24.3679L60.8682 13.913L72.021 24.4002L80.7974 36.4218L87.5469 49.6726L92.2439 63.7701L94.9473 78.3735L95.8046 93.163L95.4951 104.413L94.5458 115.632L92.9015 126.804L90.4856 137.813L87.1487 148.593L82.5463 159.16ZM39.7704 158.281H81.9664L86.3285 148.266L89.6359 137.572L92.0351 126.631L93.6685 115.531L94.6133 104.364L94.9202 93.1764L94.0666 78.4514L91.3806 63.9593L86.7187 49.9805L80.0252 36.8507L71.3304 24.95L60.8682 15.1217L50.4052 24.9503L41.7113 36.8495L35.018 49.979L30.3558 63.9588L27.6698 78.4506L26.8163 93.1764L27.1246 104.388L28.0709 115.557L29.7014 126.631L32.1011 137.573L35.4086 148.267L39.7704 158.281Z" fill="#231F20"/>
<path id="Vector_70" d="M81.8639 123.784L77.7854 123.881L73.9914 125.517L69.9126 125.614L66.3704 123.601L63.8131 120.368L60.2704 118.355L56.1922 118.452L52.3979 120.088L48.3191 120.185L44.7763 118.172L42.2187 114.939L38.676 112.926L34.8667 112.939L31.3342 114.464L27.5561 114.925L29.8884 129.948L33.7039 144.663L39.4803 158.72H82.2562L86.2213 149.816L89.2763 140.56L91.6077 131.095L88.0358 129.062L85.437 125.816L81.8639 123.784Z" fill="white"/>
<path id="Vector_71" d="M82.5436 159.16H39.1837L33.2763 144.773L29.452 130.015L27.0499 114.544L31.217 114.036L34.7745 112.5L38.7926 112.486L42.513 114.6L45.0706 117.833L48.4319 119.743L52.3016 119.651L56.0959 118.015L60.3832 117.913L64.1074 120.029L66.6647 123.262L70.0254 125.172L73.8951 125.08L77.6894 123.444L81.9767 123.342L85.7303 125.477L88.3292 128.722L92.1167 130.878L89.6966 140.697L86.6257 149.994L82.5436 159.16ZM39.7769 158.281H81.9687L85.8084 149.658L88.8513 140.439L91.0997 131.312L87.7431 129.402L85.1442 126.156L81.7514 124.226L77.8823 124.318L74.088 125.954L69.8004 126.056L66.0765 123.94L63.5192 120.708L60.1582 118.797L56.2888 118.889L52.4945 120.525L48.2066 120.627L44.4821 118.511L41.9245 115.278L38.5591 113.366L34.9589 113.378L31.4509 114.892L28.0618 115.306L30.3214 129.86L34.1239 144.525L39.7769 158.281ZM83.8831 69.72L83.12 75.5266L80.8655 80.936L77.2785 85.5796L72.6101 89.1471L67.1721 91.3897L61.3345 92.1484L55.4968 91.3897L50.0588 89.1471L45.3904 85.5793L41.8035 80.9357L39.5489 75.5266L38.7861 69.72L39.5492 63.9131L41.8038 58.504L45.3904 53.8604L50.0588 50.2928L55.4971 48.0502L61.3345 47.2912L67.1724 48.0502L72.6104 50.2928L77.2788 53.8607L80.8658 58.5043L83.12 63.9133L83.8831 69.72Z" fill="#231F20"/>
<path id="Vector_72" d="M61.3344 92.5917L55.3816 91.8177L49.8356 89.5306L45.075 85.8924L41.4176 81.1571L39.1183 75.6408L38.3402 69.7197L39.1183 63.7982L41.4176 58.2819L45.0753 53.5466L49.8359 49.9084L55.3816 47.6216L61.3344 46.8477L67.2873 47.6216L72.8333 49.9087L77.5939 53.5469L81.2513 58.2822L83.5506 63.7985L84.3287 69.7197L83.5506 75.6411L81.2513 81.1574L77.5936 85.8927L72.833 89.5309L67.2873 91.8177L61.3344 92.5917ZM55.612 90.9614L61.3344 91.7055L67.0569 90.9617L72.3871 88.7637L76.9634 85.2664L80.4796 80.7145L82.6894 75.4123L83.4375 69.7202L82.6894 64.0282L80.4796 58.7263L76.9637 54.1744L72.3874 50.6771L67.0569 48.4791L61.3344 47.735L55.612 48.4788L50.2818 50.6768L45.7055 54.1741L42.1893 58.726L39.9795 64.0282L39.2314 69.7202L39.9795 75.4123L42.1893 80.7142L45.7052 85.2661L50.2815 88.7637L55.612 90.9614Z" fill="#231F20"/>
<path id="Vector_73" d="M65.3428 92.1484H61.8713L56.5874 91.2245L51.8948 88.628L48.145 84.7968L45.4584 80.1608L43.8577 75.0497L43.3311 69.72L43.8577 64.3906L45.4584 59.2791L48.1453 54.6426L51.8957 50.8113L56.588 48.2152L61.8713 47.2912H65.3428V84.6714V92.1484Z" fill="white"/>
<path id="Vector_74" d="M65.3429 92.5879L61.7951 92.5811L56.5111 91.6571L56.373 91.6082L51.6805 89.0115L51.5788 88.9341L47.7625 85.0159L45.0367 80.2909L43.4183 75.0921L42.8917 69.6766L43.4363 64.2596L45.0759 59.0594L47.829 54.3358L51.5794 50.5046L51.681 50.4272L56.3733 47.8311L56.5114 47.7822L61.8714 46.8517H65.3426L65.7844 47.2912V92.1484L65.3429 92.5879ZM61.91 91.709H64.9011V47.7306H61.91L56.7376 48.635L52.167 51.164L48.5005 54.9094L45.8655 59.456L44.293 64.4778L43.7753 69.7194L44.2933 74.9612L45.8658 79.9827L48.5002 84.529L52.1664 88.2744L56.7373 90.8038L61.91 91.709Z" fill="#231F20"/>
<path id="Vector_75" d="M83.8831 69.72L83.3565 75.0494L81.7561 80.1605L79.0689 84.7974L75.3185 88.6283L70.6262 91.2248L65.3428 92.1484L60.0589 91.2245L55.3663 88.628L51.6162 84.7968L48.9296 80.1608L47.3292 75.0497L46.8026 69.72L47.3292 64.3906L48.9296 59.2791L51.6165 54.6426L55.3669 50.8113L60.0592 48.2152L65.3428 47.2912L70.6268 48.2155L75.3194 50.8119L79.0692 54.6429L81.7558 59.2791L83.3565 64.3903L83.8831 69.72Z" fill="#231F20"/>
<path id="Vector_76" d="M65.3429 92.5946L59.9093 91.6443L55.0951 88.9805L51.2337 85.0162L48.5079 80.2912L46.8895 75.0924L46.3588 69.72L46.9075 64.2599L48.5471 59.0597L51.3002 54.3361L55.0957 50.4589L59.9096 47.7954L65.3429 46.8453L70.7764 47.7957L75.5906 50.4595L79.4521 54.4237L82.1778 59.1488L83.7962 64.3475L84.3269 69.72L83.7783 75.18L82.1387 80.3802L79.3855 85.1038L75.5901 88.9811L70.7761 91.6446L65.3429 92.5946ZM60.2085 90.8047L65.3426 91.7026L70.4763 90.805L75.047 88.2759L78.7134 84.5305L81.3485 79.9839L82.9209 74.9621L83.439 69.7206L82.9209 64.4788L81.3485 59.457L78.714 54.9106L75.0478 51.1652L70.4769 48.6359L65.3429 47.738L60.2091 48.6356L55.6385 51.1646L51.972 54.91L49.337 59.4567L47.7645 64.4785L47.2468 69.72L47.7648 74.9618L49.3373 79.9836L51.972 84.5299L55.6382 88.2753L60.2085 90.8047Z" fill="#231F20"/>
<path id="Vector_77" d="M65.3429 53.7361L66.9106 53.8753L68.4306 54.2819L69.864 54.9291L71.1855 55.7807L72.3816 56.7998L73.448 57.9538L74.6794 59.6682L75.6778 61.5266L76.4439 63.4918L76.9822 65.5301L77.2994 67.6142L77.4037 69.72L77.2997 71.8254L76.9822 73.9095L76.4439 75.9481L75.6778 77.913L74.6794 79.7718L73.448 81.4861L72.3819 82.6398L71.1858 83.6589L69.864 84.5109L68.4303 85.158L66.9103 85.5646L65.3429 85.7035L63.7751 85.5646L62.2551 85.1577L60.8217 84.5109L59.5002 83.6592L58.3039 82.6398L57.2377 81.4861L56.0063 79.7715L55.0079 77.913L54.2419 75.9481L53.7035 73.9098L53.386 71.8254L53.282 69.72L53.386 67.6145L53.7035 65.5304L54.2419 63.4918L55.0079 61.5266L56.0063 59.6682L57.2377 57.9538L58.3039 56.8001L59.4999 55.781L60.8217 54.9291L62.2551 54.2819L63.7751 53.875L65.3429 53.7361Z" fill="white"/>
<path id="Vector_78" d="M65.3429 86.1447L63.6603 85.9888L62.0725 85.5579L60.5814 84.8794L59.2127 83.9927L57.9787 82.9371L56.8781 81.7413L55.6167 79.9786L54.5959 78.0718L53.8145 76.0598L53.2667 73.9754L52.9448 71.8471L52.8397 69.72L52.9492 67.5486L53.2761 65.4188L53.8298 63.333L54.6183 61.3199L55.6467 59.413L56.9123 57.6568L58.0161 56.4668L59.2593 55.4125L60.6388 54.5292L62.1403 53.8578L63.7357 53.4377L65.3426 53.2953L67.0251 53.4511L68.6129 53.8821L70.104 54.5606L71.4727 55.4473L72.7067 56.5028L73.8073 57.6987L75.0687 59.4614L76.0895 61.3682L76.8709 63.3802L77.4187 65.4646L77.7406 67.5929L77.8458 69.72L77.7362 71.8914L77.4093 74.0214L76.8556 76.1072L76.0672 78.1204L75.0387 80.0272L73.7732 81.7835L72.6693 82.9735L71.4261 84.0278L70.0466 84.9111L68.5452 85.5825L66.9497 86.0026L65.3429 86.1447ZM63.8526 85.1302L65.3429 85.2623L66.8328 85.1302L68.2807 84.7429L69.6517 84.1242L70.921 83.3063L72.0747 82.3231L73.1046 81.2087L74.3036 79.5395L75.2758 77.7296L76.0233 75.8125L76.5493 73.8204L76.86 71.7815L76.9619 69.72L76.86 67.6582L76.5493 65.6192L76.0233 63.6274L75.2761 61.7107L74.3036 59.9008L73.1046 58.2315L72.0747 57.1169L70.921 56.1337L69.652 55.3158L68.2816 54.6971L66.8334 54.3095L65.3431 54.1774L63.8532 54.3095L62.4053 54.6968L61.0346 55.3155L59.7653 56.1334L58.6116 57.1166L57.5817 58.231L56.3827 59.9002L55.4105 61.7101L54.663 63.6271L54.137 65.6192L53.8263 67.6582L53.7244 69.7197L53.8263 71.7815L54.137 73.8204L54.663 75.8122L55.4102 77.729L56.3827 79.5389L57.5817 81.2081L58.6116 82.3228L59.7653 83.306L61.0343 84.1239L62.4047 84.7426L63.8526 85.1302Z" fill="#231F20"/>
</g>
</g>
</g>
<defs>
<clipPath id="clip0_33_262">
<rect width="211.304" height="155.072" fill="white" transform="translate(20.5797 53.0435)"/>
</clipPath>
<clipPath id="clip1_33_262">
<rect width="118.261" height="23.7681" fill="white" transform="translate(157.391 161.739)"/>
</clipPath>
<clipPath id="clip2_33_262">
<rect width="117.681" height="23.4783" fill="white" transform="translate(173.043 139.13)"/>
</clipPath>
<clipPath id="clip3_33_262">
<rect width="117.681" height="23.4783" fill="white" transform="translate(173.043 184.638)"/>
</clipPath>
<clipPath id="clip4_33_262">
<rect width="233.333" height="117.101" fill="white" transform="translate(55.942 30.4348)"/>
</clipPath>
<clipPath id="clip5_33_262">
<rect width="4.34783" height="4.34783" fill="white" transform="translate(286.087 171.594)"/>
</clipPath>
<clipPath id="clip6_33_262">
<rect width="103.188" height="194.203" fill="white" transform="translate(9.27536 13.913)"/>
</clipPath>
</defs>
</svg>
