<svg width="96" height="96" viewBox="0 0 96 96" fill="none" xmlns="http://www.w3.org/2000/svg">
<g id="icons8-time">
<path id="Vector" d="M45 48C43.4087 48 41.8826 48.6321 40.7574 49.7574C39.6321 50.8826 39 52.4087 39 54C39 55.5913 39.6321 57.1174 40.7574 58.2426C41.8826 59.3679 43.4087 60 45 60C46.5913 60 48.1174 59.3679 49.2426 58.2426C50.3679 57.1174 51 55.5913 51 54C51 52.4087 50.3679 50.8826 49.2426 49.7574C48.1174 48.6321 46.5913 48 45 48Z" fill="url(#paint0_linear_33_257)"/>
<path id="Vector_2" d="M45 27C30.1125 27 18 39.1125 18 54C18 68.8875 30.1125 81 45 81C59.8875 81 72 68.8875 72 54C72 39.1125 59.8875 27 45 27ZM68.9235 55.5C68.5815 60.987 66.399 65.97 62.9715 69.8505L60.909 67.788L58.788 69.909L60.8505 71.9715C56.97 75.399 51.9855 77.5815 46.4985 77.9235V75H43.4985V77.9235C38.0115 77.5815 33.027 75.399 29.1465 71.9715L31.209 69.909L29.088 67.788L27.0255 69.8505C23.5995 65.97 21.4155 60.9855 21.0735 55.5H24V52.5H21.0765C21.4185 47.013 23.601 42.03 27.0285 38.1495L29.091 40.212L31.212 38.091L29.1495 36.0285C33.03 32.601 38.0145 30.4185 43.5015 30.0765V33H46.5015V30.0765C51.9885 30.4185 56.973 32.601 60.8535 36.0285L58.791 38.091L60.912 40.212L62.9745 38.1495C66.4005 42.03 68.5845 47.0145 68.9265 52.5H66V55.5H68.9235Z" fill="url(#paint1_linear_33_257)"/>
<path id="Vector_3" d="M46.5 46.6515V40.5H43.5V46.6515C40.0815 47.349 37.5 50.3775 37.5 54C37.5 58.1355 40.8645 61.5 45 61.5C48.6225 61.5 51.651 58.9185 52.3485 55.5H58.5V52.5H52.3485C51.75 49.566 49.434 47.25 46.5 46.6515ZM45 58.5C42.519 58.5 40.5 56.481 40.5 54C40.5 51.519 42.519 49.5 45 49.5C47.481 49.5 49.5 51.519 49.5 54C49.5 56.481 47.481 58.5 45 58.5Z" fill="url(#paint2_linear_33_257)"/>
<path id="Vector_4" d="M81 49.5H77.685C75.549 33.9105 62.4915 21.7575 46.5 21.0375V20.787C49.08 20.1165 51 17.7885 51 15C51 11.691 48.309 9 45 9C41.691 9 39 11.691 39 15C39 17.7885 40.92 20.1165 43.5 20.787V21.0375C25.998 21.825 12 36.3075 12 54C12 72.1965 26.8035 87 45 87C61.6695 87 75.483 74.574 77.685 58.5H81C82.6545 58.5 84 57.1545 84 55.5V52.5C84 50.8455 82.6545 49.5 81 49.5ZM42 15C42 13.3455 43.3455 12 45 12C46.6545 12 48 13.3455 48 15C48 16.6545 46.6545 18 45 18C43.3455 18 42 16.6545 42 15ZM45 84C28.458 84 15 70.542 15 54C15 37.458 28.458 24 45 24C61.542 24 75 37.458 75 54C75 70.542 61.542 84 45 84ZM81 55.5H77.9625C77.985 55.002 78 54.5025 78 54C78 53.4975 77.985 52.998 77.9625 52.5H81V55.5Z" fill="url(#paint3_linear_33_257)"/>
</g>
<defs>
<linearGradient id="paint0_linear_33_257" x1="45" y1="49.5" x2="45" y2="58.3125" gradientUnits="userSpaceOnUse">
<stop stop-color="#8AB4FF"/>
<stop offset="1" stop-color="#E492FF"/>
</linearGradient>
<linearGradient id="paint1_linear_33_257" x1="45" y1="8.25" x2="45" y2="88.587" gradientUnits="userSpaceOnUse">
<stop stop-color="#50A4F2"/>
<stop offset="1" stop-color="#C822FF"/>
</linearGradient>
<linearGradient id="paint2_linear_33_257" x1="48" y1="8.25" x2="48" y2="88.587" gradientUnits="userSpaceOnUse">
<stop stop-color="#50A4F2"/>
<stop offset="1" stop-color="#C822FF"/>
</linearGradient>
<linearGradient id="paint3_linear_33_257" x1="48" y1="8.25" x2="48" y2="88.587" gradientUnits="userSpaceOnUse">
<stop stop-color="#50A4F2"/>
<stop offset="1" stop-color="#C822FF"/>
</linearGradient>
</defs>
</svg>
