<svg width="96" height="96" viewBox="0 0 96 96" fill="none" xmlns="http://www.w3.org/2000/svg">
<g id="icons8-adaptive-degradation">
<path id="Vector" d="M63 33H24C23.1705 33 22.5 33.672 22.5 34.5V39C22.5 39.828 23.1705 40.5 24 40.5H63C63.8295 40.5 64.5 39.828 64.5 39V34.5C64.5 33.672 63.8295 33 63 33Z" fill="url(#paint0_linear_33_241)"/>
<path id="Vector_2" d="M64.5 46.5H52.5H52.467L45.0045 54H45V54.003V87H78H78.033L85.4955 79.5H85.5V79.497V46.5H64.5ZM64.5 49.5H80.379L75.879 54H55.5V49.5H64.5ZM55.5 57H75V76.5H55.5V57ZM52.5 50.7195V54H49.236L52.5 50.7195ZM48 57H52.5V77.379L48 81.879V57ZM50.121 84L54.621 79.5H75V84H50.121ZM78 82.7805V79.5H81.264L78 82.7805ZM82.5 76.5H78V56.121L82.5 51.621V76.5Z" fill="url(#paint1_linear_33_241)"/>
<path id="Vector_3" d="M25.5 17.004V15H16.5V17.004V18H25.5V17.004Z" fill="url(#paint2_linear_33_241)"/>
<path id="Vector_4" d="M34.5 17.004V15H28.5V17.004V18H34.5V17.004Z" fill="url(#paint3_linear_33_241)"/>
<path id="Vector_5" d="M19.5 30H67.5V43.5H70.5V27H16.5V58.5H42V55.5H19.5V30Z" fill="url(#paint4_linear_33_241)"/>
<path id="Vector_6" d="M42 43.5H22.5V46.5H42V43.5Z" fill="url(#paint5_linear_33_241)"/>
<path id="Vector_7" d="M42 49.5H22.5V52.5H42V49.5Z" fill="#C822FF"/>
<path id="Vector_8" d="M13.5 60V24H73.5V43.5H76.5V13.5C76.5 11.019 74.481 9 72 9H15C12.519 9 10.5 11.019 10.5 13.5V60C10.5 62.481 12.519 64.5 15 64.5H16.5V66C16.5 67.6545 17.8455 69 19.5 69H42V66H19.5V64.5H42V61.5H15C14.172 61.5 13.5 60.8265 13.5 60ZM15 12H72C72.828 12 73.5 12.6735 73.5 13.5V21H13.5V13.5C13.5 12.6735 14.172 12 15 12Z" fill="url(#paint6_linear_33_241)"/>
</g>
<defs>
<linearGradient id="paint0_linear_33_241" x1="43.5" y1="33.2235" x2="43.5" y2="40.263" gradientUnits="userSpaceOnUse">
<stop stop-color="#8AB4FF"/>
<stop offset="1" stop-color="#E492FF"/>
</linearGradient>
<linearGradient id="paint1_linear_33_241" x1="65.25" y1="8.5845" x2="65.25" y2="87.8715" gradientUnits="userSpaceOnUse">
<stop stop-color="#8AB4FF"/>
<stop offset="1" stop-color="#C822FF"/>
</linearGradient>
<linearGradient id="paint2_linear_33_241" x1="21" y1="8.5845" x2="21" y2="87.8715" gradientUnits="userSpaceOnUse">
<stop stop-color="#8AB4FF"/>
<stop offset="1" stop-color="#C822FF"/>
</linearGradient>
<linearGradient id="paint3_linear_33_241" x1="31.5" y1="8.5845" x2="31.5" y2="87.8715" gradientUnits="userSpaceOnUse">
<stop stop-color="#8AB4FF"/>
<stop offset="1" stop-color="#C822FF"/>
</linearGradient>
<linearGradient id="paint4_linear_33_241" x1="43.5" y1="8.5845" x2="43.5" y2="87.8715" gradientUnits="userSpaceOnUse">
<stop stop-color="#8AB4FF"/>
<stop offset="1" stop-color="#C822FF"/>
</linearGradient>
<linearGradient id="paint5_linear_33_241" x1="32.25" y1="8.5845" x2="32.25" y2="87.8715" gradientUnits="userSpaceOnUse">
<stop stop-color="#8AB4FF"/>
<stop offset="1" stop-color="#C822FF"/>
</linearGradient>
<linearGradient id="paint6_linear_33_241" x1="43.5" y1="8.5845" x2="43.5" y2="87.8715" gradientUnits="userSpaceOnUse">
<stop stop-color="#8AB4FF"/>
<stop offset="1" stop-color="#C822FF"/>
</linearGradient>
</defs>
</svg>
