<svg xmlns="http://www.w3.org/2000/svg"  viewBox="0 0 64 64" width="96px" height="96px"><linearGradient id="yPH3mSaKfxdxxNjuiWxwVa" x1="2617.068" x2="2413.07" y1="280.999" y2="280.999" gradientTransform="matrix(0 -.2143 -1 0 309 572.428)" gradientUnits="userSpaceOnUse" spreadMethod="reflect"><stop offset="0" stop-color="#8ab4ff"/><stop offset="1" stop-color="#e492ff"/></linearGradient><path fill="url(#yPH3mSaKfxdxxNjuiWxwVa)" d="M40,24.999v14.999v5h4c0.824,0,1.294,0.941,0.8,1.6l-5,7.004c-0.4,0.533-1.2,0.533-1.6,0 l-5-7.004c-0.494-0.659-0.024-1.6,0.8-1.6h4v-5V24.999C38,18.939,33.07,14,27,14H11v-2h16C34.17,12,40,17.829,40,24.999z"/><linearGradient id="yPH3mSaKfxdxxNjuiWxwVb" x1="631.392" x2="577.276" y1="296" y2="296" gradientTransform="matrix(0 -1 -1 0 326 638)" gradientUnits="userSpaceOnUse" spreadMethod="reflect"><stop offset="0" stop-color="#1A6DFF"/><stop offset="1" stop-color="#C822FF"/></linearGradient><path fill="url(#yPH3mSaKfxdxxNjuiWxwVb)" d="M27.31,7H27H10c-1.657,0-3,1.343-3,3v6c0,1.657,1.343,3,3,3h17c1.46,0,2.84,0.51,3.96,1.49 C32.26,21.64,33,23.28,33,25v16l-5.922,0c-0.682,0-1.355,0.303-1.732,0.872c-0.49,0.741-0.457,1.671,0.084,2.348l10.4,13.25 C36.6,58.44,37.75,59,39,59s2.4-0.56,3.16-1.53l10.41-13.25c0.541-0.676,0.574-1.607,0.084-2.348C52.277,41.303,51.604,41,50.922,41 L45,41V25C45,15.24,37.06,7.17,27.31,7z M9,10c0-0.552,0.448-1,1-1h17h0.27C35.94,9.15,43,16.32,43,25v18h7.99l-10.4,13.23 C40.21,56.72,39.63,57,39,57s-1.21-0.28-1.59-0.77L27,42.99L35,43l0-17.796c0-1.743-0.476-3.482-1.507-4.888 c-1.56-2.129-3.967-3.319-6.493-3.306V17H10c-0.552,0-1-0.448-1-1V10z"/></svg>