<svg width="96" height="96" viewBox="0 0 96 96" fill="none" xmlns="http://www.w3.org/2000/svg">
<g id="icons8-plus-orange">
<path id="Vector" d="M52.5 87H43.5C41.019 87 39 84.981 39 82.5V57H13.5C11.019 57 9 54.981 9 52.5V43.5C9 41.019 11.019 39 13.5 39H39V13.5C39 11.019 41.019 9 43.5 9H52.5C54.981 9 57 11.019 57 13.5V39H82.5C84.981 39 87 41.019 87 43.5V52.5C87 54.981 84.981 57 82.5 57H57V82.5C57 84.981 54.981 87 52.5 87ZM13.5 42C12.672 42 12 42.672 12 43.5V52.5C12 53.328 12.672 54 13.5 54H42V82.5C42 83.328 42.672 84 43.5 84H52.5C53.328 84 54 83.328 54 82.5V54H82.5C83.328 54 84 53.328 84 52.5V43.5C84 42.672 83.328 42 82.5 42H54V13.5C54 12.672 53.328 12 52.5 12H43.5C42.672 12 42 12.672 42 13.5V42H13.5Z" fill="#FFB802"/>
<path id="Vector_2" d="M79.5 45H51V16.5C51 15.672 50.328 15 49.5 15H46.5C45.672 15 45 15.672 45 16.5V45H16.5C15.672 45 15 45.672 15 46.5V49.5C15 50.328 15.672 51 16.5 51H45V79.5C45 80.328 45.672 81 46.5 81H49.5C50.328 81 51 80.328 51 79.5V51H79.5C80.328 51 81 50.328 81 49.5V46.5C81 45.672 80.328 45 79.5 45Z" fill="url(#paint0_linear_57_8)"/>
</g>
<defs>
<linearGradient id="paint0_linear_57_8" x1="48" y1="13.5" x2="48" y2="82.536" gradientUnits="userSpaceOnUse">
<stop stop-color="#FFD08A"/>
<stop offset="1" stop-color="#FFC092"/>
</linearGradient>
</defs>
</svg>
