<svg xmlns="http://www.w3.org/2000/svg"  viewBox="0 0 64 64" width="96px" height="96px"><linearGradient id="s4HuB5t4LT6DfX6EdYCpca" x1="24.5" x2="24.5" y1="4.167" y2="59.312" gradientUnits="userSpaceOnUse" spreadMethod="reflect"><stop offset="0" stop-color="#1A6DFF"/><stop offset="1" stop-color="#C822FF"/></linearGradient><path fill="url(#s4HuB5t4LT6DfX6EdYCpca)" d="M13,16c0-1.654,1.345-3,3-3h10v4.042c0,0.695,0.363,1.323,0.972,1.68 c0.314,0.185,0.669,0.276,1.023,0.276c0.342,0,0.684-0.086,0.99-0.258l7.515-4.213C37.438,14.001,38,13.056,38,12 s-0.562-2.001-1.5-2.527L28.985,5.26c-0.625-0.35-1.396-0.344-2.014,0.019C26.363,5.635,26,6.263,26,6.958V11H16 c-2.757,0-5,2.243-5,5v4h2V16z M28.007,7.004l7.515,4.213C35.953,11.459,36,11.845,36,12s-0.047,0.541-0.479,0.783L28,17.042 L28.007,7.004z"/><linearGradient id="s4HuB5t4LT6DfX6EdYCpcb" x1="12.501" x2="12.501" y1="4.167" y2="59.312" gradientUnits="userSpaceOnUse" spreadMethod="reflect"><stop offset="0" stop-color="#1A6DFF"/><stop offset="1" stop-color="#C822FF"/></linearGradient><path fill="url(#s4HuB5t4LT6DfX6EdYCpcb)" d="M13,48V38h4.042c0.695,0,1.323-0.363,1.68-0.972c0.361-0.618,0.369-1.39,0.019-2.014 L14.527,27.5C14.001,26.561,13.056,26,12,26c-1.056,0-2.001,0.561-2.527,1.5l-4.213,7.515c-0.351,0.624-0.343,1.396,0.019,2.014 C5.634,37.637,6.261,38,6.957,38H11v10c0,2.757,2.243,5,5,5h4v-2h-4C14.345,51,13,49.654,13,48z M11.217,28.478 C11.459,28.046,11.844,28,12,28s0.541,0.046,0.783,0.479L17.042,36L7.004,35.993L11.217,28.478z"/><linearGradient id="s4HuB5t4LT6DfX6EdYCpcc" x1="39.5" x2="39.5" y1="4.167" y2="59.312" gradientUnits="userSpaceOnUse" spreadMethod="reflect"><stop offset="0" stop-color="#1A6DFF"/><stop offset="1" stop-color="#C822FF"/></linearGradient><path fill="url(#s4HuB5t4LT6DfX6EdYCpcc)" d="M51,48c0,1.654-1.346,3-3,3H38v-4.042c0-0.695-0.363-1.323-0.972-1.68 c-0.618-0.363-1.389-0.369-2.014-0.019L27.5,49.473C26.56,49.999,26,50.944,26,52c0,1.057,0.561,2.001,1.5,2.527l7.515,4.213 c0.307,0.172,0.648,0.258,0.99,0.258c0.354,0,0.709-0.092,1.024-0.276C37.637,58.365,38,57.737,38,57.042V53h10c2.757,0,5-2.243,5-5 v-4h-2V48z M35.993,56.996l-7.515-4.213C28.046,52.541,28,52.155,28,52s0.046-0.541,0.479-0.783L36,46.958L35.993,56.996z"/><linearGradient id="s4HuB5t4LT6DfX6EdYCpcd" x1="51.499" x2="51.499" y1="4.167" y2="59.312" gradientUnits="userSpaceOnUse" spreadMethod="reflect"><stop offset="0" stop-color="#1A6DFF"/><stop offset="1" stop-color="#C822FF"/></linearGradient><path fill="url(#s4HuB5t4LT6DfX6EdYCpcd)" d="M58.721,26.972C58.365,26.363,57.737,26,57.042,26H53V16c0-2.757-2.243-5-5-5h-4v2h4 c1.654,0,3,1.346,3,3v10h-4.043c-0.695,0-1.322,0.363-1.679,0.972c-0.361,0.617-0.369,1.39-0.019,2.014l4.213,7.515 C49.999,37.439,50.944,38,52,38c1.057,0,2.001-0.561,2.527-1.5l4.213-7.515C59.091,28.361,59.083,27.59,58.721,26.972z M52.783,35.521C52.541,35.954,52.155,36,52,36s-0.541-0.046-0.783-0.479L46.957,28l10.039,0.007L52.783,35.521z"/><linearGradient id="s4HuB5t4LT6DfX6EdYCpce" x1="32" x2="32" y1="4.167" y2="59.312" gradientUnits="userSpaceOnUse" spreadMethod="reflect"><stop offset="0" stop-color="#1A6DFF"/><stop offset="1" stop-color="#C822FF"/></linearGradient><path fill="url(#s4HuB5t4LT6DfX6EdYCpce)" d="M39,28c0-1.657-1.343-3-3-3h-8c-1.657,0-3,1.343-3,3v8c0,1.657,1.343,3,3,3h8 c1.657,0,3-1.343,3-3V28z M37,36c0,0.552-0.448,1-1,1h-8c-0.552,0-1-0.448-1-1v-8c0-0.552,0.448-1,1-1h8c0.552,0,1,0.448,1,1V36z"/><linearGradient id="s4HuB5t4LT6DfX6EdYCpcf" x1="32" x2="32" y1="27.833" y2="35.833" gradientUnits="userSpaceOnUse" spreadMethod="reflect"><stop offset="0" stop-color="#8ab4ff"/><stop offset="1" stop-color="#e492ff"/></linearGradient><path fill="url(#s4HuB5t4LT6DfX6EdYCpcf)" d="M35,34c0,0.552-0.448,1-1,1h-4c-0.552,0-1-0.448-1-1v-4c0-0.552,0.448-1,1-1h4 c0.552,0,1,0.448,1,1V34z"/></svg>