<svg width="96" height="96" viewBox="0 0 96 96" fill="none" xmlns="http://www.w3.org/2000/svg">
<g id="icons8-moodle">
<path id="Vector" d="M70.5 29.88C64.44 29.88 58.71 32.52 54.75 36.975C53.04 35.055 50.985 33.495 48.735 32.31C49.455 31.605 50.19 30.9 50.97 30.21C51.465 29.745 51.99 29.31 52.5 28.875C51.645 27.015 50.46 25.335 49.05 23.895L63 13.5L29.88 15.93L1.5 32.88H7.5V55.035C6.6 56.34 6 58.725 6 61.5C6 65.64 7.35 69 9 69C10.65 69 12 65.64 12 61.5C12 58.725 11.4 56.34 10.5 55.035V32.88H18.39C18.15 34.05 18 35.265 18 36.525C18 37.785 18.135 39.015 18.375 40.2C19.05 40.17 19.725 40.155 20.415 40.155H20.91C19.005 43.335 17.88 47.04 17.88 51V77.25H28.62V51C28.62 47.16 30.705 43.815 33.81 42.015C36.285 42.81 38.31 43.83 39.72 45C40.125 43.74 40.815 42.39 41.67 40.98C46.11 42.15 49.38 46.2 49.38 51V77.25H60.12V51C60.12 45.27 64.77 40.62 70.5 40.62C76.23 40.62 80.88 45.27 80.88 51V77.25H91.62V51C91.62 39.36 82.14 29.88 70.5 29.88ZM25.62 51V74.25H20.88V51C20.88 46.995 22.215 43.305 24.42 40.305C26.43 40.455 28.32 40.71 30.075 41.055C27.345 43.5 25.62 47.055 25.62 51ZM35.985 29.88H12.375L30.81 18.87L52.95 17.25L35.985 29.88ZM88.62 74.25H83.88V51C83.88 43.62 77.88 37.62 70.5 37.62C63.12 37.62 57.12 43.62 57.12 51V74.25H52.38V51C52.38 45.165 48.63 40.215 43.425 38.385C44.355 37.125 45.405 35.85 46.575 34.56C50.025 36.165 52.89 38.805 54.75 42.09C57.87 36.6 63.75 32.88 70.5 32.88C80.49 32.88 88.62 41.01 88.62 51V74.25V74.25Z" fill="url(#paint0_linear_33_360)"/>
<path id="Vector_2" d="M52.95 17.25L35.985 29.88H12.375L30.81 18.87L52.95 17.25Z" fill="url(#paint1_linear_33_360)"/>
</g>
<defs>
<linearGradient id="paint0_linear_33_360" x1="46.56" y1="13.5" x2="46.56" y2="77.25" gradientUnits="userSpaceOnUse">
<stop stop-color="#163773"/>
<stop offset="1" stop-color="#C822FF"/>
</linearGradient>
<linearGradient id="paint1_linear_33_360" x1="32.6625" y1="17.25" x2="32.6625" y2="29.88" gradientUnits="userSpaceOnUse">
<stop stop-color="#12336D"/>
<stop offset="1" stop-color="#C822FF"/>
</linearGradient>
</defs>
</svg>
