<svg width="300" height="221" viewBox="0 0 300 221" fill="none" xmlns="http://www.w3.org/2000/svg">
<g id="dazzle-line-portfolio">
<g id="Group">
<g id="Frame" clip-path="url(#clip0_103_5)">
<g id="Group_2">
<path id="Vector" d="M214.417 196.956L200.066 198.609L185.511 199.192L170.95 199.558L156.385 199.79L141.817 199.92L127.246 199.962L112.676 199.92L98.1078 199.79L83.5407 199.558L68.9784 199.192L54.425 198.609L40.0762 196.956L54.4267 195.304L68.9814 194.721L83.5424 194.355L98.1078 194.123L112.676 193.993L127.246 193.951L141.817 193.993L156.385 194.123L170.952 194.355L185.514 194.721L200.068 195.304L214.417 196.956Z" fill="#231F20"/>
<path id="Vector_2" d="M127.248 200.58L112.674 200.538L98.1018 200.407L83.53 200.175L68.9617 199.809L54.3489 199.222L40 197.569V196.344L54.4002 194.687L68.9548 194.104L83.5257 193.738L98.0975 193.505L112.67 193.375L127.244 193.333L141.818 193.375L156.391 193.505L170.963 193.738L185.531 194.104L200.144 194.691L214.492 196.344V197.569L200.093 199.226L185.538 199.809L170.967 200.175L156.395 200.408L141.823 200.538L127.248 200.58L127.248 200.58ZM54.4764 197.993L69.0053 198.575L83.5578 198.941L98.1189 199.173L112.683 199.303L127.249 199.345L141.815 199.303L156.379 199.173L170.94 198.941L185.495 198.575L200.015 197.994L209.02 196.957L200.017 195.92L185.488 195.338L170.936 194.972L156.375 194.74L141.811 194.61L127.245 194.568L112.678 194.61L98.1146 194.74L83.5536 194.972L68.9985 195.338L54.4789 195.919L45.4744 196.956L54.4772 197.993H54.4764Z" fill="#231F20"/>
</g>
</g>
</g>
<g id="Group_3">
<g id="Frame_2" clip-path="url(#clip1_103_5)">
<path id="Vector_3" d="M278.162 117.593L277.224 119.474L276.286 121.355L275.349 123.235L274.411 125.117L273.472 127L272.532 128.883L271.801 130.35L271.07 131.817L270.339 133.284L269.607 134.751L268.875 136.22L268.142 137.689L263.719 146.56L259.296 155.43L254.873 164.301L250.45 173.172L246.026 182.044L241.602 190.916L237.962 189.1L234.32 187.285L230.678 185.468L227.037 183.652L223.393 181.835L219.749 180.018L218.148 179.22L216.548 178.421L214.947 177.623L213.346 176.824L211.743 176.025L210.141 175.226L207.424 173.87L204.706 172.515L201.987 171.159L199.27 169.803L196.55 168.446L193.83 167.089L192.654 166.502L191.477 165.916L190.3 165.329L189.123 164.742L187.944 164.154L186.765 163.566L188.178 160.732L189.592 157.897L191.006 155.06L192.419 152.225L193.833 149.388L195.248 146.551L199.927 137.167L204.605 127.783L209.284 118.399L213.963 109.014L218.643 99.6292L223.322 90.2437L232.461 94.8015L241.601 99.3597L250.741 103.918L259.88 108.476L269.021 113.034L278.162 117.593Z" fill="#50A4F2"/>
<path id="Vector_4" d="M241.408 191.304L186.572 163.955L186.377 163.372L222.933 90.0499L223.516 89.8551L278.356 117.205L278.551 117.787L241.991 191.11L241.408 191.305V191.304ZM187.348 163.371L241.407 190.333L277.58 117.788L223.517 90.8261L187.348 163.371Z" fill="#231F20"/>
<path id="Vector_5" d="M220.091 156.674L224.837 151.992L229.582 147.312L234.329 142.63L239.076 137.948L243.823 133.265L248.571 128.582L242.003 129.725L235.436 130.868L228.868 132.012L222.3 133.155L215.732 134.299L209.163 135.442L209.084 135.438L209.006 135.44L208.928 135.449L208.851 135.466L208.777 135.49L208.706 135.522L208.14 137.489L208.492 139.607L209.096 141.67L209.844 143.686L210.698 145.661L211.642 147.595L212.667 149.487L213.778 151.33L214.984 153.111L216.312 154.801L217.832 156.318L219.761 157L219.828 156.96L219.891 156.914L219.949 156.861L220.001 156.803L220.049 156.741L220.091 156.674Z" fill="#231F20"/>
<path id="Vector_6" d="M219.617 157.409L217.688 156.728L217.526 156.626L215.971 155.07L214.624 153.354L213.418 151.573L212.296 149.711L211.26 147.802L210.308 145.851L209.446 143.859L208.679 141.791L208.064 139.678L207.712 137.56L207.723 137.369L208.289 135.401L208.529 135.125L208.76 135.041L209.072 135.004L209.137 135.006L248.496 128.154L248.876 128.891L220.048 157.335L219.98 157.374L219.617 157.409L219.617 157.409ZM218.069 155.942L219.679 156.51L219.786 156.365L247.277 129.248L209.14 135.876L209.079 135.873L209.057 135.873L208.585 137.514L208.916 139.51L209.508 141.533L210.251 143.535L211.097 145.488L212.032 147.405L213.049 149.28L214.15 151.105L215.335 152.854L216.638 154.513L218.069 155.942V155.942Z" fill="#231F20"/>
<path id="Vector_7" d="M272.532 128.883L271.801 130.35L271.07 131.817L270.339 133.284L269.607 134.751L268.875 136.22L268.142 137.689L266.713 135.192L265.283 132.694L263.853 130.195L262.424 127.696L260.993 125.197L259.562 122.696L261.723 123.727L263.884 124.758L266.046 125.789L268.207 126.82L270.37 127.851L272.532 128.883Z" fill="white"/>
<path id="Vector_8" d="M267.765 137.905L259.186 122.912L259.749 122.304L272.719 128.491L272.921 129.076L268.531 137.883L267.766 137.905L267.765 137.905ZM260.629 123.687L268.116 136.769L271.947 129.084L260.629 123.687Z" fill="#231F20"/>
<path id="Vector_9" d="M247.256 147.748L246.601 145.343L245.343 143.192L243.571 141.441L241.407 140.205L238.998 139.572L236.506 139.587L234.102 140.243L231.952 141.501L230.2 143.273L228.965 145.437L228.332 147.847L228.347 150.339L229.003 152.743L230.26 154.894L232.033 156.646L234.196 157.882L236.606 158.515L239.097 158.499L241.501 157.844L243.652 156.586L245.403 154.813L246.639 152.65L247.271 150.24L247.256 147.748Z" fill="white"/>
<path id="Vector_10" d="M236.608 158.949L236.495 158.935L234.086 158.302L233.981 158.259L231.818 157.023L231.728 156.955L229.955 155.203L229.886 155.114L228.628 152.963L228.584 152.858L227.929 150.453L227.913 150.342L227.898 147.85L227.912 147.737L228.545 145.327L228.588 145.222L229.824 143.058L229.892 142.968L231.643 141.196L231.733 141.126L233.883 139.868L233.988 139.824L236.392 139.169L236.504 139.153L238.995 139.138L239.108 139.152L241.518 139.785L241.623 139.828L243.786 141.064L243.876 141.132L245.648 142.883L245.718 142.973L246.976 145.124L247.02 145.229L247.675 147.634L247.69 147.745L247.706 150.237L247.691 150.35L247.059 152.76L247.016 152.865L245.78 155.029L245.712 155.118L243.96 156.891L243.871 156.961L241.72 158.219L241.615 158.263L239.211 158.918L239.1 158.934L236.608 158.949L236.608 158.949ZM234.362 157.477L236.66 158.08L239.038 158.065L241.331 157.44L243.383 156.24L245.054 154.549L246.233 152.484L246.837 150.185L246.822 147.807L246.197 145.513L244.997 143.461L243.306 141.79L241.241 140.61L238.942 140.007L236.565 140.021L234.272 140.647L232.22 141.847L230.549 143.538L229.37 145.603L228.766 147.902L228.781 150.28L229.406 152.574L230.606 154.626L232.297 156.297L234.362 157.477Z" fill="#231F20"/>
<path id="Vector_11" d="M199.913 154.658L200.007 157.099L199.62 159.511L198.764 161.799L197.478 163.876L195.813 165.663L193.83 167.089L192.654 166.502L191.477 165.916L190.3 165.329L189.123 164.742L187.944 164.154L186.765 163.566L188.178 160.732L189.592 157.897L191.006 155.06L192.419 152.225L193.833 149.388L195.248 146.551L196.442 147.612L197.491 148.816L198.376 150.146L199.081 151.58L199.596 153.092L199.913 154.658Z" fill="white"/>
<g id="Group_4">
<path id="Vector_12" d="M193.637 167.478L186.572 163.955L186.377 163.372L194.859 146.357L195.536 146.226L196.77 147.326L197.852 148.576L198.765 149.954L199.492 151.439L200.022 153.005L200.347 154.641L200.441 157.082L200.436 157.168L200.026 159.663L199.133 162.027L197.796 164.172L196.066 166.015L194.083 167.442L193.636 167.478L193.637 167.478ZM187.348 163.371L193.789 166.584L195.525 165.335L197.132 163.611L198.373 161.607L199.198 159.4L199.572 157.073L199.481 154.71L199.176 153.206L198.68 151.746L197.999 150.364L197.145 149.08L196.133 147.918L195.384 147.252L187.348 163.371ZM237.572 112.403L236.025 113.2L234.478 113.996L232.932 114.792L231.384 115.589L229.835 116.386L228.287 117.184L227.491 115.637L226.694 114.089L225.898 112.543L225.102 110.995L224.305 109.446L223.507 107.897L225.054 107.101L226.601 106.304L228.147 105.508L229.695 104.712L231.243 103.914L232.792 103.117L233.588 104.664L234.385 106.211L235.18 107.758L235.977 109.305L236.774 110.854L237.572 112.403Z" fill="#231F20"/>
<path id="Vector_13" d="M228.486 117.57L227.901 117.382L223.121 108.096L223.309 107.511L232.593 102.731L233.178 102.918L237.958 112.204L237.77 112.789L228.486 117.57ZM224.092 108.085L228.474 116.599L236.987 112.216L232.605 103.702L224.092 108.084V108.085ZM221.582 172.066L221.277 173.391L220.972 174.715L220.666 176.039L220.361 177.365L220.055 178.692L219.749 180.018L218.148 179.22L216.548 178.421L214.947 177.623L213.346 176.824L211.743 176.025L210.141 175.226L210.351 174.31L210.562 173.393L210.773 172.476L210.984 171.559L211.195 170.64L211.406 169.721L213.101 170.112L214.797 170.503L216.492 170.893L218.188 171.284L219.885 171.675L221.582 172.066Z" fill="#231F20"/>
<path id="Vector_14" d="M219.555 180.407L209.947 175.614L209.718 175.128L210.983 169.624L211.504 169.298L221.68 171.643L222.006 172.164L220.173 180.116L219.556 180.407H219.555ZM210.64 174.99L219.45 179.384L221.062 172.392L211.732 170.242L210.64 174.99Z" fill="#231F20"/>
</g>
<path id="Vector_15" d="M233.945 114.27L232.398 115.067L230.851 115.863L229.305 116.659L227.757 117.456L226.209 118.254L224.66 119.051L223.864 117.504L223.067 115.957L222.271 114.41L221.475 112.862L220.677 111.314L219.88 109.765L221.427 108.968L222.974 108.172L224.52 107.376L226.068 106.579L227.616 105.782L229.165 104.984L229.961 106.531L230.758 108.078L231.554 109.625L232.35 111.173L233.148 112.722L233.945 114.27Z" fill="white"/>
<path id="Vector_16" d="M224.859 119.437L224.274 119.25L219.494 109.963L219.682 109.379L228.966 104.598L229.551 104.786L234.331 114.072L234.144 114.657L224.859 119.437H224.859ZM220.465 109.952L224.847 118.466L233.36 114.084L228.977 105.569L220.465 109.952H220.465Z" fill="#231F20"/>
</g>
</g>
<g id="Group_5">
<g id="Frame_3" clip-path="url(#clip2_103_5)">
<path id="Vector_17" d="M51.8827 87.3557H88.9286L90.0002 87.4461L91.0414 87.716L92.0221 88.1571L92.915 88.7567L93.6943 89.4978L94.338 90.3598L95.197 91.7391L96.0557 93.1178L96.9146 94.4968L97.7742 95.8769L98.6343 97.258L99.4945 98.639L100.197 99.5792L101.047 100.388L102.021 101.042L103.091 101.523L104.227 101.818L105.396 101.916H195.609L196.659 102.054L197.637 102.459L198.477 103.105L199.122 103.945L199.528 104.923L199.665 105.974V196.667H56.1475L55.4757 195.658L54.803 194.648L54.1303 193.638L53.4576 192.628L52.7834 191.616L52.1096 190.604L52.0716 173.396L52.0339 156.189L51.996 138.982L51.9583 121.773L51.9204 104.565L51.8827 87.3557Z" fill="white"/>
<path id="Vector_18" d="M199.665 197.101H56.1475L55.7859 196.908L51.7477 190.845L51.6747 190.605L51.4482 87.3565L51.8827 86.9209L88.9651 86.9223L90.1092 87.0252L91.2196 87.3194L92.2646 87.7962L93.2145 88.4419L94.0425 89.2381L94.7068 90.1302L99.8537 98.394L100.523 99.2899L101.32 100.048L102.232 100.661L103.235 101.112L104.3 101.388L105.414 101.482L195.665 101.486L196.715 101.623L196.825 101.653L197.803 102.058L197.902 102.115L198.741 102.761L198.821 102.84L199.466 103.68L199.523 103.779L199.929 104.757L199.958 104.867L200.099 105.974V196.667L199.664 197.101H199.665ZM56.3801 196.232H199.23V106.002L199.104 105.037L198.742 104.164L198.167 103.415L197.417 102.839L196.545 102.477L195.58 102.35L105.359 102.349L104.118 102.238L102.913 101.919L101.779 101.403L100.747 100.703L99.8485 99.8391L99.1257 98.8685L93.9788 90.6046L93.3681 89.787L92.6421 89.0966L91.8103 88.5378L90.8966 88.1272L89.9269 87.8759L88.9101 87.7901H52.3181L52.5435 190.471L56.3801 196.232V196.232Z" fill="#231F20"/>
<path id="Vector_19" d="M56.1475 196.667H199.665L201.213 196.51L202.699 196.046L204.06 195.293L205.244 194.282L206.201 193.055L206.893 191.66L211.345 179.813L215.796 167.966L220.248 156.118L224.7 144.271L229.152 132.422L233.605 120.574L233.772 119.757L233.669 118.929L233.309 118.177L232.732 117.575L231.994 117.188L231.171 117.057H87.5922L82.9636 129.54L78.3349 142.024L73.7057 154.509L69.0771 166.993L64.4476 179.479L59.8181 191.964L59.2074 192.747L58.5961 193.53L57.9845 194.313L57.3729 195.097L56.7602 195.882L56.1475 196.667Z" fill="white"/>
<path id="Vector_20" d="M199.665 197.101H56.1475L55.805 196.399L59.4342 191.75L87.1849 116.905L87.5922 116.622H231.171L231.239 116.627L232.063 116.759L232.196 116.803L232.934 117.191L233.046 117.275L233.623 117.876L233.701 117.99L234.061 118.742L234.1 118.876L234.203 119.703L234.198 119.844L234.012 120.727L207.282 191.853L206.544 193.323L205.527 194.613L204.271 195.673L202.829 196.461L201.257 196.943L199.665 197.102L199.665 197.101ZM57.038 196.232H199.643L201.125 196.082L202.527 195.644L203.812 194.934L204.929 193.98L205.831 192.822L206.493 191.486L233.186 120.453L233.331 119.74L233.246 119.053L232.946 118.428L232.467 117.928L231.855 117.606L231.136 117.491H87.8944L60.2257 192.116L60.1608 192.232L57.0383 196.232H57.038Z" fill="#231F20"/>
<path id="Vector_21" d="M56.1475 196.667L55.9473 196.663L55.7471 196.654L55.5469 196.639L55.3479 196.618L55.1489 196.59L54.951 196.557L53.5329 196.132L52.2492 195.396L51.1732 194.379L50.367 193.138L49.8736 191.742L49.7099 190.27V89.5294L49.7835 88.9666L50.0008 88.4423L50.3464 87.9922L50.796 87.6464L51.3201 87.429L51.8827 87.3557L52.4453 87.429L52.9694 87.6464L53.419 87.9925L53.7646 88.4423L53.9819 88.9666L54.0555 89.5294V190.27L54.0987 190.747L54.243 191.201L54.4993 191.603L54.8539 191.922L55.2749 192.147L55.7312 192.281L56.206 192.317L56.6788 192.255L57.1229 192.082L57.5048 191.797L57.8 191.423L58.0086 190.992L62.594 178.905L67.1795 166.816L71.765 154.728L76.3504 142.639L80.9368 130.549L85.5228 118.459L85.7914 117.959L86.1804 117.546L86.6634 117.248L87.2063 117.085L87.7733 117.067L88.3254 117.198L88.8255 117.467L89.2383 117.856L89.5361 118.339L89.6995 118.882L89.7166 119.45L89.5859 120.002L85.0008 132.089L80.4153 144.177L75.8298 156.265L71.2446 168.353L66.6586 180.442L62.0728 192.532L61.5082 193.681L60.7292 194.697L59.7613 195.535L58.643 196.158L57.4213 196.539L56.1475 196.667Z" fill="#50A4F2"/>
<path id="Vector_22" d="M56.1408 197.101L55.5139 197.072L54.8261 196.974L53.317 196.509L51.9508 195.712L50.8088 194.616L49.9576 193.283L49.4419 191.79L49.2754 190.271L49.2791 89.4729L49.3527 88.9101L49.3823 88.8L49.5995 88.2754L49.6563 88.1771L50.0019 87.727L50.0819 87.6473L50.5315 87.3016L50.63 87.2447L51.1541 87.0274L51.2642 86.9978L51.8268 86.9242H51.9395L52.5021 86.9978L52.6122 87.0274L53.1363 87.2447L53.2345 87.3016L53.6844 87.6473L53.7644 87.727L54.11 88.1768L54.1668 88.2754L54.384 88.7997L54.4136 88.9098L54.4909 89.5289V190.251L54.528 190.661L54.6407 191.016L54.8348 191.32L55.1063 191.564L55.4409 191.743L55.8105 191.851L56.1953 191.881L56.571 191.832L56.9111 191.699L57.2 191.483L57.4306 191.191L57.6102 190.821L85.1401 118.254L85.4087 117.753L85.4753 117.66L85.8644 117.248L85.9524 117.176L86.4351 116.878L86.5379 116.832L87.0811 116.668L87.1933 116.65L87.7602 116.633L87.8735 116.644L88.4254 116.775L88.5308 116.815L89.0309 117.084L89.1233 117.15L89.5361 117.54L89.608 117.628L89.9058 118.111L89.9521 118.213L90.1155 118.757L90.1338 118.869L90.1509 119.436L90.1393 119.55L89.9918 120.156L62.4628 192.723L61.8529 193.946L61.0137 195.026L59.9728 195.915L58.7725 196.573L57.4645 196.972L56.1408 197.101V197.101ZM55.0498 196.133L55.5933 196.207L56.1292 196.232L57.3344 196.111L58.4712 195.756L59.5113 195.177L60.4117 194.397L61.1374 193.45L61.6742 192.358L89.1699 119.874L89.2809 119.405L89.2673 118.953L89.1366 118.519L88.8988 118.133L88.5694 117.822L88.1701 117.608L87.7295 117.503L87.2773 117.517L86.8436 117.648L86.458 117.886L86.1477 118.215L85.9197 118.64L58.3997 191.182L58.1412 191.692L57.846 192.067L57.7649 192.145L57.3831 192.431L57.2805 192.487L56.7353 192.686L56.1724 192.751L55.6095 192.698L55.0701 192.531L54.5637 192.245L54.2091 191.926L54.1334 191.837L53.877 191.435L53.829 191.333L53.6661 190.786L53.6212 190.27V89.5576L53.559 89.0799L53.3857 88.6617L53.1099 88.3026L52.7507 88.0264L52.3326 87.8528L51.8833 87.794L51.434 87.8528L51.0159 88.0261L50.6567 88.3023L50.3806 88.6617L50.2073 89.0799L50.1451 89.5576V190.247L50.3003 191.645L50.7601 192.945L51.5099 194.099L52.5105 195.044L53.7064 195.73L55.0504 196.133H55.0498Z" fill="#231F20"/>
<path id="Vector_23" d="M101.194 110.651L102.58 111.718L103.966 112.785L105.352 113.851L106.74 114.919L108.128 115.988L109.517 117.056H100.009L99.7465 117.004L99.4846 116.952L99.2216 116.9L98.9582 116.848L98.694 116.796L98.4298 116.743L98.4562 116.795L98.4822 116.846L98.5083 116.898L98.5353 116.951L98.5622 117.003L98.5891 117.056H87.5919V117.059L87.1507 117.097L86.7263 117.223L86.336 117.432L85.9959 117.715L85.7213 118.063L85.5234 118.459L84.7 120.629L83.8764 122.8L83.0528 124.971L82.2291 127.142L81.4049 129.314L80.581 131.487L80.5335 129.795L80.4863 128.104L80.4391 126.413L80.3918 124.721L80.3443 123.027L80.2971 121.334L78.4143 122.892L76.5312 124.451L74.6493 126.009L72.7656 127.569L70.8805 129.129L68.9957 130.69L69.9908 128.457L70.9859 126.224L71.9817 123.99L72.9771 121.757L73.9731 119.523L74.9694 117.288L72.5973 117.875L70.2249 118.461L67.8513 119.048L65.4789 119.635L63.1045 120.222L60.7303 120.809L62.5975 119.232L64.4649 117.654L66.3315 116.078L68.1998 114.499L70.0693 112.92L71.9391 111.341L69.5467 110.841L67.154 110.341L64.7602 109.841L62.3675 109.341L59.9728 108.841L57.5783 108.341L59.9435 107.729L62.3092 107.116L64.6758 106.504L67.0416 105.892L69.4094 105.279L71.7768 104.666L69.8402 103.175L67.9029 101.684L65.9668 100.193L64.0289 98.7016L62.0899 97.2089L60.1509 95.716L62.548 96.1916L64.9456 96.6672L67.344 97.1431L69.7417 97.6188L72.1413 98.0949L74.5406 98.5708L73.4392 96.3887L72.3377 94.2057L71.2357 92.0222L70.1342 89.8395L69.0319 87.655L67.9295 85.4706L69.8819 86.9395L71.8351 88.4083L73.7871 89.8766L75.7409 91.346L77.6958 92.8166L79.6511 94.2872L79.6079 91.8439L79.565 89.3998L79.5221 86.9548L79.479 84.5107L79.4361 82.0648L79.3932 79.619L80.517 81.7886L81.6413 83.9589L82.766 86.13L83.8903 88.3002L85.0152 90.4722L86.1405 92.6439L87.1599 90.4229L88.18 88.2017L89.2003 85.9793L90.2204 83.7577L91.241 81.5347L92.262 79.3118L92.3303 81.7553L92.399 84.1994L92.4674 86.6441L92.536 89.0882L92.6047 91.5341L92.6733 93.98L94.5559 92.4216L96.4389 90.8626L98.3209 89.3047L100.205 87.7452L102.09 86.1847L103.975 84.6243L102.98 86.8569L101.984 89.0897L100.988 91.3237L99.9931 93.5568L98.997 95.7914L98.001 98.026L100.373 97.4394L102.746 96.8527L105.119 96.2658L107.492 95.6789L109.866 95.0917L112.24 94.5046L110.373 96.0824L108.505 97.6605L106.639 99.238L104.77 100.817L102.901 102.396L101.031 103.976L103.423 104.476L105.816 104.976L108.21 105.476L110.603 105.976L112.997 106.476L115.392 106.976L113.027 107.588L110.661 108.2L108.294 108.813L105.929 109.425L103.561 110.038L101.194 110.651Z" fill="#50A4F2"/>
<path id="Vector_24" d="M80.9872 131.641L80.1464 131.499L79.8875 122.237L69.2726 131.025L68.5988 130.513L74.2104 117.923L60.8346 121.231L60.4499 120.477L70.9775 111.584L57.4894 108.766L57.4694 107.92L70.8069 104.468L59.8858 96.0604L60.2355 95.2894L73.7512 97.9709L67.5416 85.6669L68.1906 85.1234L79.2008 93.405L78.9587 79.6268L79.7791 79.4193L86.117 91.6538L91.8671 79.1304L92.6962 79.2996L93.0827 93.0769L103.698 84.2893L104.372 84.8014L98.7601 97.3907L112.136 94.0829L112.521 94.837L101.993 103.733L115.481 106.55L115.501 107.397L102.164 110.849L109.782 116.712L109.517 117.491L99.9241 117.482L98.7383 117.247L98.5891 117.491L87.629 117.492L87.2321 117.526L86.8923 117.627L86.58 117.794L86.3088 118.02L86.0898 118.297L85.9217 118.634L80.9872 131.641V131.641ZM80.0198 120.999L80.7314 121.322L80.9539 129.279L85.1346 118.265L85.3806 117.793L85.7178 117.382L86.1309 117.049L86.6026 116.807L87.1133 116.664L87.5545 116.626L87.5571 116.657L87.5916 116.622H98.2835L98.5138 116.317L100.051 116.622H108.239L100.928 110.996L101.084 110.23L113.482 107.021L100.942 104.402L100.751 103.644L110.538 95.3735L98.1048 98.4483L97.6036 97.8492L102.821 86.143L92.9497 94.3153L92.2382 93.9925L91.879 81.1858L86.5345 92.8256L85.7537 92.8442L79.8602 81.4655L80.0853 94.2797L79.3897 94.6347L69.1564 86.9378L74.9283 98.375L74.4557 98.9972L61.8863 96.5035L72.0416 104.321L71.8855 105.087L59.4875 108.296L72.0277 110.915L72.2192 111.673L62.4321 119.94L74.8648 116.866L75.366 117.465L70.1481 129.171L80.0198 120.999V120.999Z" fill="#231F20"/>
</g>
</g>
<g id="Group_6">
<g id="Frame_4" clip-path="url(#clip3_103_5)">
<g id="Group_7">
<path id="Vector_25" d="M148.219 58.6913L142.476 59.3894L136.734 60.0875L130.991 60.7857L125.249 61.4838L119.505 62.1819L113.762 62.8803L115.004 71.8441L116.246 80.8081L117.487 89.7728L118.729 98.7368L119.971 107.702L121.213 116.668H156.963L155.506 107.006L154.049 97.3435L152.591 87.681L151.134 78.0185L149.676 68.3549L148.219 58.6913Z" fill="#231F20"/>
<path id="Vector_26" d="M156.963 117.101H121.213L120.784 116.727L113.333 62.9399L113.71 62.4499L148.166 58.2609L148.647 58.6265L157.391 116.603L156.963 117.101ZM121.59 116.234H156.46L147.854 59.1726L114.251 63.2576L121.59 116.234Z" fill="#231F20"/>
</g>
</g>
</g>
<g id="Group_8">
<g id="Frame_5" clip-path="url(#clip4_103_5)">
<path id="Vector_27" d="M75.2484 145.167L74.112 148.177L72.9754 151.189L71.8385 154.201L70.7019 157.212L69.5644 160.225L68.4269 163.239L67.4193 165.908L66.411 168.579L65.4028 171.251L64.3945 173.922L63.3857 176.595L62.3769 179.267L60.9602 177.722L59.543 176.176L58.1266 174.632L56.7091 173.086L55.2904 171.539L53.8717 169.991L53.1533 169.208L52.4343 168.424L51.7151 167.64L50.9955 166.855L50.2751 166.07L49.5544 165.284L47.0733 162.578L44.5914 159.871L42.1087 157.163L39.6268 154.456L37.1432 151.747L34.6595 149.038L33.4294 147.696L32.1992 146.354L30.9694 145.012L29.738 143.669L28.5062 142.325L27.274 140.98L30.9855 137.543L34.6978 134.104L38.4116 130.664L42.1242 127.225L45.8395 123.784L49.5544 120.343L49.8183 120.098L50.0817 119.854L50.3462 119.609L50.6116 119.363L50.8772 119.116L51.1432 118.87L51.5971 119.365L52.0518 119.861L52.5054 120.356L52.9605 120.853L53.4161 121.35L53.8717 121.847L57.4327 125.732L60.9945 129.617L64.5577 133.504L68.1196 137.39L71.684 141.278L75.2484 145.167Z" fill="white"/>
<path id="Vector_28" d="M62.0594 179.561L26.9565 141.275L26.9816 140.661L50.8505 118.551L51.4606 118.576L75.5658 144.873L75.6519 145.321L62.7804 179.421L62.0594 179.561ZM27.8842 141.005L62.2209 178.457L74.7499 145.264L51.1184 119.483L27.8842 141.005Z" fill="#231F20"/>
<path id="Vector_29" d="M49.5866 127.126L50.2218 126.539L67.4777 145.363L66.8425 145.951L49.5866 127.126ZM44.3307 132.279L44.9656 131.691L66.0164 154.656L65.3815 155.244L44.3307 132.279ZM39.075 137.432L39.71 136.843L63.8152 163.14L63.1802 163.729L39.075 137.432Z" fill="#231F20"/>
<path id="Vector_30" d="M68.4269 163.239L67.9912 164.394L67.5554 165.549L67.1197 166.704L66.6839 167.859L66.2473 169.016L65.8106 170.174L65.4439 171.145L65.0767 172.118L64.7094 173.091L64.3419 174.063L63.974 175.038L63.6059 176.012L63.4016 176.554L63.1966 177.096L62.9923 177.638L62.7873 178.18L62.5821 178.724L62.3769 179.267L62.1343 179.909L61.8911 180.552L61.6479 181.196L61.4049 181.839L61.1611 182.483L60.9176 183.127L59.7439 182.271L58.5704 181.414L57.397 180.558L56.2232 179.701L55.0475 178.844L53.8717 177.986L53.1533 177.462L52.4343 176.937L51.7151 176.413L50.9955 175.889L50.2751 175.363L49.5544 174.838L45.8967 172.17L42.2379 169.501L38.578 166.831L34.9192 164.162L31.2578 161.491L27.5964 158.821L28.773 157.191L29.9499 155.561L31.1262 153.932L32.3034 152.301L33.4815 150.67L34.6595 149.038L35.4813 147.9L36.303 146.762L37.1245 145.624L37.9465 144.485L38.7697 143.345L39.5928 142.204L41.2521 143.415L42.912 144.626L44.571 145.836L46.2315 147.048L47.8928 148.26L49.5544 149.472L50.2728 149.996L50.9918 150.52L51.711 151.045L52.4306 151.569L53.1513 152.095L53.8717 152.62L56.2964 154.389L58.7216 156.158L61.1476 157.928L63.5731 159.697L66 161.468L68.4269 163.239Z" fill="white"/>
<g id="Group_9">
<path id="Vector_31" d="M60.6641 183.478L27.3428 159.171L27.2469 158.565L39.2434 141.949L39.8464 141.853L68.6805 162.887L68.8305 163.392L61.3212 183.281L60.6641 183.478ZM28.1993 158.724L60.7144 182.443L67.906 163.395L39.6887 142.81L28.1993 158.724Z" fill="#231F20"/>
<path id="Vector_32" d="M45.2264 163.012L45.4518 162.515L45.5384 161.977L45.4872 161.434L45.3467 160.906L45.1674 160.39L44.9843 159.875L44.7512 159.385L44.396 158.977L43.9352 158.695L43.4143 158.55L42.8746 158.518L42.3349 158.568L42.2195 158.028L42.1329 157.464L42.0465 156.9L41.9599 156.336L41.8727 155.772L41.7855 155.207L41.8376 155.169L41.9098 155.157L41.9818 155.146L42.0549 155.135L42.1288 155.124L42.2034 155.113L42.8743 154.907L43.4246 154.474L43.7642 153.86L43.9185 153.171L43.9628 152.465L43.9666 151.759L42.9227 149.865L40.7352 149.624L38.9294 150.926L38.0161 152.99L37.7844 155.247L37.977 157.512L38.3828 159.428L39.0604 161.261L40.1377 162.884L41.7322 163.976L43.6488 164.077L45.2264 163.012Z" fill="#231F20"/>
<path id="Vector_33" d="M43.6261 164.51L41.7095 164.409L41.489 164.335L39.8945 163.243L39.7785 163.125L38.6557 161.413L37.9603 159.519L37.5467 157.55L37.3538 155.285L37.3547 155.203L37.5864 152.946L37.6215 152.814L38.5348 150.75L38.6775 150.574L40.4833 149.272L40.7821 149.193L42.9693 149.434L43.2997 149.655L44.3439 151.55L44.398 151.763L44.394 152.468L44.3393 153.267L44.1848 153.955L44.141 154.071L43.8014 154.685L43.69 154.817L43.1397 155.25L42.9995 155.323L42.2733 155.541L42.6754 158.101L42.8993 158.085L43.5291 158.132L44.0498 158.277L44.1589 158.325L44.6199 158.606L44.7207 158.691L45.0759 159.1L45.1406 159.198L45.3904 159.73L45.7635 160.795L45.9169 161.394L45.9681 161.937L45.9644 162.047L45.8777 162.585L45.8443 162.696L45.619 163.192L45.4667 163.373L43.8892 164.438L43.6258 164.511L43.6261 164.51ZM41.8753 163.549L43.5274 163.636L44.8839 162.72L45.0344 162.388L45.1029 161.963L45.0603 161.511L44.9334 161.034L44.5848 160.043L44.3868 159.626L44.1142 159.313L43.7614 159.097L43.3426 158.98L42.8812 158.953L42.3743 159.001L41.9121 158.66L41.797 158.119L41.3583 155.274L41.5339 154.854L41.5863 154.816L41.7662 154.741L42.1067 154.689L42.6711 154.515L43.0893 154.187L43.3564 153.703L43.4897 153.11L43.5317 152.438L43.5343 151.871L42.653 150.272L40.8523 150.074L39.2762 151.21L38.4384 153.103L38.2176 155.251L38.4047 157.449L38.7981 159.307L39.4472 161.063L40.4497 162.573L41.875 163.549H41.8753ZM57.6509 166.013L57.5438 165.189L57.2272 164.422L56.7238 163.763L56.0687 163.257L55.3054 162.939L54.4862 162.831L53.6668 162.939L52.9035 163.257L52.2484 163.763L51.745 164.422L51.4287 165.189L51.3216 166.013L51.4287 166.836L51.745 167.604L52.2484 168.262L52.9038 168.768L53.6668 169.086L54.4862 169.194L55.3054 169.086L56.0687 168.768L56.7238 168.262L57.2272 167.603L57.5438 166.836L57.6509 166.013Z" fill="#231F20"/>
<path id="Vector_34" d="M54.5421 169.624H54.4301L53.6107 169.516L53.5013 169.487L52.738 169.169L52.6404 169.112L51.9853 168.606L51.9059 168.526L51.4025 167.868L51.3461 167.769L51.0298 167.002L51.0004 166.892L50.8933 166.068V165.956L51.0004 165.132L51.0298 165.022L51.3461 164.255L51.4025 164.157L51.9059 163.498L51.985 163.419L52.6401 162.913L52.738 162.856L53.5013 162.538L53.6107 162.509L54.4301 162.401H54.5421L55.3615 162.509L55.4709 162.538L56.2342 162.856L56.3318 162.913L56.9868 163.419L57.0663 163.498L57.5697 164.157L57.6261 164.255L57.9424 165.023L57.9718 165.132L58.0788 165.956V166.069L57.9718 166.892L57.9424 167.002L57.6261 167.769L57.5697 167.868L57.0663 168.526L56.9871 168.606L56.332 169.112L56.2342 169.169L55.4709 169.487L55.3615 169.516L54.5421 169.624ZM53.7793 168.663L54.4859 168.756L55.1928 168.663L55.8508 168.389L56.4158 167.952L56.8501 167.384L57.1227 166.723L57.2151 166.012L57.1227 165.302L56.8498 164.64L56.4155 164.072L55.8502 163.636L55.1923 163.361L54.4857 163.269L53.7788 163.361L53.1208 163.636L52.5558 164.072L52.1215 164.641L51.8489 165.302L51.7565 166.012L51.8489 166.723L52.1218 167.384L52.5561 167.953L53.1214 168.389L53.7793 168.663ZM65.8106 170.174L65.4439 171.145L65.0767 172.118L64.7094 173.09L64.3419 174.063L63.974 175.038L63.6059 176.012L62.8993 175.802L62.2603 175.433L61.7233 174.925L61.3166 174.308L61.0636 173.612L60.9781 172.876L61.0854 172.052L61.4023 171.285L61.9063 170.627L62.5617 170.122L63.325 169.804L64.1441 169.696L64.4369 169.71L64.7267 169.75L65.0113 169.817L65.2888 169.91L65.5559 170.03L65.8106 170.174Z" fill="#231F20"/>
<path id="Vector_35" d="M63.4836 176.428L62.684 176.178L61.965 175.749L61.3635 175.165L60.9113 174.457L60.6347 173.662L60.5495 172.926L60.5504 172.82L60.6577 171.996L60.6871 171.886L61.004 171.119L61.0607 171.021L61.5647 170.363L61.6438 170.283L62.2992 169.777L62.3968 169.721L63.1601 169.403L63.2694 169.373L64.164 169.262L64.4959 169.279L64.8254 169.327L65.1492 169.405L65.4641 169.514L65.7675 169.651L66.0222 169.796L66.2142 170.328L64.0094 176.167L63.4833 176.429L63.4836 176.428ZM63.0706 175.4L63.3446 175.482L65.2721 170.378L65.1322 170.315L64.8933 170.234L64.6481 170.177L64.3977 170.142L64.1628 170.131L63.4378 170.226L62.7799 170.5L62.2143 170.937L61.7797 171.505L61.5065 172.166L61.4136 172.879L61.4867 173.511L61.7048 174.111L62.0557 174.644L62.5194 175.082L63.0706 175.4Z" fill="#231F20"/>
</g>
</g>
</g>
<g id="Group_10">
<g id="Frame_6" clip-path="url(#clip5_103_5)">
<path id="Vector_36" d="M148.683 134.635L141.392 135.136L134.271 136.751L127.593 139.679L121.842 144.126L117.81 150.137L116.372 157.206L117.263 162.463L120.574 166.599L125.534 168.645L130.865 169.481L136.233 170.081L141.402 171.536L144.751 174.086L147.828 176.969L150.976 179.775L154.385 182.258L158.184 184.085L162.336 184.79L167.634 183.964L172.467 181.65L176.472 178.103L179.381 173.624L181.072 168.564L181.602 163.252L180.055 155.522L176.128 148.65L170.623 142.932L164.004 138.528L156.579 135.66L148.684 134.635L148.683 134.635ZM148.987 169.954L147.715 170.203L146.457 169.604L145.294 168.833L144.172 168.002L143.062 167.154L141.933 166.339L140.484 165.825L138.962 165.551L137.436 165.287L135.942 164.894L134.639 164.096L134.348 162.649L135.334 161.13L136.984 160.315L138.809 160.014L140.661 160.062L142.481 160.405L144.208 161.067L145.79 162.049L147.192 163.27L148.35 164.721L149.172 166.38L149.493 168.197L148.987 169.953L148.987 169.954Z" fill="#8D8BF8"/>
<path id="Vector_37" d="M162.404 185.218L162.262 185.217L158.11 184.512L157.994 184.475L154.127 182.607L150.684 180.097L147.536 177.291L144.468 174.416L141.202 171.93L136.149 170.507L130.816 169.911L125.366 169.045L120.407 166.999L120.233 166.869L116.922 162.733L116.833 162.535L115.942 157.278L115.945 157.12L117.383 150.051L117.447 149.896L121.479 143.886L121.574 143.784L127.325 139.338L127.417 139.284L134.173 136.329L141.362 134.704L148.653 134.203L148.74 134.205L156.635 135.231L156.736 135.256L164.246 138.167L170.938 142.632L176.443 148.35L176.506 148.435L180.434 155.308L180.482 155.437L182.029 163.167L182.035 163.294L181.486 168.699L179.747 173.858L176.838 178.337L176.762 178.426L172.757 181.973L172.656 182.039L167.823 184.353L167.701 184.391L162.404 185.217L162.404 185.218ZM158.319 183.669L162.339 184.351L167.503 183.546L172.222 181.286L176.138 177.819L178.984 173.435L180.643 168.472L181.161 163.273L179.641 155.675L175.775 148.909L170.341 143.264L163.8 138.913L156.469 136.082L148.67 135.069L141.456 135.565L134.408 137.164L127.819 140.054L122.166 144.424L118.221 150.306L116.816 157.213L117.675 162.281L120.846 166.242L125.653 168.225L130.933 169.053L136.352 169.664L141.521 171.119L141.668 171.192L145.05 173.771L148.127 176.654L151.251 179.438L154.611 181.885L158.319 183.669V183.669ZM147.8 170.628L147.527 170.593L146.216 169.964L145.052 169.194L143.911 168.349L142.797 167.498L141.728 166.726L140.371 166.245L137.325 165.706L135.831 165.313L135.713 165.263L134.411 164.465L134.212 164.181L133.921 162.734L133.982 162.415L134.968 160.896L135.141 160.743L136.79 159.928L136.913 159.889L138.821 159.582L140.743 159.638L142.639 160.002L144.44 160.701L146.078 161.724L147.534 163.002L148.742 164.53L149.564 166.19L149.602 166.306L149.923 168.123L149.913 168.317L149.407 170.073L149.072 170.379L147.8 170.628H147.8ZM146.674 169.227L147.773 169.75L148.641 169.58L149.046 168.175L148.753 166.516L147.979 164.954L146.874 163.57L145.529 162.398L144.013 161.457L142.362 160.824L140.615 160.495L138.839 160.449L137.119 160.732L135.636 161.465L134.81 162.736L135.03 163.827L136.116 164.492L137.529 164.863L140.63 165.417L142.08 165.932L142.189 165.989L143.318 166.804L144.437 167.659L145.554 168.486L146.673 169.226L146.674 169.227Z" fill="#231F20"/>
<path id="Vector_38" d="M135.919 149.094L135.742 147.749L135.218 146.495L134.386 145.419L133.302 144.593L132.04 144.073L130.685 143.898L129.33 144.074L128.068 144.593L126.985 145.42L126.152 146.495L125.629 147.749L125.452 149.094L125.629 150.439L126.152 151.692L126.985 152.768L128.068 153.595L129.33 154.114L130.685 154.29L132.041 154.114L133.303 153.595L134.386 152.768L135.218 151.692L135.742 150.439L135.919 149.094Z" fill="white"/>
<path id="Vector_39" d="M130.742 154.72H130.629L129.274 154.544L129.164 154.514L127.901 153.995L127.803 153.938L126.719 153.112L126.639 153.032L125.807 151.956L125.75 151.858L125.226 150.605L125.197 150.495L125.02 149.15V149.038L125.197 147.692L125.226 147.583L125.75 146.329L125.807 146.231L126.639 145.155L126.719 145.076L127.803 144.249L127.901 144.193L129.164 143.673L129.274 143.644L130.629 143.468H130.742L132.097 143.644L132.207 143.673L133.47 144.193L133.568 144.249L134.652 145.076L134.732 145.155L135.564 146.231L135.621 146.329L136.145 147.582L136.174 147.692L136.352 149.037V149.15L136.174 150.495L136.145 150.604L135.621 151.858L135.564 151.956L134.732 153.032L134.652 153.111L133.568 153.938L133.47 153.994L132.207 154.514L132.097 154.543L130.742 154.719V154.72ZM129.444 153.692L130.686 153.854L131.927 153.692L133.083 153.217L134.075 152.46L134.838 151.474L135.317 150.326L135.479 149.094L135.317 147.861L134.838 146.714L134.075 145.728L133.082 144.971L131.927 144.495L130.685 144.334L129.444 144.495L128.288 144.971L127.296 145.728L126.533 146.714L126.054 147.861L125.892 149.094L126.054 150.326L126.533 151.474L127.296 152.46L128.288 153.217L129.444 153.692H129.444Z" fill="#231F20"/>
<path id="Vector_40" d="M152.779 144.877L152.602 143.531L152.079 142.278L151.246 141.202L150.163 140.376L148.901 139.856L147.546 139.681L146.191 139.856L144.928 140.376L143.845 141.202L143.012 142.278L142.489 143.532L142.312 144.877L142.489 146.222L143.013 147.475L143.845 148.551L144.928 149.378L146.191 149.897L147.546 150.073L148.901 149.897L150.163 149.378L151.246 148.551L152.079 147.475L152.602 146.222L152.779 144.877Z" fill="white"/>
<path id="Vector_41" d="M147.602 150.502H147.489L146.134 150.326L146.024 150.297L144.761 149.778L144.663 149.721L143.579 148.895L143.499 148.815L142.667 147.739L142.61 147.641L142.087 146.388L142.057 146.279L141.88 144.933V144.821L142.057 143.476L142.087 143.366L142.61 142.113L142.667 142.015L143.499 140.939L143.58 140.86L144.663 140.033L144.762 139.976L146.024 139.457L146.134 139.427L147.489 139.252H147.602L148.957 139.427L149.068 139.457L150.33 139.976L150.429 140.033L151.512 140.86L151.592 140.939L152.425 142.015L152.482 142.113L153.005 143.366L153.035 143.476L153.212 144.821V144.934L153.035 146.279L153.005 146.389L152.482 147.642L152.425 147.74L151.592 148.816L151.512 148.895L150.429 149.722L150.33 149.778L149.068 150.298L148.957 150.327L147.602 150.503L147.602 150.502ZM146.304 149.475L147.545 149.636L148.787 149.475L149.942 148.999L150.935 148.242L151.698 147.257L152.177 146.109L152.339 144.877L152.177 143.644L151.698 142.497L150.935 141.511L149.942 140.754L148.787 140.278L147.545 140.117L146.304 140.278L145.148 140.754L144.156 141.511L143.393 142.497L142.914 143.644L142.752 144.877L142.914 146.109L143.393 147.257L144.156 148.242L145.148 148.999L146.304 149.475Z" fill="#231F20"/>
<path id="Vector_42" d="M169.011 152.01L168.833 150.665L168.31 149.411L167.478 148.336L166.394 147.509L165.132 146.989L163.777 146.814L162.422 146.989L161.16 147.509L160.076 148.336L159.244 149.411L158.721 150.665L158.544 152.01L158.721 153.355L159.244 154.609L160.076 155.684L161.16 156.511L162.422 157.03L163.777 157.206L165.132 157.03L166.394 156.511L167.478 155.684L168.31 154.608L168.834 153.355L169.011 152.01Z" fill="white"/>
<path id="Vector_43" d="M163.834 157.636H163.72L162.366 157.46L162.255 157.43L160.993 156.911L160.894 156.854L159.811 156.028L159.73 155.949L158.898 154.873L158.841 154.774L158.318 153.521L158.288 153.412L158.111 152.066V151.954L158.288 150.609L158.318 150.499L158.841 149.246L158.898 149.148L159.73 148.072L159.811 147.993L160.894 147.166L160.993 147.11L162.255 146.59L162.366 146.561L163.72 146.385H163.834L165.188 146.561L165.299 146.59L166.561 147.11L166.66 147.166L167.743 147.993L167.823 148.072L168.656 149.148L168.713 149.246L169.236 150.499L169.266 150.609L169.443 151.955V152.067L169.266 153.412L169.236 153.522L168.713 154.775L168.656 154.873L167.824 155.949L167.743 156.029L166.66 156.855L166.561 156.912L165.299 157.431L165.188 157.461L163.834 157.636V157.636ZM162.536 156.608L163.777 156.77L165.018 156.608L166.174 156.133L167.166 155.376L167.929 154.39L168.408 153.242L168.57 152.01L168.408 150.777L167.929 149.63L167.166 148.644L166.174 147.887L165.018 147.411L163.777 147.25L162.536 147.411L161.38 147.887L160.387 148.645L159.625 149.63L159.145 150.778L158.983 152.01L159.145 153.242L159.625 154.39L160.387 155.376L161.38 156.133L162.536 156.608Z" fill="#231F20"/>
<path id="Vector_44" d="M175.441 167.932L175.263 166.587L174.74 165.333L173.907 164.258L172.824 163.431L171.562 162.912L170.207 162.736L168.852 162.912L167.59 163.431L166.506 164.258L165.674 165.334L165.151 166.587L164.974 167.932L165.151 169.277L165.674 170.531L166.506 171.606L167.59 172.433L168.852 172.953L170.207 173.128L171.562 172.953L172.824 172.433L173.908 171.606L174.74 170.531L175.264 169.277L175.441 167.932Z" fill="white"/>
<path id="Vector_45" d="M170.263 173.558H170.15L168.795 173.382L168.685 173.352L167.423 172.833L167.324 172.776L166.241 171.95L166.161 171.871L165.328 170.795L165.271 170.697L164.748 169.443L164.718 169.334L164.541 167.988V167.876L164.718 166.531L164.748 166.421L165.271 165.168L165.328 165.07L166.16 163.994L166.241 163.915L167.324 163.088L167.423 163.032L168.685 162.512L168.795 162.482L170.15 162.307H170.263L171.618 162.482L171.729 162.512L172.991 163.032L173.09 163.088L174.173 163.915L174.253 163.994L175.086 165.07L175.143 165.168L175.666 166.421L175.696 166.531L175.873 167.876V167.989L175.696 169.334L175.666 169.444L175.143 170.697L175.086 170.795L174.253 171.871L174.173 171.95L173.09 172.777L172.991 172.833L171.729 173.353L171.618 173.382L170.263 173.558V173.558ZM168.966 172.53L170.207 172.692L171.448 172.53L172.604 172.055L173.596 171.298L174.359 170.312L174.838 169.165L175 167.932L174.838 166.699L174.359 165.552L173.596 164.566L172.604 163.809L171.448 163.333L170.207 163.172L168.966 163.333L167.81 163.809L166.817 164.566L166.055 165.552L165.575 166.7L165.413 167.932L165.575 169.165L166.055 170.312L166.818 171.298L167.81 172.055L168.966 172.53H168.966Z" fill="#231F20"/>
</g>
</g>
<g id="Group_11">
<g id="Frame_7" clip-path="url(#clip6_103_5)">
<path id="Vector_46" d="M149.48 62.5964L142.975 66.352L136.47 70.1079L129.965 73.8634L123.459 77.6193L116.953 81.3758L110.447 85.1322L106.691 78.6271L102.936 72.1219L99.18 65.617L95.4241 59.1116L91.6677 52.6052L87.9112 46.0992L94.4164 42.3433L100.921 38.5877L107.426 34.8321L113.932 31.0763L120.438 27.3198L126.944 23.5634L130.7 30.0685L134.456 36.5734L138.211 43.0786L141.967 49.584L145.724 56.0901L149.48 62.5964Z" fill="white"/>
<g id="Group_12">
<path id="Vector_47" d="M110.664 85.5069L110.072 85.3484L87.5362 46.3157L87.6947 45.7242L126.728 23.1884L127.319 23.3468L149.855 62.3799L149.697 62.9713L110.664 85.5069ZM88.5027 46.2577L110.606 84.5407L148.889 62.4382L126.786 24.1548L88.5027 46.2577Z" fill="#231F20"/>
<path id="Vector_48" d="M97.1368 48.5462L120.828 34.8658L121.261 35.6158L97.5698 49.2959L97.1368 48.5462ZM101.321 55.7935L112.349 49.4255L112.782 50.1754L101.754 56.5435L101.321 55.7935ZM105.172 62.4644L121.702 52.9192L122.135 53.6692L105.606 63.2143L105.172 62.4644Z" fill="#231F20"/>
</g>
</g>
</g>
<g id="Group_13">
<g id="Frame_8" clip-path="url(#clip7_103_5)">
<path id="Vector_49" d="M266.136 65.0453L262.264 66.4101L258.391 67.7755L254.517 69.1415L250.644 70.5069L246.769 71.8735L242.893 73.2398L241.996 75.113L241.099 76.9866L240.202 78.8593L239.305 80.7337L238.407 82.6093L237.509 84.4848L238.875 88.3535L240.242 92.223L241.609 96.094L242.976 99.9638L244.343 103.836L245.711 107.708L250.971 105.854L256.229 104L261.49 102.145L266.751 100.291L272.012 98.4356L277.273 96.5808L275.417 91.3251L273.562 86.0712L271.705 80.8152L269.849 75.559L267.993 70.3021L266.136 65.0453Z" fill="white"/>
<g id="Group_14">
<path id="Vector_50" d="M245.855 108.116L245.303 107.852L237.101 84.6286L237.119 84.2985L242.503 73.0534L242.749 72.8325L265.992 64.6377L266.544 64.9016L277.681 96.4371L277.417 96.9884L245.855 108.116ZM237.977 84.5099L245.975 107.157L276.722 96.3172L265.872 65.5964L243.206 73.5878L237.977 84.5099Z" fill="#231F20"/>
<path id="Vector_51" d="M271.572 93.8557L267.718 95.2142L263.863 96.5733L260.008 97.9326L256.153 99.2917L252.296 100.651L248.438 102.011L247.079 98.1611L245.718 94.31L244.358 90.4574L242.998 86.6061L241.637 82.7518L240.275 78.8978L244.129 77.5393L247.984 76.1803L251.839 74.8209L255.694 73.4618L259.552 72.1019L263.409 70.7419L264.768 74.5922L266.129 78.4436L267.489 82.2961L268.849 86.1475L270.211 90.0014L271.572 93.8557Z" fill="#231F20"/>
<path id="Vector_52" d="M248.582 102.419L248.03 102.155L239.868 79.0417L240.132 78.4903L263.265 70.3347L263.817 70.5986L271.98 93.7121L271.716 94.2634L248.582 102.419L248.582 102.419ZM240.827 79.1618L248.702 101.46L271.02 93.5922L263.145 71.2934L240.827 79.1618Z" fill="#231F20"/>
</g>
<path id="Vector_53" d="M245.828 81.5518L244.443 82.0403L243.057 82.5289L241.672 83.0174L240.285 83.5063L238.897 83.9954L237.509 84.4848L238.406 82.6115L239.303 80.738L240.2 78.8653L241.097 76.9909L241.995 75.1153L242.893 73.2397L243.382 74.6245L243.871 76.0086L244.36 77.393L244.849 78.7786L245.339 80.1653L245.828 81.5518Z" fill="white"/>
<path id="Vector_54" d="M237.653 84.8925L237.119 84.2985L242.503 73.0535L243.301 73.0961L246.236 81.4081L245.972 81.9595L237.653 84.8925ZM242.832 74.3673L238.35 83.7302L245.277 81.288L242.832 74.3673Z" fill="#231F20"/>
</g>
</g>
<g id="Group_15">
<g id="Frame_9" clip-path="url(#clip8_103_5)">
<path id="Vector_55" d="M97.4981 175.475L97.4176 174.86L97.1799 174.286L96.8012 173.794L96.3087 173.416L95.7351 173.178L95.119 173.097L94.5029 173.178L93.929 173.416L93.4365 173.794L93.0581 174.286L92.8204 174.86L92.7399 175.475L92.8204 176.091L93.0584 176.664L93.4368 177.156L93.9293 177.535L94.5032 177.772L95.119 177.853L95.7351 177.772L96.309 177.535L96.8015 177.156L97.1799 176.664L97.4176 176.091L97.4981 175.475Z" fill="white"/>
<path id="Vector_56" d="M95.1755 178.283H95.0628L94.4467 178.203L94.3367 178.173L93.7628 177.936L93.6644 177.879L93.1719 177.5L93.0923 177.421L92.7139 176.929L92.6571 176.83L92.4191 176.257L92.3896 176.147L92.3091 175.531V175.419L92.3896 174.803L92.4191 174.693L92.6571 174.12L92.7139 174.022L93.0923 173.529L93.1722 173.45L93.6647 173.072L93.7628 173.015L94.3367 172.777L94.447 172.748L95.0631 172.667H95.1755L95.7913 172.748L95.9016 172.777L96.4755 173.015L96.5736 173.072L97.0661 173.45L97.146 173.529L97.5244 174.022L97.5812 174.12L97.8192 174.693L97.8487 174.803L97.9292 175.419V175.531L97.8487 176.147L97.8192 176.257L97.5812 176.83L97.5244 176.929L97.146 177.421L97.0661 177.5L96.5736 177.879L96.4755 177.935L95.9016 178.173L95.7916 178.203L95.1755 178.283ZM94.6164 177.349L95.119 177.415L95.6216 177.349L96.0895 177.155L96.4917 176.847L96.8006 176.445L96.9946 175.977L97.0603 175.475L96.9946 174.973L96.8006 174.505L96.4917 174.103L96.0895 173.795L95.6216 173.601L95.119 173.535L94.6161 173.601L94.1482 173.795L93.7461 174.103L93.4371 174.505L93.2431 174.973L93.1774 175.475L93.2431 175.977L93.4371 176.445L93.7461 176.847L94.1482 177.156L94.6161 177.349H94.6164Z" fill="#231F20"/>
<path id="Vector_57" d="M285.077 107.086L284.996 106.47L284.758 105.896L284.38 105.404L283.887 105.026L283.313 104.788L282.698 104.708L282.081 104.788L281.508 105.026L281.015 105.404L280.637 105.896L280.399 106.47L280.318 107.086L280.399 107.701L280.637 108.274L281.015 108.767L281.508 109.145L282.081 109.383L282.698 109.463L283.313 109.383L283.887 109.145L284.38 108.767L284.759 108.274L284.996 107.701L285.077 107.086Z" fill="white"/>
<path id="Vector_58" d="M282.754 109.893H282.641L282.026 109.813L281.915 109.784L281.341 109.546L281.243 109.489L280.751 109.111L280.671 109.031L280.292 108.539L280.236 108.441L279.998 107.868L279.968 107.758L279.888 107.142V107.029L279.968 106.414L279.998 106.304L280.236 105.73L280.292 105.632L280.671 105.14L280.751 105.06L281.243 104.682L281.341 104.625L281.915 104.388L282.025 104.358L282.641 104.278H282.754L283.37 104.358L283.48 104.388L284.054 104.625L284.152 104.682L284.645 105.06L284.724 105.14L285.103 105.632L285.159 105.73L285.398 106.304L285.427 106.414L285.508 107.029V107.142L285.427 107.757L285.398 107.867L285.159 108.441L285.103 108.539L284.724 109.031L284.644 109.111L284.152 109.489L284.054 109.546L283.48 109.784L283.37 109.813L282.754 109.893ZM282.195 108.96L282.698 109.025L283.2 108.96L283.668 108.766L284.07 108.457L284.379 108.055L284.573 107.588L284.639 107.085L284.573 106.583L284.379 106.116L284.07 105.714L283.668 105.405L283.2 105.211L282.698 105.145L282.195 105.211L281.727 105.405L281.325 105.714L281.016 106.116L280.822 106.583L280.756 107.085L280.822 107.588L281.016 108.055L281.325 108.457L281.727 108.766L282.195 108.96Z" fill="#231F20"/>
<path id="Vector_59" d="M203.995 26.3769L203.915 25.7612L203.677 25.1877L203.298 24.6955L202.806 24.3173L202.232 24.0795L201.616 23.999L201 24.0795L200.426 24.3173L199.933 24.6955L199.555 25.1877L199.317 25.7612L199.237 26.3769L199.317 26.9924L199.555 27.5659L199.934 28.0581L200.426 28.4362L201 28.6741L201.616 28.7545L202.232 28.6741L202.806 28.4362L203.298 28.0581L203.677 27.5659L203.915 26.9924L203.995 26.3769Z" fill="white"/>
<path id="Vector_60" d="M201.672 29.1847H201.56L200.944 29.1043L200.834 29.0748L200.26 28.8372L200.162 28.7805L199.669 28.4023L199.589 28.3227L199.211 27.8305L199.154 27.7322L198.916 27.1587L198.887 27.0487L198.806 26.4333V26.3207L198.887 25.705L198.916 25.595L199.154 25.0218L199.211 24.9234L199.589 24.4312L199.669 24.3517L200.162 23.9732L200.26 23.9165L200.834 23.6789L200.944 23.6494L201.56 23.569H201.673L202.289 23.6494L202.399 23.6789L202.973 23.9165L203.071 23.9732L203.563 24.3514L203.643 24.4309L204.022 24.9231L204.078 25.0215L204.316 25.595L204.346 25.705L204.426 26.3207V26.4333L204.346 27.0487L204.316 27.1587L204.078 27.7319L204.022 27.8303L203.643 28.3224L203.564 28.402L203.071 28.7805L202.973 28.8372L202.399 29.0748L202.289 29.1043L201.673 29.1847H201.672ZM201.113 28.2507L201.616 28.3167L202.119 28.2507L202.587 28.0571L202.989 27.7484L203.298 27.3465L203.492 26.8789L203.557 26.3768L203.492 25.8745L203.298 25.4066L202.989 25.005L202.587 24.6963L202.119 24.5027L201.616 24.4367L201.114 24.5027L200.646 24.6963L200.244 25.005L199.935 25.4069L199.741 25.8745L199.675 26.3768L199.741 26.8789L199.935 27.3467L200.244 27.7487L200.645 28.0571L201.113 28.2507Z" fill="#231F20"/>
<path id="Vector_61" d="M226.42 194.548L226.189 194.531C226.151 194.528 226.113 194.52 226.077 194.508L225.859 194.431C225.823 194.419 225.79 194.402 225.759 194.381L225.567 194.251C225.536 194.229 225.507 194.204 225.482 194.175L225.331 194C225.307 193.971 225.285 193.939 225.269 193.905L225.169 193.697C225.152 193.663 225.14 193.627 225.133 193.59L225.09 193.363C225.083 193.325 225.081 193.287 225.084 193.25L225.101 193.019C225.104 192.981 225.112 192.944 225.124 192.908L225.201 192.69C225.207 192.672 225.214 192.654 225.223 192.638L231.235 180.713C231.243 180.696 231.253 180.68 231.263 180.665L231.393 180.473C231.415 180.442 231.44 180.413 231.469 180.388L231.644 180.237C231.673 180.213 231.705 180.192 231.739 180.175L231.947 180.075C231.981 180.058 232.017 180.046 232.055 180.039L232.282 179.996C232.319 179.989 232.357 179.987 232.395 179.99L232.625 180.007C232.664 180.01 232.701 180.018 232.737 180.03L232.955 180.107C232.991 180.119 233.025 180.136 233.056 180.157L233.247 180.287C233.279 180.309 233.307 180.334 233.332 180.363L233.483 180.538C233.508 180.567 233.529 180.599 233.545 180.633L233.646 180.841C233.662 180.875 233.674 180.911 233.681 180.948L233.724 181.175C233.731 181.213 233.733 181.25 233.731 181.288L233.713 181.519C233.711 181.557 233.703 181.594 233.69 181.63L233.614 181.848C233.608 181.866 233.6 181.884 233.592 181.9L227.58 193.825C227.571 193.842 227.562 193.858 227.551 193.873L227.421 194.065C227.4 194.096 227.374 194.125 227.345 194.15L227.17 194.301C227.141 194.325 227.109 194.346 227.075 194.363L226.867 194.463C226.833 194.48 226.797 194.492 226.76 194.499L226.533 194.542C226.495 194.549 226.457 194.551 226.42 194.548Z" fill="white"/>
<path id="Vector_62" d="M232.362 180.423L232.593 180.44L232.811 180.516L233.003 180.646L233.153 180.821L233.254 181.029L233.297 181.256L233.28 181.487L233.204 181.705L232.202 183.691L231.2 185.678L230.199 187.664L229.197 189.652L228.194 191.641L227.192 193.63L227.062 193.821L226.887 193.972L226.678 194.072L226.451 194.115L226.221 194.098L226.003 194.021L225.811 193.891L225.66 193.716L225.56 193.508L225.517 193.281L225.534 193.051L225.61 192.833L226.612 190.847L227.614 188.86L228.615 186.874L229.617 184.886L230.619 182.897L231.622 180.908L231.752 180.717L231.927 180.566L232.135 180.466L232.362 180.423M232.362 179.555C232.308 179.555 232.254 179.56 232.2 179.57L231.973 179.613C231.898 179.627 231.826 179.651 231.758 179.684L231.55 179.784C231.482 179.817 231.418 179.859 231.36 179.908L231.185 180.059C231.127 180.109 231.077 180.166 231.034 180.229L230.904 180.42C230.882 180.451 230.863 180.484 230.846 180.518L229.844 182.507L228.841 184.496L227.839 186.483L226.838 188.469L225.836 190.456L224.834 192.442C224.817 192.476 224.803 192.511 224.79 192.546L224.714 192.764C224.689 192.836 224.673 192.911 224.668 192.987L224.65 193.217C224.645 193.293 224.649 193.369 224.664 193.444L224.707 193.671C224.721 193.745 224.745 193.817 224.777 193.885L224.878 194.093C224.911 194.161 224.952 194.225 225.002 194.283L225.153 194.458C225.203 194.516 225.26 194.566 225.323 194.609L225.514 194.739C225.577 194.781 225.644 194.816 225.716 194.841L225.934 194.917C226.006 194.942 226.081 194.958 226.157 194.963L226.387 194.98C226.463 194.986 226.539 194.982 226.614 194.967L226.841 194.924C226.915 194.91 226.987 194.886 227.055 194.854L227.264 194.754C227.332 194.721 227.396 194.679 227.454 194.629L227.629 194.478C227.687 194.429 227.737 194.372 227.78 194.309L227.91 194.118C227.931 194.086 227.951 194.054 227.968 194.02L228.97 192.031L229.973 190.042L230.975 188.055L231.976 186.069L232.978 184.082L233.979 182.095C233.997 182.062 234.011 182.027 234.024 181.991L234.1 181.773C234.125 181.701 234.141 181.626 234.146 181.551L234.163 181.32C234.169 181.245 234.165 181.168 234.15 181.094L234.107 180.867C234.093 180.793 234.069 180.721 234.036 180.653L233.936 180.445C233.903 180.376 233.861 180.313 233.812 180.255L233.661 180.08C233.611 180.022 233.554 179.971 233.49 179.928L233.299 179.798C233.237 179.756 233.169 179.722 233.098 179.697L232.88 179.621C232.808 179.596 232.733 179.58 232.657 179.575L232.426 179.557C232.405 179.556 232.384 179.555 232.362 179.555L232.362 179.555Z" fill="#231F20"/>
<path id="Vector_63" d="M274.136 71.7247C274.098 71.7227 274.06 71.7157 274.024 71.7039L273.804 71.6321C273.768 71.6204 273.734 71.604 273.702 71.5835L273.509 71.4576C273.477 71.437 273.448 71.4122 273.422 71.3839L273.268 71.212C273.243 71.1836 273.221 71.1521 273.204 71.1182L273.099 70.9122C273.091 70.8954 273.083 70.878 273.077 70.8601L268.631 58.2681C268.625 58.2503 268.62 58.2321 268.616 58.2137L268.568 57.9874C268.56 57.9501 268.557 57.9119 268.559 57.8737L268.571 57.6431C268.573 57.6052 268.58 57.5679 268.592 57.532L268.664 57.3124C268.676 57.2765 268.692 57.2424 268.713 57.2105L268.839 57.017C268.859 56.9851 268.884 56.9562 268.912 56.9307L269.084 56.7762C269.113 56.7508 269.145 56.7291 269.179 56.7117L269.385 56.6072C269.418 56.5902 269.454 56.5777 269.491 56.5699L269.717 56.5219C269.747 56.5155 269.777 56.5123 269.807 56.5123C269.815 56.5123 270.062 56.5253 270.062 56.5253C270.1 56.5274 270.137 56.5343 270.173 56.5462L270.393 56.6179C270.429 56.6298 270.463 56.646 270.495 56.6668L270.689 56.793C270.721 56.8135 270.749 56.8384 270.775 56.8665L270.929 57.0384C270.955 57.0667 270.976 57.0983 270.994 57.1321L271.098 57.3381C271.106 57.3549 271.114 57.3723 271.12 57.3902L275.566 69.9822C275.573 69.9999 275.578 70.0181 275.582 70.0363L275.63 70.2623C275.638 70.2997 275.641 70.3381 275.639 70.3763L275.626 70.6072C275.624 70.6451 275.617 70.6825 275.605 70.7186L275.533 70.9383C275.522 70.9741 275.505 71.0082 275.485 71.0398L275.359 71.2334C275.338 71.2652 275.313 71.2942 275.285 71.3196L275.113 71.4741C275.085 71.4996 275.053 71.5213 275.019 71.5387L274.813 71.6431C274.779 71.6601 274.744 71.6727 274.707 71.6804L274.48 71.7285C274.451 71.7348 274.42 71.738 274.39 71.738C274.382 71.738 274.136 71.725 274.136 71.725L274.136 71.7247Z" fill="white"/>
<path id="Vector_64" d="M269.807 56.9463L270.038 56.9587L270.258 57.0305L270.451 57.1564L270.606 57.3282L270.71 57.5343L271.451 59.6318L272.192 61.7299L272.933 63.8288L273.674 65.9269L274.416 68.0265L275.157 70.126L275.205 70.3523L275.193 70.5829L275.121 70.8025L274.995 70.9961L274.823 71.1506L274.617 71.255L274.39 71.3031L274.16 71.2906L273.94 71.2189L273.746 71.093L273.592 70.9211L273.487 70.7151L272.746 68.6176L272.006 66.5195L271.264 64.4206L270.523 62.3225L269.782 60.2229L269.041 58.1234L268.993 57.8974L269.005 57.6665L269.077 57.4469L269.203 57.2533L269.375 57.0988L269.581 56.9943L269.807 56.9463M269.807 56.0782C269.747 56.0782 269.686 56.0846 269.627 56.0971L269.401 56.1451C269.327 56.1607 269.256 56.1859 269.188 56.22L268.982 56.3245C268.914 56.3588 268.851 56.402 268.795 56.453L268.623 56.6075C268.566 56.6583 268.516 56.7164 268.475 56.7802L268.349 56.9738C268.308 57.037 268.275 57.1053 268.252 57.1769L268.18 57.3965C268.156 57.4689 268.142 57.5438 268.138 57.6199L268.126 57.8508C268.122 57.927 268.128 58.0033 268.143 58.078L268.192 58.3039C268.199 58.3407 268.209 58.3769 268.222 58.4124L268.963 60.512L269.705 62.6115L270.446 64.7096L271.187 66.8086L271.928 68.9067L272.668 71.0042C272.681 71.0398 272.695 71.0742 272.713 71.1078L272.817 71.3138C272.852 71.3818 272.895 71.4449 272.946 71.5016L273.101 71.6734C273.151 71.7299 273.209 71.7796 273.273 71.821L273.467 71.9469C273.53 71.988 273.599 72.0207 273.671 72.0441L273.89 72.1159C273.962 72.1396 274.037 72.1535 274.113 72.1575L274.344 72.17C274.42 72.174 274.497 72.168 274.571 72.1523L274.798 72.1043C274.871 72.0886 274.943 72.0635 275.01 72.0293L275.216 71.9249C275.284 71.8905 275.348 71.8471 275.404 71.7961L275.576 71.6416C275.633 71.591 275.682 71.5331 275.724 71.4695L275.85 71.2759C275.891 71.2125 275.923 71.1442 275.947 71.0725L276.019 70.8528C276.042 70.7805 276.056 70.7056 276.06 70.6298L276.073 70.3991C276.077 70.3231 276.071 70.2468 276.055 70.1723L276.007 69.946C275.999 69.9091 275.989 69.8728 275.976 69.8372L275.235 67.7377L274.493 65.6381L273.753 63.5401L273.011 61.4411L272.27 59.343L271.53 57.2455C271.517 57.21 271.503 57.1754 271.486 57.1419L271.381 56.9359C271.347 56.868 271.303 56.8049 271.252 56.7484L271.098 56.5765C271.047 56.5199 270.989 56.4703 270.925 56.4289L270.731 56.3031C270.668 56.262 270.6 56.2293 270.528 56.2059L270.308 56.1341C270.236 56.1104 270.161 56.0964 270.085 56.0924L269.854 56.08C269.839 56.0792 269.823 56.0788 269.808 56.0788L269.807 56.0782Z" fill="#231F20"/>
<path id="Vector_65" d="M77.7355 34.6637C77.6979 34.6615 77.6607 34.6545 77.6249 34.6428L77.4054 34.5708C77.3693 34.559 77.3348 34.5424 77.3029 34.5216L77.1095 34.3952C77.0777 34.3743 77.0487 34.3494 77.0233 34.3211L76.8692 34.1486C76.8568 34.1345 76.8452 34.1196 76.8345 34.1041L69.304 23.0737C69.2934 23.0582 69.2838 23.0419 69.2754 23.0251L69.1709 22.8188C69.1536 22.7848 69.1409 22.7487 69.1332 22.7114L69.086 22.4851C69.0782 22.4479 69.0753 22.4097 69.0776 22.3717L69.0907 22.1411C69.0928 22.1036 69.0998 22.0666 69.1115 22.0309L69.1836 21.8112C69.1954 21.7751 69.212 21.7407 69.2328 21.7088L69.3593 21.5155C69.3802 21.4837 69.4051 21.4548 69.4335 21.4293L69.606 21.2754C69.6342 21.2504 69.6654 21.2291 69.699 21.212L69.9054 21.1075C69.9396 21.0902 69.9758 21.0775 70.0131 21.0699L70.2395 21.0228C70.2688 21.0167 70.2983 21.0138 70.3281 21.0138C70.3362 21.0138 70.5832 21.0274 70.5832 21.0274C70.6208 21.0294 70.6582 21.0367 70.6941 21.0482L70.9138 21.1203C70.95 21.1321 70.9842 21.1486 71.016 21.1695L71.2094 21.2959C71.2413 21.3167 71.2702 21.3416 71.2957 21.37L71.4498 21.5424C71.4622 21.5566 71.4738 21.5714 71.4845 21.587L79.0147 32.6171C79.0254 32.6327 79.0346 32.6486 79.0433 32.6654L79.1478 32.8717C79.1649 32.9059 79.1777 32.9417 79.1855 32.9794L79.2327 33.2056C79.2405 33.2427 79.2434 33.2809 79.2411 33.3191L79.228 33.5497C79.226 33.5873 79.2188 33.6243 79.2072 33.6602L79.1351 33.8798C79.1232 33.9158 79.1068 33.9502 79.0862 33.982L78.9596 34.1753C78.9388 34.2071 78.9136 34.2363 78.8852 34.2618L78.7127 34.4157C78.6845 34.4407 78.6533 34.462 78.6197 34.4791L78.4133 34.5835C78.3794 34.6009 78.3432 34.6133 78.3059 34.6211L78.0795 34.6683C78.0503 34.6744 78.0206 34.6775 77.9909 34.6776C77.9828 34.6776 77.7352 34.6637 77.7352 34.6637H77.7355Z" fill="white"/>
<path id="Vector_66" d="M70.3281 21.4478L70.5589 21.4608L70.7786 21.5328L70.972 21.6593L71.1261 21.8317L72.3806 23.6691L73.6351 25.5071L74.8891 27.3439L76.1442 29.1824L77.4002 31.0221L78.6562 32.8618L78.7607 33.0681L78.8079 33.2944L78.7949 33.525L78.7228 33.7446L78.5963 33.9379L78.4237 34.0919L78.2173 34.1963L77.9909 34.2435L77.7601 34.2305L77.5404 34.1584L77.347 34.032L77.1929 33.8595L75.9384 32.0221L74.6835 30.1842L73.4296 28.3474L72.1745 26.5088L70.9185 24.6691L69.6625 22.8294L69.558 22.6231L69.5108 22.3968L69.5238 22.1662L69.5959 21.9466L69.7224 21.7533L69.895 21.5994L70.1014 21.4949L70.3278 21.4478M70.3278 20.5797C70.2682 20.5797 70.2088 20.5858 70.1503 20.5979L69.9239 20.6451C69.8493 20.6607 69.7771 20.686 69.7091 20.7203L69.5027 20.8248C69.4353 20.8588 69.3727 20.9015 69.3165 20.9518L69.1439 21.1058C69.087 21.1565 69.0371 21.2146 68.9954 21.2785L68.8689 21.4718C68.8274 21.5353 68.7944 21.604 68.7707 21.6761L68.6986 21.8957C68.6752 21.9674 68.661 22.0421 68.6566 22.1173L68.6436 22.3479C68.6393 22.4238 68.6451 22.4999 68.6604 22.5742L68.7076 22.8005C68.7232 22.8751 68.7484 22.9475 68.7829 23.0155L68.8874 23.2218C68.9045 23.2553 68.9236 23.2878 68.9447 23.3187L70.2007 25.1584L71.4567 26.9981L72.7118 28.8367L73.9661 30.6735L75.2206 32.5114L76.4752 34.3488C76.4963 34.3798 76.5195 34.4096 76.5447 34.4376L76.6987 34.6101C76.7496 34.6671 76.8076 34.7169 76.8715 34.7588L77.0649 34.8853C77.1286 34.9269 77.1973 34.9599 77.2696 34.9836L77.4894 35.0557C77.5612 35.0791 77.6356 35.0933 77.7109 35.0977L77.9416 35.1107C78.0176 35.115 78.0938 35.1094 78.1684 35.0939L78.3948 35.0467C78.4695 35.0311 78.5416 35.0059 78.6096 34.9715L78.816 34.867C78.8835 34.8329 78.946 34.7904 79.0025 34.74L79.1751 34.5861C79.2318 34.5354 79.2816 34.4775 79.3233 34.4139L79.4498 34.2206C79.4914 34.157 79.5245 34.0882 79.5483 34.0161L79.6204 33.7964C79.6438 33.7247 79.658 33.6503 79.6623 33.5751L79.6754 33.3445C79.6796 33.2686 79.674 33.1926 79.6586 33.1182L79.6114 32.8919C79.5958 32.8174 79.5705 32.7452 79.5361 32.6772L79.4316 32.4709C79.4146 32.4373 79.3954 32.4048 79.3743 32.3737L78.1183 30.534L76.8623 28.6943L75.6072 26.8558L74.3532 25.0189L73.0986 23.181L71.8441 21.3436C71.8229 21.3126 71.7997 21.283 71.7746 21.2551L71.6206 21.0826C71.5698 21.0258 71.5118 20.9759 71.448 20.9342L71.2546 20.8077C71.191 20.7661 71.1222 20.7331 71.0499 20.7093L70.8302 20.6373C70.7584 20.6138 70.684 20.5997 70.6087 20.5953L70.3779 20.5823C70.3615 20.5814 70.3451 20.5809 70.3287 20.5809L70.3278 20.5797Z" fill="#231F20"/>
<path id="Vector_67" d="M78.8056 64.6099C78.7679 64.6077 78.7306 64.6007 78.6947 64.589L78.475 64.517C78.4389 64.5051 78.4045 64.4886 78.3728 64.4678L78.1794 64.3413C78.1475 64.3205 78.1185 64.2956 78.0931 64.2673L77.939 64.0948C77.9266 64.0807 77.915 64.0658 77.9043 64.0502L67.0385 48.1344C67.0278 48.1189 67.0182 48.1027 67.0098 48.0858L66.9053 47.8795C66.888 47.8456 66.8753 47.8095 66.8676 47.7722L66.8204 47.5459C66.8126 47.5086 66.8097 47.4705 66.812 47.4325L66.8251 47.2019C66.8271 47.1643 66.8343 47.1272 66.8459 47.0916L66.918 46.872C66.9298 46.8359 66.9464 46.8014 66.9672 46.7696L67.0937 46.5763C67.1146 46.5445 67.1398 46.5152 67.1682 46.4898L67.3407 46.3358C67.3689 46.3109 67.4001 46.2896 67.4337 46.2725L67.6401 46.168C67.674 46.1507 67.7102 46.1382 67.7475 46.1304L67.9739 46.0832C68.0031 46.0771 68.0328 46.074 68.0625 46.074C68.0706 46.074 68.3182 46.0879 68.3182 46.0879C68.3558 46.0899 68.3929 46.0971 68.4288 46.1087L68.6482 46.1807C68.6844 46.1926 68.7189 46.2091 68.7507 46.2299L68.9442 46.3564C68.976 46.3772 69.0049 46.4021 69.0304 46.4305L69.1845 46.6029C69.1969 46.6171 69.2085 46.6318 69.2192 46.6475L80.0851 62.5633C80.0958 62.5789 80.1053 62.5951 80.1137 62.6119L80.2182 62.8182C80.2356 62.852 80.2481 62.8882 80.2559 62.9255L80.3031 63.1518C80.3109 63.1888 80.3138 63.227 80.3115 63.2652L80.2984 63.4958C80.2964 63.5335 80.2892 63.5705 80.2776 63.6064L80.2055 63.8257C80.1937 63.8619 80.1771 63.8963 80.1563 63.9281L80.0298 64.1214C80.0089 64.1533 79.9837 64.1825 79.9553 64.2079L79.7828 64.3619C79.7546 64.3869 79.7234 64.4082 79.6898 64.4252L79.4834 64.5297C79.4495 64.5471 79.4133 64.5595 79.376 64.5673L79.1496 64.6145C79.1204 64.6206 79.0908 64.6237 79.061 64.6237C79.0529 64.6237 78.8059 64.6101 78.8059 64.6101L78.8056 64.6099Z" fill="white"/>
<path id="Vector_68" d="M68.0622 46.5082L68.293 46.5213L68.5128 46.5933L68.7062 46.7198L68.8602 46.8922L70.6701 49.5435L72.4805 52.1954L74.2915 54.8482L76.102 57.5004L77.9139 60.1544L79.7258 62.8083L79.8303 63.0146L79.8775 63.2409L79.8644 63.4715L79.7923 63.6911L79.6658 63.8844L79.4933 64.0383L79.2868 64.1428L79.0604 64.19L78.8296 64.1769L78.6099 64.1049L78.4165 63.9784L78.2625 63.806L76.4526 61.1547L74.6421 58.5027L72.8311 55.85L71.0207 53.1981L69.2088 50.5441L67.3969 47.8902L67.2924 47.6839L67.2452 47.4576L67.2582 47.227L67.3303 47.0074L67.4568 46.8141L67.6294 46.6601L67.8358 46.5557L68.0622 46.5085M68.0622 45.6405C68.0026 45.6405 67.9432 45.6465 67.8848 45.6587L67.6583 45.7059C67.5836 45.7214 67.5113 45.7467 67.4432 45.7811L67.2368 45.8856C67.1696 45.9196 67.1072 45.9622 67.0509 46.0123L66.8783 46.1662C66.8215 46.217 66.7716 46.2749 66.7298 46.3387L66.6033 46.532C66.5617 46.5956 66.5286 46.6643 66.5048 46.7365L66.4328 46.9562C66.4093 47.0279 66.3951 47.1023 66.3908 47.1775L66.3777 47.4081C66.3734 47.4839 66.3792 47.56 66.3945 47.6341L66.4417 47.8604C66.4574 47.935 66.4828 48.0074 66.5173 48.0757L66.6218 48.282C66.6389 48.3155 66.658 48.3479 66.6791 48.3789L68.491 51.0328L70.3029 53.6868L72.1134 56.3387L73.9244 58.9915L75.7348 61.6434L77.5447 64.2947C77.5658 64.3259 77.5893 64.3555 77.6142 64.3835L77.7682 64.556C77.8192 64.613 77.8771 64.6628 77.9411 64.7044L78.1345 64.8309C78.1979 64.8722 78.2668 64.9052 78.3389 64.929L78.5587 65.001C78.6305 65.0244 78.7052 65.0386 78.7804 65.043L79.0112 65.056C79.0872 65.0603 79.1634 65.0547 79.2379 65.0392L79.4643 64.992C79.539 64.9764 79.6114 64.9512 79.6794 64.9168L79.8859 64.8123C79.953 64.7782 80.0156 64.7357 80.0717 64.6856L80.2443 64.5317C80.3011 64.4809 80.3511 64.423 80.3928 64.3592L80.5194 64.1659C80.5611 64.1023 80.5941 64.0337 80.6178 63.9617L80.6899 63.742C80.7136 63.6703 80.7275 63.5956 80.7319 63.5201L80.7449 63.2895C80.7492 63.2138 80.7435 63.1378 80.7281 63.0635L80.6809 62.8372C80.6652 62.7625 80.6398 62.6901 80.6054 62.622L80.5008 62.4156C80.4838 62.3821 80.4647 62.3498 80.4435 62.3187L78.6316 59.6648L76.8197 57.0108L75.0093 54.3586L73.198 51.7059L71.3875 49.054L69.5776 46.4026C69.5565 46.3715 69.5332 46.3419 69.5082 46.3138L69.3541 46.1413C69.3033 46.0845 69.2452 46.0345 69.1813 45.9929L68.9879 45.8665C68.9243 45.825 68.8556 45.7921 68.7835 45.7684L68.5637 45.6963C68.4919 45.6729 68.4174 45.6588 68.3419 45.6544L68.1112 45.6413C68.0948 45.6404 68.0784 45.6399 68.062 45.6399L68.0622 45.6405Z" fill="#231F20"/>
<path id="Vector_69" d="M250.06 190.115L249.829 190.098C249.791 190.095 249.754 190.087 249.718 190.075L249.5 189.998C249.464 189.986 249.43 189.969 249.399 189.948L249.208 189.818C249.176 189.796 249.148 189.771 249.123 189.742L248.972 189.567C248.947 189.538 248.926 189.506 248.91 189.472L248.809 189.264C248.793 189.23 248.781 189.194 248.774 189.157L248.731 188.93C248.724 188.893 248.721 188.855 248.724 188.817L248.741 188.586C248.744 188.548 248.752 188.511 248.765 188.475L248.841 188.257C248.847 188.239 248.855 188.222 248.863 188.205L259.222 167.656C259.231 167.639 259.24 167.623 259.251 167.608L259.381 167.417C259.402 167.385 259.428 167.357 259.457 167.332L259.632 167.181C259.661 167.156 259.693 167.135 259.727 167.119L259.935 167.019C259.969 167.002 260.005 166.99 260.042 166.983L260.27 166.94C260.307 166.933 260.345 166.931 260.383 166.934L260.613 166.951C260.651 166.954 260.689 166.962 260.725 166.974L260.943 167.051C260.979 167.063 261.013 167.08 261.044 167.101L261.235 167.231C261.266 167.252 261.295 167.278 261.32 167.307L261.471 167.482C261.495 167.511 261.517 167.543 261.533 167.577L261.634 167.785C261.65 167.819 261.662 167.855 261.669 167.892L261.712 168.119C261.719 168.156 261.721 168.195 261.718 168.232L261.701 168.463C261.698 168.501 261.691 168.538 261.678 168.574L261.602 168.792C261.596 168.81 261.588 168.827 261.579 168.844L251.22 189.393C251.212 189.409 251.202 189.426 251.192 189.441L251.062 189.632C251.04 189.664 251.015 189.692 250.986 189.717L250.811 189.868C250.782 189.893 250.75 189.914 250.716 189.93L250.507 190.03C250.473 190.047 250.437 190.059 250.4 190.066L250.173 190.109C250.136 190.116 250.098 190.118 250.06 190.115V190.115Z" fill="white"/>
<path id="Vector_70" d="M260.35 167.366L260.581 167.383L260.799 167.46L260.99 167.59L261.141 167.765L261.242 167.973L261.285 168.199L261.268 168.43L261.191 168.648L259.466 172.071L257.739 175.495L256.013 178.92L254.286 182.344L252.559 185.77L250.832 189.196L250.702 189.388L250.527 189.538L250.318 189.639L250.091 189.682L249.861 189.665L249.643 189.588L249.451 189.458L249.3 189.283L249.2 189.075L249.157 188.848L249.174 188.618L249.251 188.4L250.976 184.977L252.702 181.553L254.429 178.128L256.155 174.704L257.883 171.278L259.61 167.852L259.74 167.66L259.915 167.51L260.123 167.41L260.35 167.366M260.35 166.498C260.296 166.498 260.241 166.503 260.187 166.513L259.96 166.557C259.886 166.571 259.814 166.595 259.746 166.627L259.538 166.728C259.47 166.76 259.406 166.802 259.348 166.852L259.173 167.003C259.115 167.053 259.064 167.11 259.021 167.173L258.891 167.364C258.87 167.395 258.851 167.427 258.834 167.461L257.107 170.887L255.379 174.313L253.653 177.737L251.926 181.162L250.2 184.586L248.475 188.009C248.458 188.043 248.443 188.078 248.431 188.113L248.354 188.331C248.329 188.403 248.313 188.478 248.308 188.554L248.29 188.785C248.285 188.86 248.289 188.936 248.304 189.011L248.347 189.238C248.361 189.312 248.385 189.384 248.417 189.452L248.517 189.66C248.55 189.728 248.592 189.792 248.642 189.85L248.793 190.025C248.843 190.083 248.9 190.134 248.963 190.176L249.154 190.306C249.216 190.349 249.284 190.383 249.355 190.408L249.574 190.484C249.646 190.509 249.72 190.525 249.797 190.53L250.027 190.547C250.103 190.553 250.179 190.548 250.254 190.534L250.481 190.491C250.555 190.477 250.627 190.453 250.695 190.421L250.904 190.32C250.972 190.287 251.036 190.245 251.093 190.196L251.268 190.045C251.326 189.995 251.377 189.938 251.42 189.875L251.55 189.684C251.571 189.653 251.591 189.62 251.607 189.587L253.335 186.161L255.062 182.734L256.788 179.311L258.515 175.886L260.241 172.462L261.967 169.039C261.984 169.005 261.998 168.97 262.011 168.935L262.087 168.717C262.112 168.645 262.128 168.57 262.134 168.494L262.151 168.263C262.156 168.188 262.152 168.112 262.138 168.037L262.095 167.81C262.08 167.736 262.057 167.664 262.024 167.596L261.923 167.388C261.89 167.32 261.849 167.256 261.799 167.198L261.648 167.023C261.599 166.965 261.541 166.914 261.478 166.871L261.287 166.741C261.224 166.699 261.157 166.665 261.086 166.64L260.867 166.564C260.795 166.539 260.721 166.523 260.645 166.517L260.414 166.5C260.393 166.499 260.371 166.498 260.35 166.498L260.35 166.498Z" fill="#231F20"/>
<path id="Vector_71" d="M34.1409 107.865L34.3508 108.878L34.5689 109.891L34.7906 110.903L35.0116 111.917L35.2273 112.93L35.4331 113.946L36.4476 114.151L37.4616 114.366L38.4749 114.587L39.4889 114.809L40.5025 115.027L41.5176 115.237L40.504 115.447L39.4909 115.666L38.4776 115.887L37.4633 116.108L36.4491 116.324L35.4331 116.529L35.2276 117.543L35.0121 118.557L34.7912 119.569L34.5692 120.583L34.3508 121.596L34.1401 122.61L33.9302 121.575L33.7121 120.541L33.4904 119.507L33.2694 118.472L33.0537 117.437L32.8479 116.4L31.8334 116.216L30.8197 116.022L29.8061 115.823L28.7918 115.623L27.7785 115.426L26.7634 115.238L27.777 115.006L28.7904 114.767L29.8035 114.523L30.8174 114.281L31.8316 114.044L32.8479 113.816L33.0535 112.824L33.2689 111.832L33.4898 110.841L33.7119 109.849L33.9302 108.858L34.1409 107.865Z" fill="white"/>
<path id="Vector_72" d="M34.5651 122.698L33.7142 122.696L32.4793 116.774L30.7381 116.449L26.684 115.664L26.6667 114.815L32.4793 113.454L32.8444 111.74L33.7159 107.775L34.566 107.777L35.8014 113.578L37.5516 113.943L41.6054 114.813V115.663L35.8011 116.898L35.4363 118.647L34.5648 122.699L34.5651 122.698ZM28.8645 115.195L32.9252 115.973L33.2735 116.316L33.6942 118.383L34.1447 120.489L34.8025 117.453L35.0072 116.443L35.3466 116.104L37.3724 115.684L39.4162 115.237L35.3466 114.371L35.0072 114.032L34.5865 112.007L34.1354 109.943L33.4773 112.916L33.2726 113.904L32.9423 114.24L30.9161 114.703L28.8642 115.195L28.8645 115.195Z" fill="#231F20"/>
<path id="Vector_73" d="M229.044 80.6686L228.998 80.3165L228.862 79.9889L228.646 79.7077L228.365 79.4915L228.037 79.3558L227.685 79.3098L227.333 79.3558L227.005 79.4918L226.723 79.708L226.507 79.9892L226.371 80.3168L226.325 80.6686L226.371 81.0205L226.507 81.348L226.724 81.6293L227.005 81.8454L227.333 81.9811L227.685 82.0271L228.037 81.9811L228.365 81.8451L228.646 81.6293L228.862 81.348L228.998 81.0202L229.044 80.6686Z" fill="white"/>
<path id="Vector_74" d="M227.741 82.4574H227.629L227.277 82.4114L227.167 82.3818L226.839 82.2461L226.741 82.1894L226.459 81.9733L226.38 81.8937L226.163 81.6125L226.107 81.5141L225.97 81.1862L225.941 81.0763L225.895 80.7244V80.6119L225.941 80.26L225.97 80.1501L226.106 79.8222L226.163 79.7239L226.379 79.4426L226.459 79.363L226.74 79.1469L226.838 79.0902L227.166 78.9542L227.276 78.9247L227.628 78.8787H227.741L228.093 78.9247L228.203 78.9542L228.531 79.0902L228.629 79.1469L228.91 79.3627L228.99 79.4423L229.207 79.7239L229.263 79.8219L229.399 80.1495L229.429 80.2597L229.475 80.6119V80.7244L229.429 81.0763L229.399 81.1865L229.264 81.5141L229.207 81.6122L228.991 81.8934L228.911 81.973L228.63 82.1891L228.531 82.2458L228.204 82.3818L228.094 82.4114L227.742 82.4574H227.741ZM227.446 81.5581L227.685 81.5893L227.924 81.5581L228.146 81.4663L228.337 81.3196L228.484 81.1289L228.576 80.907L228.607 80.6686L228.576 80.4299L228.484 80.2079L228.337 80.0173L228.146 79.8706L227.924 79.7788L227.685 79.7476L227.447 79.7788L227.225 79.8706L227.034 80.0173L226.887 80.2079L226.795 80.4299L226.764 80.6686L226.795 80.907L226.887 81.1292L227.034 81.3199L227.225 81.4663L227.447 81.5581H227.446Z" fill="#231F20"/>
<path id="Vector_75" d="M238.611 196.472L238.565 196.12L238.429 195.792L238.212 195.511L237.931 195.295L237.603 195.159L237.251 195.113L236.899 195.159L236.571 195.295L236.29 195.511L236.074 195.792L235.938 196.12L235.892 196.472L235.938 196.824L236.074 197.151L236.29 197.432L236.571 197.649L236.899 197.784L237.251 197.83L237.604 197.784L237.931 197.649L238.213 197.432L238.429 197.151L238.565 196.823L238.611 196.472Z" fill="white"/>
<path id="Vector_76" d="M237.195 198.261L236.843 198.215L236.733 198.185L236.405 198.049L236.307 197.993L236.026 197.776L235.946 197.697L235.73 197.416L235.673 197.318L235.537 196.99L235.507 196.88L235.461 196.528V196.415L235.507 196.063L235.537 195.953L235.673 195.626L235.729 195.528L235.946 195.246L236.026 195.166L236.307 194.95L236.406 194.893L236.733 194.758L236.843 194.728L237.195 194.682H237.307L237.659 194.728L237.77 194.757L238.098 194.893L238.196 194.95L238.477 195.166L238.557 195.246L238.773 195.527L238.83 195.625L238.966 195.953L238.995 196.063L239.041 196.415V196.528L238.995 196.879L238.966 196.989L238.83 197.317L238.773 197.415L238.557 197.697L238.477 197.776L238.196 197.992L238.098 198.049L237.77 198.185L237.66 198.215L237.308 198.261H237.195ZM237.013 197.362L237.251 197.392L237.49 197.361L237.712 197.27L237.903 197.123L238.05 196.932L238.142 196.71L238.173 196.472L238.142 196.233L238.05 196.011L237.903 195.82L237.712 195.674L237.49 195.582L237.252 195.551L237.013 195.582L236.791 195.674L236.6 195.82L236.453 196.011L236.361 196.233L236.33 196.472L236.361 196.71L236.453 196.932L236.6 197.123L236.791 197.27L237.013 197.362H237.013Z" fill="#231F20"/>
<path id="Vector_77" d="M156.581 40.5094L156.535 40.1573L156.399 39.8297L156.183 39.5485L155.901 39.3323L155.574 39.1966L155.222 39.1506L154.869 39.1966L154.541 39.3326L154.26 39.5488L154.044 39.83L153.908 40.1576L153.862 40.5094L153.908 40.8613L154.044 41.1888L154.26 41.4701L154.542 41.6862L154.869 41.8219L155.222 41.8679L155.574 41.8219L155.902 41.6859L156.183 41.4701L156.399 41.1888L156.535 40.861L156.581 40.5094Z" fill="white"/>
<path id="Vector_78" d="M155.278 42.2982H155.165L154.813 42.2522L154.704 42.2227L154.376 42.087L154.277 42.0302L153.996 41.8141L153.916 41.7345L153.7 41.4533L153.643 41.3549L153.507 41.0271L153.478 40.9171L153.432 40.5653V40.4527L153.478 40.1008L153.507 39.9909L153.643 39.6631L153.7 39.5647L153.916 39.2834L153.996 39.2039L154.277 38.9877L154.375 38.931L154.703 38.795L154.813 38.7655L155.165 38.7195H155.278L155.63 38.7655L155.74 38.795L156.068 38.931L156.166 38.9877L156.447 39.2036L156.527 39.2831L156.743 39.5647L156.8 39.6628L156.936 39.9903L156.966 40.1006L157.012 40.4527V40.5653L156.966 40.9171L156.936 41.0274L156.8 41.3549L156.744 41.453L156.527 41.7342L156.448 41.8138L156.166 42.03L156.068 42.0867L155.74 42.2227L155.63 42.2522L155.278 42.2982H155.278ZM154.983 41.3989L155.222 41.4301L155.461 41.3989L155.682 41.3072L155.874 41.1605L156.02 40.9698L156.112 40.7478L156.144 40.5094L156.112 40.2707L156.02 40.0488L155.874 39.8581L155.683 39.7114L155.461 39.6197L155.222 39.5884L154.983 39.6197L154.761 39.7114L154.571 39.8581L154.424 40.0488L154.332 40.2707L154.301 40.5094L154.332 40.7478L154.424 40.9701L154.571 41.1607L154.762 41.3072L154.984 41.3989H154.983Z" fill="#231F20"/>
<path id="Vector_79" d="M55.7661 71.9153L55.7201 71.5635L55.584 71.2356L55.3677 70.9544L55.0863 70.7385L54.7585 70.6025L54.4064 70.5565L54.0544 70.6028L53.7263 70.7385L53.4449 70.9547L53.2289 71.2359L53.0928 71.5635L53.0468 71.9153L53.0931 72.2675L53.2289 72.595L53.4452 72.8763L53.7266 73.0924L54.0544 73.2281L54.4064 73.2741L54.7585 73.2281L55.0866 73.0921L55.368 72.876L55.584 72.5947L55.7201 72.2672L55.7661 71.9153Z" fill="white"/>
<path id="Vector_80" d="M54.4629 73.7044H54.3503L53.9982 73.6584L53.8882 73.6289L53.5604 73.4929L53.4623 73.4362L53.1809 73.2203L53.101 73.1408L52.8847 72.8592L52.8279 72.7611L52.6918 72.4336L52.6623 72.3234L52.6163 71.9712V71.8587L52.6623 71.5068L52.6918 71.3969L52.8276 71.0693L52.8844 70.9709L53.1007 70.6897L53.1803 70.6101L53.4617 70.394L53.5599 70.3372L53.8876 70.2013L53.9976 70.1717L54.3497 70.1257H54.4623L54.8144 70.1717L54.9241 70.2013L55.2519 70.337L55.3503 70.3937L55.6318 70.6098L55.7114 70.6894L55.9277 70.9706L55.9844 71.069L56.1205 71.3969L56.15 71.5068L56.1961 71.8587V71.9712L56.15 72.3231L56.1205 72.433L55.9847 72.7609L55.9279 72.8592L55.7117 73.1405L55.632 73.2201L55.3506 73.4362L55.2525 73.4929L54.9247 73.6289L54.8147 73.6584L54.4626 73.7044H54.4629ZM54.1679 72.8051L54.4065 72.8364L54.6453 72.8051L54.8671 72.7134L55.0579 72.5667L55.2047 72.376L55.2968 72.1541L55.328 71.9154L55.2968 71.6769L55.2047 71.4547L55.0579 71.264L54.8671 71.1176L54.6453 71.0259L54.4065 70.9947L54.1676 71.0259L53.9458 71.1176L53.7547 71.2643L53.6079 71.455L53.5159 71.6769L53.4846 71.9154L53.5159 72.1541L53.6079 72.376L53.7547 72.5667L53.9455 72.7134L54.1676 72.8051H54.1679Z" fill="#231F20"/>
<path id="Vector_81" d="M83.9778 159.529L83.9318 159.178L83.7957 158.85L83.5794 158.569L83.298 158.353L82.9702 158.217L82.6182 158.171L82.2661 158.217L81.9384 158.353L81.6569 158.569L81.4406 158.85L81.3049 159.178L81.2588 159.529L81.3049 159.882L81.4406 160.209L81.6569 160.49L81.9384 160.706L82.2664 160.842L82.6182 160.888L82.9705 160.842L83.2983 160.706L83.5797 160.49L83.796 160.209L83.9318 159.881L83.9778 159.529Z" fill="white"/>
<path id="Vector_82" d="M82.6746 161.318H82.562L82.2099 161.272L82.0999 161.243L81.7722 161.107L81.674 161.05L81.3926 160.834L81.3127 160.755L81.0964 160.474L81.0397 160.375L80.9036 160.047L80.874 159.937L80.828 159.586V159.473L80.874 159.121L80.9036 159.011L81.0394 158.683L81.0961 158.585L81.3124 158.304L81.392 158.224L81.6734 158.008L81.7716 157.951L82.0993 157.815L82.2094 157.786L82.5614 157.74H82.6741L83.0261 157.786L83.1362 157.815L83.4639 157.951L83.5621 158.008L83.8435 158.224L83.9234 158.303L84.1397 158.585L84.1964 158.683L84.3325 159.011L84.362 159.121L84.4081 159.473V159.586L84.362 159.937L84.3325 160.047L84.1967 160.375L84.14 160.473L83.9237 160.755L83.8441 160.834L83.5626 161.05L83.4645 161.107L83.1367 161.243L83.0267 161.272L82.6746 161.318ZM82.3796 160.419L82.6182 160.45L82.857 160.419L83.0788 160.327L83.2699 160.181L83.4164 159.99L83.5085 159.768L83.5398 159.53L83.5085 159.291L83.4164 159.069L83.2696 158.878L83.0785 158.732L82.8565 158.64L82.6179 158.609L82.379 158.64L82.1572 158.732L81.9664 158.878L81.8199 159.069L81.7279 159.291L81.6966 159.53L81.7279 159.768L81.8199 159.99L81.9664 160.181L82.1575 160.327L82.3796 160.419Z" fill="#231F20"/>
<path id="Vector_83" d="M230.078 32.1411L230.335 33.0908L230.593 34.041L230.851 34.9918L231.108 35.9426L231.366 36.8949L231.624 37.8474L232.354 37.1877L233.085 36.5271L233.816 35.8665L234.547 35.2059L235.279 34.5442L236.011 33.8824L235.714 34.8199L235.417 35.7589L235.119 36.6975L234.821 37.6368L234.523 38.5775L234.225 39.5178L235.196 39.3573L236.168 39.1967L237.141 39.0358L238.113 38.8752L239.087 38.714L240.061 38.5529L239.304 39.181L238.546 39.8101L237.787 40.4391L237.029 41.0682L236.269 41.6984L235.51 42.3286L236.413 42.7184L237.318 43.1084L238.223 43.4985L239.128 43.8885L240.035 44.2794L240.941 44.67L239.964 44.7896L238.986 44.9088L238.008 45.0283L237.03 45.1478L236.05 45.2676L235.07 45.3874L235.619 46.2033L236.169 47.0202L236.72 47.8373L237.27 48.6544L237.821 49.473L238.372 50.2916L237.486 49.8642L236.599 49.4363L235.711 49.0083L234.823 48.5801L233.934 48.1515L233.045 47.7227L233.066 48.7059L233.087 49.6906L233.107 50.675L233.128 51.6599L233.149 52.6463L233.17 53.633L232.656 52.7945L232.141 51.9548L231.626 51.1154L231.11 50.2754L230.594 49.4342L230.078 48.5931L229.564 49.4316L229.049 50.2713L228.533 51.1107L228.018 51.9507L227.502 52.7919L226.986 53.633L227.007 52.6495L227.028 51.6651L227.049 50.6805L227.07 49.6955L227.09 48.7091L227.112 47.7227L226.225 48.1501L225.338 48.578L224.45 49.006L223.562 49.4342L222.673 49.8628L221.784 50.2916L222.333 49.4756L222.883 48.6588L223.434 47.8416L223.984 47.0245L224.535 46.2059L225.087 45.3874L224.11 45.2678L223.132 45.1486L222.154 45.0291L221.175 44.9096L220.195 44.7898L219.215 44.67L220.119 44.2806L221.024 43.8905L221.928 43.5005L222.833 43.1104L223.74 42.7195L224.647 42.3286L223.889 41.7004L223.131 41.0717L222.373 40.4426L221.614 39.8133L220.855 39.1831L220.095 38.5529L221.066 38.7135L222.038 38.8743L223.011 39.0349L223.983 39.1958L224.957 39.357L225.931 39.5178L225.634 38.5803L225.336 37.6414L225.039 36.7027L224.741 35.7635L224.443 34.8228L224.145 33.8824L224.875 34.5422L225.606 35.2025L226.336 35.863L227.067 36.5236L227.8 37.1857L228.532 37.8474L228.789 36.8981L229.047 35.9475L229.304 34.9967L229.562 34.0459L229.82 33.0937L230.078 32.1411Z" fill="white"/>
<path id="Vector_84" d="M227.356 53.8595L226.552 53.6234L226.662 48.4211L221.973 50.6824L221.424 50.0493L224.331 45.7322L219.163 45.1011L219.044 44.2718L223.825 42.2108L219.818 38.887L220.167 38.1248L225.304 38.9744L223.732 34.0134L224.437 33.5606L228.299 37.0508L229.66 32.0282H230.498L231.859 37.0508L235.721 33.5606L236.426 34.0134L234.854 38.9744L239.991 38.1248L240.339 38.887L236.333 42.2105L241.114 44.2718L240.995 45.1011L235.826 45.7322L238.733 50.0493L238.184 50.6824L233.495 48.4211L233.605 53.6237L232.801 53.8595L230.079 49.4235L227.357 53.8595H227.356ZM226.923 47.3314L227.546 47.7316L227.455 52.0395L229.708 48.3662H230.449L232.702 52.0392L232.611 47.7313L233.234 47.3314L237.117 49.2038L234.71 45.6295L235.017 44.9562L239.297 44.4333L235.338 42.727L235.233 41.9946L238.55 39.2423L234.297 39.9457L233.812 39.3864L235.114 35.2791L231.916 38.1688L231.205 37.9602L230.078 33.8013L228.951 37.9602L228.241 38.1688L225.043 35.2791L226.345 39.3864L225.86 39.9457L221.607 39.2423L224.924 41.9946L224.819 42.727L220.86 44.4333L225.14 44.9562L225.447 45.6295L223.04 49.2041L226.923 47.3314Z" fill="#231F20"/>
</g>
</g>
<g id="Group_16">
<g id="Frame_10" clip-path="url(#clip9_103_5)">
<path id="Vector_85" d="M166.091 60.415L165.864 59.3362L165.332 58.3645L164.616 57.5159L163.762 56.8042L162.785 56.2749L161.7 56.0487L162.785 55.8229L163.762 55.2939L164.616 54.5822L165.332 53.7336L165.864 52.7615L166.091 51.6825L166.318 52.7615L166.85 53.733L167.566 54.5819L168.42 55.2936L169.398 55.8229L170.483 56.0487L169.398 56.2746L168.42 56.8039L167.567 57.5156L166.851 58.3642L166.318 59.3362L166.091 60.415Z" fill="white"/>
<path id="Vector_86" d="M165.666 60.5036L165.452 59.487L164.971 58.6091L164.308 57.8226L163.517 57.1629L162.633 56.6845L161.611 56.4717V55.6268L162.633 55.4139L163.516 54.9358L164.308 54.2762L164.971 53.4894L165.452 52.6111L165.666 51.5942H166.516L166.73 52.6109L167.211 53.4888L167.875 54.2756L168.666 54.9352L169.549 55.4136L170.572 55.6265V56.4714L169.549 56.6843L168.666 57.1624L167.875 57.822L167.211 58.6085L166.73 59.4867L166.516 60.5034H165.666V60.5036ZM163.275 56.0491L164.041 56.4737L164.949 57.2389L165.713 58.1586L166.091 58.849L166.518 58.0872L167.288 57.1851L168.213 56.4251L168.907 56.0491L168.141 55.6245L167.234 54.8593L166.469 53.9396L166.091 53.2492L165.664 54.0109L164.894 54.9131L163.97 55.6731L163.275 56.0491Z" fill="#231F20"/>
<path id="Vector_87" d="M178.998 75.274L178.771 74.195L178.238 73.2235L177.523 72.3746L176.669 71.6629L175.691 71.1336L174.606 70.9078L175.691 70.6819L176.669 70.1526L177.522 69.4409L178.238 68.5923L178.771 67.6203L178.998 66.5415L179.225 67.6203L179.757 68.592L180.473 69.4406L181.326 70.1523L182.304 70.6816L183.389 70.9078L182.304 71.1336L181.327 71.6626L180.473 72.3743L179.757 73.2229L179.225 74.195L178.998 75.274Z" fill="white"/>
<path id="Vector_88" d="M179.423 75.3623H178.573L178.359 74.3457L177.878 73.4677L177.215 72.681L176.423 72.0213L175.54 71.5429L174.517 71.3301V70.4852L175.54 70.2726L176.423 69.7945L177.214 69.1349L177.878 68.3484L178.359 67.4701L178.573 66.4535H179.423L179.637 67.4701L180.118 68.3481L180.781 69.1349L181.572 69.7945L182.456 70.2729L183.478 70.4858V71.3306L182.456 71.5435L181.573 72.0216L180.781 72.6812L180.118 73.468L179.637 74.3463L179.423 75.3629V75.3623ZM176.182 70.9078L176.948 71.3324L177.855 72.0976L178.62 73.0172L178.998 73.7077L179.425 72.9459L180.195 72.0438L181.12 71.2837L181.814 70.9078L181.048 70.4832L180.141 69.718L179.376 68.7983L178.998 68.1079L178.571 68.8696L177.801 69.7718L176.876 70.5318L176.182 70.9078Z" fill="#231F20"/>
<path id="Vector_89" d="M142.439 71.4467L142.288 70.7269L141.933 70.0788L141.455 69.5124L140.885 69.0374L140.233 68.6842L139.509 68.5337L140.233 68.383L140.885 68.03L141.455 67.5551L141.932 66.9889L142.288 66.3399L142.439 65.6205L142.591 66.3402L142.946 66.9884L143.423 67.5548L143.993 68.0297L144.645 68.383L145.369 68.5337L144.645 68.6842L143.993 69.0371L143.424 69.5121L142.946 70.0782L142.591 70.7272L142.439 71.4467Z" fill="white"/>
<path id="Vector_90" d="M142.864 71.5352H142.014L141.876 70.8776L141.572 70.3233L141.147 69.819L140.64 69.3961L140.081 69.0938L139.42 68.956V68.1111L140.082 67.9736L140.64 67.6715L141.147 67.2487L141.572 66.7444L141.876 66.1892L142.014 65.5319H142.864L143.003 66.1895L143.307 66.7441L143.732 67.2484L144.239 67.6713L144.797 67.9736L145.458 68.1111V68.956L144.797 69.0938L144.239 69.3958L143.732 69.8187L143.307 70.3227L143.003 70.8779L142.864 71.5352H142.864ZM140.862 68.5337L141.164 68.7069L141.788 69.235L142.314 69.8722L142.439 70.1012L142.614 69.8009L143.145 69.1812L143.786 68.6583L144.016 68.5334L143.714 68.3602L143.091 67.8318L142.565 67.1946L142.439 66.9656L142.265 67.2659L141.734 67.8856L141.093 68.4086L140.863 68.5334L140.862 68.5337Z" fill="#231F20"/>
</g>
</g>
</g>
<defs>
<clipPath id="clip0_103_5">
<rect width="174.493" height="7.24638" fill="white" transform="translate(40 193.333)"/>
</clipPath>
<clipPath id="clip1_103_5">
<rect width="92.1739" height="101.449" fill="white" transform="translate(186.377 89.8551)"/>
</clipPath>
<clipPath id="clip2_103_5">
<rect width="184.928" height="117.971" fill="white" transform="translate(49.2754 79.1304)"/>
</clipPath>
<clipPath id="clip3_103_5">
<rect width="44.058" height="58.8406" fill="white" transform="translate(113.333 58.2609)"/>
</clipPath>
<clipPath id="clip4_103_5">
<rect width="48.6957" height="64.9275" fill="white" transform="translate(26.9565 118.551)"/>
</clipPath>
<clipPath id="clip5_103_5">
<rect width="66.087" height="51.0145" fill="white" transform="translate(115.942 134.203)"/>
</clipPath>
<clipPath id="clip6_103_5">
<rect width="62.3188" height="62.3188" fill="white" transform="translate(87.5362 23.1884)"/>
</clipPath>
<clipPath id="clip7_103_5">
<rect width="40.5797" height="43.4783" fill="white" transform="translate(237.101 64.6377)"/>
</clipPath>
<clipPath id="clip8_103_5">
<rect width="258.841" height="177.681" fill="white" transform="translate(26.6667 20.5797)"/>
</clipPath>
<clipPath id="clip9_103_5">
<rect width="44.058" height="23.7681" fill="white" transform="translate(139.42 51.5942)"/>
</clipPath>
</defs>
</svg>
