<svg xmlns="http://www.w3.org/2000/svg" viewBox="0 0 3000 3000" width="3000" height="3000"><g transform="translate(221.05263157894737 2660.5263157894738) rotate(0.0 1286.8421052631577 59.210526315789366) scale(3.9452384763537407 3.727566263702941)"><svg width="652.352" height="31.769" viewBox="0 0 652.352 31.769"><path style="fill:#231f20" d="m652.132 15.885-53.375 7.891-54.464 2.798-54.509 1.755-54.525 1.115-54.536.625-54.547.2-54.541-.2-54.538-.625-54.529-1.115-54.512-1.755-54.464-2.799-53.373-7.89 53.376-7.891 54.464-2.799 54.509-1.754 54.525-1.116 54.536-.624 54.547-.201 54.541.2 54.537.625 54.529 1.116 54.513 1.754 54.464 2.799 53.372 7.891z"/><path d="m326.181 31.769-54.552-.2-54.549-.625-54.542-1.115-54.53-1.756-54.636-2.814L0 17.368v-2.967l53.518-7.905 54.464-2.799 54.538-1.756L217.062.825 271.611.2 326.17 0l54.552.2 54.549.625 54.543 1.115 54.53 1.756 54.635 2.814 53.373 7.891v2.967l-53.518 7.905-54.464 2.799-54.538 1.756-54.543 1.116-54.549.625-54.559.2ZM53.74 22.281l54.393 2.795 54.484 1.754 54.512 1.114 54.524.625 54.529.2 54.536-.2 54.524-.625 54.511-1.115 54.491-1.754 54.364-2.794 43.268-6.396-43.264-6.396-54.393-2.795-54.484-1.754-54.511-1.114-54.524-.625-54.529-.2-54.536.2-54.524.625L162.6 4.941l-54.491 1.754-54.364 2.794-43.269 6.396 43.264 6.396Z" style="fill:#231f20"/></svg></g><g transform="translate(371.05263157894734 611.8421052631579) rotate(0.0 643.421052631579 546.7105263157895) scale(3.947368421052632 3.9388792120648963)"><svg width="326" height="277.597" viewBox="0 0 326 277.597"><path d="m324.565 195.92-7.33 2.228-7.331 2.228-7.334 2.229-7.332 2.228-7.337 2.23-7.336 2.23-7.33 2.228-7.332 2.228-7.334 2.229-7.332 2.228-7.337 2.23-7.337 2.23-7.33 2.228-7.332 2.228-7.334 2.229-7.332 2.228-7.337 2.23-7.338 2.23-7.329 2.228-7.332 2.228-7.334 2.229-7.332 2.229-7.337 2.229-7.337 2.23-7.331 2.228-7.333 2.229-7.335 2.229-7.333 2.229-7.338 2.23-7.338 2.23-7.331 2.228-7.333 2.229-7.335 2.229-7.333 2.229-7.338 2.23-7.338 2.23-1.641-5.399-1.641-5.401-1.641-5.397-1.641-5.403-1.643-5.406-1.643-5.406-1.641-5.399-1.642-5.401-1.64-5.398-1.642-5.402-1.643-5.406-1.643-5.406-1.641-5.4-1.642-5.401-1.64-5.398-1.642-5.402-1.643-5.407-1.643-5.406-1.641-5.399-1.642-5.401-1.64-5.398-1.642-5.402-1.643-5.407-1.643-5.406-1.642-5.4-1.641-5.401-1.641-5.399-1.642-5.403-1.643-5.407-1.644-5.407-1.641-5.4-1.641-5.402-1.641-5.398-1.642-5.403-1.644-5.407-1.643-5.407 7.33-2.228 7.331-2.228 7.334-2.229 7.332-2.228 7.337-2.23 7.337-2.23 7.329-2.228 7.332-2.228 7.334-2.229 7.332-2.228 7.337-2.23 7.337-2.23 7.33-2.227 7.332-2.229 7.334-2.229 7.332-2.228 7.338-2.23 7.337-2.23 7.33-2.228 7.331-2.228 7.335-2.229 7.332-2.228 7.336-2.23 7.337-2.23 7.331-2.228 7.333-2.229 7.335-2.229 7.333-2.229 7.338-2.23 7.338-2.23 7.331-2.228 7.333-2.229 7.335-2.229 7.333-2.228 7.338-2.231 7.338-2.23 1.641 5.399 1.641 5.401 1.641 5.398 1.642 5.402 1.643 5.406 1.643 5.406 1.641 5.399 1.641 5.401 1.64 5.398 1.642 5.402 1.643 5.406 1.643 5.406 1.641 5.4 1.642 5.401 1.64 5.398 1.642 5.402 1.643 5.407 1.644 5.406 1.641 5.399 1.641 5.401 1.64 5.398 1.642 5.402 1.643 5.407 1.643 5.406 1.642 5.4 1.641 5.401 1.641 5.399 1.642 5.403 1.643 5.407 1.644 5.407 1.641 5.4 1.642 5.402 1.64 5.398 1.642 5.403 1.644 5.407z" fill="#fff"/><path d="m60.979 277.597-1.871-.999L0 82.113l.999-1.872L265.021 0l1.871.999L326 195.484l-.999 1.872zM3.307 82.676l58.236 191.615 261.151-79.369L264.458 3.306z" fill="#231f20"/><path d="m145.249 80.389 4.97 3.182 4.972 3.183 4.969 3.181 4.973 3.184 4.977 3.186 4.977 3.187 4.97 3.182 4.972 3.183 4.969 3.181 4.974 3.184 4.976 3.186 4.977 3.186 4.971 3.182 4.972 3.184 4.969 3.181 4.974 3.184 4.977 3.186 4.977 3.187 4.971 3.182 4.971 3.183 4.97 3.181 4.973 3.184 4.977 3.186 4.977 3.187 4.971 3.182 4.973 3.184 4.969 3.181 4.974 3.185 4.978 3.187 4.978 3.186 4.971 3.183 4.972 3.183 4.97 3.182 4.974 3.185 4.978 3.186 4.978 3.187-7.33 2.227-7.332 2.229-7.334 2.229-7.331 2.228-7.337 2.23-7.337 2.229-7.33 2.228-7.331 2.228-7.334 2.229-7.332 2.229-7.337 2.229-7.337 2.23-7.33 2.228-7.332 2.228-7.334 2.229-7.333 2.229-7.337 2.23-7.337 2.23-7.33 2.227-7.332 2.229-7.334 2.229-7.332 2.228-7.337 2.23-7.337 2.23-7.331 2.228-7.332 2.228-7.336 2.23-7.333 2.228-7.338 2.23-7.338 2.231-7.33 2.228-7.333 2.228-7.335 2.229-7.333 2.229-7.338 2.23-7.338 2.23 2.359-5.409 2.36-5.411 2.358-5.409 2.361-5.412 2.362-5.417 2.362-5.417 2.359-5.409 2.36-5.412 2.359-5.408 2.36-5.413 2.363-5.416 2.362-5.417 2.359-5.41 2.36-5.412 2.359-5.408 2.361-5.413 2.362-5.417 2.362-5.417 2.36-5.41 2.359-5.411 2.359-5.408 2.361-5.413 2.362-5.417 2.362-5.417 2.36-5.411 2.36-5.412 2.359-5.409 2.361-5.413 2.363-5.418 2.362-5.417 2.36-5.411 2.36-5.412 2.359-5.409 2.361-5.414 2.362-5.417z" fill="#fff"/><path d="m60.704 276.689-1.811-2.035L143.874 79.79l2.184-.664 179.041 114.622-.373 2.699zM145.921 82.6 62.942 272.873l257.8-78.352z" fill="#231f20"/><path d="m165.25 146.203-4.547-1.792-4.547-1.79-4.547-1.791-4.551-1.793-4.554-1.794-4.554-1.794-4.548-1.791-4.546-1.791-4.548-1.791-4.551-1.793-4.554-1.794-4.554-1.793-4.548-1.792-4.546-1.791-4.547-1.791-4.551-1.792-4.554-1.794-4.555-1.794-4.548-1.791-4.546-1.791-4.548-1.792-4.551-1.792-4.554-1.794-4.555-1.794-4.548-1.792-4.547-1.791-4.548-1.791-4.552-1.793-4.555-1.795-4.555-1.794-4.549-1.791-4.547-1.792-4.548-1.791-4.552-1.793-4.555-1.794-4.555-1.794 7.33-2.228 7.331-2.228 7.334-2.229 7.332-2.228 7.337-2.23 7.337-2.23 7.329-2.228 7.332-2.228 7.334-2.229 7.332-2.228 7.337-2.23 7.337-2.23 7.33-2.227 7.332-2.229 7.334-2.229 7.332-2.228 7.338-2.23 7.337-2.23 7.33-2.228 7.331-2.228 7.335-2.229 7.332-2.228 7.336-2.23 7.337-2.23 7.331-2.228 7.333-2.229 7.335-2.229 7.333-2.229 7.338-2.23 7.338-2.23 7.331-2.228 7.333-2.229 7.335-2.229 7.333-2.228 7.338-2.231 7.338-2.23-2.782 4.019-2.781 4.018-2.781 4.018-2.783 4.02-2.786 4.025-2.787 4.026-2.782 4.019-2.781 4.018-2.781 4.019-2.783 4.019-2.786 4.026-2.787 4.026-2.782 4.019-2.781 4.018-2.781 4.018-2.783 4.019-2.786 4.026-2.787 4.026-2.782 4.019-2.781 4.018-2.782 4.019-2.782 4.019-2.787 4.026-2.787 4.026-2.782 4.02-2.782 4.019-2.782 4.019-2.782 4.02-2.787 4.027-2.788 4.026-2.782 4.02-2.782 4.018-2.782 4.019-2.782 4.021-2.787 4.026z" fill="#ee4878"/><path d="M164.701 147.598.886 83.072 1 80.241 265.021 0l1.67 2.289-100.207 144.768-1.783.542zM5.992 81.859l158.701 62.513L261.772 4.123z" fill="#231f20"/></svg></g><g transform="translate(690.7894736842105 1065.7894736842104) rotate(0.0 978.9473684210527 830.921052631579) scale(3.942051420245889 3.9426017125687896)"><svg width="496.669" height="421.509" viewBox="0 0 496.669 421.509"><path d="M48.203 46.319h400.266l7.785 62.28 7.785 62.277 7.785 62.281 7.785 62.282 7.786 62.285 7.785 62.285H94.914l-7.785-62.28-7.785-62.277-7.785-62.281-7.785-62.282-7.786-62.285z" fill="#ee4878"/><path d="M495.18 421.509H94.914l-1.488-1.313-46.712-373.69 1.488-1.687h400.267l1.488 1.313 46.711 373.689-1.488 1.687zm-398.942-3h397.243L447.145 47.82H49.902z" fill="#231f20"/><path d="m448.468 46.316-1.659 13.282-1.66 13.286-1.66 13.29-1.66 13.285-1.661 13.295-1.661 13.295-6.124 48.989-6.125 48.99-6.124 48.992-6.125 48.991-6.125 48.997-6.126 48.997H1.488l6.125-48.989 6.124-48.99 6.125-48.992 6.124-48.99 6.125-48.997 6.126-48.998 1.659-13.282 1.66-13.285 1.66-13.29 1.66-13.286 1.661-13.295 1.661-13.295h333.555z" fill="#fff"/><path d="M401.758 421.505H1.488L0 419.819 46.71 46.13l1.488-1.314h400.27l1.488 1.686-46.71 373.69zm-398.57-3h397.246l46.335-370.689H49.522z" fill="#231f20"/><path d="m448.468 46.316-1.659 13.282-1.66 13.286-1.66 13.29-1.66 13.285-1.661 13.295-1.661 13.295H38.237l1.659-13.282 1.66-13.285 1.66-13.29 1.66-13.286 1.661-13.295 1.661-13.295h333.555z" fill="#ee4878"/><path d="M438.507 127.549H38.237l-1.488-1.686L46.71 46.13l1.488-1.314h400.27l1.488 1.686-9.961 79.733zm-398.571-3h397.247l9.587-76.733H49.522l-9.587 76.733z" fill="#231f20"/><path d="m159.881 92.641-.306-.009-11.606-1.517-.38-.101-10.811-4.483-.34-.196-9.281-7.131-.276-.275-7.131-9.281-.196-.34-4.482-10.812-.102-.38-1.517-11.606v-.389l1.517-11.605.102-.38 4.482-10.812.196-.339 7.131-9.282.276-.275 9.281-7.131.339-.196 10.812-4.483.38-.101L159.575 0h.389l11.606 1.517.38.101 10.811 4.483.339.196 9.282 7.131.275.275 7.131 9.282.197.339 4.482 10.812.101.38 1.712 13.093-2.975.388-1.685-12.895-4.331-10.447-6.891-8.968-8.969-6.891-10.445-4.33L159.769 3l-11.215 1.466-10.445 4.33-8.969 6.891-6.891 8.968-4.33 10.447-1.466 11.214 1.466 11.214 4.331 10.447 6.891 8.969 8.968 6.89 10.445 4.33 11.257 1.472 6.477-.484 6.369-1.462 6.073-2.41 5.641-3.298 5.082-4.111 5.5-6.013 2.214 2.024-5.74 6.251-5.443 4.381-6.042 3.514-6.503 2.56-6.814 1.547z" fill="#231f20"/><path d="M118.741 215.792H53.385l1.475-10.887 1.476-10.89 1.477-10.894 1.476-10.89 1.477-10.898 1.478-10.898H127.6l-1.476 10.887-1.476 10.89-1.476 10.894-1.477 10.89-1.477 10.898z" fill="#fff"/><path d="M118.741 217.291H53.385l-1.486-1.701 8.859-65.356 1.486-1.299H127.6l1.486 1.701-8.859 65.356zm-63.639-3h62.329l8.452-62.356H63.554z" fill="#231f20"/><path d="M211.989 215.792h-65.357l1.476-10.887 1.476-10.89 1.477-10.894 1.476-10.89 1.477-10.898 1.477-10.898h65.357l-1.476 10.887-1.476 10.89-1.477 10.894-1.476 10.89-1.477 10.898z" fill="#fff"/><path d="M211.989 217.291h-65.357l-1.486-1.701 8.859-65.356 1.486-1.299h65.357l1.486 1.701-8.859 65.356zm-63.64-3h62.329l8.452-62.356h-62.329z" fill="#231f20"/><path d="M398.484 215.792h-65.357l1.476-10.887 1.476-10.89 1.477-10.894 1.476-10.89 1.477-10.898 1.477-10.898h65.357l-1.476 10.887-1.476 10.89-1.477 10.894-1.476 10.89-1.477 10.898z" fill="#fff"/><path d="M398.484 217.291h-65.357l-1.486-1.701 8.859-65.356 1.486-1.299h65.357l1.486 1.701-8.859 65.356zm-63.64-3h62.329l8.452-62.356h-62.329z" fill="#231f20"/><path d="M106.539 304.505H41.182l1.476-10.887 1.476-10.89 1.477-10.894 1.476-10.89 1.477-10.898 1.477-10.898h65.357l-1.476 10.888-1.476 10.889-1.477 10.894-1.476 10.89-1.477 10.898z" fill="#fff"/><path d="M106.539 306.005H41.182l-1.486-1.701 8.859-65.356 1.486-1.299h65.357l1.486 1.701-8.859 65.356zm-63.639-3h62.329l8.452-62.356H51.352z" fill="#231f20"/><path d="M199.786 304.505H134.43l1.475-10.887 1.477-10.89 1.476-10.894 1.476-10.89 1.478-10.898 1.477-10.898h65.356l-1.476 10.888-1.476 10.889-1.476 10.894-1.476 10.89-1.478 10.898z" fill="#fff"/><path d="M199.786 306.005h-65.357l-1.486-1.701 8.859-65.356 1.486-1.299h65.357l1.486 1.701-8.859 65.356zm-63.64-3h62.329l8.452-62.356h-62.329z" fill="#231f20"/><path d="M293.034 304.505h-65.357l1.476-10.887 1.476-10.89 1.477-10.894 1.476-10.89 1.477-10.898 1.477-10.898h65.357l-1.476 10.888-1.476 10.889-1.477 10.894-1.476 10.89-1.477 10.898z" fill="#fff"/><path d="M293.034 306.005h-65.356l-1.486-1.701 8.859-65.356 1.486-1.299h65.356l1.486 1.701-8.859 65.356zm-63.639-3h62.329l8.452-62.356h-62.329z" fill="#231f20"/><path d="M386.281 304.505h-65.356l1.475-10.887 1.477-10.89 1.476-10.894 1.476-10.89 1.478-10.898 1.477-10.898h65.356l-1.476 10.888-1.476 10.889-1.476 10.894-1.476 10.89-1.478 10.898z" fill="#fff"/><path d="M386.281 306.005h-65.356l-1.486-1.701 8.859-65.356 1.486-1.299h65.357l1.486 1.701-8.859 65.356-1.486 1.299zm-63.639-3h62.329l8.453-62.356h-62.329l-8.452 62.356z" fill="#231f20"/><path d="M94.458 395.388H29.102l1.475-10.887 1.477-10.89 1.476-10.894 1.476-10.89 1.478-10.898 1.477-10.897h65.356l-1.475 10.887-1.477 10.89-1.476 10.893-1.476 10.891-1.478 10.897z" fill="#fff"/><path d="M94.458 396.888H29.102l-1.486-1.701 8.859-65.356 1.486-1.299h65.356l1.486 1.701-8.859 65.356zm-63.639-3h62.329l8.452-62.356H39.271z" fill="#231f20"/><path d="M187.706 395.388h-65.357l1.476-10.887 1.476-10.89 1.477-10.894 1.476-10.89 1.477-10.898 1.477-10.897h65.357l-1.476 10.887-1.476 10.89-1.477 10.893-1.476 10.891-1.477 10.897z" fill="#fff"/><path d="M187.706 396.888h-65.357l-1.486-1.701 8.859-65.356 1.486-1.299h65.356l1.486 1.701-8.859 65.356-1.486 1.299zm-63.639-3h62.329l8.452-62.356h-62.329z" fill="#231f20"/><path d="M280.953 395.388h-65.356l1.475-10.887 1.477-10.89 1.476-10.894 1.476-10.89 1.478-10.898 1.477-10.897h65.356l-1.475 10.887-1.477 10.89-1.476 10.893-1.476 10.891-1.478 10.897z" fill="#fff"/><path d="M280.953 396.888h-65.357l-1.486-1.701 8.859-65.356 1.486-1.299h65.357l1.486 1.701-8.859 65.356zm-63.64-3h62.329l8.452-62.356h-62.329z" fill="#231f20"/><path d="M374.201 395.388h-65.357l1.476-10.887 1.476-10.89 1.477-10.894 1.476-10.89 1.477-10.898 1.477-10.897h65.357l-1.476 10.887-1.476 10.89-1.477 10.893-1.476 10.891-1.477 10.897z" fill="#fff"/><path d="M374.201 396.888h-65.356l-1.486-1.701 8.859-65.356 1.486-1.299h65.356l1.486 1.701-8.859 65.356zm-63.639-3h62.329l8.452-62.356h-62.329z" fill="#231f20"/><path d="M305.236 214.763H239.88l1.475-10.888 1.476-10.889 1.477-10.894 1.476-10.89 1.477-10.898 1.478-10.898h65.356l-1.476 10.887-1.476 10.89-1.476 10.894-1.477 10.89-1.477 10.898z" fill="#fff"/><g fill="#231f20"><path d="M305.236 216.263H239.88l-1.486-1.701 8.859-65.356 1.486-1.299h65.356l1.486 1.701-8.859 65.356zm-63.639-3h62.329l8.452-62.356h-62.329zm77.746-120.622-.306-.009-11.606-1.517-.38-.101-10.811-4.483-.339-.196-9.282-7.131-.275-.275-7.131-9.281-.197-.34-4.482-10.812-.101-.38-1.517-11.606v-.389l1.517-11.605.101-.38 4.482-10.812.196-.339 7.131-9.282.276-.275 9.281-7.131.34-.196 10.811-4.483.38-.101L319.037 0h.389l11.606 1.517.38.101 10.811 4.483.34.196 9.281 7.131.276.275 7.131 9.282.196.339 4.482 10.812.102.38 1.711 13.093-2.975.388-1.685-12.895-4.331-10.447-6.891-8.968-8.968-6.891-10.445-4.33L319.232 3l-11.215 1.466-10.446 4.33-8.969 6.891-6.89 8.968-4.331 10.447-1.465 11.214 1.465 11.214 4.331 10.447 6.891 8.969 8.969 6.89 10.445 4.33 11.256 1.472 6.477-.484 6.369-1.462 6.074-2.41 5.64-3.298 5.083-4.111 5.499-6.013 2.214 2.024-5.739 6.251-5.444 4.381-6.041 3.514-6.503 2.56-6.815 1.547zm-100.92 75.697-3.005 2.647-3.008 2.65-3.009 2.651-3.01 2.651-3.014 2.655-3.014 2.656 2.287 2.645 2.29 2.648 2.291 2.649 2.291 2.649 2.294 2.654 2.295 2.654-.353 2.602-.353 2.606-.353 2.606-.353 2.606-.354 2.611-.354 2.611h-15.642l-2.287-2.646-2.29-2.648-2.291-2.649-2.291-2.649-2.295-2.654-2.294-2.653-3.005 2.645-3.009 2.648-3.008 2.649-3.01 2.649-3.014 2.654-3.015 2.654h-17.906l.405-2.979.404-2.983.405-2.983.404-2.984.406-2.988.405-2.989 3.005-2.645 3.008-2.649 3.009-2.649 3.01-2.649 3.014-2.654 3.014-2.653-2.287-2.647-2.29-2.65-2.291-2.651-2.291-2.651-2.294-2.655-2.295-2.656.353-2.602.353-2.606.353-2.606.353-2.606.354-2.611.354-2.611h15.642l2.287 2.647 2.29 2.65 2.291 2.651 2.291 2.651 2.295 2.655 2.294 2.656 3.005-2.647 3.009-2.65 3.008-2.651 3.01-2.651 3.014-2.655 3.015-2.656h17.906l-.405 2.98-.404 2.982-.405 2.983-.404 2.984-.406 2.989z"/><path d="M211.991 217.288h-15.642l-1.134-.519-12.759-14.754-16.925 14.898-.991.374h-17.906l-1.486-1.701 2.429-17.905.495-.925 16.945-14.917-12.777-14.785-.352-1.182 2.12-15.643 1.486-1.299h15.642l1.135.52 12.758 14.764 16.924-14.908.992-.375h17.906l1.486 1.701-2.429 17.906-.495.925-16.945 14.927 12.776 14.774.352 1.183-2.12 15.642-1.486 1.299zm-14.956-3h13.646l1.853-13.672-13.306-15.388.143-2.107 17.641-15.539 2.123-15.65h-15.622l-17.635 15.536-2.126-.146-13.3-15.391h-13.645l-1.853 13.674 13.306 15.397-.144 2.106-17.64 15.529-2.123 15.649h15.623l17.635-15.524 2.126.145 13.3 15.38z"/></g><path d="m341.405 395.022-4.831-.423-4.68-1.27-4.379-2.082-3.945-2.82-3.405-3.453-2.792-3.967-2.418-5.087-1.452-5.441-.433-5.615.585-5.601 1.552-5.415 2.432-5.082 5.325-6.959 6.823-5.503 7.879-3.845 8.538-1.986 8.758.16 8.347 2.623 4.57 2.852 3.928 3.684 3.13 4.383 2.218 4.907 1.25 5.239.275 5.381-.843 6.19-2.046 5.902-3.172 5.381-4.155 4.664-4.957 3.801-5.561 2.851-1.207-2.964-1.209-2.967-1.209-2.968-1.209-2.968-1.21-2.974-1.211-2.973 2.303-1.153 2.075-1.524 1.757-1.882 1.356-2.186.897-2.412.38-2.542-.072-1.714-.348-1.682-.645-1.591-.957-1.425-1.242-1.185-1.46-.907-3.811-.925-3.93.299-3.776 1.139-3.492 1.835-3.057 2.492-2.403 3.123-.978 2.011-.654 2.136-.288 2.215.113 2.23.531 2.168.942 2.024.89 1.285 1.073 1.139 1.244.943 1.402.696 1.512.401 1.563.1.075 3.199.076 3.203.075 3.204.076 3.204.075 3.209.076 3.21-.111.002-.111.002-.11.002-.111.001-.111.001z" fill="#ee4878"/><path d="m341.405 396.522-.131-.006-5.093-.47-4.931-1.362-4.608-2.217-4.14-2.987-3.563-3.643-2.92-4.187-2.513-5.344-1.498-5.713-.433-5.614.004-.271.635-5.858 1.641-5.649 2.594-5.346 5.574-7.216 7.107-5.683 8.197-3.959 8.904-2.023 8.758.159.422.069 8.692 2.781 4.802 3.03 4.123 3.906 3.275 4.637 2.311 5.178 1.289 5.511.275 5.381-.012.278-.912 6.479-2.171 6.172-3.344 5.618-4.362 4.856-5.186 3.946-5.561 2.851-2.073-.77-7.255-17.814.718-1.906 2.189-1.097 1.859-1.366 1.561-1.672 1.2-1.933.79-2.125.336-2.245-.061-1.45-.295-1.429-.536-1.32-.779-1.161-1.011-.965-1.124-.698-3.347-.813-3.53.27-3.483 1.049-3.232 1.698-2.805 2.287-2.204 2.864-.86 1.768-.583 1.904-.254 1.956.099 1.952.462 1.887.826 1.774.754 1.087.91.967 1.032.781 1.139.565 1.223.325 1.416.09 1.404 1.462.453 19.229-1.473 1.535-.691.008zm-4.567-3.405 3.694.323-.382-16.246-.481-.059-1.794-.508-1.641-.844-1.431-1.11-1.213-1.313-1.018-1.506-1.039-2.3-.572-2.45-.113-2.229.011-.269.341-2.46.739-2.354 1.138-2.27 2.644-3.37 3.307-2.658 3.757-1.943 4.095-1.197 3.93-.3.468.038 3.811.925.438.184 1.704 1.097 1.451 1.435 1.102 1.697.724 1.851.377 1.922.073 1.715-.015.285-.458 2.842-1.028 2.681-1.535 2.418-1.965 2.067-2.291 1.656-1.062.532 6.114 15.014 3.984-2.042 4.737-3.633 3.963-4.448 3.021-5.127 1.948-5.619.804-5.902-.26-5.104-1.185-4.966-2.099-4.643-2.958-4.143-3.713-3.482-4.283-2.672-7.959-2.501-8.356-.152-8.191 1.904-7.574 3.696-6.552 5.284-5.121 6.692-2.31 4.828-1.481 5.168-.557 5.335.412 5.341 1.381 5.175 2.304 4.848 2.647 3.761 3.227 3.272 3.731 2.668 4.138 1.968 4.421 1.199z" fill="#231f20"/></svg></g><g transform="translate(351.3157894736842 1413.157894736842) rotate(0.0 528.9473684210526 665.1315789473683) scale(3.943513195466019 3.945378170936728)"><svg width="268.262" height="337.17" viewBox="0 0 268.262 337.17"><path d="m52.121 302.014-1.416 1.92-1.417 1.923-1.418 1.922-1.418 1.923-1.421 1.926-1.42 1.926-2.411 3.268-2.413 3.272-2.414 3.272-2.415 3.272-2.418 3.278-2.419 3.278-1.015 1.075-1.243.799-1.399.478-1.471.13-1.46-.228-1.362-.574-1.187-.884-.938-1.143-.637-1.336-.299-1.448.058-1.478.413-1.421 1.922-4.512 1.922-4.512 1.922-4.512 1.924-4.516 1.925-4.519 1.925-4.519.606-1.422.606-1.424.606-1.423.606-1.425.608-1.428.608-1.428 3.055 1.746 3.058 1.747 3.059 1.748 3.059 1.748 3.065 1.75z" fill="#ee4878"/><path d="m24.125 337.17-.363-.012-1.811-.327-1.677-.754-1.45-1.135-1.133-1.45-.752-1.678-.328-1.81.117-1.838.473-1.591 15.18-35.64 2.124-.715 18.36 10.49.463 2.193-23.117 31.319-1.295 1.307-1.569.957-1.751.552-1.472.13zm-1.179-3.176 1.098.171 1.109-.098 1.054-.359.936-.602.827-.876 21.945-29.75-15.433-8.817-14.484 34.006-.336 1.158-.044 1.112.225 1.091.48 1.006.707.861.894.666 1.024.431z" fill="#231f20"/><path d="m221.431 334.874-1.362.574-1.46.228-1.472-.131-1.398-.478-1.243-.798-1.015-1.075-2.434-3.299-2.437-3.303-2.437-3.304-2.438-3.304-2.442-3.31-2.442-3.31-1.393-1.888-1.394-1.891-1.392-1.888-1.395-1.892-1.398-1.895-1.398-1.896 3.055-1.745 3.058-1.747 3.059-1.748 3.059-1.748 3.065-1.751 3.064-1.751.586 1.376.586 1.378.586 1.375.586 1.379.588 1.381.588 1.381 1.942 4.56 1.942 4.558 1.942 4.558 1.944 4.563 1.945 4.565 1.945 4.566.413 1.422.058 1.478-.299 1.448-.637 1.335-.939 1.143z" fill="#ee4878"/><path d="m218.477 337.17-1.826-.205-1.723-.636-1.522-1.03-1.132-1.214-23-31.18.463-2.193 18.36-10.49 2.124.715 15.24 35.81.471 1.781.058 1.479-.03.362-.414 1.79-.832 1.642-1.201 1.393-1.501 1.065-1.713.673-1.823.239zm-1.027-3.103 1.108.098 1.098-.171 1.025-.431.893-.667.707-.859.48-1.006.225-1.091-.044-1.112-.336-1.159-14.484-34.006-15.433 8.818 21.945 29.749.827.875.936.602zM33.761 291.524l3.055 1.746 3.058 1.747 3.059 1.748 3.059 1.748 3.065 1.75 3.064 1.751-1.416 1.92-1.417 1.923-1.418 1.922-1.418 1.923-1.421 1.926-1.42 1.926-2.397-2.092-2.34-2.156-2.282-2.218-2.22-2.279-2.158-2.338-2.093-2.397.606-1.422.606-1.424.606-1.423.606-1.425.608-1.428z" fill="#231f20"/><path d="m42.625 314.684-2.397-2.093-2.37-2.182-2.311-2.247-2.249-2.307-2.186-2.368-2.12-2.428-.25-1.574 3.64-8.55 2.124-.715 18.36 10.49.463 2.193-8.51 11.539-2.194.24zM31.87 299.795l1.474 1.688 2.13 2.308 2.192 2.249 2.253 2.19 3.451 3.122 6.543-8.873-15.433-8.817-2.611 6.133zm180.491-.001-2.094 2.413-2.161 2.353-2.224 2.294-2.285 2.233-2.344 2.17-2.402 2.107-1.393-1.888-1.394-1.891-1.392-1.888-1.395-1.892-1.398-1.895-1.398-1.896 3.055-1.745 3.058-1.747 3.059-1.748 3.059-1.748 3.065-1.751 3.064-1.751.586 1.376.586 1.378.586 1.375.586 1.379.588 1.381z" fill="#231f20"/><path d="m199.84 314.492-2.196-.237-8.37-11.35.463-2.193 18.36-10.49 2.124.715 3.52 8.271-.248 1.57-2.094 2.412-2.188 2.385-2.252 2.323-2.314 2.262-2.374 2.198-2.432 2.134zm-7.151-12.011 6.4 8.679 1.175-1.03 2.314-2.144 2.256-2.205 2.195-2.265 2.132-2.324 1.452-1.673-2.492-5.856-15.433 8.818z" fill="#231f20"/><path d="m240.754 212.967-4.048-30.972-11.961-28.853-19.031-24.769-24.769-19.03-28.852-11.962-30.972-4.048-30.972 4.048-28.853 11.962-24.769 19.03-19.03 24.769-11.962 28.852-4.048 30.973 4.048 30.972 11.962 28.853 19.03 24.769 24.769 19.03 28.853 11.961 30.972 4.048 30.972-4.048 28.853-11.961 24.769-19.031 19.03-24.769 11.961-28.852z" fill="#fff"/><path d="M121.315 334.088h-.389l-30.972-4.048-.38-.102-28.852-11.962-.339-.196-24.769-19.03-.276-.275-19.031-24.769-.196-.34-11.962-28.853-.102-.38L0 213.161v-.389L4.048 181.8l.102-.38 11.961-28.853.196-.34 19.03-24.77.276-.275 24.769-19.03.339-.196 28.853-11.961.38-.102 30.972-4.049h.389l30.972 4.049.38.102 28.852 11.961.339.196 24.769 19.03.276.275 19.03 24.769.196.34 11.962 28.854.102.38 4.048 30.972v.389l-4.048 30.973-.102.38-11.961 28.852-.196.34-19.03 24.77-.276.275-24.769 19.03-.339.196-28.853 11.962-.38.102-30.972 4.048zm-30.776-6.997 30.581 3.997 30.581-3.997 28.487-11.81 24.456-18.79 18.79-24.457 11.81-28.486 3.997-30.581-3.997-30.581-11.81-28.487-18.79-24.456-24.457-18.79-28.486-11.809-30.581-3.998-30.581 3.998-28.487 11.809-24.456 18.79-18.79 24.457-11.81 28.486-3.997 30.581 3.997 30.582 11.81 28.486 18.79 24.456 24.456 18.79 28.486 11.81z" fill="#231f20"/><path d="m207.446 162.031 17.587-10.147 1.499 2.599-17.587 10.147zM83.481 98.48l16.701 2.05 16.697 2.081 16.697 2.085 16.701 2.089 16.701 2.09 16.69 2.092-7.17-3.75-7.207-3.684-7.27-3.549-7.37-3.319-7.519-2.968-7.694-2.471-9.398-.736-9.426.766-9.364 1.361-9.31 1.713-9.258 1.964z" fill="#231f20"/><path d="M183.481 112.455 83.298 99.97l-.164-2.948 9.201-2.187 9.294-1.973 9.349-1.721 9.42-1.37 9.759-.776 9.739.804 7.694 2.471 7.611 3 7.436 3.347 7.312 3.569 7.231 3.695 7.183 3.757zm-91.53-14.446 83.653 10.437-6.996-3.576-7.245-3.537-7.329-3.299-7.454-2.94-7.435-2.385-9.104-.713-9.307.756-9.27 1.351-9.254 1.704-10.26 2.203z" fill="#231f20"/><path d="m135.971 16.337-.503-3.845-1.485-3.581-2.362-3.074-3.074-2.362-3.582-1.485-3.844-.503-3.845.503-3.581 1.485-3.075 2.362-2.362 3.074-1.485 3.582-.502 3.844.502 3.845 1.485 3.582 2.363 3.074 3.074 2.362 3.581 1.485 3.845.502 3.845-.502 3.581-1.485 3.075-2.363 2.362-3.074 1.484-3.581z" fill="#fff"/><path d="M121.315 32.675h-.389l-3.845-.503-.38-.102-3.581-1.484-.34-.196-3.074-2.362-.276-.275-2.362-3.074-.196-.34-1.485-3.581-.102-.38-.503-3.845v-.389l.503-3.845.102-.38 1.485-3.582.196-.34 2.362-3.074.276-.275 3.074-2.362.34-.196 3.582-1.484.38-.102L120.926 0h.389l3.845.503.38.102 3.581 1.484.34.196 3.074 2.362.276.275 2.362 3.074.196.34 1.485 3.581.102.38.503 3.846v.389l-.502 3.844-.102.38-1.485 3.582-.196.34-2.362 3.074-.276.275-3.074 2.362-.34.196-3.582 1.484-.38.102-3.845.503zm-3.648-3.452 3.453.452 3.454-.452 3.216-1.332 2.762-2.122 2.122-2.762 1.333-3.217.451-3.452-.452-3.454-1.333-3.216-2.122-2.762-2.762-2.122-3.215-1.332L121.121 3l-3.454.452-3.216 1.332-2.762 2.122-2.122 2.762-1.333 3.216-.451 3.454.451 3.453 1.333 3.216 2.122 2.762 2.762 2.122 3.215 1.332zm92.518 137.597.947-.726.725-.946.456-1.102.156-1.182-.155-1.182-.458-1.101-.725-.948-.947-.725-1.101-.456-1.182-.156-1.182.155-1.102.458-.947.725-.725.947-.456 1.102-.156 1.181.155 1.183.457 1.101.726.947.946.726 1.102.455 1.182.156 1.182-.155z" fill="#231f20"/><path d="M208.096 168.92h-.392l-1.182-.156-.376-.101-1.102-.455-.34-.196-.947-.726-.278-.278-.725-.947-.194-.337-.458-1.102-.102-.38-.155-1.183v-.392l.156-1.182.101-.377.456-1.102.196-.339.725-.946.278-.278.947-.726.336-.194 1.101-.458.381-.103 1.182-.155h.392l1.182.156.377.102 1.102.456.339.195.946.726.278.278.726.947.194.336.458 1.101.102.381.155 1.183v.392l-.156 1.182-.101.377-.456 1.102-.195.339-.725.947-.279.278-1.284.921-1.101.457-.38.102zm-.986-3.105.792.104.79-.104.737-.307.634-.485.485-.633.305-.737.104-.791-.104-.789-.306-.736-.486-.635-.632-.484-.738-.306-.791-.104-.789.104-.737.307-.634.486-.485.632-.305.737-.104.791.104.79.306.737.485.634.632.484z" fill="#231f20"/><path d="m128.55 115.623-.252-1.923-.742-1.792-1.182-1.538-1.538-1.181-1.792-.743-1.923-.252-1.924.252-1.792.743-1.538 1.182-1.181 1.537-.743 1.792-.251 1.923.251 1.924.743 1.792 1.182 1.538 1.538 1.181 1.791.743 1.924.252 1.923-.252 1.792-.743 1.538-1.182 1.182-1.537.742-1.792z" fill="#ee4878"/><path d="M121.315 124.54h-.388l-1.924-.251-.381-.102-1.792-.743-.339-.196-1.538-1.182-.276-.275-1.182-1.538-.196-.34-.743-1.792-.102-.38-.251-1.923v-.389l.251-1.924.102-.38.743-1.792.196-.34 1.182-1.537.275-.275 1.538-1.183.34-.196 1.792-.742.379-.102 1.924-.252h.39l1.923.252.379.102 1.792.742.34.196 1.538 1.182.276.275 1.182 1.538.196.34.743 1.792.102.38.251 1.924v.389l-.251 1.923-.102.38-.743 1.792-.196.34-1.182 1.538-.276.275-1.538 1.182-.339.196-1.792.743-.381.102-1.923.251zm-1.727-3.2 1.532.2 1.532-.2 1.426-.591 1.225-.941.941-1.226.591-1.427.2-1.531-.2-1.532-.591-1.427-.942-1.226-1.225-.941-1.426-.59-1.532-.201-1.532.201-1.426.59-1.226.942-.941 1.225-.591 1.426-.2 1.533.2 1.531.591 1.427.942 1.226 1.225.941 1.426.591z" fill="#231f20"/><path d="m128.55 310.31-.252-1.924-.742-1.791-1.182-1.538-1.538-1.182-1.792-.743-1.923-.251-1.924.251-1.792.743-1.538 1.182-1.181 1.538-.743 1.791-.251 1.924.251 1.923.743 1.792 1.182 1.538 1.538 1.182 1.791.743 1.924.251 1.923-.251 1.792-.743 1.538-1.182 1.182-1.538.742-1.792z" fill="#ee4878"/><path d="M121.315 319.226h-.388l-1.924-.251-.381-.102-1.792-.743-.339-.196-1.538-1.182-.276-.275-1.182-1.538-.196-.34-.743-1.792-.102-.38-.251-1.923v-.389l.251-1.924.102-.38.743-1.792.196-.34 1.182-1.537.275-.275 1.538-1.183.34-.196 1.792-.742.379-.102 1.924-.252h.39l1.923.252.379.102 1.792.742.34.196 1.538 1.182.276.275 1.182 1.538.196.34.743 1.792.102.38.251 1.924v.389l-.251 1.923-.102.38-.743 1.792-.196.34-1.182 1.538-.276.275-1.538 1.182-.339.196-1.792.743-.381.102-1.923.251zm-1.727-3.2 1.532.2 1.532-.2 1.426-.591 1.225-.941.941-1.226.591-1.427.2-1.531-.2-1.532-.591-1.427-.942-1.226-1.225-.941-1.426-.59-1.532-.201-1.532.201-1.426.59-1.226.942-.941 1.225-.591 1.426-.2 1.533.2 1.531.591 1.427.942 1.226 1.225.941 1.426.591z" fill="#231f20"/><path d="m31.207 212.967-.252-1.924-.743-1.792-1.181-1.538-1.538-1.181-1.792-.743-1.923-.251-1.924.251-1.792.743-1.538 1.182-1.181 1.538-.743 1.791-.251 1.924.251 1.923.743 1.792 1.182 1.538 1.537 1.182 1.792.742 1.924.252 1.923-.252 1.792-.743 1.538-1.181 1.181-1.538.743-1.792z" fill="#ee4878"/><path d="M23.972 221.884h-.39l-1.924-.252-.38-.102-1.792-.743-.339-.196-1.538-1.181-.276-.275-1.182-1.538-.196-.34-.743-1.792-.102-.38-.251-1.924v-.389l.251-1.924.102-.38.743-1.791.196-.34 1.182-1.538.276-.275 1.538-1.182.339-.196 1.792-.743.381-.102 1.923-.251h.388l1.923.251.381.102 1.792.743.339.196 1.538 1.182.276.275 1.182 1.538.196.339.743 1.791.102.381.251 1.924v.389l-.251 1.924-.102.38-.743 1.791-.196.34-1.182 1.538-.276.275-1.538 1.182-.339.196-1.792.743-.38.102-1.923.252zm-1.727-3.201 1.532.201 1.532-.201 1.426-.591 1.225-.941.941-1.226.591-1.426.2-1.532-.2-1.532-.591-1.426-.942-1.226-1.225-.941-1.426-.591-1.532-.2-1.532.2-1.426.591-1.225.941-.941 1.226-.591 1.426-.2 1.532.2 1.533.591 1.426.942 1.225 1.225.941z" fill="#231f20"/><path d="m225.893 212.967-.251-1.924-.743-1.792-1.182-1.538-1.538-1.181-1.791-.743-1.924-.251-1.923.251-1.792.743-1.538 1.182-1.182 1.538-.743 1.791-.251 1.924.251 1.923.743 1.792 1.182 1.538 1.538 1.182 1.792.742 1.923.252 1.924-.252 1.791-.743 1.538-1.181 1.182-1.538.743-1.792z" fill="#ee4878"/><g fill="#231f20"><path d="M218.659 221.884h-.39l-1.924-.252-.38-.102-1.792-.743-.339-.196-1.538-1.181-.276-.275-1.182-1.538-.196-.34-.743-1.792-.102-.38-.251-1.924v-.389l.251-1.924.102-.381.743-1.791.196-.339 1.181-1.538.276-.275 1.538-1.182.339-.196 1.792-.743.381-.102 1.924-.251h.388l1.923.251.381.102 1.792.743.339.196 1.538 1.182.276.275 1.182 1.538.196.339.743 1.791.102.381.251 1.924v.389l-.251 1.924-.102.38-.743 1.791-.196.34-1.182 1.538-.276.275-1.538 1.182-.339.196-1.792.743-.38.102-1.923.252zm-1.727-3.201 1.532.201 1.532-.201 1.426-.591 1.225-.941.942-1.226.591-1.426.2-1.532-.2-1.532-.591-1.426-.942-1.226-1.225-.941-1.426-.591-1.532-.2-1.532.2-1.426.591-1.225.941-.941 1.226-.591 1.426-.2 1.532.2 1.532.591 1.427.941 1.225 1.225.941zm-141.958-94.78-.726-.947-.946-.726-1.102-.455-1.182-.156-1.182.155-1.101.457-.948.726-.725.946-.455 1.102-.157 1.182.156 1.182.457 1.101.725.948.947.725 1.102.455 1.182.157 1.182-.156 1.101-.457.947-.725.726-.947.455-1.102.156-1.182-.155-1.182z"/><path d="M71.214 132.242h-.392l-1.182-.156-.376-.101-1.102-.455-.34-.196-.946-.726-.278-.278-.726-.947-.195-.337-.457-1.102-.102-.38-.155-1.182v-.392l.156-1.183.101-.377.455-1.102.196-.34.725-.946.278-.277 1.284-.921 1.101-.457.38-.102 1.182-.155h.392l1.182.156.376.101 1.102.455.34.196.946.726.278.278.726.947.195.337.457 1.102.102.38.155 1.182v.392l-.156 1.182-.101.376-.455 1.103-.196.341-.725.946-.278.277-1.284.921-1.101.457-.38.102zm-.986-3.104.791.104.79-.104.737-.307.634-.485.484-.632.305-.738.105-.791-.104-.789-.306-.736-.486-.635-.632-.484-.737-.305-.791-.104-.79.104-.737.307-.634.485-.484.632-.305.737-.105.792.104.789.306.736.486.635.632.484zm-33.604 29.771-1.102-.458-1.182-.155-1.182.157-1.101.455-.947.726-.725.947-.457 1.102-.155 1.182.156 1.182.456 1.101.725.947.947.725 1.102.457 1.182.155 1.182-.156 1.102-.456.946-.725.725-.947.458-1.102.155-1.182-.157-1.182-.455-1.102-.726-.946z"/><path d="m34.146 168.92-1.182-.155-.379-.102-1.102-.457-.338-.195-.947-.726-.278-.277-.726-.946-.196-.34-.456-1.102-.101-.376-.156-1.182v-.393l.155-1.183.102-.38.652-1.438.725-.947.278-.278.946-.726.34-.196 1.102-.455.375-.101 1.182-.157h.393l1.182.155.38.103 1.438.651.947.725.279.278.725.946.196.34.456 1.102.101.377.156 1.182v.393l-.155 1.182-.102.38-.458 1.103-.195.337-.725.946-.278.278-.946.726-.339.195-1.102.456-.377.102-1.182.156h-.392zm-.595-3.104.79.104.791-.104.737-.306.632-.484.485-.634.306-.737.104-.789-.105-.792-.305-.737-.484-.632-.634-.485-.738-.307-.789-.104-.791.105-.738.305-.631.484-.485.634-.306.737-.104.79.105.791.305.737.485.632.633.485.737.306zm-1.494 93.298-.947.725-.726.947-.455 1.102-.156 1.181.155 1.183.457 1.101.726.947.946.726 1.102.455 1.182.156 1.182-.155 1.101-.457.948-.726.725-.946.456-1.102.156-1.182-.155-1.182-.458-1.101-.725-.948-.947-.725-1.102-.456-1.181-.156-1.183.155z"/><path d="M34.536 269.125h-.392l-1.182-.156-.377-.102-1.102-.456-.338-.194-.946-.725-.279-.279-.725-.947-.194-.337-.457-1.102-.102-.38-.155-1.183v-.392l.156-1.182.101-.377.455-1.102.196-.34.725-.946.278-.277.947-.726.336-.194 1.101-.458.381-.103 1.182-.155h.392l1.182.156.377.102 1.102.456.339.195.946.726.278.278.726.947.194.337.457 1.101.102.38.155 1.183v.392l-.156 1.182-.101.377-.455 1.102-.196.34-.725.946-.278.277-.947.726-.336.194-1.101.458-.381.103-1.182.155zm-.985-3.104.791.104.789-.104.737-.307.634-.486.484-.632.305-.737.105-.791-.104-.789-.306-.736-.486-.635-.632-.484-.738-.306-.791-.104-.789.104-.737.307-.634.486-.484.632-.305.737-.105.791.104.79.306.737.485.633.632.484.738.306zm33.512 31.442-.458 1.102-.155 1.182.157 1.182.455 1.102.726.946.947.725 1.102.458 1.182.155 1.182-.157 1.102-.455.946-.726.725-.947.457-1.102.155-1.182-.156-1.182-.456-1.101-.725-.947-.947-.725-1.102-.457-1.182-.155-1.182.156-1.102.456-.946.725z"/><path d="m70.824 305.803-1.182-.155-.38-.103-1.438-.651-.947-.725-.279-.278-.725-.946-.196-.34-.456-1.102-.101-.376-.156-1.182v-.393l.155-1.183.102-.38.458-1.103.195-.337.725-.946.278-.278.946-.726.339-.195 1.102-.456.377-.102 1.182-.156h.392l1.182.155.38.103 1.438.651.947.725.279.278.726.946.196.34.456 1.102.101.376.157 1.182v.393l-.155 1.183-.102.38-.458 1.102-.194.337-.725.947-.278.278-.946.726-.34.196-1.102.455-.375.101-1.182.157h-.393zm-.595-3.104.789.104.792-.105.738-.305.631-.484.485-.634.306-.737.104-.79-.105-.791-.305-.737-.484-.632-.634-.485-.738-.307-.789-.104-.791.104-.737.306-.632.484-.485.634-.306.737-.104.79.105.791.305.737.484.632.634.484.738.308z"/></g><path d="m167.268 302.03.725.948.947.725 1.102.456 1.182.156 1.182-.155 1.101-.458.947-.725.726-.947.455-1.102.156-1.181-.155-1.183-.457-1.101-.726-.947-.946-.726-1.102-.455-1.182-.156-1.182.155-1.101.457-.948.726-.725.946-.456 1.102-.156 1.182.156 1.182z" fill="#ee4878"/><path d="M171.419 305.803h-.392l-1.182-.156-.377-.102-1.102-.456-.339-.195-.946-.726-.278-.278-.726-.947-.194-.337-.457-1.101-.102-.38-.155-1.183v-.393l.156-1.182.101-.376.455-1.102.196-.34.725-.946.278-.277.947-.726.336-.194 1.101-.458.381-.103 1.182-.155h.392l1.182.156.377.102 1.102.456.338.194.946.725.279.279.726.947.195.337.457 1.102.102.38.155 1.183v.392l-.156 1.182-.101.377-.455 1.102-.196.34-.725.946-.278.277-.947.726-.336.194-1.101.458-.381.103-1.182.155zm-.985-3.104.791.104.789-.104.737-.307.634-.486.484-.632.305-.737.105-.791-.104-.79-.306-.736-.485-.634-.632-.484-.738-.306-.791-.104-.789.104-.737.307-.634.486-.484.632-.305.737-.105.791.104.789.306.736.486.635.632.484.738.306zm35.183-35.674 1.102.457 1.183.155 1.182-.156 1.101-.456.946-.725.725-.947.458-1.102.155-1.182-.157-1.182-.455-1.102-.726-.946-.946-.725-1.102-.458-1.183-.155-1.182.157-1.101.455-.946.726-.726.947-.457 1.102-.155 1.182.156 1.182.456 1.101.725.947z" fill="#231f20"/><path d="m207.706 269.125-1.182-.155-.38-.103-1.438-.651-.947-.725-.279-.278-.726-.946-.196-.34-.456-1.102-.101-.376-.156-1.182v-.393l.155-1.183.102-.38.458-1.102.194-.336.725-.947.278-.279.946-.726.34-.196 1.102-.455.375-.101 1.182-.157h.393l1.182.155.38.103 1.438.651.947.725.279.278.726.946.196.34.456 1.102.101.376.156 1.182v.393l-.155 1.183-.102.38-.458 1.103-.195.337-.725.946-.278.278-.946.726-.339.195-1.102.456-.377.102-1.182.156h-.392zm-.594-3.104.789.104.791-.104.737-.306.632-.484.485-.634.306-.737.104-.79-.105-.791-.305-.737-.484-.632-.634-.484-.738-.308-.789-.104-.791.105-.738.305-.631.484-.485.634-.306.737-.104.79.105.791.305.737.484.632.634.484zM175.179 128.47l.457-1.102.155-1.182-.156-1.182-.456-1.102-.725-.946-.947-.725-1.102-.457-1.182-.155-1.182.156-1.102.456-.946.725-.725.947-.458 1.102-.155 1.182.157 1.182.455 1.102.726.946.947.725 1.102.458 1.182.155 1.182-.157 1.102-.455.946-.726z" fill="#231f20"/><path d="m171.029 132.242-1.182-.155-.379-.102-1.102-.457-.338-.195-.947-.726-.278-.277-.726-.946-.196-.34-.456-1.102-.101-.376-.157-1.182v-.393l.155-1.183.102-.38.458-1.102.194-.337.725-.947.278-.278.946-.726.34-.196 1.102-.455.376-.101 1.182-.156h.391l1.182.154.382.103 1.438.651.947.725.279.278.725.946.196.34.456 1.102.101.377.156 1.183v.392l-.155 1.182-.102.38-.458 1.103-.195.337-.725.946-.278.278-.946.726-.339.195-1.102.456-.377.102-1.182.156h-.392zm-.595-3.104.79.104.791-.104.737-.306.632-.484.485-.634.306-.737.104-.789-.105-.792-.305-.737-.484-.632-.634-.485-.737-.306-.789-.104-.792.104-.737.305-.631.484-.485.634-.306.737-.104.79.105.791.305.737.485.632.633.485.737.306zm-36.812 86.784 15.142-10.331 15.138-10.328 15.144-10.331L194.19 174.6l15.146-10.333 15.146-10.333-1.419-2.736-1.511-2.687-1.6-2.634-1.694-2.578-1.787-2.507-1.903-2.413-13.558 11.374-13.562 11.378-13.566 11.381-13.562 11.378-13.572 11.386-13.571 11.385.074 1.541.074 1.543.074 1.54.074 1.544.074 1.546z" fill="#231f20"/><path d="m134.467 217.161-2.344-1.167-.445-9.261.534-1.222 81.391-68.282 2.142.221 1.903 2.413 1.831 2.566 1.726 2.623 1.629 2.679 1.537 2.731 1.443 2.78-.486 1.93-90.86 61.988zm.244-9.829.281 5.84 87.547-59.728-.807-1.556-1.487-2.643-1.575-2.59-1.666-2.532-1.755-2.462-.901-1.141-79.638 66.811z" fill="#231f20"/><path d="M123.049 16.405h-3.857l-19.451 2.543-18.119 7.512-15.555 11.951-11.951 15.555-7.512 18.119-2.542 19.451v6.944H198.18v-6.944l-2.542-19.452-7.512-18.119-11.952-15.555-15.555-11.951-18.119-7.512z" fill="#fff"/><path d="M198.18 99.98H44.062l-1.5-1.5.013-7.139 2.542-19.451.102-.38 7.512-18.119.196-.34 11.951-15.555.276-.275L80.709 25.27l.339-.196 18.12-7.512.38-.102 19.646-2.556 4.052.013 19.451 2.542.38.102 18.119 7.512.339.196L177.09 37.22l.276.275 11.951 15.555.196.34 7.512 18.12.102.38 2.555 19.646v6.944l-1.5 1.5zm-152.618-3H196.68v-5.347l-2.504-19.157-7.36-17.755-11.711-15.242-15.242-11.711-17.753-7.359-19.157-2.504h-3.662l-19.157 2.505-17.754 7.359L67.138 39.48 55.427 54.722l-7.36 17.754-2.504 19.157v5.347z" fill="#231f20"/><path d="m263.19 96.636-1.882.231-1.884.232-1.882.231-1.885.231-1.889.232-1.889.232-5.298.65-5.299.651-5.296.65-5.301.651-5.304.651-5.305.652 1.934 2.169 1.937 2.172 1.936 2.173 1.938 2.173 1.94 2.176 1.94 2.177-18.408 14.699-18.404 14.695-18.409 14.7-18.411 14.702-18.413 14.703-18.413 14.703-6.02-3.443-6.02-3.444-6.018-3.442-6.023-3.444-6.027-3.448-6.027-3.447 1.466-2.537 1.468-2.541 1.468-2.541 1.468-2.541 1.47-2.546 1.471-2.545-5.165.425-5.167.426-5.163.425-5.168.426-5.172.425-5.171.426-.739.062-.738.061-.742.061-.743.062-.745.062-.745.062-1.926.158-1.929.159-1.929.159-1.93.159-1.933.159-1.932.16.829 1.757.83 1.76.829 1.757.832 1.762.832 1.764.832 1.764.203.427.202.427.204.429.203.43.205.431.204.43 2.324 4.921 2.324 4.922 2.323 4.919 2.325 4.924 2.326 4.927 2.327 4.927 1.556-2.697 1.559-2.699 1.558-2.7 1.559-2.7 1.561-2.705 1.561-2.705 6.8 3.891 6.802 3.891 6.798 3.889 6.804 3.893 6.809 3.895 6.809 3.896 1.51-.045 1.512-.044 1.51-.045 1.513-.044 1.516-.045 1.516-.044 19.502-15.449 19.503-15.449 19.503-15.449 19.504-15.449 19.506-15.452 19.506-15.452 2.086 2.342 2.088 2.345 2.089 2.344 2.089 2.346 2.093 2.349 2.092 2.349 1.24-5.141 1.241-5.142 1.239-5.139 1.241-5.144 1.241-5.148 1.242-5.147.45-1.869.45-1.871.449-1.869.451-1.873.451-1.876.451-1.876.153-.629.152-.629.153-.632.154-.632.154-.635.154-.634-.619.076-.618.075-.621.077-.621.076-.624.077z" fill="#ee4878"/><path d="m117.256 222.456-.789-.197-39.525-22.612-8.607 14.911-2.655-.109-20.155-42.679 1.233-2.135 47.037-3.877 1.422 2.245-8.057 13.948 33.942 19.413 108.425-86.578-10.571-11.858.937-2.487 46.839-5.75 1.641 1.842-11.065 45.885-2.578.646-11.595-13.019-115.915 91.821-.888.323zm-40.121-26.155 40.455 23.145 8.158-.24 116.634-92.391 2.052.178 10.631 11.936 9.883-40.996-41.846 5.138 9.719 10.902-.184 2.17-110.458 88.202-1.681.13-36.134-20.667-.554-2.052 7.378-12.771-42.026 3.464 18.007 38.13 7.922-13.725 2.044-.552z" fill="#231f20"/><path d="m133.964 212.967-.435-3.326-1.284-3.097-2.043-2.659-2.659-2.043-3.097-1.284-3.325-.434-3.325.434-3.098 1.284-2.659 2.043-2.043 2.659-1.284 3.098-.434 3.325.434 3.325 1.285 3.097 2.043 2.659 2.658 2.043 3.098 1.284 3.325.435 3.325-.435 3.098-1.284 2.659-2.043 2.042-2.659 1.284-3.097z" fill="#231f20"/><path d="M121.316 227.298h-.39l-3.325-.436-.379-.102-3.097-1.283-.34-.196-2.659-2.043-.276-.275-2.043-2.659-.196-.34-1.284-3.098-.102-.38-.435-3.325v-.389l.435-3.325.102-.38 1.284-3.097.196-.34 2.043-2.659.276-.275 2.659-2.043.339-.196 3.098-1.284.38-.102 3.325-.435h.389l3.325.435.38.102 3.097 1.284.339.196 2.659 2.042.276.275 2.043 2.659.196.34 1.284 3.098.102.38.435 3.325v.389l-.435 3.325-.102.38-1.284 3.098-.196.34-2.043 2.658-.275.275-2.659 2.043-.339.196-3.098 1.284-.38.102zm-3.129-3.385 2.934.385 2.934-.385 2.732-1.132 2.346-1.803 1.802-2.346 1.132-2.732.384-2.934-.384-2.934-1.132-2.732-1.803-2.346-2.346-1.803-2.731-1.132-2.934-.384-2.934.384-2.732 1.132-2.346 1.803-1.803 2.347-1.132 2.731-.384 2.934.384 2.934 1.132 2.732 1.803 2.347 2.346 1.803 2.731 1.131z" fill="#231f20"/></svg></g><g transform="translate(2044.7368421052631 1018.421052631579) rotate(0.0 315.7894736842105 424.3421052631578) scale(3.9358805696399943 3.9386667155183464)"><svg width="160.467" height="215.475" viewBox="0 0 160.467 215.475"><path d="m123.385 197.121-3.608 6.262-5.112 5.107-6.26 3.609-6.979 1.874-7.226.002-6.978-1.878-6.262-3.608-5.107-5.111-3.609-6.261-1.874-6.979-.002-7.225 1.877-6.979 3.608-6.261 5.112-5.108 6.261-3.609 6.979-1.874 7.225-.002 6.978 1.878 6.262 3.608 5.108 5.111 3.609 6.261 1.874 6.979.001 7.226z" fill="#fff"/><g fill="#231f20"><path d="m94.201 215.475-.39-.052-6.978-1.877-.359-.148-6.262-3.608-.312-.239-5.108-5.111-.239-.312-3.609-6.261-.149-.36-1.874-6.979-.051-.389-.002-7.226.052-.39 1.877-6.978.149-.359 3.608-6.262.239-.312 5.112-5.108.311-.239 6.261-3.608.36-.148 6.979-1.874.389-.052 7.226-.002.39.052 6.978 1.878.359.148 6.262 3.607.312.239 5.108 5.112.238.312 3.609 6.26.149.36 1.874 6.979.051.389.002 7.226-.052.39-1.877 6.978-.149.359-3.608 6.263-.24.313-5.112 5.107-.311.238-6.261 3.608-.36.148-6.979 1.874-.389.052-7.226.002zm-6.4-4.774 6.597 1.774 6.829-.002 6.598-1.771 5.919-3.412 4.831-4.827 3.411-5.921 1.775-6.597-.002-6.829-1.772-6.599-3.412-5.919-4.828-4.832-5.92-3.41-6.597-1.775-6.829.002-6.598 1.771-5.919 3.412-4.831 4.828-3.411 5.92-1.775 6.597.002 6.829 1.772 6.599 3.412 5.92 4.828 4.831z"/><path d="m70.965 179.799 7.608 4.503 7.61 4.504 7.612 4.505 7.61 4.504 7.616 4.508 7.615 4.507 2.293-2.378 1.648-2.871 1.161-3.103.802-3.219.519-3.277.255-3.294-8.72-1.481-8.723-1.481-8.725-1.481-8.723-1.481-8.729-1.482z"/><path d="m115.872 208.12-45.671-27.03 1.015-2.77 52.349 8.889 1.244 1.595-.269 3.413-.545 3.404-.853 3.382-1.265 3.325-1.869 3.165-2.293 2.377-1.844.25zM78.7 182.634l37.679 22.301 1.341-1.391 1.494-2.604 1.089-2.908.766-3.072.499-3.153.145-1.869z"/></g><path d="m151.395 23.604-2.097 3.639-2.97 2.967-3.638 2.097-4.055 1.089-4.199.001-4.055-1.091-3.638-2.096-2.968-2.97-2.097-3.638-1.089-4.055-.001-4.199 1.091-4.055 2.097-3.638 2.97-2.968 3.638-2.097 4.055-1.089 4.198-.001 4.055 1.091 3.639 2.096 2.968 2.971 2.097 3.637 1.088 4.055.001 4.199z" fill="#fff"/><path d="m134.437 34.898-.39-.052-4.055-1.091-.359-.148-3.639-2.097-.312-.239-2.968-2.971-.238-.312-2.097-3.638-.149-.36-1.089-4.055-.051-.389v-4.199l.051-.39 1.091-4.055.149-.359 2.097-3.639.24-.313 2.97-2.968.311-.238 3.638-2.097.36-.148 4.052-1.087.389-.052h4.199l.39.051 4.055 1.091.359.148 3.639 2.097.312.239 2.968 2.97.239.312 2.097 3.638.149.36 1.089 4.056.051.389v4.198l-.051.39-1.091 4.055-.149.359-2.096 3.639-.24.313-2.97 2.968-.311.238-3.638 2.098-.36.148-4.055 1.089-.389.052h-4.199zm-3.476-3.987 3.674.988h3.803l3.674-.987 3.297-1.901 2.69-2.688 1.9-3.297.988-3.674V15.55l-.988-3.675-1.9-3.296-2.688-2.69-3.297-1.899-3.674-.988h-3.803l-3.674.987-3.296 1.9-2.69 2.688-1.9 3.297-.988 3.674v3.803l.988 3.674 1.9 3.297 2.688 2.69 3.297 1.899z" fill="#231f20"/><path d="m156.054 82.521 2.913-10.826-.003-11.21-2.908-10.827-5.598-9.712-7.924-7.93-9.714-5.597-10.826-2.912-11.21.003-10.826 2.908-9.713 5.598-7.929 7.924-5.597 9.713L69.3 65.949l-8.816 15.577-10.391 14.578-12.056 13.231-13.724 11.487-15.261 9.351-1.415 3.416-1.414 3.413-1.413 3.411-1.413 3.41-1.414 3.414-1.409 3.4 11.486 4.759 11.489 4.759 11.492 4.762 11.49 4.76 11.497 4.763 11.497 4.763 11.485 4.758 11.489 4.76 11.493 4.761 11.489 4.76 11.497 4.763 11.497 4.763 1.411-3.406 1.411-3.405 1.414-3.413 1.414-3.414 1.413-3.411 1.415-3.416-4.177-17.401-1.579-17.827.833-17.883 2.962-17.655 4.784-17.251z" fill="#fff"/><path d="M137.901 209.153 0 152.024l-.812-1.96 8.478-20.465.602-.705 15.167-9.293 13.561-11.351 11.927-13.09 10.293-14.44 8.745-15.452 7.457-16.363 5.597-9.714.239-.312 7.929-7.924.311-.239 9.712-5.599.36-.148 10.827-2.907.389-.052 11.21-.003.39.052 10.826 2.912.359.148 9.714 5.598.312.239 7.923 7.929.239.312 5.599 9.713.149.36 2.908 10.826.051.389.003 11.21-.052.39-2.956 10.963-6.255 16.703-4.745 17.112-2.935 17.489-.824 17.691 1.561 17.616 4.151 17.293-.073.925-8.478 20.465-1.96.812zM2.534 149.826l135.129 55.981 7.717-18.629-4.099-17.145-1.584-18.029.852-18.061 2.996-17.808 4.825-17.377 6.253-16.698 2.842-10.565-.003-10.813-2.805-10.445-5.402-9.371-7.643-7.649-9.372-5.4-10.445-2.81-10.814.003-10.446 2.805-9.371 5.402-7.649 7.644-5.462 9.479-7.449 16.349-8.9 15.709L51.2 97.114l-12.202 13.372-13.903 11.616-14.845 9.096-7.717 18.629z" fill="#231f20"/><path d="m7.093 130.984 1.148-2.772 140.673 58.277-1.148 2.772z" fill="#231f20"/></svg></g><g transform="translate(264.4736842105263 343.42105263157896) rotate(0.0 1276.9736842105262 1048.0263157894738) scale(3.949456077897517 3.9458822130627773)"><svg width="646.658" height="531.2" viewBox="0 0 646.658 531.2"><path d="m642.124 401.95-.278-2.128-.821-1.982-1.308-1.701-1.701-1.307-1.981-.822-2.128-.278-2.128.278-1.982.822-1.701 1.307-1.307 1.701-.821 1.982-.278 2.128.278 2.127.821 1.982 1.308 1.701 1.701 1.307 1.982.822 2.127.278 2.128-.278 1.982-.822 1.701-1.307 1.307-1.701.821-1.982z" fill="#fff"/><path d="M634.101 411.654h-.388l-2.128-.277-.381-.102-1.981-.822-.339-.196-1.701-1.307-.276-.275-1.307-1.701-.196-.34-.822-1.982-.102-.38-.278-2.127v-.389l.278-2.128.102-.38.822-1.981.196-.34 1.307-1.701.275-.275 1.701-1.308.34-.196 1.982-.821.38-.102 2.128-.278h.389l2.127.278.38.102 1.982.821.34.196 1.701 1.308.275.275 1.307 1.701.196.34.822 1.981.102.38.278 2.128v.389l-.278 2.127-.102.38-.822 1.982-.196.34-1.307 1.701-.276.275-1.701 1.307-.339.196-1.982.822-.381.102zm-1.93-3.227 1.737.227 1.736-.227 1.616-.67 1.389-1.066 1.066-1.389.67-1.616.227-1.736-.227-1.736-.67-1.616-1.067-1.389-1.388-1.067-1.616-.669-1.736-.228-1.737.228-1.616.669-1.388 1.067-1.067 1.389-.67 1.616-.227 1.736.227 1.735.67 1.617 1.067 1.388 1.389 1.067z" fill="#231f20"/><path d="M499.798 207.823c-.065 0-.131-.004-.195-.013l-.792-.104a1.483 1.483 0 0 1-.381-.103l-.737-.307a1.499 1.499 0 0 1-.336-.194l-.634-.486a1.519 1.519 0 0 1-.278-.277l-.486-.634a1.495 1.495 0 0 1-.196-.34l-.305-.738a1.538 1.538 0 0 1-.101-.376l-.104-.792a1.505 1.505 0 0 1 0-.391l.104-.792c.018-.131.052-.26.103-.382l.307-.737c.024-.06.054-.118.086-.174l35.68-61.8c.032-.057.068-.111.108-.163l.486-.634c.08-.104.174-.198.278-.278l.634-.486c.104-.08.218-.146.339-.196l.738-.305a1.49 1.49 0 0 1 .377-.101l.791-.104a1.613 1.613 0 0 1 .391 0l.792.104c.131.017.259.051.38.102l.737.306c.12.05.233.115.337.194l.635.486c.104.08.198.174.279.279l.484.634c.08.104.146.219.196.34l.305.738c.049.12.083.246.101.374l.105.792c.017.131.017.264 0 .395l-.104.792a1.51 1.51 0 0 1-.103.379l-.307.738c-.024.06-.054.118-.086.174l-35.68 61.8c-.032.056-.068.11-.108.162l-.486.635c-.08.104-.174.198-.278.278l-.634.486c-.104.08-.218.146-.339.196l-.737.305c-.121.05-.247.083-.376.101l-.792.105a1.448 1.448 0 0 1-.197.013z" fill="#fff"/><path d="m535.478 138.404.792.104.738.306.634.486.486.634.305.738.104.791-.104.792-.306.738-5.944 10.295-5.945 10.297-5.947 10.301-5.945 10.298-5.949 10.305-5.949 10.305-.486.634-.634.486-.738.305-.792.104-.792-.104-.738-.306-.635-.486-.486-.634-.305-.738-.105-.792.104-.792.306-.738 5.944-10.295 5.945-10.297 5.947-10.301 5.945-10.298 5.949-10.305 5.949-10.305.486-.634.634-.486.738-.305.792-.104m0-3c-.131 0-.262.009-.393.026l-.792.104a2.982 2.982 0 0 0-.754.202l-.738.305c-.242.1-.47.232-.678.391l-.634.486c-.209.16-.396.347-.556.556l-.486.634a2.963 2.963 0 0 0-.217.325l-5.949 10.305-5.949 10.305-5.945 10.298-5.947 10.301-5.945 10.297-5.944 10.295a2.896 2.896 0 0 0-.172.349l-.306.738c-.101.243-.17.499-.204.76l-.104.792c-.034.26-.034.524 0 .784l.105.792c.034.258.102.511.201.752l.305.738c.1.243.232.471.392.68l.486.634c.16.209.348.396.557.557l.635.486c.206.158.433.289.673.389l.738.306c.243.101.499.17.76.204l.792.104a3.009 3.009 0 0 0 .784 0l.792-.104c.259-.034.512-.102.754-.202l.738-.305c.242-.1.471-.232.679-.392l.634-.486c.209-.16.396-.347.556-.557l.486-.634a3.21 3.21 0 0 0 .217-.324l5.949-10.305 5.949-10.305 5.945-10.298 5.947-10.301 5.945-10.297 5.944-10.295c.065-.113.123-.229.172-.349l.306-.738c.101-.244.17-.5.204-.761l.104-.792c.034-.26.034-.523 0-.783l-.104-.791a3.015 3.015 0 0 0-.201-.753l-.305-.738a2.97 2.97 0 0 0-.392-.68l-.486-.634a2.976 2.976 0 0 0-.555-.555l-.634-.486a2.988 2.988 0 0 0-.675-.39l-.738-.306a3.03 3.03 0 0 0-.76-.204l-.792-.104a3.009 3.009 0 0 0-.391-.026z" fill="#231f20"/><path d="M6.059 427.745c-.065 0-.131-.004-.195-.013l-.792-.104a1.474 1.474 0 0 1-.38-.102l-.737-.306a1.528 1.528 0 0 1-.337-.194l-.635-.486a1.499 1.499 0 0 1-.278-.279l-.485-.634a1.463 1.463 0 0 1-.195-.338l-.306-.738a1.548 1.548 0 0 1-.102-.377l-.104-.792a1.52 1.52 0 0 1 0-.393l.104-.792c.018-.13.052-.257.102-.378l.306-.738c.025-.061.054-.119.087-.176l18.653-32.309c.032-.057.068-.111.108-.163l.486-.634c.08-.104.174-.198.278-.278l.634-.486c.104-.08.219-.146.34-.196l.738-.305c.12-.049.246-.083.375-.1l.791-.105a1.448 1.448 0 0 1 .392 0l.792.104c.131.017.259.052.381.103l.737.307c.12.05.232.115.336.194l.635.486c.104.08.198.174.278.279l.485.634c.08.104.146.218.196.339l.305.738c.049.12.083.246.101.375l.105.792c.017.131.017.264 0 .395l-.104.792a1.51 1.51 0 0 1-.103.379l-.307.738c-.024.06-.054.118-.086.174l-18.653 32.309c-.032.056-.068.11-.107.162l-.485.634c-.08.105-.174.199-.279.279l-.634.486c-.104.08-.218.146-.339.196l-.738.305a1.49 1.49 0 0 1-.377.101l-.791.104a1.613 1.613 0 0 1-.196.013z" fill="#fff"/><path d="m24.713 387.818.792.104.738.306.634.486.486.634.305.738.105.792-.104.792-.306.738-3.107 5.382-3.108 5.384-3.106 5.38-3.109 5.385-3.111 5.389-3.111 5.389-.486.634-.634.486-.738.305-.792.105-.792-.104-.738-.306-.634-.486-.486-.634-.305-.738-.105-.792.104-.792.306-.738 3.107-5.382 3.108-5.383 3.106-5.38 3.109-5.385 3.111-5.389 3.111-5.389.486-.634.634-.486.738-.305.791-.105m0-3c-.131 0-.263.009-.394.026l-.791.105a3.019 3.019 0 0 0-.752.201l-.738.305a2.97 2.97 0 0 0-.68.392l-.634.486c-.209.16-.396.347-.556.556l-.486.634a3.05 3.05 0 0 0-.217.324l-3.111 5.389-3.111 5.389-3.109 5.385-3.106 5.38-3.108 5.383-3.107 5.382a2.896 2.896 0 0 0-.172.349l-.306.738c-.101.243-.17.499-.204.76l-.104.792c-.034.26-.034.524 0 .784l.105.792c.034.259.102.512.202.753l.305.738c.1.242.232.471.391.679l.486.634c.16.209.348.396.557.557l.634.486c.207.158.433.289.673.389l.738.306c.243.101.499.17.76.204l.792.104a3.009 3.009 0 0 0 .785 0l.792-.105c.258-.034.511-.102.752-.201l.738-.305c.243-.1.471-.232.68-.392l.634-.486c.209-.16.396-.347.556-.557l.486-.634a3.21 3.21 0 0 0 .217-.324l3.111-5.389 3.111-5.389 3.109-5.385 3.106-5.38 3.108-5.384 3.107-5.382c.065-.113.123-.229.172-.349l.306-.738c.101-.243.17-.499.204-.76l.104-.792c.034-.26.034-.524 0-.784l-.105-.792a2.974 2.974 0 0 0-.202-.753l-.305-.738a3.018 3.018 0 0 0-.391-.679l-.486-.634a3.028 3.028 0 0 0-.557-.557l-.634-.486a3.03 3.03 0 0 0-.673-.389l-.738-.306a2.988 2.988 0 0 0-.76-.204l-.792-.104a3.009 3.009 0 0 0-.391-.026z" fill="#231f20"/><path d="M609.368 480.672c-.126 0-.251-.016-.373-.047l-.773-.199a1.484 1.484 0 0 1-.363-.146l-.695-.392a1.489 1.489 0 0 1-.312-.234l-.571-.558a1.479 1.479 0 0 1-.243-.309l-.406-.687a1.524 1.524 0 0 1-.153-.36l-.215-.77a1.585 1.585 0 0 1-.041-.191l-6.515-45.686a1.568 1.568 0 0 1-.015-.193l-.01-.799a1.485 1.485 0 0 1 .048-.393l.199-.773a1.43 1.43 0 0 1 .146-.363l.393-.695a1.54 1.54 0 0 1 .233-.311l.558-.571c.092-.094.196-.176.31-.243l.688-.407c.113-.067.234-.119.36-.154l.769-.214c.126-.035.256-.054.386-.055l.817-.009c.126 0 .251.016.373.047l.773.199c.127.032.249.082.363.146l.695.392c.114.064.22.143.313.234l.57.558c.094.092.175.195.241.308l.407.687c.067.113.12.236.155.363l.214.77c.018.063.03.126.04.19l6.516 45.686a1.6 1.6 0 0 1 .015.195l.009.799c0 .131-.015.262-.047.389l-.198.773c-.033.127-.082.25-.146.365l-.393.696a1.54 1.54 0 0 1-.233.311l-.558.571a1.492 1.492 0 0 1-.31.243l-.688.407a1.477 1.477 0 0 1-.361.154l-.77.214a1.474 1.474 0 0 1-.385.055l-.816.009z" fill="#fff"/><path d="m603.588 427.412.773.199.696.393.571.558.407.687.214.769 1.085 7.61 1.086 7.612 1.086 7.615 1.086 7.612 1.086 7.618 1.086 7.618.009.799-.199.773-.392.696-.558.571-.687.407-.77.214-.799.009-.773-.199-.696-.392-.571-.558-.407-.687-.214-.769-1.085-7.61-1.086-7.612-1.086-7.615-1.085-7.613-1.086-7.618-1.086-7.618-.009-.799.199-.773.392-.696.558-.571.687-.407.77-.214.799-.009m0-3h-.035l-.799.009c-.26.003-.519.04-.77.11l-.77.214a3.026 3.026 0 0 0-.724.309l-.687.407a2.977 2.977 0 0 0-.616.484l-.558.571c-.182.187-.34.396-.468.624l-.392.696a2.99 2.99 0 0 0-.292.727l-.199.773a2.983 2.983 0 0 0-.094.781l.009.799c.001.13.011.26.03.389l1.086 7.618 1.086 7.618 1.085 7.613 1.086 7.615 1.086 7.612 1.085 7.61c.018.129.045.256.08.382l.214.769a3 3 0 0 0 .308.723l.407.687c.134.226.297.434.485.617l.571.558c.187.182.396.339.623.468l.696.392c.229.129.473.227.727.292l.773.199c.244.063.495.094.747.094h.035l.799-.009c.26-.003.519-.04.77-.11l.77-.214a3 3 0 0 0 .723-.308l.687-.407c.226-.134.433-.297.617-.484l.558-.571c.182-.187.34-.396.468-.624l.392-.696a2.99 2.99 0 0 0 .292-.727l.199-.773c.066-.255.097-.518.094-.781l-.009-.799a2.819 2.819 0 0 0-.03-.389l-1.086-7.618-1.086-7.618-1.086-7.613-1.086-7.615-1.086-7.612-1.085-7.61a2.946 2.946 0 0 0-.08-.382l-.214-.769a3 3 0 0 0-.308-.723l-.407-.687a3.044 3.044 0 0 0-.484-.617l-.571-.558a3.06 3.06 0 0 0-.623-.468l-.696-.393a3 3 0 0 0-.728-.293l-.773-.199a2.987 2.987 0 0 0-.747-.094z" fill="#231f20"/><path d="m610.677 208.666 1.016 4.909 1.054 4.899 1.072 4.899 1.069 4.904 1.043 4.903.995 4.913 4.913.995 4.902 1.043 4.9 1.068 4.903 1.073 4.901 1.056 4.908 1.017-4.908 1.017-4.899 1.056-4.899 1.072-4.904 1.069-4.904 1.043-4.913.995-.995 4.913-1.042 4.901-1.068 4.901-1.073 4.903-1.057 4.901-1.019 4.908-1.016-5.013-1.054-5.003-1.072-5.004-1.069-5.008-1.043-5.008-.995-5.017-4.912-.891-4.902-.938-4.9-.963-4.904-.969-4.901-.952-4.908-.913 4.909-1.121 4.898-1.16 4.899-1.176 4.903-1.174 4.904-1.147 4.914-1.1.995-4.808 1.042-4.798 1.068-4.796 1.073-4.798 1.057-4.797z" fill="#fff"/><path d="m612.141 280.329-2.939-.007-2.068-10.005-3.185-15.023-.799-4.028-8.823-1.649-14.71-2.885-4.896-.911-.06-2.937 9.796-2.279 14.709-3.498 3.983-.891 1.845-8.673 4.215-19.188 2.936.008 2.067 9.796 3.185 14.709.801 3.953 8.854 1.843 14.708 3.197 4.897 1.016v2.938l-9.796 2.07-14.711 3.184-3.952.802-1.843 8.854-4.215 19.605zm-29.835-36.132 17.487 3.41 4.897.889 1.204 1.184 2.035 10.011 2.76 12.952 3.774-17.444.992-4.898 1.172-1.172 9.802-2.036 12.613-2.746-17.517-3.79-4.899-.992-1.172-1.172-2.035-9.802-2.762-12.689-3.775 17.077-.992 4.794-1.141 1.16-9.803 2.244-12.641 3.021z" fill="#231f20"/><path d="m382.476 182.367-.278-2.127-.822-1.982-1.307-1.702-1.701-1.307-1.982-.821-2.127-.278-2.128.278-1.982.822-1.701 1.307-1.307 1.701-.822 1.982-.278 2.127.278 2.128.822 1.982 1.307 1.701 1.701 1.307 1.982.821 2.128.279 2.127-.279 1.982-.821 1.701-1.307 1.307-1.702.822-1.981z" fill="#fff"/><path d="M374.453 192.072h-.389l-2.128-.278-.38-.102-1.982-.821-.339-.196-1.701-1.307-.276-.275-1.307-1.701-.196-.34-.822-1.982-.102-.38-.278-2.128v-.389l.278-2.127.102-.38.822-1.981.196-.34 1.307-1.701.275-.275 1.701-1.308.34-.196 1.982-.821.38-.102 2.128-.278h.389l2.127.278.38.102 1.982.821.339.196 1.701 1.307.276.275 1.307 1.701.196.34.822 1.982.102.38.278 2.127v.389l-.278 2.128-.102.38-.822 1.981-.196.34-1.307 1.701-.275.275-1.701 1.308-.34.196-1.982.821-.38.102-2.128.278zm-1.931-3.228 1.736.228 1.736-.228 1.616-.669 1.389-1.067 1.067-1.389.67-1.616.227-1.736-.227-1.735-.67-1.617-1.067-1.388-1.389-1.067-1.616-.669-1.736-.228-1.737.228-1.616.669-1.389 1.067-1.067 1.389-.67 1.616-.227 1.735.227 1.736.67 1.617 1.067 1.388 1.389 1.067 1.616.669z" fill="#231f20"/><path d="m585.344 129.877-.16-1.216-.469-1.133-.747-.972-.972-.746-1.132-.47-1.216-.159-1.216.159-1.133.47-.972.747-.746.972-.47 1.132-.159 1.216.159 1.216.47 1.133.747.972.972.746 1.132.47 1.216.159 1.216-.16 1.133-.469.972-.747.746-.972.47-1.132z" fill="#fff"/><path d="M580.843 136.06h-.389l-1.216-.159-.38-.102-1.132-.47-.339-.196-.972-.746-.276-.275-.747-.973-.196-.339-.47-1.132-.102-.381-.159-1.217v-.389l.159-1.215.102-.38.469-1.133.196-.34.747-.972.275-.275.972-.747.339-.196 1.132-.47.38-.102 1.216-.159h.389l1.216.159.379.102 1.132.469.34.196.972.747.275.275.747.972.196.34.47 1.133.102.38.159 1.216v.389l-.159 1.216-.102.38-.469 1.133-.196.34-.747.972-.275.275-.972.747-.339.196-1.132.47-.38.102-1.216.159zm-1.019-3.108.824.108.825-.108.766-.317.659-.507.506-.659.318-.767.108-.825-.108-.824-.318-.768-.507-.659-.659-.506-.766-.317-.825-.108-.825.108-.766.317-.66.507-.506.659-.318.767-.108.824.108.825.318.767.507.659.659.507.767.317z" fill="#231f20"/><path d="m27.976 286.656-.159-1.216-.47-1.132-.747-.972-.972-.747-1.132-.469-1.216-.159-1.216.159-1.133.469-.971.747-.747.972-.47 1.133-.158 1.215.159 1.217.469 1.132.747.972.972.747 1.133.469 1.215.159 1.217-.159 1.132-.47.972-.747.747-.972.469-1.132z" fill="#fff"/><path d="M23.475 292.839h-.389l-1.216-.159-.379-.102-1.132-.469-.34-.196-.972-.747-.275-.275-.747-.972-.196-.34-.47-1.133-.102-.38-.159-1.216v-.389l.159-1.216.102-.38.469-1.133.196-.34.747-.972.275-.275.972-.747.339-.196 1.132-.47.38-.102 1.216-.159h.389l1.216.159.38.102 1.132.47.339.196.972.746.276.275.747.972.196.34.47 1.133.102.38.159 1.217v.389l-.159 1.215-.102.38-.469 1.133-.196.34-.747.972-.275.275-.972.747-.339.196-1.132.47-.38.102-1.216.159zm-1.019-3.108.825.108.825-.108.766-.317.659-.507.507-.659.318-.767.108-.824-.108-.825-.318-.768-.506-.658-.66-.507-.767-.317-.824-.108-.825.108-.766.317-.66.507-.507.659-.318.767-.108.825.108.824.318.767.507.66.659.506.766.317z" fill="#231f20"/><path d="m188.231 69.091-.16-1.216-.469-1.133-.747-.972-.972-.746-1.132-.47-1.216-.158-1.216.159-1.133.469-.972.747-.746.972-.47 1.133-.159 1.215.159 1.217.47 1.132.747.972.972.747 1.132.469 1.216.159 1.216-.159 1.133-.47.972-.747.746-.972.47-1.132z" fill="#fff"/><path d="M183.73 75.274h-.389l-1.216-.159-.379-.102-1.132-.469-.34-.196-.972-.747-.275-.275-.747-.972-.196-.34-.47-1.133-.102-.38-.159-1.216v-.389l.159-1.216.102-.38.469-1.133.196-.34.747-.972.275-.275.972-.747.339-.196 1.132-.47.38-.102 1.216-.159h.389l1.216.159.38.102 1.132.47.339.196.972.746.276.275.747.973.196.339.47 1.132.102.381.159 1.217v.389l-.159 1.216-.102.381-.469 1.132-.196.339-.747.972-.275.275-.972.747-.339.196-1.132.47-.38.102-1.216.159zm-1.02-3.108.825.108.825-.108.766-.317.659-.507.507-.659.318-.767.108-.824-.108-.825-.318-.767-.507-.659-.659-.507-.767-.317-.824-.108-.825.108-.766.317-.659.507-.507.659-.318.767-.108.825.108.824.318.768.507.659.659.506z" fill="#231f20"/><path d="m387.172 128.302-.159-1.217-.47-1.132-.747-.972-.972-.747-1.132-.469-1.216-.159-1.216.159-1.133.47-.972.747-.746.972-.47 1.132-.159 1.216.159 1.216.47 1.132.747.972.972.747 1.132.469 1.216.159 1.216-.159 1.133-.47.972-.747.746-.971.47-1.133z" fill="#fff"/><path d="M382.671 134.485h-.389l-1.216-.159-.38-.102-1.132-.47-.339-.196-.972-.746-.276-.275-.747-.973-.196-.339-.47-1.132-.102-.381-.159-1.217v-.389l.159-1.216.102-.381.469-1.132.196-.339.747-.972.275-.275.972-.747.339-.196 1.132-.47.38-.102 1.216-.159h.389l1.216.159.379.102 1.132.469.34.196.972.747.275.275.747.972.196.34.47 1.133.102.38.159 1.216v.389l-.159 1.216-.102.38-.469 1.133-.196.34-.747.972-.275.275-.972.747-.339.196-1.132.47-.38.102-1.216.159zm-1.019-3.108.824.108.825-.108.766-.317.659-.507.506-.659.318-.767.108-.825-.108-.824-.318-.768-.507-.659-.659-.506-.766-.317-.825-.108-.825.108-.766.317-.66.507-.507.659-.318.767-.108.824.108.825.318.767.507.659.659.507.767.317z" fill="#231f20"/><path d="m292.926.15.961 9.543.963 9.545.962 9.548.962 9.545.963 9.551.962 9.552 7.926-5.262 7.928-5.264 7.931-5.265 7.928-5.264 7.934-5.267 7.934-5.268-6.727 6.766-6.728 6.768-6.725 6.765-6.73 6.77-6.736 6.774-6.735 6.775 8.922 2.851 8.924 2.852 8.927 2.853 8.924 2.852 8.931 2.854 8.93 2.854-9.35-.976-9.352-.976-9.355-.976-9.353-.976-9.358-.977-9.359-.977 3.199 8.689 3.2 8.69 3.201 8.694 3.2 8.69 3.203 8.697 3.202 8.697-4.932-7.854-4.934-7.855-4.935-7.859-4.934-7.856-4.937-7.861-4.937-7.861-4.933 7.853-4.933 7.856-4.936 7.858-4.933 7.856-4.937 7.862-4.938 7.861 3.2-8.688 3.2-8.691 3.201-8.693 3.2-8.691 3.202-8.697 3.203-8.697-9.35.976-9.352.976-9.356.976-9.352.977-9.359.976-9.359.977 8.922-2.851 8.924-2.852 8.927-2.853 8.924-2.852 8.931-2.854 8.93-2.854-6.727-6.766-6.728-6.768-6.725-6.764-6.73-6.77-6.735-6.775-6.735-6.775 7.926 5.263 7.928 5.263 7.93 5.266 7.929 5.263 7.933 5.268 7.934 5.267.962-9.542.962-9.545.962-9.548.962-9.545.963-9.552z" fill="#fff"/><path d="m321.265 130.674-28.339-45.123-28.339 45.123-2.678-1.316 18.373-49.896-53.732 5.607-.612-2.921 51.221-16.369-38.651-38.878 1.893-2.308 45.508 30.214L291.433 0h2.985l5.524 54.809 45.508-30.214 1.894 2.308-38.651 38.878 51.221 16.369-.612 2.921-53.732-5.607 18.373 49.896-2.678 1.316zm-29.609-48.741h2.541l21.965 34.974-14.239-38.668 1.563-2.011 41.648 4.347-39.691-12.684-.607-2.486 29.957-30.133-35.263 23.412-2.322-1.1-4.281-42.477-4.281 42.477-2.322 1.1-35.263-23.413 29.957 30.134-.607 2.486-39.69 12.684 41.647-4.347 1.563 2.011-14.238 38.667 21.964-34.973z" fill="#231f20"/><path d="m78.58 344.362-1.446-6.907-3.387-6.22-4.555-5.433-5.433-4.555-6.222-3.389-6.906-1.446 6.907-1.446 6.219-3.387 5.433-4.555 4.556-5.433 3.388-6.222 1.446-6.906 1.446 6.907 3.387 6.219 4.556 5.433 5.432 4.556 6.222 3.388 6.907 1.446-6.907 1.446-6.22 3.387-5.433 4.555-4.555 5.433-3.389 6.222z" fill="#fff"/><path d="m77.112 344.67-1.401-6.691-3.21-5.895-4.374-5.217-5.217-4.374-5.897-3.212-6.69-1.401v-2.936l6.691-1.4 5.894-3.211 5.217-4.373 4.375-5.217 3.211-5.897 1.401-6.69h2.936l1.401 6.691 3.21 5.895 4.374 5.217 5.217 4.374 5.896 3.212 6.69 1.4v2.936l-6.69 1.401-5.894 3.211-5.217 4.373-4.375 5.217-3.211 5.897-1.401 6.69zm-19.207-28.257.349.128 6.469 3.557 5.618 4.741 4.723 5.679 3.387 6.22.129.351.128-.35 3.557-6.469 4.741-5.618 5.679-4.723 6.22-3.388.35-.129-.349-.128-6.469-3.557-5.618-4.741-4.723-5.679-3.387-6.22-.129-.351-.128.35-3.557 6.469-4.741 5.618-5.679 4.723-6.22 3.388z" fill="#231f20"/><path d="m262.009 530.893-.885-4.228-2.074-3.808-2.789-3.326-3.326-2.789-3.809-2.075-4.228-.885 4.227-.885 3.808-2.073 3.327-2.789 2.789-3.326 2.074-3.81.886-4.228.885 4.228 2.073 3.808 2.789 3.326 3.326 2.789 3.81 2.075 4.228.885-4.228.885-3.808 2.074-3.326 2.788-2.789 3.327-2.075 3.809z" fill="#fff"/><path d="m260.541 531.201-.84-4.012-1.896-3.483-2.608-3.11-3.11-2.607-3.484-1.897-4.012-.841v-2.936l4.012-.84 3.483-1.896 3.11-2.607 2.608-3.11 1.897-3.484.84-4.012h2.936l.84 4.012 1.896 3.482 2.608 3.11 3.11 2.608 3.484 1.897 4.012.84v2.936l-4.011.841-3.483 1.896-3.11 2.607-2.608 3.11-1.897 3.483-.84 4.013h-2.936zm-9.904-17.419 3.262 1.811 3.512 2.975 2.957 3.573 1.641 3.014 1.811-3.262 2.975-3.512 3.573-2.957 3.014-1.641-3.263-1.812-3.512-2.975-2.957-3.572-1.641-3.015-1.81 3.263-2.975 3.512-3.573 2.957z" fill="#231f20"/></svg></g></svg>