<svg xmlns="http://www.w3.org/2000/svg" viewBox="0 0 1000 1000" width="1000" height="1000"><g transform="translate(98.0 778.0) rotate(0.0 397.0 12.0) scale(0.9980441351708742 0.9652121455861653)"><svg width="795.556" height="24.865" viewBox="0 0 795.556 24.865"><path style="fill:#231f20" d="m795.42 12.433-65.76-6.024-66.352-2.114-66.371-1.327-66.378-.844-66.384-.472-66.397-.152-66.388.152-66.387.472-66.382.844-66.374 1.327-66.352 2.114L.137 12.433l65.759 6.024 66.352 2.114 66.371 1.326 66.378.844 66.385.472 66.396.152 66.388-.151 66.388-.473 66.382-.844 66.373-1.326 66.352-2.114 65.759-6.024z"/><path d="m397.782 24.865-66.403-.152-66.392-.473-66.386-.844-66.382-1.327-66.37-2.115L0 13.926v-2.988l65.758-6.023 66.441-2.12 66.391-1.327 66.393-.844 66.396-.473L397.775 0l66.403.152 66.392.473 66.386.844 66.382 1.327 66.37 2.115 65.849 6.03v2.988l-65.758 6.024-66.441 2.12-66.391 1.327-66.393.844-66.396.473-66.395.152ZM16.576 12.432l49.457 4.531 66.263 2.109 66.353 1.326 66.367.844 66.376.472 66.389.152 66.381-.152 66.38-.473 66.374-.844 66.363-1.327 66.334-2.114 49.367-4.524-49.457-4.531-66.263-2.109-66.353-1.326-66.367-.844-66.376-.472-66.389-.152-66.381.152-66.38.473-66.374.844-66.363 1.326-66.334 2.114-49.367 4.525Z" style="fill:#231f20"/></svg></g><g transform="translate(383.0 163.0) rotate(0.0 197.0 197.0) scale(0.9990440619001615 0.9990440619001615)"><svg width="394.377" height="394.377" viewBox="0 0 394.377 394.377"><path d="m339.914 54.462-8.902 15.514-8.9 15.509L313.208 101l-8.903 15.515-8.905 15.517-8.905 15.518 17.864.898 17.859.897 17.865.898 17.866.899 17.868.898 17.869.898-15.877 8.238-15.872 8.235-15.877 8.238-15.879 8.239-15.88 8.24-15.881 8.24 14.543 10.413 14.538 10.41 14.544 10.414 14.539 10.411 14.549 10.418 14.548 10.418-17.809-1.654-17.805-1.653-17.811-1.653-17.812-1.654-17.814-1.654-17.815-1.654 6.604 16.623 6.603 16.618 6.604 16.623 6.605 16.625 6.606 16.627 6.606 16.626-14.089-11.019-14.085-11.017-14.089-11.02-14.085-11.017L248 299.574l-14.095-11.024-3.431 17.554-3.43 17.549-3.431 17.556-3.432 17.556-3.432 17.559-3.432 17.558-5.894-16.887-5.893-16.882-5.895-16.889-5.895-16.889-5.896-16.892-5.896-16.891-12.371 12.907-12.375 12.91-12.379 12.914-12.375 12.911-12.383 12.919-12.384 12.919 4.172-17.393 4.17-17.388 4.171-17.394 4.172-17.396 4.172-17.397 4.172-17.398-17.393 4.171-17.388 4.17-17.394 4.172-17.396 4.172-17.397 4.172-17.398 4.172 12.907-12.371 12.91-12.375 12.914-12.379 12.911-12.375 12.919-12.383 12.92-12.384-16.888-5.894-16.882-5.893-16.888-5.895-16.89-5.895-16.891-5.896-16.892-5.896 17.554-3.431 17.55-3.43 17.555-3.431 17.556-3.432 17.559-3.432 17.559-3.432-11.02-14.088-11.016-14.085-11.021-14.089-11.017-14.086-11.024-14.094-11.025-14.095 16.623 6.604 16.617 6.602 16.624 6.605 16.625 6.605 16.626 6.605 16.627 6.606-1.653-17.81-1.653-17.804-1.654-17.811-1.654-17.812-1.653-17.815-1.654-17.814 10.413 14.543 10.41 14.538 10.414 14.544 10.411 14.538 10.418 14.549 10.418 14.549 8.238-15.876 8.235-15.872 8.238-15.878 8.239-15.878 8.24-15.881 8.24-15.88.898 17.864.897 17.858.898 17.865.898 17.866.899 17.869.898 17.868 15.513-8.902 15.509-8.9 15.515-8.903 15.515-8.904 15.518-8.905z" fill="#FFF"/><path d="m211.901 394.376-34.563-99.02-72.574 75.714-2.542-1.388 24.458-101.987-101.987 24.458-1.388-2.542 75.714-72.574L0 182.476l.207-2.888 102.931-20.119-64.615-82.611 1.735-2.318 97.468 38.724-9.695-104.43 2.713-1.012 61.06 85.272L240.107 0l2.829.615 5.266 104.747 90.965-52.201 2.048 2.048-52.201 90.965 104.747 5.265.615 2.83-93.094 48.303 85.272 61.06-1.012 2.713-104.43-9.695 38.724 97.468-2.318 1.735-82.611-64.615-20.119 102.931-2.888.207zm-35.036-102.863 2.499.544 33.543 96.1 19.525-99.895 2.396-.894 80.174 62.71-37.582-94.594 1.533-2.047 101.35 9.409-82.757-59.259.182-2.551 90.348-46.878-101.657-5.11-1.226-2.245 50.661-88.282-88.282 50.661-2.245-1.226-5.11-101.657-46.878 90.348-2.551.182-59.258-82.756 9.409 101.35-2.047 1.533-94.593-37.583 62.709 80.174-.894 2.396-99.895 19.526 96.1 33.543.544 2.499-73.482 70.434 98.979-23.737 1.808 1.808-23.737 98.979 70.433-73.481z" fill="#231f20"/></svg></g><g transform="translate(437.0 400.0) rotate(0.0 104.5 126.0) scale(0.9970945904040379 0.9979051910869643)"><svg width="209.609" height="252.529" viewBox="0 0 209.609 252.529"><path d="M208.109 251.029H1.5V1.5h166.957l39.652 54.783z" fill="#231f20"/><path d="M208.109 252.529H1.5l-1.5-1.5V1.5L1.5 0h166.957l1.215.621 39.652 54.782.285.879v194.747zM3 249.529h203.609V56.768L167.691 3H3z" fill="#231f20"/><path d="m168.457 1.5-16.696 38.609 56.348 16.174z" fill="#fff"/><path d="M207.695 57.724 151.347 41.55l-.963-2.037L167.08.905l2.592-.284 39.652 54.782zm-53.88-18.587 50.531 14.504-35.559-49.126-14.972 34.623z" fill="#231f20"/><g fill="#fff"><path d="M38.217 73.565h135.261v3H38.217zm0 32.174h135.261v3H38.217zm0 32.174h135.261v3H38.217z"/></g></svg></g><g transform="translate(163.0 259.0) rotate(0.0 286.5 264.0) scale(0.999075898383694 0.9982794804409069)"><svg width="573.53" height="528.91" viewBox="0 0 573.53 528.91"><path d="M84.46 42.98v46.96H1.5V42.98l1.403-10.739 4.148-10.005 6.598-8.588 8.588-6.598 10.004-4.147L42.98 1.5l5.416.35 5.323 1.053 5.139 1.744 4.866 2.403 4.509 3.019 4.077 3.581 3.581 4.077 3.019 4.509 2.403 4.866 1.744 5.138 1.053 5.324z" fill="#231f20"/><path d="M381.07 42.98v262.96H209.68l-10.738 1.403-10.003 4.146-8.588 6.596-6.599 8.586-4.148 10.002-1.404 10.737v138.53l-1.404 10.738-4.149 10.002-6.599 8.586-8.588 6.595-10.002 4.146-10.738 1.403-10.738-1.403-10.003-4.146-8.588-6.596-6.599-8.586-4.148-10.002-1.404-10.737v-130.7l-.13-44.213-.13-44.214-.13-44.217-.13-44.214-.13-44.221-.13-44.221V42.98l-.35-5.416-1.053-5.323-1.744-5.139-2.403-4.866-3.019-4.509-3.581-4.077-4.077-3.581-4.509-3.019-4.866-2.403-5.138-1.744-5.324-1.053-5.416-.35h296.61l5.416.35 5.323 1.053 5.139 1.743 4.865 2.405 4.509 3.019 4.078 3.58 3.581 4.077 3.019 4.509 2.403 4.866 1.744 5.138 1.053 5.324z" fill="#fff"/><g fill="#231f20"><path d="M126.914 528.897h-.389l-10.738-1.403-.38-.102-10.003-4.146-.339-.196-8.588-6.596-.276-.275-6.599-8.586-.196-.339-4.148-10.001-.102-.38-1.417-10.932v-130.7l-.78-265.295V42.98l-.341-5.22-1.015-5.131-1.68-4.952-2.316-4.688-2.91-4.346-3.452-3.93-3.93-3.453-4.345-2.909-4.689-2.316-4.951-1.68L48.2 3.34l-5.318-.344L42.98 0h296.61l5.707.378 5.515 1.104 5.321 1.819 5.035 2.502 4.664 3.139 4.216 3.717 3.701 4.232 3.117 4.679 2.479 5.048 1.794 5.33 1.078 5.518.354 5.513V305.94l-1.5 1.5H209.778l-10.444 1.365-9.638 3.994-8.275 6.356-6.359 8.273-3.996 9.636-1.366 10.443-.013 138.627-1.404 10.738-.102.38-4.149 10.002-.196.339-6.599 8.586-.276.276-8.588 6.596-.339.196-10.003 4.146-.38.102-10.738 1.403zm-10.541-4.352 10.347 1.352 10.347-1.352 9.637-3.994 8.275-6.356 6.359-8.273 3.997-9.636 1.366-10.444.013-138.627 1.404-10.737.102-.38 4.148-10.002.196-.339 6.599-8.586.276-.275 8.588-6.596.339-.196 10.004-4.146.38-.102 10.932-1.416h169.89V43.029l-.341-5.27-1.015-5.13-1.68-4.952-2.316-4.689-2.909-4.345-3.452-3.93-3.932-3.451-4.346-2.91-4.688-2.316-4.952-1.68-5.13-1.015-5.317-.344L58.674 3l.849.302 5.036 2.502 4.664 3.138 4.214 3.718 3.701 4.232 3.117 4.679 2.479 5.048 1.794 5.33 1.078 5.518.35 5.416.003 47.057.78 265.295v130.606l1.366 10.444 3.996 9.635 6.359 8.273 8.275 6.356 9.637 3.994z"/><path d="M188.81 82.28h78.26v3h-78.26zm92.35 0h42.26v3h-42.26zm-142.44 0h36v3h-36zm87.39 47.8h97.31v3h-97.31zm-87.39 0h73.31v3h-73.31zm0 47.799h184.697v3H138.72zm120.52 47.801h64.18v3h-64.18zm-120.52 0h106.44v3H138.72zm0 47.796h184.697v3H138.72zm0 47.798h184.697v3H138.72zm0 47.799h184.697v3H138.72zm0 47.798h184.697v3H138.72zM84.46 91.44H1.5L0 89.94l.013-47.154 1.403-10.739.102-.38 4.147-10.004.196-.339 6.598-8.588.276-.276 8.588-6.598.339-.196 10.005-4.148.38-.102L43.077.003l5.61.376 5.515 1.104 5.321 1.819 5.036 2.502 4.664 3.138 4.214 3.718 3.701 4.232 3.117 4.679 2.479 5.048 1.794 5.33 1.078 5.518.354 5.513v46.96zM3 88.44h79.96V43.029l-.341-5.27-1.015-5.13-1.68-4.951-2.316-4.688-2.909-4.345-3.452-3.93-3.93-3.452-4.346-2.91-4.688-2.316-4.951-1.679-5.13-1.015-5.172-.334-10.397 1.359-9.638 3.995-8.276 6.358-6.358 8.275-3.996 9.638L3 43.08v45.363z"/><path d="M292.63 527.41H126.72l10.738-1.403 10.003-4.146 8.588-6.596 6.599-8.586 4.148-10.002 1.404-10.737V347.41l1.404-10.738 4.149-10.002 6.599-8.586 8.588-6.595 10.002-4.146 10.738-1.403 5.416.35 5.323 1.053 5.139 1.744 4.866 2.403 4.509 3.019 4.077 3.581 3.581 4.076 3.019 4.507 2.403 4.863 1.744 5.137 1.053 5.323.35 5.414v138.53l1.404 10.736 4.147 10.002 6.597 8.585 8.585 6.597 10.001 4.146z"/><path d="M292.63 528.91H126.72l-.194-2.987 10.541-1.377 9.637-3.994 8.275-6.356 6.358-8.273 3.996-9.635 1.366-10.444.013-138.627 1.404-10.738.102-.38 4.149-10.002.196-.339 6.599-8.585.276-.276 8.588-6.596.339-.196 10.003-4.146.38-.102 11.029-1.412 5.61.375 5.515 1.104 5.321 1.819 5.036 2.502 4.665 3.138 4.214 3.718 3.7 4.231 3.118 4.677 2.479 5.046 1.794 5.328 1.078 5.517.35 5.414.003 138.53 1.365 10.442 3.995 9.635 6.357 8.273 8.273 6.357 9.635 3.995 10.539 1.378-.194 2.987zm-151.021-3h136.136l-6.427-2.665-.339-.196-8.586-6.597-.276-.276-6.597-8.585-.196-.339-4.147-10.001-.102-.38-1.416-10.931V347.41l-.341-5.219-1.015-5.13-1.68-4.949-2.316-4.687-2.91-4.344-3.452-3.929-3.93-3.452-4.345-2.91-4.689-2.316-4.951-1.68-5.13-1.015-5.172-.334-10.396 1.358-9.637 3.994-8.275 6.356-6.359 8.273-3.997 9.636-1.366 10.444-.013 138.627-1.404 10.738-.102.38-4.148 10.001-.196.339-6.599 8.586-.276.276-8.588 6.596-.339.196-6.426 2.663z"/></g><path d="M507.85 347.41v91.18H334.11v47.35l-1.404 10.738-4.149 10.002-6.599 8.585-8.588 6.596-10.002 4.146-10.738 1.403-10.736-1.404-10.002-4.147-8.585-6.597-6.597-8.585-4.146-10.001-1.404-10.736V347.41l-.35-5.414-1.053-5.322-1.744-5.138-2.403-4.863-3.019-4.508-3.581-4.075-4.077-3.581-4.509-3.019-4.866-2.403-5.138-1.744-5.324-1.053-5.416-.35h256.69l5.416.35 5.323 1.053 5.139 1.743 4.865 2.405 4.509 3.019 4.078 3.58 3.581 4.076 3.019 4.507 2.403 4.863 1.744 5.137 1.053 5.323z" fill="#fff"/><path d="M292.824 528.897h-.389l-10.736-1.404-.38-.102-10.001-4.147-.339-.196-8.585-6.597-.276-.276-6.597-8.586-.196-.339-4.147-10-.102-.38-1.416-10.931v-138.53l-.341-5.219-1.015-5.129-1.68-4.95-2.316-4.687-2.91-4.344-3.452-3.929-3.931-3.452-4.345-2.909-4.688-2.316-4.951-1.679-5.13-1.015-5.318-.344.097-2.997h256.69l5.707.378 5.515 1.104 5.321 1.819 5.035 2.502 4.664 3.139 4.215 3.717 3.7 4.231 3.118 4.677 2.479 5.046 1.794 5.328 1.078 5.517.353 5.511v91.18l-1.5 1.5h-172.24l-.013 46.044-1.404 10.738-.102.38-4.149 10.002-.196.339-6.599 8.585-.276.276-8.588 6.596-.339.196-10.003 4.146-.38.102-10.738 1.403zm-10.539-4.353 10.345 1.353 10.346-1.352 9.637-3.994 8.275-6.356 6.359-8.273 3.997-9.636 1.366-10.444V438.59l1.5-1.5h172.24v-89.632l-.341-5.268-1.015-5.129-1.68-4.95-2.316-4.687-2.91-4.344-3.452-3.929-3.932-3.451-4.345-2.91-4.688-2.317-4.951-1.68-5.13-1.015-5.318-.344-240.899.003.849.302 5.036 2.502 4.664 3.138 4.214 3.718 3.7 4.23 3.118 4.677 2.479 5.046 1.795 5.328 1.078 5.516.35 5.414.003 138.529 1.365 10.443 3.995 9.635 6.357 8.273 8.273 6.357 9.635 3.995z" fill="#231f20"/><path d="M334.11 445.624h-18.511v37.527l-.687 8.601-2.046 8.381-3.352 7.95-4.571 7.317-5.676 6.498-6.637 5.512h41.48v-68.149z" fill="#231f20"/><path d="M334.11 528.91h-41.48l-.958-2.654 6.545-5.436 5.518-6.317 4.444-7.114 3.258-7.729 1.989-8.149.673-8.421v-37.468l1.5-1.5h18.511l1.5 1.5v81.786l-1.5 1.5zm-37.326-3h35.826v-78.786h-15.511l-.005 36.147-.725 8.837-2.121 8.609-3.462 8.162-4.714 7.509-5.847 6.664-3.442 2.859z" fill="#231f20"/><path d="M572.03 438.59v47.35l-1.404 10.738-4.149 10.002-6.599 8.586-8.588 6.595-10.002 4.146-10.738 1.403H292.63l10.738-1.403 10.003-4.146 8.588-6.596 6.599-8.586 4.148-10.002 1.404-10.737v-47.35h198.263z" fill="#fff"/><path d="M530.55 528.91H292.63l-.194-2.987 10.541-1.377 9.637-3.994 8.275-6.356 6.359-8.273 3.996-9.635 1.366-10.444v-47.252l1.5-1.5h237.92l1.5 1.5-.013 47.544-1.404 10.738-.102.38-4.149 10.002-.196.339-6.599 8.586-.276.276-8.588 6.596-.339.196-10.003 4.146-.38.102-10.932 1.416zm-223.031-3h222.933l10.444-1.365 9.637-3.994 8.275-6.356 6.359-8.273 3.997-9.636 1.366-10.444V440.09H335.61l-.013 46.044-1.404 10.738-.102.38-4.148 10.001-.196.339-6.599 8.586-.276.276-8.588 6.596-.339.196-6.426 2.663zm117.223-132.943h-.179l-1.55-.116-1.59-.365-1.231-.525-.359-.217-1.033-.843-.354-.418-.661-1.156-.173-.471-.182-.984-.02-.401.147-1.315.389-1.183.543-1.057.646-.954.773-.919 2.693-2.486 2.986-2.02 3.137-1.651 3.148-1.386 6.425-2.588 4.802-2.202 4.623-2.497 4.452-2.791 4.476-3.247-.026-1.255-.563-2.671-1.078-2.465-1.593-2.099-2.082-1.576-2.146-.862-2.348-.378-2.444.052-2.472.399-2.46.666-2.563.929.018.555-.021.307-.348 1.854-.66 1.731-.909 1.586-1.114 1.434-1.277 1.261-1.39 1.084-1.462.934-1.427.769-1.547.723-3.096 1.248-1.998-1.764.81-3.221.16-.392 1.882-3.139 2.469-2.59 2.814-2.113 3.024-1.729.716-.321-.256-.805-1.129-1.575-1.559-1.269-1.846-.915-2.006-.53-2.081-.114-2.125.286-2.112.608-2.064.871-2.056 1.097-1.954 1.216-2.702 1.883-.431 2.891-1.082 2.81-1.653 2.527-2.184 2.128-2.299 1.404-.366.161-2.586.747-1.829-1.944 1.092-2.988 1.604-2.683 1.955-2.368 2.176-2.098 2.528-2.048-.107-1.263-.672-2.33-1.087-2.197-1.44-2.007-1.737-1.77-1.989-1.492-2.202-1.2-2.46-.943-5.027 9.894 1.055-.123 1.311.096.391.082 1.239.439.975 1.681-.521 2.882-.145.425-1.539 2.879-2.052 2.398-2.312 2.028-2.374 1.737-6.581 4.35-.69 1.191-5.963 9.679-7.121 10.803-1.049 1.364-1.151 1.263-1.353 1.156-1.59.939-1.665.567-.946.119-.866-.066-.567-.161-.569-.289-.626-.536-.515-.765-.259-.627-.161-.646-.214-2.458.034-.473.688-2.743 1.254-2.415 1.578-2.122 1.769-1.9 1.822-1.681 3.287-2.786 3.333-2.688 3.397-2.606 3.459-2.523 2.422-1.679 2.518-4.35-1.825 1.279-2.313 1.218-2.45.916-2.552.597-2.629.258-2.238-.11-2.214-.459-2.152-.848-1.698-1.076-.3-.251-1.358-1.475-.264-.4-.822-1.827-.113-.378-.201-1.397.036-1.369.222-1.309.359-1.24.459-1.175.591-1.22 3.001-4.561 3.822-3.863 4.433-3.104 4.869-2.331 5.167-1.551 5.29-.748 2.713-.068.126.002 2.847.175 2.87.451 3.79-7.994 2.711 1.285-3.561 7.51 2.517.992 2.564 1.415 2.337 1.774 2.045 2.109 1.705 2.41 1.297 2.676.732 2.537 1.345-.918 2.092-1.3 2.324-1.237 2.377-.991 2.518-.708 2.657-.331 2.677.178 2.584.714 2.413 1.238 1.844 1.501.272.289 1.384 1.93.21.419.235.738 2.312-.822 2.746-.735 2.858-.447 2.684-.058.271.019 2.969.515 2.487 1 .346.196 2.407 1.822.29.289 2.005 2.712 1.304 3.062.5 2.375 1.028-.847 3.83-3.597 1.672-1.782.72-.889.661-.949.552-.979.396-.943.482-2.808-.383-2.824-1.064-2.768-1.538-2.648-1.853-2.521-2.085-2.441 2.281-1.948 2.189 2.569 2.022 2.766 1.741 3.036 1.256 3.379.438 3.226-.008.455-.645 3.531-.573 1.338-.706 1.238-.8 1.141-.809.995-1.847 1.969-3.951 3.708-2.793 2.301.004.18-.02.277-.561 3.234-1.091 3.06-1.49 2.849-1.793 2.628-2.013 2.426-2.107 2.191-2.288 2.129-3.166 2.656-3.452 2.524-3.588 2.192-3.818 1.833-4.039 1.366-4.179.784-1.337.074zm-1.216-3.073 1.14.073 1.148-.063 3.778-.721 3.649-1.248 3.501-1.692 3.34-2.049 3.223-2.359 3.03-2.544 2.17-2.019 2.008-2.092 1.858-2.245 1.617-2.382 1.31-2.525.965-2.857-2.418 1.742-4.616 2.893-4.794 2.589-4.953 2.272-6.448 2.598-3.053 1.346-2.921 1.541-2.678 1.822-2.358 2.197-.526.64-.464.695-.353.703-.213.684-.054.633.099.534.396.693.653.533.901.384 1.061.224zm-63.978-.823h.153l.34-.045 1.179-.415 1.057-.651.99-.866.925-1.027.895-1.169.831-1.2 6.181-9.444 2.986-4.847-.146.106-3.339 2.562-3.276 2.642-3.211 2.72-1.731 1.599-1.59 1.714-1.348 1.826-.986 1.933-.468 1.994.456 2.554.103.015zm65.766-27.713-.041.161.258-.107 1.412-.659 1.296-.701 1.255-.806 1.147-.902 1.01-1.01.858-1.121.682-1.213.472-1.277.06-.344-2.365 1.359-2.48 1.876-2.079 2.207zm-57.311-1.607 1.785.074 2.205-.23 2.169-.519 2.089-.792 1.972-1.049 1.819-1.29 1.652-1.532.829-.934 2.472-3.036 1.024-1.115 1.297-1.158 1.743-3.209 4.801-9.45-1.899-.291-2.577-.152-2.562.064-4.914.704-4.723 1.435-4.436 2.142-4.008 2.829-3.415 3.484-2.677 4.118-.426.902-.372.961-.272.958-.153.943-.014.912.13.812.641 1.423 1.06 1.152 1.402.889 1.62.614 1.737.343zm36.288-1.998-1.099 1.862 1.373-.839 1.662-1.665 1.276-2.001.518-1.392-.043.036-1.978 1.914-1.71 2.085zm-14.661-7.56-3.341 6.152-1.631 2.818 1.495-.985 2.257-1.654 2.074-1.827 1.719-2.03 1.17-2.251.246-1.361-.781-.057-.997.152-1.004.349-1.208.692zm-114.459-1.887h62.854v3h-62.854z" fill="#231f20"/></svg></g><g transform="translate(501.0 326.0) rotate(0.0 60.0 17.0) scale(0.9909002328615547 0.9823182711198428)"><svg width="121.102" height="34.612" viewBox="0 0 121.102 34.612"><path d="M19.339 1.5h100.263v31.612H19.339l-3.055-2.63-3.058-2.633-3.059-2.633-3.06-2.634-3.064-2.638-3.064-2.638 3.054-2.63 3.059-2.633 3.059-2.633 3.059-2.634 3.064-2.638z" fill="#EE4878"/><path d="M119.602 34.612H19.339l-.979-.363L0 18.443v-2.274L18.36.363 19.339 0h100.263l1.5 1.5v31.612zm-99.706-3h98.206V3H19.896L3.278 17.306z" fill="#231f20"/></svg></g><g transform="translate(143.0 459.0) rotate(0.0 98.0 27.0) scale(0.9984462953057741 0.9880699699919491)"><svg width="196.305" height="54.652" viewBox="0 0 196.305 54.652"><path d="M165.326 53.152H1.5V1.5h163.826l4.998 4.302 4.998 4.303 4.996 4.301 5.001 4.305 5.003 4.307 5.004 4.308-4.997 4.302-4.999 4.303-4.996 4.301-5 4.305-5.004 4.308z" fill="#ee4878"/><path d="M165.326 54.652H1.5l-1.5-1.5V1.5L1.5 0h163.826l.979.363 30 25.826v2.273l-30 25.826-.979.363zM3 51.652h161.769l28.258-24.326L164.769 3H3z" fill="#231f20"/></svg></g><g transform="translate(758.0 681.0) rotate(0.0 53.0 53.0) scale(0.9915530901845597 0.9915530901845597)"><svg width="106.903" height="106.903" viewBox="0 0 106.903 106.903"><circle cx="53.451" cy="53.451" fill="#EE4878" r="51.951"/><g fill="#EE4878"><path d="M103.577 44.944v2.317c.403 0 .74-.218.948-.529l-.195-1.494a1.142 1.142 0 0 0-.752-.294zm0-3.683c.08 0 .151-.03.227-.046l-.159-1.214-.068-.164zm0 15.683v2.317a1.16 1.16 0 0 0 0-2.318zm0-6v2.317a1.16 1.16 0 0 0 0-2.318zm0 14.317c.103 0 .195-.033.29-.059l.274-2.092a1.124 1.124 0 0 0-.563-.167v2.317zm-7.159-40.158h.212l-.168-.219c-.015.073-.044.141-.044.219zm-4.841-4.159v2.317a1.16 1.16 0 0 0 0-2.318zm7.159 16.159a1.16 1.16 0 0 0-2.318 0zm-7.159-1.842a1.16 1.16 0 0 0 0-2.318v2.317zm4.841-4.158a1.16 1.16 0 1 0 2.318 0 1.16 1.16 0 0 0-2.318 0zm-4.841-1.842a1.16 1.16 0 0 0 0-2.318v2.317z"/><path d="m97.51 26.248-.88-1.146h-.212c0 .616.485 1.109 1.092 1.146zm4.908 19.855c0 .64.519 1.159 1.159 1.159v-2.317a1.16 1.16 0 0 0-1.159 1.159zm-4.841 1.841a1.16 1.16 0 0 0-1.159 1.159h2.318a1.16 1.16 0 0 0-1.159-1.159zm-6-.683a1.16 1.16 0 0 0 0-2.318v2.317zm12-6v-1.424l-.342-.824c-.47.148-.817.571-.817 1.09 0 .64.519 1.159 1.159 1.159zm-6 3a1.16 1.16 0 1 0 0-2.318 1.16 1.16 0 0 0 0 2.318zm-6-3a1.16 1.16 0 0 0 0-2.318v2.317zm6-3a1.16 1.16 0 0 0 1.159-1.159h-2.318c0 .64.519 1.159 1.159 1.159zm4.841 19.842c0 .64.519 1.159 1.159 1.159v-2.317a1.16 1.16 0 0 0-1.159 1.159zm-4.841 1.841a1.16 1.16 0 0 0-1.159 1.159h2.318a1.16 1.16 0 0 0-1.159-1.159zm-6-.683a1.16 1.16 0 0 0 0-2.318v2.317zm10.841-7.158c0 .64.519 1.159 1.159 1.159v-2.317a1.16 1.16 0 0 0-1.159 1.159zm-4.841 1.841a1.16 1.16 0 1 0 0 2.318 1.16 1.16 0 0 0 0-2.318zm-6-3v2.317a1.16 1.16 0 0 0 0-2.318z"/><path d="M97.577 50.261a1.16 1.16 0 0 0 1.159-1.159h-2.318c0 .64.519 1.159 1.159 1.159zm1.159 22.842a1.16 1.16 0 0 0-2.318 0zm-7.159-1.842a1.16 1.16 0 0 0 0-2.318v2.317zm12-6v-2.317a1.16 1.16 0 0 0 0 2.318zm-6 .683a1.16 1.16 0 1 0 0 2.318 1.16 1.16 0 0 0 0-2.318zm-6-3v2.317a1.16 1.16 0 0 0 0-2.318zm6-.683a1.16 1.16 0 0 0 1.159-1.159h-2.318c0 .64.519 1.159 1.159 1.159zm-6 21a1.16 1.16 0 0 0 0-2.318v2.317zm6-5.317a1.16 1.16 0 0 0 0 2.318c.099 0 .187-.033.278-.056l.595-.775.236-.57c-.114-.52-.556-.917-1.11-.917zm-6-3v2.317a1.16 1.16 0 0 0 0-2.318z"/><path d="M97.577 74.261a1.16 1.16 0 0 0 1.159-1.159h-2.318c0 .64.519 1.159 1.159 1.159zm-6 12.683v1.433l.829-1.08a1.152 1.152 0 0 0-.829-.354zm-7.159-73.841h1.065l-.842-.647c-.13.187-.223.402-.223.647zm-4.841-4.159v2.317a1.16 1.16 0 0 0 0-2.318zm10.841 13.159c0 .64.519 1.159 1.159 1.159v-2.317a1.16 1.16 0 0 0-1.159 1.159zm-3.682 3a1.16 1.16 0 0 0-2.318 0zm-7.159-1.842a1.16 1.16 0 0 0 0-2.318v2.317zm6-5.317a1.16 1.16 0 1 0 0 2.318 1.16 1.16 0 0 0 0-2.318zm-6-.683a1.16 1.16 0 0 0 0-2.318v2.317z"/><path d="M85.577 14.261c.354 0 .659-.167.872-.417l-.965-.742h-1.065c0 .64.519 1.159 1.159 1.159zm6 21v-2.317a1.16 1.16 0 0 0 0 2.318zm-4.841 1.842a1.16 1.16 0 0 0-2.318 0zm-7.159-1.842a1.16 1.16 0 0 0 0-2.318v2.317zm12-6v-2.317a1.16 1.16 0 0 0 0 2.318zm-6 3a1.16 1.16 0 1 0 0-2.318 1.16 1.16 0 0 0 0 2.318zm-6-3a1.16 1.16 0 0 0 0-2.318v2.317zm6-3a1.16 1.16 0 0 0 1.159-1.159h-2.318c0 .64.519 1.159 1.159 1.159zm6 21v-2.317a1.16 1.16 0 0 0 0 2.318zm-4.841 1.842a1.16 1.16 0 0 0-2.318 0zm-7.159-1.842a1.16 1.16 0 0 0 0-2.318v2.317zm12-6v-2.317a1.16 1.16 0 0 0 0 2.318zm-6 3a1.16 1.16 0 1 0 0-2.318 1.16 1.16 0 0 0 0 2.318zm-6-3a1.16 1.16 0 0 0 0-2.318v2.317z"/><path d="M85.577 38.261a1.16 1.16 0 0 0 1.159-1.159h-2.318c0 .64.519 1.159 1.159 1.159zm6 18.683a1.16 1.16 0 0 0 0 2.318v-2.317zm-4.841 4.159a1.16 1.16 0 0 0-2.318 0zm-7.159-1.842a1.16 1.16 0 0 0 0-2.318v2.317zm10.841-7.158c0 .64.519 1.159 1.159 1.159v-2.317a1.16 1.16 0 0 0-1.159 1.159zm-4.841 4.158a1.16 1.16 0 1 0 0-2.318 1.16 1.16 0 0 0 0 2.318zm-6-5.317v2.317a1.16 1.16 0 0 0 0-2.318zm6-.683a1.16 1.16 0 0 0 1.159-1.159h-2.318c0 .64.519 1.159 1.159 1.159zm6 18.683a1.16 1.16 0 0 0 0 2.318v-2.317zm-4.841 4.159a1.16 1.16 0 0 0-2.318 0zm-7.159-1.842a1.16 1.16 0 0 0 0-2.318v2.317zm10.841-7.158c0 .64.519 1.159 1.159 1.159v-2.317a1.16 1.16 0 0 0-1.159 1.159zm-4.841 4.158a1.16 1.16 0 1 0 0-2.318 1.16 1.16 0 0 0 0 2.318zm-6-5.317v2.317a1.16 1.16 0 0 0 0-2.318z"/><path d="M85.577 62.261a1.16 1.16 0 0 0 1.159-1.159h-2.318c0 .64.519 1.159 1.159 1.159zm6 18.683a1.16 1.16 0 0 0 0 2.318v-2.317zm-4.841 4.159a1.16 1.16 0 0 0-2.318 0zm-7.159-1.842a1.16 1.16 0 0 0 0-2.318v2.317zm10.841-7.158c0 .64.519 1.159 1.159 1.159v-2.317a1.16 1.16 0 0 0-1.159 1.159zm-4.841 4.158a1.16 1.16 0 1 0 0-2.318 1.16 1.16 0 0 0 0 2.318zm-6-5.317v2.317a1.16 1.16 0 0 0 0-2.318zm6-.683a1.16 1.16 0 0 0 1.159-1.159h-2.318c0 .64.519 1.159 1.159 1.159zm-6 21a1.16 1.16 0 0 0 0-2.318v2.317zm10.841-7.158c0 .435.249.799.603.998l.555-.723v-1.433a1.16 1.16 0 0 0-1.159 1.159zm-4.841 4.158a1.16 1.16 0 1 0 0-2.318 1.16 1.16 0 0 0 0 2.318zm-6-5.317v2.317a1.16 1.16 0 0 0 0-2.318z"/><path d="M85.577 86.261a1.16 1.16 0 0 0 1.159-1.159h-2.318c0 .64.519 1.159 1.159 1.159zm-7.159-76.158c0 .64.519 1.159 1.159 1.159V8.945a1.16 1.16 0 0 0-1.159 1.159zm-3.682 3a1.16 1.16 0 0 0-2.318 0zm-7.159-4.159v2.317a1.16 1.16 0 0 0 0-2.318zm4.841-1.841a1.16 1.16 0 0 0 2.318 0c0-.271-.107-.509-.263-.706l-1.029-.427a1.147 1.147 0 0 0-1.026 1.132zm-4.841-1.842a1.16 1.16 0 0 0 1.159-1.159c0-.033-.016-.06-.019-.092l-1.141-.473v1.724zm12 18v-2.317a1.16 1.16 0 0 0 0 2.318zm-4.841 1.842a1.16 1.16 0 0 0-2.318 0zm-7.159-1.842a1.16 1.16 0 0 0 0-2.318v2.317zm12-6v-2.317a1.16 1.16 0 0 0 0 2.318zm-6 3a1.16 1.16 0 1 0 0-2.318 1.16 1.16 0 0 0 0 2.318zm-6-3a1.16 1.16 0 0 0 0-2.318v2.317z"/><path d="M73.577 14.261a1.16 1.16 0 0 0 1.159-1.159h-2.318c0 .64.519 1.159 1.159 1.159zm6 21v-2.317a1.16 1.16 0 0 0 0 2.318zm-4.841 1.842a1.16 1.16 0 0 0-2.318 0zm-7.159-1.842a1.16 1.16 0 0 0 0-2.318v2.317zm12-6v-2.317a1.16 1.16 0 0 0 0 2.318zm-6 3a1.16 1.16 0 1 0 0-2.318 1.16 1.16 0 0 0 0 2.318zm-6-3a1.16 1.16 0 0 0 0-2.318v2.317zm6-3a1.16 1.16 0 0 0 1.159-1.159h-2.318c0 .64.519 1.159 1.159 1.159zm6 21v-2.317a1.16 1.16 0 0 0 0 2.318zm-4.841 1.842a1.16 1.16 0 0 0-2.318 0zm-7.159-1.842a1.16 1.16 0 0 0 0-2.318v2.317zm12-6v-2.317a1.16 1.16 0 0 0 0 2.318zm-6 3a1.16 1.16 0 1 0 0-2.318 1.16 1.16 0 0 0 0 2.318zm-6-3a1.16 1.16 0 0 0 0-2.318v2.317z"/><path d="M73.577 38.261a1.16 1.16 0 0 0 1.159-1.159h-2.318c0 .64.519 1.159 1.159 1.159zm6 18.683a1.16 1.16 0 0 0 0 2.318v-2.317zm-6 3a1.16 1.16 0 0 0-1.159 1.159h2.318a1.16 1.16 0 0 0-1.159-1.159zm-6-.683a1.16 1.16 0 0 0 0-2.318v2.317zm10.841-7.158c0 .64.519 1.159 1.159 1.159v-2.317a1.16 1.16 0 0 0-1.159 1.159zm-4.841 4.158a1.16 1.16 0 1 0 0-2.318 1.16 1.16 0 0 0 0 2.318zm-6-3a1.16 1.16 0 0 0 0-2.318v2.317zm6-3a1.16 1.16 0 0 0 1.159-1.159h-2.318c0 .64.519 1.159 1.159 1.159zm6 18.683a1.16 1.16 0 0 0 0 2.318v-2.317zm-6 3a1.16 1.16 0 0 0-1.159 1.159h2.318a1.16 1.16 0 0 0-1.159-1.159zm-6-3v2.317a1.16 1.16 0 0 0 0-2.318zm10.841-4.841c0 .64.519 1.159 1.159 1.159v-2.317a1.16 1.16 0 0 0-1.159 1.159zm-4.841 1.841a1.16 1.16 0 1 0 0 2.318 1.16 1.16 0 0 0 0-2.318zm-6-3v2.317a1.16 1.16 0 0 0 0-2.318z"/><path d="M73.577 62.261a1.16 1.16 0 0 0 1.159-1.159h-2.318c0 .64.519 1.159 1.159 1.159zm6 18.683a1.16 1.16 0 0 0 0 2.318v-2.317zm-6 3a1.16 1.16 0 0 0-1.159 1.159h2.318a1.16 1.16 0 0 0-1.159-1.159zm-6-3v2.317a1.16 1.16 0 0 0 0-2.318zm10.841-4.841c0 .64.519 1.159 1.159 1.159v-2.317a1.16 1.16 0 0 0-1.159 1.159zm-4.841 1.841a1.16 1.16 0 1 0 0 2.318 1.16 1.16 0 0 0 0-2.318zm-6-3v2.317a1.16 1.16 0 0 0 0-2.318zm6-.683a1.16 1.16 0 0 0 1.159-1.159h-2.318c0 .64.519 1.159 1.159 1.159zm6 18.683a1.16 1.16 0 0 0 0 2.318v-2.317zm-4.841 4.159a1.16 1.16 0 0 0-2.318 0zm-7.159-4.159v2.317a1.16 1.16 0 0 0 0-2.318zm10.841-4.841c0 .64.519 1.159 1.159 1.159v-2.317a1.16 1.16 0 0 0-1.159 1.159zm-4.841 1.841a1.16 1.16 0 1 0 0 2.318 1.16 1.16 0 0 0 0-2.318zm-6-3v2.317a1.16 1.16 0 0 0 0-2.318z"/><path d="M73.577 86.261a1.16 1.16 0 0 0 1.159-1.159h-2.318c0 .64.519 1.159 1.159 1.159zm-6 15a1.16 1.16 0 0 0 0-2.318v2.317zm6-3a1.16 1.16 0 0 0 1.159-1.159h-2.318c0 .64.519 1.159 1.159 1.159zm-7.159-88.158c0 .64.519 1.159 1.159 1.159V8.945a1.16 1.16 0 0 0-1.159 1.159zm-3.682 3a1.16 1.16 0 0 0-2.318 0zm-7.159-1.842a1.16 1.16 0 0 0 0-2.318v2.317zm10.841-7.158c0 .64.519 1.159 1.159 1.159V3.538l-.675-.28-.089-.012a1.143 1.143 0 0 0-.394.856zm-4.841 4.158a1.16 1.16 0 1 0 0-2.318 1.16 1.16 0 0 0 0 2.318zm-6-3a1.16 1.16 0 0 0 0-2.318V5.26zm12 18v-2.317a1.16 1.16 0 0 0 0 2.318zm-4.841 1.842a1.16 1.16 0 0 0-2.318 0zm-7.159-1.842a1.16 1.16 0 0 0 0-2.318v2.317zm12-6v-2.317a1.16 1.16 0 0 0 0 2.318zm-6 3a1.16 1.16 0 1 0 0-2.318 1.16 1.16 0 0 0 0 2.318zm-6-3a1.16 1.16 0 0 0 0-2.318v2.317z"/><path d="M61.577 14.261a1.16 1.16 0 0 0 1.159-1.159h-2.318c0 .64.519 1.159 1.159 1.159zm6 21v-2.317a1.16 1.16 0 0 0 0 2.318zm-4.841 1.842a1.16 1.16 0 0 0-2.318 0zm-7.159-1.842a1.16 1.16 0 0 0 0-2.318v2.317zm12-6v-2.317a1.16 1.16 0 0 0 0 2.318zm-6 3a1.16 1.16 0 1 0 0-2.318 1.16 1.16 0 0 0 0 2.318zm-6-3a1.16 1.16 0 0 0 0-2.318v2.317zm6-3a1.16 1.16 0 0 0 1.159-1.159h-2.318c0 .64.519 1.159 1.159 1.159zm6 21v-2.317a1.16 1.16 0 0 0 0 2.318zm-4.841 1.842a1.16 1.16 0 0 0-2.318 0zm-7.159-1.842a1.16 1.16 0 0 0 0-2.318v2.317zm12-6v-2.317a1.16 1.16 0 0 0 0 2.318zm-6 3a1.16 1.16 0 1 0 0-2.318 1.16 1.16 0 0 0 0 2.318zm-6-3a1.16 1.16 0 0 0 0-2.318v2.317z"/><path d="M61.577 38.261a1.16 1.16 0 0 0 1.159-1.159h-2.318c0 .64.519 1.159 1.159 1.159zm6 21v-2.317a1.16 1.16 0 0 0 0 2.318zm-6 .683a1.16 1.16 0 0 0-1.159 1.159h2.318a1.16 1.16 0 0 0-1.159-1.159zm-6-.683a1.16 1.16 0 0 0 0-2.318v2.317zm12-6v-2.317a1.16 1.16 0 0 0 0 2.318zm-6 3a1.16 1.16 0 1 0 0-2.318 1.16 1.16 0 0 0 0 2.318zm-6-3a1.16 1.16 0 0 0 0-2.318v2.317zm6-3a1.16 1.16 0 0 0 1.159-1.159h-2.318c0 .64.519 1.159 1.159 1.159zm4.841 19.842c0 .64.519 1.159 1.159 1.159v-2.317a1.16 1.16 0 0 0-1.159 1.159zm-4.841 1.841a1.16 1.16 0 0 0-1.159 1.159h2.318a1.16 1.16 0 0 0-1.159-1.159zm-6-3v2.317a1.16 1.16 0 0 0 0-2.318zm10.841-4.841c0 .64.519 1.159 1.159 1.159v-2.317a1.16 1.16 0 0 0-1.159 1.159zm-4.841 1.841a1.16 1.16 0 1 0 0 2.318 1.16 1.16 0 0 0 0-2.318zm-6-3v2.317a1.16 1.16 0 0 0 0-2.318z"/><path d="M61.577 62.261a1.16 1.16 0 0 0 1.159-1.159h-2.318c0 .64.519 1.159 1.159 1.159zm4.841 19.842c0 .64.519 1.159 1.159 1.159v-2.317a1.16 1.16 0 0 0-1.159 1.159zm-4.841 1.841a1.16 1.16 0 0 0-1.159 1.159h2.318a1.16 1.16 0 0 0-1.159-1.159zm-6-3v2.317a1.16 1.16 0 0 0 0-2.318zm10.841-4.841c0 .64.519 1.159 1.159 1.159v-2.317a1.16 1.16 0 0 0-1.159 1.159zm-4.841 1.841a1.16 1.16 0 1 0 0 2.318 1.16 1.16 0 0 0 0-2.318zm-6-3v2.317a1.16 1.16 0 0 0 0-2.318zm6-.683a1.16 1.16 0 0 0 1.159-1.159h-2.318c0 .64.519 1.159 1.159 1.159zm4.841 19.842c0 .64.519 1.159 1.159 1.159v-2.317a1.16 1.16 0 0 0-1.159 1.159zm-4.841 1.841a1.16 1.16 0 0 0-1.159 1.159h2.318a1.16 1.16 0 0 0-1.159-1.159zm-6-3v2.317a1.16 1.16 0 0 0 0-2.318zm10.841-4.841c0 .64.519 1.159 1.159 1.159v-2.317a1.16 1.16 0 0 0-1.159 1.159zm-4.841 1.841a1.16 1.16 0 1 0 0 2.318 1.16 1.16 0 0 0 0-2.318zm-6-3v2.317a1.16 1.16 0 0 0 0-2.318z"/><path d="M61.577 86.261a1.16 1.16 0 0 0 1.159-1.159h-2.318c0 .64.519 1.159 1.159 1.159zm-5.51 18.8a1.137 1.137 0 0 0-.49-.117v.181zm11.51-3.8v-2.317a1.16 1.16 0 0 0 0 2.318zm-6 .683a1.16 1.16 0 1 0 0 2.318 1.16 1.16 0 0 0 0-2.318zm-6-.683a1.16 1.16 0 0 0 0-2.318v2.317zm6-3a1.16 1.16 0 0 0 1.159-1.159h-2.318c0 .64.519 1.159 1.159 1.159zm-6-87V8.944a1.16 1.16 0 0 0 0 2.318zm-4.841 1.842a1.16 1.16 0 0 0-2.318 0zm-7.159-1.842a1.16 1.16 0 0 0 0-2.318v2.317zm12-6V2.944a1.16 1.16 0 0 0 0 2.318zm-6 3a1.16 1.16 0 1 0 0-2.318 1.16 1.16 0 0 0 0 2.318zm-6-3a1.16 1.16 0 0 0 0-2.318V5.26zm6.836-3.364-1.418.186c.174.104.365.179.582.179.331 0 .625-.142.836-.364zm5.164 21.364v-2.317a1.16 1.16 0 0 0 0 2.318zm-4.841 1.842a1.16 1.16 0 0 0-2.318 0zm-7.159-1.842a1.16 1.16 0 0 0 0-2.318v2.317zm12-6v-2.317a1.16 1.16 0 0 0 0 2.318zm-6 3a1.16 1.16 0 1 0 0-2.318 1.16 1.16 0 0 0 0 2.318zm-6-3a1.16 1.16 0 0 0 0-2.318v2.317z"/><path d="M49.577 14.261a1.16 1.16 0 0 0 1.159-1.159h-2.318c0 .64.519 1.159 1.159 1.159zm6 21v-2.317a1.16 1.16 0 0 0 0 2.318zm-4.841 1.842a1.16 1.16 0 0 0-2.318 0zm-7.159-1.842a1.16 1.16 0 0 0 0-2.318v2.317zm12-6v-2.317a1.16 1.16 0 0 0 0 2.318zm-6 3a1.16 1.16 0 1 0 0-2.318 1.16 1.16 0 0 0 0 2.318zm-6-3a1.16 1.16 0 0 0 0-2.318v2.317zm6-3a1.16 1.16 0 0 0 1.159-1.159h-2.318c0 .64.519 1.159 1.159 1.159zm6 21v-2.317a1.16 1.16 0 0 0 0 2.318zm-4.841 1.842a1.16 1.16 0 0 0-2.318 0zm-7.159-1.842a1.16 1.16 0 0 0 0-2.318v2.317zm12-6v-2.317a1.16 1.16 0 0 0 0 2.318zm-6 3a1.16 1.16 0 1 0 0-2.318 1.16 1.16 0 0 0 0 2.318zm-6-3a1.16 1.16 0 0 0 0-2.318v2.317z"/><path d="M49.577 38.261a1.16 1.16 0 0 0 1.159-1.159h-2.318c0 .64.519 1.159 1.159 1.159zm6 21v-2.317a1.16 1.16 0 0 0 0 2.318zm-6 .683a1.16 1.16 0 0 0-1.159 1.159h2.318a1.16 1.16 0 0 0-1.159-1.159zm-6-.683a1.16 1.16 0 0 0 0-2.318v2.317zm12-6v-2.317a1.16 1.16 0 0 0 0 2.318zm-6 3a1.16 1.16 0 1 0 0-2.318 1.16 1.16 0 0 0 0 2.318zm-6-3a1.16 1.16 0 0 0 0-2.318v2.317zm6-3a1.16 1.16 0 0 0 1.159-1.159h-2.318c0 .64.519 1.159 1.159 1.159zm4.841 19.842c0 .64.519 1.159 1.159 1.159v-2.317a1.16 1.16 0 0 0-1.159 1.159zm-4.841 1.841a1.16 1.16 0 0 0-1.159 1.159h2.318a1.16 1.16 0 0 0-1.159-1.159zm-6-3v2.317a1.16 1.16 0 0 0 0-2.318zm10.841-4.841c0 .64.519 1.159 1.159 1.159v-2.317a1.16 1.16 0 0 0-1.159 1.159zm-4.841 1.841a1.16 1.16 0 1 0 0 2.318 1.16 1.16 0 0 0 0-2.318zm-6-3v2.317a1.16 1.16 0 0 0 0-2.318z"/><path d="M49.577 62.261a1.16 1.16 0 0 0 1.159-1.159h-2.318c0 .64.519 1.159 1.159 1.159zm4.841 19.842c0 .64.519 1.159 1.159 1.159v-2.317a1.16 1.16 0 0 0-1.159 1.159zm-4.841 1.841a1.16 1.16 0 0 0-1.159 1.159h2.318a1.16 1.16 0 0 0-1.159-1.159zm-6-3v2.317a1.16 1.16 0 0 0 0-2.318zm10.841-4.841c0 .64.519 1.159 1.159 1.159v-2.317a1.16 1.16 0 0 0-1.159 1.159zm-4.841 1.841a1.16 1.16 0 1 0 0 2.318 1.16 1.16 0 0 0 0-2.318zm-6-3v2.317a1.16 1.16 0 0 0 0-2.318zm6-.683a1.16 1.16 0 0 0 1.159-1.159h-2.318c0 .64.519 1.159 1.159 1.159zm4.841 19.842c0 .64.519 1.159 1.159 1.159v-2.317a1.16 1.16 0 0 0-1.159 1.159zm-4.841 1.841a1.16 1.16 0 0 0-1.159 1.159h2.318a1.16 1.16 0 0 0-1.159-1.159zm-6-3v2.317a1.16 1.16 0 0 0 0-2.318zm10.841-4.841c0 .64.519 1.159 1.159 1.159v-2.317a1.16 1.16 0 0 0-1.159 1.159zm-4.841 1.841a1.16 1.16 0 1 0 0 2.318 1.16 1.16 0 0 0 0-2.318zm-6-3v2.317a1.16 1.16 0 0 0 0-2.318z"/><path d="M49.577 86.261a1.16 1.16 0 0 0 1.159-1.159h-2.318c0 .64.519 1.159 1.159 1.159zm6 18.683c-.279 0-.525.111-.725.276l.725-.095zm0-3.683v-2.317a1.16 1.16 0 0 0 0 2.318zm-6 .683a1.16 1.16 0 1 0 0 2.318 1.16 1.16 0 0 0 0-2.318zm-6-.683a1.16 1.16 0 0 0 0-2.318v2.317zm6-3a1.16 1.16 0 0 0 1.159-1.159h-2.318c0 .64.519 1.159 1.159 1.159zm-6-87V8.944a1.16 1.16 0 0 0 0 2.318zm-6 .683a1.16 1.16 0 0 0-1.159 1.159h2.318a1.16 1.16 0 0 0-1.159-1.159zm-6-3v2.317a1.16 1.16 0 0 0 0-2.318zm12-3.683V2.944a1.16 1.16 0 0 0 0 2.318zm-6 .683a1.16 1.16 0 1 0 0 2.318 1.16 1.16 0 0 0 0-2.318zm6 17.317v-2.317a1.16 1.16 0 0 0 0 2.318zm-6 .683a1.16 1.16 0 0 0-1.159 1.159h2.318a1.16 1.16 0 0 0-1.159-1.159zm-6-.683a1.16 1.16 0 0 0 0-2.318v2.317zm12-6v-2.317a1.16 1.16 0 0 0 0 2.318zm-6 .683a1.16 1.16 0 1 0 0 2.318 1.16 1.16 0 0 0 0-2.318zm-6-.683a1.16 1.16 0 0 0 0-2.318v2.317z"/><path d="M37.577 14.261a1.16 1.16 0 0 0 1.159-1.159h-2.318c0 .64.519 1.159 1.159 1.159zm6 21v-2.317a1.16 1.16 0 0 0 0 2.318zm-6 .683a1.16 1.16 0 0 0-1.159 1.159h2.318a1.16 1.16 0 0 0-1.159-1.159zm-6-.683a1.16 1.16 0 0 0 0-2.318v2.317zm12-6v-2.317a1.16 1.16 0 0 0 0 2.318zm-6 .683a1.16 1.16 0 1 0 0 2.318 1.16 1.16 0 0 0 0-2.318zm-6-.683a1.16 1.16 0 0 0 0-2.318v2.317zm6-3a1.16 1.16 0 0 0 1.159-1.159h-2.318c0 .64.519 1.159 1.159 1.159zm6 21v-2.317a1.16 1.16 0 0 0 0 2.318zm-6 .683a1.16 1.16 0 0 0-1.159 1.159h2.318a1.16 1.16 0 0 0-1.159-1.159zm-6-.683a1.16 1.16 0 0 0 0-2.318v2.317zm12-6v-2.317a1.16 1.16 0 0 0 0 2.318zm-6 .683a1.16 1.16 0 1 0 0 2.318 1.16 1.16 0 0 0 0-2.318zm-6-.683a1.16 1.16 0 0 0 0-2.318v2.317z"/><path d="M37.577 38.261a1.16 1.16 0 0 0 1.159-1.159h-2.318c0 .64.519 1.159 1.159 1.159zm6 21v-2.317a1.16 1.16 0 0 0 0 2.318zm-6 .683a1.16 1.16 0 0 0-1.159 1.159h2.318a1.16 1.16 0 0 0-1.159-1.159zm-6-3v2.317a1.16 1.16 0 0 0 0-2.318zm12-3.683v-2.317a1.16 1.16 0 0 0 0 2.318zm-6 3a1.16 1.16 0 1 0 0-2.318 1.16 1.16 0 0 0 0 2.318zm-6-5.317v2.317a1.16 1.16 0 0 0 0-2.318zm6-.683a1.16 1.16 0 0 0 1.159-1.159h-2.318c0 .64.519 1.159 1.159 1.159zm4.841 19.842c0 .64.519 1.159 1.159 1.159v-2.317a1.16 1.16 0 0 0-1.159 1.159zm-4.841 1.841a1.16 1.16 0 0 0-1.159 1.159h2.318a1.16 1.16 0 0 0-1.159-1.159zm-6-3v2.317a1.16 1.16 0 0 0 0-2.318zm10.841-4.841c0 .64.519 1.159 1.159 1.159v-2.317a1.16 1.16 0 0 0-1.159 1.159zm-4.841 1.841a1.16 1.16 0 1 0 0 2.318 1.16 1.16 0 0 0 0-2.318zm-6-3v2.317a1.16 1.16 0 0 0 0-2.318z"/><path d="M37.577 62.261a1.16 1.16 0 0 0 1.159-1.159h-2.318c0 .64.519 1.159 1.159 1.159zm4.841 19.842c0 .64.519 1.159 1.159 1.159v-2.317a1.16 1.16 0 0 0-1.159 1.159zm-4.841 1.841a1.16 1.16 0 0 0-1.159 1.159h2.318a1.16 1.16 0 0 0-1.159-1.159zm-6-3v2.317a1.16 1.16 0 0 0 0-2.318zm10.841-4.841c0 .64.519 1.159 1.159 1.159v-2.317a1.16 1.16 0 0 0-1.159 1.159zm-4.841 1.841a1.16 1.16 0 1 0 0 2.318 1.16 1.16 0 0 0 0-2.318zm-6-3v2.317a1.16 1.16 0 0 0 0-2.318zm6-.683a1.16 1.16 0 0 0 1.159-1.159h-2.318c0 .64.519 1.159 1.159 1.159zm4.841 19.842c0 .64.519 1.159 1.159 1.159v-2.317a1.16 1.16 0 0 0-1.159 1.159zm-3.682 3a1.16 1.16 0 0 0-2.318 0zm-7.159-4.159v2.317a1.16 1.16 0 0 0 0-2.318zm10.841-4.841c0 .64.519 1.159 1.159 1.159v-2.317a1.16 1.16 0 0 0-1.159 1.159zm-4.841 1.841a1.16 1.16 0 1 0 0 2.318 1.16 1.16 0 0 0 0-2.318zm-6-3v2.317a1.16 1.16 0 0 0 0-2.318z"/><path d="M37.577 86.261a1.16 1.16 0 0 0 1.159-1.159h-2.318c0 .64.519 1.159 1.159 1.159zm6 15v-2.317a1.16 1.16 0 0 0 0 2.318zm-6 .683c-.326 0-.618.136-.828.353l1.984.823c0-.006.003-.011.003-.016a1.16 1.16 0 0 0-1.159-1.159zm-6-3v1.208l1.046.434c.069-.148.113-.309.113-.483a1.16 1.16 0 0 0-1.159-1.159zm6-.683a1.16 1.16 0 0 0 1.159-1.159h-2.318c0 .64.519 1.159 1.159 1.159zm-7.159-88.158c0 .64.519 1.159 1.159 1.159V8.945a1.16 1.16 0 0 0-1.159 1.159zm-3.682 3a1.16 1.16 0 0 0-2.318 0zm4.841 10.158v-2.317a1.16 1.16 0 0 0 0 2.318zm-4.841 1.842a1.16 1.16 0 0 0-2.318 0zm-7.159-1.842a1.16 1.16 0 0 0 0-2.318v2.317zm12-6v-2.317a1.16 1.16 0 0 0 0 2.318zm-6 .683a1.16 1.16 0 1 0 0 2.318 1.16 1.16 0 0 0 0-2.318zm-6-3v2.317a1.16 1.16 0 0 0 0-2.318z"/><path d="M25.577 14.261a1.16 1.16 0 0 0 1.159-1.159h-2.318c0 .64.519 1.159 1.159 1.159zm6 21v-2.317a1.16 1.16 0 0 0 0 2.318zm-4.841 1.842a1.16 1.16 0 0 0-2.318 0zm-7.159-1.842a1.16 1.16 0 0 0 0-2.318v2.317zm12-6v-2.317a1.16 1.16 0 0 0 0 2.318zm-6 3a1.16 1.16 0 1 0 0-2.318 1.16 1.16 0 0 0 0 2.318zm-6-5.317v2.317a1.16 1.16 0 0 0 0-2.318zm6-.683a1.16 1.16 0 0 0 1.159-1.159h-2.318c0 .64.519 1.159 1.159 1.159zm6 21v-2.317a1.16 1.16 0 0 0 0 2.318zm-4.841 1.842a1.16 1.16 0 0 0-2.318 0zm-7.159-1.842a1.16 1.16 0 0 0 0-2.318v2.317zm12-6v-2.317a1.16 1.16 0 0 0 0 2.318zm-6 3a1.16 1.16 0 1 0 0-2.318 1.16 1.16 0 0 0 0 2.318zm-6-5.317v2.317a1.16 1.16 0 0 0 0-2.318z"/><path d="M25.577 38.261a1.16 1.16 0 0 0 1.159-1.159h-2.318c0 .64.519 1.159 1.159 1.159zm4.841 19.842c0 .64.519 1.159 1.159 1.159v-2.317a1.16 1.16 0 0 0-1.159 1.159zm-4.841 1.841a1.16 1.16 0 0 0-1.159 1.159h2.318a1.16 1.16 0 0 0-1.159-1.159zm-6-3v2.317a1.16 1.16 0 0 0 0-2.318zm10.841-4.841c0 .64.519 1.159 1.159 1.159v-2.317a1.16 1.16 0 0 0-1.159 1.159zm-4.841 4.158a1.16 1.16 0 1 0 0-2.318 1.16 1.16 0 0 0 0 2.318zm-6-5.317v2.317a1.16 1.16 0 0 0 0-2.318zm6-.683a1.16 1.16 0 0 0 1.159-1.159h-2.318c0 .64.519 1.159 1.159 1.159zm4.841 19.842c0 .64.519 1.159 1.159 1.159v-2.317a1.16 1.16 0 0 0-1.159 1.159zm-4.841 1.841a1.16 1.16 0 0 0-1.159 1.159h2.318a1.16 1.16 0 0 0-1.159-1.159zm-6-3v2.317a1.16 1.16 0 0 0 0-2.318zm10.841-4.841c0 .64.519 1.159 1.159 1.159v-2.317a1.16 1.16 0 0 0-1.159 1.159zm-4.841 1.841a1.16 1.16 0 1 0 0 2.318 1.16 1.16 0 0 0 0-2.318zm-6-3v2.317a1.16 1.16 0 0 0 0-2.318z"/><path d="M25.577 62.261a1.16 1.16 0 0 0 1.159-1.159h-2.318c0 .64.519 1.159 1.159 1.159zm4.841 19.842c0 .64.519 1.159 1.159 1.159v-2.317a1.16 1.16 0 0 0-1.159 1.159zm-3.682 3a1.16 1.16 0 0 0-2.318 0zm-7.159-4.159v2.317a1.16 1.16 0 0 0 0-2.318zm10.841-4.841c0 .64.519 1.159 1.159 1.159v-2.317a1.16 1.16 0 0 0-1.159 1.159zm-4.841 1.841a1.16 1.16 0 1 0 0 2.318 1.16 1.16 0 0 0 0-2.318zm-6-3v2.317a1.16 1.16 0 0 0 0-2.318zm6-.683a1.16 1.16 0 0 0 1.159-1.159h-2.318c0 .64.519 1.159 1.159 1.159zm4.841 19.842c0 .64.519 1.159 1.159 1.159v-2.317a1.16 1.16 0 0 0-1.159 1.159zm-3.682 3a1.16 1.16 0 0 0-1.159-1.159c-.343 0-.644.156-.856.393l.997.766zm3.682-9c0 .64.519 1.159 1.159 1.159v-2.317a1.16 1.16 0 0 0-1.159 1.159zm-4.841 4.158a1.16 1.16 0 1 0 0-2.318 1.16 1.16 0 0 0 0 2.318zm-6-3a1.16 1.16 0 0 0 0-2.318v2.317z"/><path d="M25.577 86.261a1.16 1.16 0 0 0 1.159-1.159h-2.318c0 .64.519 1.159 1.159 1.159zm4.921 13.444 1.078.447v-1.208a1.15 1.15 0 0 0-1.078.761zm-4.78-2.602.811.623c.12-.183.207-.388.207-.623zm-6.141-76.159a1.16 1.16 0 0 0 0 2.318v-2.317zm-4.841 4.159a1.16 1.16 0 0 0-2.318 0zm3.682-9c0 .64.519 1.159 1.159 1.159v-2.317a1.16 1.16 0 0 0-1.159 1.159zm-3.735 3.259-.584.761c.297-.153.506-.428.584-.761zm4.894 13.582a1.16 1.16 0 0 0 0 2.318v-2.317zm-4.841 4.159a1.16 1.16 0 0 0-2.318 0zm-7.159-1.842a1.16 1.16 0 0 0 0-2.318v2.317zm10.841-7.158c0 .64.519 1.159 1.159 1.159v-2.317a1.16 1.16 0 0 0-1.159 1.159zm-4.841 1.841a1.16 1.16 0 1 0 0 2.318 1.16 1.16 0 0 0 0-2.318zm-5.854-.712c.568-.075 1.013-.541 1.013-1.129 0-.259-.101-.487-.245-.68l-.038.05-.73 1.76z"/><path d="M13.577 26.261a1.16 1.16 0 0 0 1.159-1.159h-2.318c0 .64.519 1.159 1.159 1.159zm6 18.683a1.16 1.16 0 0 0 0 2.318v-2.317zm-4.841 4.159a1.16 1.16 0 0 0-2.318 0zm-7.159-1.842a1.16 1.16 0 0 0 0-2.318v2.317zm10.841-7.158c0 .64.519 1.159 1.159 1.159v-2.317a1.16 1.16 0 0 0-1.159 1.159zm-4.841 4.158a1.16 1.16 0 1 0 0-2.318 1.16 1.16 0 0 0 0 2.318zm-6-3a1.16 1.16 0 0 0 0-2.318v2.317zm6-3a1.16 1.16 0 0 0 1.159-1.159h-2.318c0 .64.519 1.159 1.159 1.159zm4.841 19.842c0 .64.519 1.159 1.159 1.159v-2.317a1.16 1.16 0 0 0-1.159 1.159zm-4.841 1.841a1.16 1.16 0 0 0-1.159 1.159h2.318a1.16 1.16 0 0 0-1.159-1.159zm-6-.683a1.16 1.16 0 0 0 0-2.318v2.317zm10.841-7.158c0 .64.519 1.159 1.159 1.159v-2.317a1.16 1.16 0 0 0-1.159 1.159zm-4.841 4.158a1.16 1.16 0 1 0 0-2.318 1.16 1.16 0 0 0 0 2.318zm-6-3a1.16 1.16 0 0 0 0-2.318v2.317z"/><path d="M13.577 50.261a1.16 1.16 0 0 0 1.159-1.159h-2.318c0 .64.519 1.159 1.159 1.159zm4.841 19.842c0 .64.519 1.159 1.159 1.159v-2.317a1.16 1.16 0 0 0-1.159 1.159zm-3.682 3a1.16 1.16 0 0 0-2.318 0zm-7.159-1.842a1.16 1.16 0 0 0 0-2.318v2.317zm10.841-7.158c0 .64.519 1.159 1.159 1.159v-2.317a1.16 1.16 0 0 0-1.159 1.159zm-4.841 1.841a1.16 1.16 0 1 0 0 2.318 1.16 1.16 0 0 0 0-2.318zm-6-3v2.317a1.16 1.16 0 0 0 0-2.318zm6-.683a1.16 1.16 0 0 0 1.159-1.159h-2.318c0 .64.519 1.159 1.159 1.159zm4.841 19.842c0 .64.519 1.159 1.159 1.159v-2.317a1.16 1.16 0 0 0-1.159 1.159zm-3.682 3a1.16 1.16 0 0 0-1.159-1.159c-.497 0-.912.316-1.077.755l.311.404zm3.682-9c0 .64.519 1.159 1.159 1.159v-2.317a1.16 1.16 0 0 0-1.159 1.159zm-4.841 4.158a1.16 1.16 0 1 0 0-2.318 1.16 1.16 0 0 0 0 2.318zm-6-3a1.16 1.16 0 0 0 0-2.318v2.317z"/><path d="M13.577 74.261a1.16 1.16 0 0 0 1.159-1.159h-2.318c0 .64.519 1.159 1.159 1.159zm6 15v-2.317a1.16 1.16 0 0 0 0 2.318zm-4.841-4.158h-1.925l.874 1.137a1.149 1.149 0 0 0 1.052-1.137zM7.577 32.944a1.16 1.16 0 0 0 0 2.318v-2.317zm0 14.317v-2.317a1.16 1.16 0 0 0 0 2.318zm-4.841 1.842c0-.408-.224-.75-.542-.957l-.125.957zm4.841-7.842v-2.317a1.16 1.16 0 0 0 0 2.318zm0 18v-2.317a1.16 1.16 0 0 0 0 2.318zm-4.841 1.842c0-.322-.131-.612-.343-.822l.107.822zm4.841-7.842v-2.317a1.16 1.16 0 0 0 0 2.318zm-4.841 1.842a1.16 1.16 0 0 0-1.159-1.159l-.012.002.295 2.258c.499-.129.876-.562.876-1.102zm0-6h-.667l-.142 1.088c.466-.15.809-.572.81-1.088zm4.841 22.158v-2.317a1.16 1.16 0 0 0 0 2.318zm-1.159-7.158c0 .64.519 1.159 1.159 1.159v-2.317a1.16 1.16 0 0 0-1.159 1.159zm-3.682-3H2.5l.073.557c.094-.167.163-.351.163-.557zm4.841 16.158v-2.317c-.33 0-.624.141-.834.361l.809 1.951c.009 0 .017.005.026.005z"/></g><path d="M53.451 106.903C23.978 106.903 0 82.925 0 53.451S23.978 0 53.451 0s53.451 23.978 53.451 53.451-23.978 53.451-53.451 53.451zM53.451 3C25.632 3 3 25.632 3 53.451s22.632 50.451 50.451 50.451 50.451-22.632 50.451-50.451S81.27 3 53.451 3z" fill="#231f20"/></svg></g><g transform="translate(688.0 761.0) rotate(0.0 53.0 16.5) scale(0.9915530901845597 0.979519145146928)"><svg width="106.903" height="33.69" viewBox="0 0 106.903 33.69"><path d="M1.5 7.773v18.144l7.853 3.318 8.751 1.279 8.813.797 8.834.506 8.847.282 8.853.091 8.854-.091 8.845-.282 8.834-.505 8.816-.798 8.754-1.28 7.849-3.317V7.773H18.82z" fill="#EE4878"/><g fill="#231f20"><path d="m53.467 33.69-8.885-.091-8.879-.283-8.872-.507-8.863-.801-9.199-1.391-7.853-3.318L0 25.917V7.773l1.5-1.5h103.903l1.5 1.5v18.144l-.916 1.382-8.216 3.42-8.754 1.28-8.897.807-8.884.509-8.882.284-8.886.091zM9.76 27.779l8.561 1.252 8.731.787 8.785.502 8.809.281 8.821.09 8.823-.091 8.812-.282 8.797-.504 8.766-.794 8.482-1.242 6.756-2.855V9.273H3v15.65z"/><path d="M105.403 7.773 97.55 4.455l-8.751-1.279-8.813-.797-8.834-.506-8.847-.282-8.854-.091-8.854.091-8.844.282-8.835.506-8.815.797-8.754 1.28L1.5 7.773l7.853 3.318 8.751 1.279 8.813.797 8.834.505 8.847.283 8.853.091 8.854-.091 8.845-.283 8.834-.505 8.816-.797 8.754-1.28z"/><path d="m53.467 15.546-8.884-.091-8.879-.283-8.872-.507-8.863-.801-9.199-1.392L.916 9.155V6.392l8.216-3.42 8.754-1.28 8.897-.807 8.884-.509 8.882-.285L53.436 0l8.885.091L71.2.374l8.872.507 8.863.801 9.199 1.391 7.853 3.318v2.763l-8.216 3.42-8.754 1.28-8.898.807-8.884.509-8.882.284-8.886.091zM9.76 9.634l8.561 1.252 8.731.787 8.785.502 8.809.281 8.821.09 8.823-.091 8.812-.282 8.797-.504 8.766-.794 8.482-1.242 4.402-1.86-4.406-1.862-8.561-1.252-8.731-.787-8.785-.502-8.809-.281-8.821-.09-8.823.091-8.812.282-8.797.504-8.766.794-8.482 1.242-4.402 1.86z"/></g></svg></g><g transform="translate(625.0 358.0) rotate(0.0 107.5 116.5) scale(0.9962282335715014 0.9966976370138426)"><svg width="215.814" height="233.772" viewBox="0 0 215.814 233.772"><g fill="#231f20"><path d="m92.111 73.845-2.34-1.878 9.741-12.13 10.624-11.356 11.406-10.574 12.154-9.724 12.934-8.713 13.618-7.27 1.013-.145 24.856 5.191-.614 2.937-24.322-5.08-13.07 6.977-12.686 8.556-11.966 9.579-11.244 10.429-10.473 11.201zM6.772 217.73l-1.014 2.447-1.014 2.45-1.014 2.45-1.015 2.45-1.016 2.455-1.016 2.454 2.358-1.206 2.361-1.207 2.362-1.207 2.362-1.208 2.365-1.21 2.366-1.21.29-1.665.291-1.667.29-1.665.291-1.669.291-1.672.292-1.671-1.636.424-1.637.425-1.635.425-1.639.425-1.642.426z"/><path d="m1.366 233.772-2.069-1.909 6.089-14.706 1.009-.878 9.83-2.551 1.855 1.709-1.745 10.01-.795 1.078-14.174 7.248zm6.506-14.778-4.244 10.252 9.88-5.052 1.216-6.978-6.852 1.779zM211.739 3.63l-1.725-1.218-1.982-.728-2.103-.19-2.08.358-1.917.886-1.621 1.353-2.354 2.553-2.357 2.555-2.357 2.555-2.358 2.557-2.362 2.56-2.362 2.56 1.978 1.825 1.981 1.827 1.98 1.826 1.981 1.828 1.985 1.83 1.984 1.83 2.354-2.552 2.357-2.555 2.358-2.556 2.357-2.556 2.362-2.56 2.362-2.561 1.218-1.724.728-1.982.19-2.103-.358-2.081-.886-1.916z"/><path d="m197.033 31.5-11.888-10.966-.085-2.12L199.351 2.94l1.621-1.353.332-.21 1.917-.885.375-.116 2.081-.359.387-.017 2.103.19.382.086 1.982.728.348.183 1.725 1.218.286.264 1.353 1.621.21.332.885 1.917.117.375.358 2.081.016.389-.189 2.103-.086.383-.728 1.982-.183.348-1.341 1.876-14.15 15.34-2.12.086zm-8.752-12.154 9.683 8.932 13.067-14.166 1.048-1.483.591-1.61.154-1.71-.292-1.692-.719-1.557-1.1-1.318-1.402-.991-1.61-.591-1.71-.154-1.692.292-1.557.719-1.394 1.164-13.067 14.166z"/></g><path d="m59.989 196.32-7.195 5.317-7.307 5.153-7.434 4.97-7.57 4.753-7.727 4.497-7.899 4.178-1.345-1.241-1.347-1.242-1.345-1.24-1.348-1.244-1.35-1.245-1.35-1.246 3.463-8.074 3.781-7.926 4.043-7.8 4.261-7.681 4.451-7.579 4.618-7.48 21.398-31.176 23.409-29.702 25.15-28.247 26.902-26.58 28.929-24.345 31.632-20.662.954-.39 1.013-.187 1.03.024 1.003.234.934.435.825.617 1.83 1.689 1.833 1.691 1.831 1.688 1.834 1.692 1.838 1.695 1.837 1.695.682.773.509.896.314.981.107 1.025-.105 1.025-.311.982-17.98 33.048-21.841 30.67-24.209 28.847-25.994 27.254-27.572 25.658z" fill="#ee4878"/><path d="m15.558 226.514-1.718-.223-8.086-7.458-.361-1.694 3.463-8.074 3.806-7.98 4.065-7.844 4.281-7.719 4.47-7.611 4.635-7.508 21.438-31.237 23.468-29.782 25.207-28.316 27.057-26.73 29.074-24.453L187.99 9.222l.253-.133 1.25-.476 1.32-.211 1.335.063 1.295.335 1.199.593.944.716 11.112 10.26.862 1.025.633 1.179.377 1.283.107 1.332-.167 1.327-.424 1.245-18.075 33.202-21.914 30.763-24.209 28.848-26.058 27.324-27.636 25.721-29.312 23.907-7.195 5.318-7.334 5.173-7.465 4.991-7.606 4.777-7.769 4.523-7.953 4.207zm-6.99-9.168 6.526 6.02 6.961-3.682 7.673-4.468 7.527-4.727 7.398-4.946 7.276-5.132 7.139-5.277 29.155-23.777 27.498-25.594 25.931-27.191 24.107-28.731 21.754-30.547 17.867-32.843.222-.698.073-.717-.075-.717-.219-.686-.355-.625-.528-.598-10.891-10.046-.639-.478-.652-.303-.701-.164-.72-.017-.709.131-.678.277-31.437 20.534-28.813 24.248-26.86 26.538-25.083 28.177-23.351 29.633-21.34 31.096-4.578 7.419-4.435 7.551-4.243 7.649-4.023 7.763-3.759 7.881-3.021 7.045z" fill="#231f20"/><path d="m59.989 196.32-7.195 5.317-7.307 5.153-7.434 4.97-7.57 4.753-7.727 4.497-7.899 4.178-1.345-1.241-1.347-1.242-1.345-1.24-1.348-1.244-1.35-1.245-1.35-1.246 3.463-8.074 3.781-7.926 4.043-7.8 4.261-7.681 4.451-7.579 4.618-7.48 3.448.656 3.372.97 3.262 1.292 3.112 1.618 2.926 1.936 2.702 2.238 2.262 2.301 2.024 2.513 1.77 2.697 1.506 2.854 1.24 2.979z" fill="#fff"/><path d="m15.558 226.514-1.718-.223-8.086-7.458-.361-1.694 3.463-8.074 3.806-7.98 4.065-7.844 4.281-7.719 4.47-7.611 4.635-7.508 1.557-.686 3.582.688 3.51 1.016 3.401 1.356 3.249 1.698 3.054 2.032 2.815 2.341 2.36 2.412 2.11 2.631 1.843 2.82 1.564 2.977 1.284 3.102.976 3.076-.538 1.66-7.195 5.318-7.334 5.173-7.465 4.991-7.606 4.777-7.769 4.523-7.953 4.207zm-6.99-9.168 6.526 6.02 6.961-3.682 7.673-4.468 7.527-4.727 7.398-4.946 7.276-5.132 6.305-4.66-.632-1.991-1.188-2.855-1.441-2.729-1.691-2.577-1.932-2.398-2.156-2.194-2.581-2.137-2.793-1.848-2.975-1.546-3.122-1.237-3.236-.93-2.366-.45-4.075 6.601-4.435 7.55-4.242 7.649-4.023 7.763-3.759 7.881-3.021 7.045zm138.653-104.173-.996-4.854-1.424-4.664-1.894-4.475-2.384-4.22-2.872-3.891-3.337-3.496-3.762-3.05-4.119-2.555-4.409-2.038-4.625-1.527-4.774-1.04-4.929-.597.36-2.978 5.138.628 5.072 1.114 4.94 1.641 4.73 2.2 4.432 2.762 4.05 3.3 3.59 3.778 3.082 4.194 2.546 4.527 2.011 4.773 1.502 4.942 1.011 4.922z" fill="#231f20"/></svg></g><g transform="translate(821.0 296.0) rotate(0.0 9.5 9.5) scale(0.7889382552007641 0.7844756399669695)"><svg width="24.083" height="24.22" viewBox="0 0 24.083 24.22"><path d="M12.041 22.72c-.095 0-.189-.009-.283-.027l-2.791-.537a1.468 1.468 0 0 1-.349-.113l-2.576-1.198a1.502 1.502 0 0 1-.463-.334l-1.943-2.073a1.527 1.527 0 0 1-.215-.295l-1.385-2.482a1.518 1.518 0 0 1-.18-.549l-.346-2.821a1.486 1.486 0 0 1 0-.365l.346-2.821c.024-.193.085-.379.179-.548l1.384-2.481c.061-.105.133-.204.217-.294L5.58 3.709c.131-.14.287-.253.462-.334l2.576-1.198c.11-.052.228-.09.349-.113l2.791-.537a1.507 1.507 0 0 1 .566 0l2.79.537c.121.023.237.061.349.113l2.577 1.198c.174.081.331.194.463.334l1.943 2.073c.083.089.156.188.216.295l1.384 2.482c.094.169.154.355.179.547l.347 2.821c.015.122.015.245 0 .366l-.347 2.821a1.512 1.512 0 0 1-.179.547l-1.384 2.481a1.575 1.575 0 0 1-.216.295l-1.943 2.073c-.132.14-.288.254-.463.334l-2.577 1.198a1.515 1.515 0 0 1-.349.113l-2.79.537a1.407 1.407 0 0 1-.283.028z" fill="#FFF"/><path d="m12.041 3 2.791.538 2.577 1.197 1.943 2.073 1.384 2.481.347 2.821-.347 2.82-1.384 2.481-1.943 2.073-2.577 1.198-2.791.537-2.791-.537-2.577-1.198-1.943-2.073-1.384-2.482L3 12.11l.347-2.82L4.73 6.808l1.943-2.073L9.25 3.537zm0-3c-.19 0-.38.018-.568.054l-2.79.538a2.987 2.987 0 0 0-.697.225L5.409 2.015a2.994 2.994 0 0 0-.924.669L2.542 4.756a3.018 3.018 0 0 0-.432.591L.727 7.829c-.189.338-.31.71-.357 1.095l-.347 2.821c-.03.243-.03.489 0 .732l.347 2.82c.047.384.169.756.357 1.095l1.384 2.482c.119.214.264.413.432.591l1.943 2.073c.262.28.576.507.924.668l2.577 1.198c.223.104.457.179.698.226l2.791.537a3 3 0 0 0 1.134 0l2.791-.537a3.01 3.01 0 0 0 .698-.225l2.577-1.198c.348-.162.662-.389.924-.669l1.943-2.073c.167-.179.312-.377.431-.591l1.384-2.481c.189-.338.31-.71.357-1.095l.347-2.82a2.98 2.98 0 0 0 0-.731l-.347-2.821a2.997 2.997 0 0 0-.358-1.096l-1.384-2.481a3.007 3.007 0 0 0-.431-.59l-1.943-2.073a3.002 3.002 0 0 0-.925-.669L16.097.82A2.987 2.987 0 0 0 15.4.595L12.609.057A2.792 2.792 0 0 0 12.041 0z" fill="#231f20"/></svg></g><g transform="translate(387.0 281.0) rotate(0.0 6.0 6.0) scale(0.9324733856554511 0.9411764705882353)"><svg width="12.869" height="12.75" viewBox="0 0 12.869 12.75"><path d="M11.372 6.378a4.937 4.937 0 1 0-9.873 0 4.937 4.937 0 0 0 9.873 0z" fill="#FFF"/><path d="M6.435 12.75A6.4 6.4 0 0 1 0 6.46v-.163a6.435 6.435 0 0 1 12.869.001v.164a6.393 6.393 0 0 1-6.434 6.289zM3 6.378a3.434 3.434 0 1 0 3.497-3.371h-.063A3.34 3.34 0 0 0 3 6.378z" fill="#231f20"/></svg></g><g transform="translate(309.0 173.0) rotate(0.0 6.0 6.0) scale(0.9324733856554511 0.9411764705882353)"><svg width="12.869" height="12.75" viewBox="0 0 12.869 12.75"><path d="M11.372 6.378a4.937 4.937 0 1 0-9.873 0 4.937 4.937 0 0 0 9.873 0z" fill="#FFF"/><path d="M6.435 12.75A6.4 6.4 0 0 1 0 6.46v-.163a6.435 6.435 0 0 1 12.869.001v.164a6.393 6.393 0 0 1-6.434 6.289zM3 6.378a3.434 3.434 0 1 0 3.497-3.371h-.063A3.34 3.34 0 0 0 3 6.378z" fill="#231f20"/></svg></g><g transform="translate(765.0 242.0) rotate(0.0 6.0 6.0) scale(0.9324733856554511 0.9411764705882353)"><svg width="12.869" height="12.75" viewBox="0 0 12.869 12.75"><path d="M11.372 6.378a4.937 4.937 0 1 0-9.873 0 4.937 4.937 0 0 0 9.873 0z" fill="#FFF"/><path d="M6.435 12.75A6.4 6.4 0 0 1 0 6.46v-.163a6.435 6.435 0 0 1 12.869.001v.164a6.393 6.393 0 0 1-6.434 6.289zM3 6.378a3.434 3.434 0 1 0 3.497-3.371h-.063A3.34 3.34 0 0 0 3 6.378z" fill="#231f20"/></svg></g><g transform="translate(792.0 617.0) rotate(0.0 9.5 9.5) scale(0.7889382552007641 0.7844756399669695)"><svg width="24.083" height="24.22" viewBox="0 0 24.083 24.22"><path d="M12.041 22.72c-.095 0-.189-.009-.283-.027l-2.791-.537a1.468 1.468 0 0 1-.349-.113l-2.576-1.198a1.502 1.502 0 0 1-.463-.334l-1.943-2.073a1.527 1.527 0 0 1-.215-.295l-1.385-2.482a1.518 1.518 0 0 1-.18-.549l-.346-2.821a1.486 1.486 0 0 1 0-.365l.346-2.821c.024-.193.085-.379.179-.548l1.384-2.481c.061-.105.133-.204.217-.294L5.58 3.709c.131-.14.287-.253.462-.334l2.576-1.198c.11-.052.228-.09.349-.113l2.791-.537a1.507 1.507 0 0 1 .566 0l2.79.537c.121.023.237.061.349.113l2.577 1.198c.174.081.331.194.463.334l1.943 2.073c.083.089.156.188.216.295l1.384 2.482c.094.169.154.355.179.547l.347 2.821c.015.122.015.245 0 .366l-.347 2.821a1.512 1.512 0 0 1-.179.547l-1.384 2.481a1.575 1.575 0 0 1-.216.295l-1.943 2.073c-.132.14-.288.254-.463.334l-2.577 1.198a1.515 1.515 0 0 1-.349.113l-2.79.537a1.407 1.407 0 0 1-.283.028z" fill="#FFF"/><path d="m12.041 3 2.791.538 2.577 1.197 1.943 2.073 1.384 2.481.347 2.821-.347 2.82-1.384 2.481-1.943 2.073-2.577 1.198-2.791.537-2.791-.537-2.577-1.198-1.943-2.073-1.384-2.482L3 12.11l.347-2.82L4.73 6.808l1.943-2.073L9.25 3.537zm0-3c-.19 0-.38.018-.568.054l-2.79.538a2.987 2.987 0 0 0-.697.225L5.409 2.015a2.994 2.994 0 0 0-.924.669L2.542 4.756a3.018 3.018 0 0 0-.432.591L.727 7.829c-.189.338-.31.71-.357 1.095l-.347 2.821c-.03.243-.03.489 0 .732l.347 2.82c.047.384.169.756.357 1.095l1.384 2.482c.119.214.264.413.432.591l1.943 2.073c.262.28.576.507.924.668l2.577 1.198c.223.104.457.179.698.226l2.791.537a3 3 0 0 0 1.134 0l2.791-.537a3.01 3.01 0 0 0 .698-.225l2.577-1.198c.348-.162.662-.389.924-.669l1.943-2.073c.167-.179.312-.377.431-.591l1.384-2.481c.189-.338.31-.71.357-1.095l.347-2.82a2.98 2.98 0 0 0 0-.731l-.347-2.821a2.997 2.997 0 0 0-.358-1.096l-1.384-2.481a3.007 3.007 0 0 0-.431-.59l-1.943-2.073a3.002 3.002 0 0 0-.925-.669L16.097.82A2.987 2.987 0 0 0 15.4.595L12.609.057A2.792 2.792 0 0 0 12.041 0z" fill="#231f20"/></svg></g><g transform="translate(718.0 555.0) rotate(-45.88954829269705 43.0 5.0) scale(0.7080578631472348 0.7506943923128895)"><svg width="121.459" height="13.321" viewBox="0 0 121.459 13.321"><path d="M1.604 7.989c-.088-.386-.112-.935-.025-1.324-.171-.673-.05-1.516.222-2.148.151-.361.626-.776.871-1.054.34-.549 1.447-1.167 2.021-1.446 7.953.041 23.932-.083 31.88-.247 14.204.078 65.842-.34 80.047-.261 1.086.123 1.841 1.122 2.569 1.816l.732 1.593c-.127 1.27.299 2.676-.256 3.898-.357.672-1.108 1.216-1.579 1.786.247 1.23-48.877.573-49.469.726-19.977.258-43.791.443-63.769.492-1.086-.124-1.842-1.122-2.571-1.817l-.731-1.59z" fill="#FFF"/><path d="m4.764 13.321-.086-.01c-1.416-.161-2.37-1.138-3.066-1.851-.125-.128-.249-.255-.371-.372l-.208-.198L.002 8.643l.084-.617a5.037 5.037 0 0 1-.03-1.332c-.142-.879-.011-1.889.368-2.769.216-.517.621-.932.946-1.266l.124-.128C2.06 1.74 3.177 1.086 4.039.668l.314-.152.349.002C12.537.557 28.605.435 36.543.272 43.669.31 60.385.224 76.549.141c16.206-.083 32.965-.169 40.08-.131l.161.01c1.415.16 2.367 1.135 3.062 1.847.126.129.25.256.373.374l.208.198 1.022 2.224-.041.405c-.034.341-.012.747.011 1.177.053.973.113 2.075-.394 3.192-.376.713-.864 1.19-1.294 1.61-.11.107-.22.213-.322.319l-.184.235c-.748.908-1.162 1.406-41.917 1.226-4.138-.019-7.74-.035-8.455-.012l-.222.013c-20.107.259-43.952.443-63.785.492h-.088zM3.525 9.128c.078.077.155.156.234.236.401.412.854.875 1.202.956 19.786-.049 43.543-.232 63.592-.491.537-.035 2.162-.032 8.774-.002 10.972.048 36.238.162 39.852-.462.145-.155.302-.31.461-.465.274-.267.584-.57.7-.788.162-.364.128-.985.089-1.705-.021-.39-.043-.791-.029-1.206l-.459-.999-.236-.24c-.402-.412-.855-.875-1.202-.954-7.162-.038-23.823.05-39.939.133-16.171.083-32.892.172-39.999.13-7.797.16-23.541.284-31.516.249-.587.313-1.015.628-1.119.758l-.134.179a9.266 9.266 0 0 1-.278.295c-.108.11-.308.315-.362.401-.137.329-.2.839-.123 1.142l.088.347-.078.35c-.029.131-.025.45.023.665l.061.266-.036.26z" fill="#231f20"/></svg></g><g transform="translate(229.0 219.0) rotate(0.987011140584245 41.5 5.0) scale(0.6833581702467499 0.7506943923128895)"><svg width="121.459" height="13.321" viewBox="0 0 121.459 13.321"><path d="M1.604 7.989c-.088-.386-.112-.935-.025-1.324-.171-.673-.05-1.516.222-2.148.151-.361.626-.776.871-1.054.34-.549 1.447-1.167 2.021-1.446 7.953.041 23.932-.083 31.88-.247 14.204.078 65.842-.34 80.047-.261 1.086.123 1.841 1.122 2.569 1.816l.732 1.593c-.127 1.27.299 2.676-.256 3.898-.357.672-1.108 1.216-1.579 1.786.247 1.23-48.877.573-49.469.726-19.977.258-43.791.443-63.769.492-1.086-.124-1.842-1.122-2.571-1.817l-.731-1.59z" fill="#FFF"/><path d="m4.764 13.321-.086-.01c-1.416-.161-2.37-1.138-3.066-1.851-.125-.128-.249-.255-.371-.372l-.208-.198L.002 8.643l.084-.617a5.037 5.037 0 0 1-.03-1.332c-.142-.879-.011-1.889.368-2.769.216-.517.621-.932.946-1.266l.124-.128C2.06 1.74 3.177 1.086 4.039.668l.314-.152.349.002C12.537.557 28.605.435 36.543.272 43.669.31 60.385.224 76.549.141c16.206-.083 32.965-.169 40.08-.131l.161.01c1.415.16 2.367 1.135 3.062 1.847.126.129.25.256.373.374l.208.198 1.022 2.224-.041.405c-.034.341-.012.747.011 1.177.053.973.113 2.075-.394 3.192-.376.713-.864 1.19-1.294 1.61-.11.107-.22.213-.322.319l-.184.235c-.748.908-1.162 1.406-41.917 1.226-4.138-.019-7.74-.035-8.455-.012l-.222.013c-20.107.259-43.952.443-63.785.492h-.088zM3.525 9.128c.078.077.155.156.234.236.401.412.854.875 1.202.956 19.786-.049 43.543-.232 63.592-.491.537-.035 2.162-.032 8.774-.002 10.972.048 36.238.162 39.852-.462.145-.155.302-.31.461-.465.274-.267.584-.57.7-.788.162-.364.128-.985.089-1.705-.021-.39-.043-.791-.029-1.206l-.459-.999-.236-.24c-.402-.412-.855-.875-1.202-.954-7.162-.038-23.823.05-39.939.133-16.171.083-32.892.172-39.999.13-7.797.16-23.541.284-31.516.249-.587.313-1.015.628-1.119.758l-.134.179a9.266 9.266 0 0 1-.278.295c-.108.11-.308.315-.362.401-.137.329-.2.839-.123 1.142l.088.347-.078.35c-.029.131-.025.45.023.665l.061.266-.036.26z" fill="#231f20"/></svg></g><g transform="translate(226.0 437.0) rotate(2.8240477098355994 -20.0 24.0) scale(-1.0032354342755385 0.9814345301382187)"><svg width="39.871" height="48.908" viewBox="0 0 39.871 48.908"><path d="M33.398 47.401a1.502 1.502 0 0 1-.388-.055l-.77-.213a1.51 1.51 0 0 1-.359-.151l-.688-.404a1.514 1.514 0 0 1-.31-.242l-.56-.569a1.615 1.615 0 0 1-.128-.148L2.397 8.782a1.476 1.476 0 0 1-.107-.163l-.395-.695a1.535 1.535 0 0 1-.147-.364l-.2-.772a1.482 1.482 0 0 1-.048-.392l.008-.799c.001-.13.02-.259.054-.384l.212-.77c.035-.126.086-.248.152-.361l.405-.688c.066-.113.148-.219.242-.311l.57-.56c.093-.091.197-.17.31-.233l.694-.395c.115-.065.237-.115.365-.148l.773-.2c.124-.031.25-.047.377-.047l.812.007c.131.001.261.02.388.055l.77.213c.124.034.245.085.358.151l.688.404c.113.067.218.148.31.242l.56.569c.045.047.088.097.127.149l27.798 36.836c.039.052.075.106.107.163l.395.695c.064.114.114.236.147.364l.2.772c.033.127.049.258.048.389l-.007.799c-.001.131-.02.26-.054.386l-.212.77a1.52 1.52 0 0 1-.153.362l-.405.688a1.503 1.503 0 0 1-.241.309l-.569.56a1.485 1.485 0 0 1-.312.235l-.695.395a1.518 1.518 0 0 1-.364.147l-.772.2a1.491 1.491 0 0 1-.376.048l-.812-.007z" fill="#fff"/><path d="m5.662 3 .798.007.77.212.688.405.56.57 4.631 6.136 4.632 6.138 4.629 6.134 4.633 6.14 4.637 6.144 4.637 6.144.395.695.2.773-.007.798-.212.77-.405.688-.57.56-.695.395-.773.2-.798-.007-.77-.212-.688-.405-.56-.57-4.631-6.136-4.632-6.138-4.629-6.134-4.633-6.14-4.637-6.144-4.637-6.144-.395-.695-.2-.773.007-.798.212-.77.405-.688.57-.56.695-.395zm0-3c-.254 0-.506.032-.752.096l-.773.2a2.96 2.96 0 0 0-.729.296l-.696.394a3.017 3.017 0 0 0-.621.469l-.57.56a2.993 2.993 0 0 0-.484.62l-.404.688a2.961 2.961 0 0 0-.305.722l-.212.77c-.07.251-.106.51-.109.771L0 6.384c-.002.263.03.524.096.779l.2.773c.066.255.165.5.295.729l.395.695c.064.113.136.222.214.326l4.637 6.144 4.637 6.144 4.633 6.14 4.629 6.134 4.632 6.138 4.631 6.136c.078.104.163.202.254.295l.56.57c.185.188.393.351.62.484l.688.405c.226.133.469.236.722.305l.77.212c.251.069.511.106.772.108l.798.007h.026c.254 0 .506-.032.752-.096l.773-.2c.255-.066.5-.165.729-.295l.695-.395c.226-.129.435-.286.621-.469l.57-.56a3 3 0 0 0 .484-.62l.405-.688c.133-.226.236-.469.306-.722l.212-.77c.069-.252.106-.511.108-.772l.007-.798a3 3 0 0 0-.096-.778l-.2-.773a2.997 2.997 0 0 0-.295-.729l-.395-.695a3.049 3.049 0 0 0-.214-.326l-4.637-6.144-4.637-6.144-4.633-6.14-4.629-6.134-4.632-6.138-4.631-6.136a2.853 2.853 0 0 0-.255-.295l-.56-.57a2.993 2.993 0 0 0-.62-.484L8.75.633a2.961 2.961 0 0 0-.722-.305l-.77-.212a2.96 2.96 0 0 0-.771-.109L5.688 0h-.026z" fill="#231f20"/></svg></g><g transform="translate(487.0 542.0) rotate(0.0 23.0 23.0) scale(0.8166308650961317 0.8156172981790457)"><svg width="56.329" height="56.399" viewBox="0 0 56.329 56.399"><path d="M28.163 55.891C23.682 43.419 12.916 32.755.521 28.163 12.932 23.696 23.832 12.991 28.166.491c4.333 12.5 15.232 23.207 27.642 27.674-12.395 4.592-23.162 15.255-27.645 27.726z" fill="#fff"/><path d="m29.574 56.399-2.823-.001C22.426 44.36 12.175 34.08-.001 29.569l.014-2.817C12.132 22.39 22.627 11.89 26.749 0h2.834c4.122 11.891 14.615 22.393 26.733 26.755l.013 2.817c-12.175 4.51-22.427 14.789-26.755 26.827zM4.442 28.177c10.328 4.815 19.021 13.521 23.722 23.756C32.865 41.7 41.56 32.993 51.888 28.18 41.603 23.451 32.774 14.643 28.166 4.521 23.558 14.641 14.728 23.45 4.442 28.177z" fill="#231f20"/></svg></g><g transform="translate(624.0 644.0) rotate(0.0 16.0 16.0) scale(0.5680910365886134 0.5673859465593362)"><svg width="56.329" height="56.399" viewBox="0 0 56.329 56.399"><path d="M28.163 55.891C23.682 43.419 12.916 32.755.521 28.163 12.932 23.696 23.832 12.991 28.166.491c4.333 12.5 15.232 23.207 27.642 27.674-12.395 4.592-23.162 15.255-27.645 27.726z" fill="#fff"/><path d="m29.574 56.399-2.823-.001C22.426 44.36 12.175 34.08-.001 29.569l.014-2.817C12.132 22.39 22.627 11.89 26.749 0h2.834c4.122 11.891 14.615 22.393 26.733 26.755l.013 2.817c-12.175 4.51-22.427 14.789-26.755 26.827zM4.442 28.177c10.328 4.815 19.021 13.521 23.722 23.756C32.865 41.7 41.56 32.993 51.888 28.18 41.603 23.451 32.774 14.643 28.166 4.521 23.558 14.641 14.728 23.45 4.442 28.177z" fill="#231f20"/></svg></g><g transform="translate(174.0 723.0) rotate(0.0 47.5 38.5) scale(1.436021464741894 1.4152330539626525)"><svg width="66.155" height="54.408" viewBox="0 0 66.155 54.408"><path d="m64.417 28.129-.863-9.59.959-.433.171-11.908C44.145 7.708 21.045 11.282.944 4.323c.121 4.263-.046 9.05.052 13.31l-.092-.035C1.077 22.4.9 27.881.997 32.668l-.029-.01c-.032.981-.072 2.984-.069 3.958l.086-.003c.027 3.948-.08 8.489.032 12.441 9.265 4.298 22.011 3.426 31.749 3.895 9.731-.473 22.45.401 31.713-3.896.068-5.057.043-10.476-.017-15.529l.172-.065-.219-5.33z" fill="#EE4878"/><g fill="#231f20"><path d="M33.08 54.408h-.159c-2.291-.122-4.629-.161-7.104-.202-8.407-.14-17.101-.285-24.842-3.719l-.891-1.33c-.062-2.24-.047-4.639-.033-6.959.014-2.295.029-4.668-.031-6.857l2.999-.083c.062 2.24.047 4.639.033 6.959-.012 1.963-.025 3.983.01 5.896 6.985 2.829 15.023 2.963 22.806 3.093 2.475.042 4.814.08 7.133.202 2.319-.121 4.657-.16 7.13-.201 7.783-.129 15.821-.263 22.809-3.093.034-1.881.022-3.866.01-5.795-.014-2.287-.029-4.65.033-6.859l2.999.084c-.061 2.157-.046 4.495-.031 6.756.014 2.287.029 4.65-.033 6.859l-.891 1.329c-7.743 3.435-16.437 3.579-24.844 3.719-2.474.041-4.81.08-7.101.202z"/><path d="M33.08 54.408h-.159c-2.291-.122-4.629-.161-7.104-.202-8.407-.14-17.101-.285-24.842-3.719l-.888-1.264C0 48.013.039 41.93.086 35.802c.01-1.351.018-2.395.019-2.854l3 .004c0 .461-.009 1.513-.019 2.873-.028 3.585-.075 9.813-.035 12.284 6.988 2.833 15.029 2.967 22.816 3.097 2.475.042 4.814.08 7.133.202 2.319-.121 4.657-.16 7.13-.201 7.779-.129 15.812-.263 22.798-3.089.044-4.177.042-9.273.04-13.808v-4.156l3 .002v4.153c.002 4.906.005 10.465-.052 14.827l-.892 1.352c-7.743 3.435-16.437 3.579-24.844 3.719-2.474.041-4.81.08-7.101.202z"/><path d="M33.08 38.873h-.159c-2.29-.122-4.627-.161-7.101-.202-8.409-.14-17.103-.285-24.845-3.719l-.891-1.341c-.055-2.765-.043-5.872-.032-8.875.012-3.009.023-6.12-.032-8.884l2.999-.061c.056 2.8.044 5.93.033 8.956-.01 2.638-.021 5.355.015 7.834 6.985 2.827 15.022 2.961 22.803 3.091 2.474.041 4.812.08 7.13.201 2.319-.121 4.657-.16 7.13-.201 7.781-.129 15.817-.263 22.804-3.092.035-2.334.024-4.854.014-7.302-.012-2.827-.025-5.75.033-8.413l2.999.065c-.057 2.623-.044 5.527-.032 8.335.012 2.809.025 5.714-.032 8.348l-.891 1.339c-7.743 3.435-16.437 3.579-24.844 3.719-2.474.041-4.81.08-7.101.202z"/><path d="M33.08 23.874h-.159c-2.291-.122-4.628-.161-7.102-.202-8.408-.14-17.103-.284-24.844-3.719l-.891-1.326C.021 16.53.036 14.289.051 12.122.068 9.771.084 7.34 0 5.107l1.275-1.54 4.602-.693.447 2.967-3.287.495c.041 1.902.027 3.881.014 5.808a213.91 213.91 0 0 0 .008 5.437c6.987 2.831 15.025 2.964 22.809 3.093 2.474.041 4.812.08 7.131.201 2.319-.121 4.657-.16 7.131-.201 7.779-.129 15.812-.263 22.798-3.089.009-.851.015-1.737.021-2.643.018-2.729.037-5.534.135-8.102l-1.131.021-.057-2.999 2.732-.052 1.526 1.583c-.161 2.905-.184 6.292-.206 9.569-.009 1.266-.017 2.496-.033 3.643l-.892 1.35c-7.743 3.434-16.437 3.579-24.844 3.719-2.474.041-4.811.08-7.101.202z"/><path d="M64.417 5.292C54.726.994 43.091 2.034 33 1.498 22.911 2.034 11.272.993 1.584 5.292 11.274 9.59 22.91 8.55 33.001 9.086c10.09-.536 21.728.505 31.417-3.794z"/><path d="M33.08 10.584h-.159c-2.291-.122-4.629-.161-7.104-.202-8.406-.14-17.099-.285-24.842-3.719V3.921C8.716.487 17.41.341 25.817.202 28.292.16 30.629.122 32.921 0h.159c2.291.122 4.629.161 7.104.202 8.406.14 17.099.285 24.842 3.719v2.742c-7.74 3.434-16.434 3.579-24.842 3.719-2.475.042-4.812.08-7.104.202zM5.936 5.292c6.271 1.863 13.196 1.979 19.931 2.09 2.475.042 4.813.08 7.133.202 2.32-.122 4.658-.16 7.133-.202 6.736-.112 13.661-.227 19.931-2.09-6.271-1.863-13.196-1.979-19.931-2.09C37.658 3.16 35.32 3.122 33 3c-2.32.122-4.658.16-7.133.202-6.736.112-13.661.227-19.931 2.09z"/></g></svg></g><g transform="translate(150.0 684.0) rotate(0.0 52.5 30.0) scale(1.5871816189252512 1.5434877678594399)"><svg width="66.155" height="38.873" viewBox="0 0 66.155 38.873"><path d="m64.417 20.47-.863-6.504.959-.294.171-8.077C44.145 6.619 21.045 9.043.944 4.323c.121 2.891-.046 6.138.052 9.028l-.092-.024c.173 3.257-.004 6.975.093 10.221l-.029-.007a68.936 68.936 0 0 0-.069 2.685l.086-.002c.027 2.678-.08 5.758.032 8.438 9.265 2.915 22.011 2.324 31.749 2.642 9.731-.321 22.45.272 31.713-2.642.068-3.43.043-7.106-.017-10.533l.172-.044-.219-3.615z" fill="#EE4878"/><g fill="#231f20"><path d="M33.08 38.873h-.159c-2.291-.122-4.628-.161-7.102-.202-8.408-.14-17.102-.284-24.844-3.719l-.891-1.341C.029 30.845.04 27.738.052 24.733c.011-3.008.023-6.119-.032-8.882l3-.061c.056 2.799.044 5.928.033 8.954-.01 2.639-.02 5.356.015 7.836 6.985 2.827 15.021 2.961 22.802 3.09 2.474.041 4.812.08 7.131.201 2.319-.121 4.657-.16 7.131-.201 7.781-.129 15.817-.263 22.804-3.091.035-2.334.024-4.855.014-7.302-.012-2.827-.025-5.751.033-8.414l3 .065c-.057 2.623-.044 5.527-.032 8.335.012 2.81.025 5.714-.032 8.349l-.892 1.339c-7.743 3.434-16.437 3.579-24.844 3.719-2.474.041-4.811.08-7.101.202z"/><path d="M33.08 23.874h-.159c-2.291-.122-4.629-.161-7.103-.202-8.407-.14-17.101-.285-24.842-3.719l-.891-1.326C.022 16.53.037 14.29.052 12.122.067 9.772.084 7.34 0 5.107l1.275-1.54 4.602-.693.447 2.967-3.287.495c.041 1.903.027 3.882.014 5.808-.012 1.809-.025 3.67.008 5.436 6.986 2.83 15.024 2.964 22.807 3.093 2.475.042 4.813.08 7.133.202 2.32-.122 4.659-.16 7.133-.202 7.778-.129 15.811-.263 22.795-3.089.009-.85.015-1.735.021-2.64.018-2.729.037-5.535.135-8.104l-1.131.021-.057-2.999 2.732-.052 1.526 1.583c-.161 2.905-.184 6.294-.206 9.572a485.46 485.46 0 0 1-.033 3.639l-.892 1.35c-7.742 3.434-16.435 3.579-24.842 3.719-2.475.042-4.812.08-7.104.202z"/><path d="M64.417 5.292C54.726.994 43.091 2.034 33 1.498 22.911 2.034 11.272.993 1.584 5.292 11.274 9.59 22.91 8.55 33.001 9.086c10.09-.536 21.728.505 31.417-3.794z"/><path d="M33.08 10.584h-.159c-2.291-.122-4.627-.161-7.101-.202-8.408-.14-17.101-.285-24.844-3.719V3.92C8.717.486 17.411.341 25.819.202 28.293.161 30.63.122 32.921 0h.159c2.291.122 4.627.161 7.101.202 8.407.14 17.101.285 24.844 3.719v2.742c-7.741 3.434-16.434 3.579-24.842 3.719-2.475.042-4.812.08-7.104.202zM5.936 5.292c6.272 1.863 13.198 1.979 19.934 2.091 2.474.041 4.811.08 7.13.201 2.32-.122 4.659-.16 7.133-.202 6.736-.112 13.661-.227 19.931-2.09-6.272-1.863-13.198-1.978-19.933-2.09-2.474-.041-4.812-.08-7.131-.201-2.319.121-4.657.16-7.131.201-6.736.112-13.662.227-19.933 2.09z"/></g></svg></g><g transform="translate(173.0 647.0) rotate(0.0 52.0 29.5) scale(1.5720656035069156 1.517762971728449)"><svg width="66.155" height="38.873" viewBox="0 0 66.155 38.873"><path d="m64.417 20.47-.863-6.504.959-.294.171-8.077C44.145 6.619 21.045 9.043.944 4.323c.121 2.891-.046 6.138.052 9.028l-.092-.024c.173 3.257-.004 6.975.093 10.221l-.029-.007a68.936 68.936 0 0 0-.069 2.685l.086-.002c.027 2.678-.08 5.758.032 8.438 9.265 2.915 22.011 2.324 31.749 2.642 9.731-.321 22.45.272 31.713-2.642.068-3.43.043-7.106-.017-10.533l.172-.044-.219-3.615z" fill="#EE4878"/><g fill="#231f20"><path d="M33.08 38.873h-.159c-2.291-.122-4.628-.161-7.102-.202-8.408-.14-17.102-.284-24.844-3.719l-.891-1.341C.029 30.845.04 27.738.052 24.733c.011-3.008.023-6.119-.032-8.882l3-.061c.056 2.799.044 5.928.033 8.954-.01 2.639-.02 5.356.015 7.836 6.985 2.827 15.021 2.961 22.802 3.09 2.474.041 4.812.08 7.131.201 2.319-.121 4.657-.16 7.131-.201 7.781-.129 15.817-.263 22.804-3.091.035-2.334.024-4.855.014-7.302-.012-2.827-.025-5.751.033-8.414l3 .065c-.057 2.623-.044 5.527-.032 8.335.012 2.81.025 5.714-.032 8.349l-.892 1.339c-7.743 3.434-16.437 3.579-24.844 3.719-2.474.041-4.811.08-7.101.202z"/><path d="M33.08 23.874h-.159c-2.291-.122-4.629-.161-7.103-.202-8.407-.14-17.101-.285-24.842-3.719l-.891-1.326C.022 16.53.037 14.29.052 12.122.067 9.772.084 7.34 0 5.107l1.275-1.54 4.602-.693.447 2.967-3.287.495c.041 1.903.027 3.882.014 5.808-.012 1.809-.025 3.67.008 5.436 6.986 2.83 15.024 2.964 22.807 3.093 2.475.042 4.813.08 7.133.202 2.32-.122 4.659-.16 7.133-.202 7.778-.129 15.811-.263 22.795-3.089.009-.85.015-1.735.021-2.64.018-2.729.037-5.535.135-8.104l-1.131.021-.057-2.999 2.732-.052 1.526 1.583c-.161 2.905-.184 6.294-.206 9.572a485.46 485.46 0 0 1-.033 3.639l-.892 1.35c-7.742 3.434-16.435 3.579-24.842 3.719-2.475.042-4.812.08-7.104.202z"/><path d="M64.417 5.292C54.726.994 43.091 2.034 33 1.498 22.911 2.034 11.272.993 1.584 5.292 11.274 9.59 22.91 8.55 33.001 9.086c10.09-.536 21.728.505 31.417-3.794z"/><path d="M33.08 10.584h-.159c-2.291-.122-4.627-.161-7.101-.202-8.408-.14-17.101-.285-24.844-3.719V3.92C8.717.486 17.411.341 25.819.202 28.293.161 30.63.122 32.921 0h.159c2.291.122 4.627.161 7.101.202 8.407.14 17.101.285 24.844 3.719v2.742c-7.741 3.434-16.434 3.579-24.842 3.719-2.475.042-4.812.08-7.104.202zM5.936 5.292c6.272 1.863 13.198 1.979 19.934 2.091 2.474.041 4.811.08 7.13.201 2.32-.122 4.659-.16 7.133-.202 6.736-.112 13.661-.227 19.931-2.09-6.272-1.863-13.198-1.978-19.933-2.09-2.474-.041-4.812-.08-7.131-.201-2.319.121-4.657.16-7.131.201-6.736.112-13.662.227-19.933 2.09z"/></g></svg></g><g transform="translate(138.0 581.0) rotate(0.0 36.5 36.5) scale(0.7782101167315174 0.7782101167315174)"><svg width="93.805" height="93.805" viewBox="0 0 93.805 93.805"><path d="M43.541 77.646c-.77-7.541-2.86-15.791-3.672-23.326l-.153-.021.007-.139-.14.006.002-.144c-9.61-1.578-20.405-3.22-29.966-5.139-.084-.396-.063-1.175.025-1.569-.179-.739.068-1.735-.079-2.478 9.598-1.578 20.279-3.674 29.922-4.966l.02-.153.139.007-.006-.14.144.002c1.577-9.611 3.222-20.405 5.139-29.966.396-.084 1.175-.063 1.569.025.739-.179 1.735.068 2.479-.079 1.577 9.598 3.674 20.279 4.965 29.922l.153.02-.007.139.14-.006-.002.144c9.61 1.578 20.405 3.22 29.966 5.139.084.396.063 1.175-.025 1.569.179.739-.068 1.735.079 2.478-9.598 1.577-20.279 3.675-29.922 4.966l-.02.153-.139-.007.006.14-.144-.002c-1.577 9.611-3.221 20.406-5.138 29.967-.396.084-1.175.063-1.569-.024-.738.179-1.733-.07-2.475.085-.266-2.148-.88-4.482-1.298-6.603z" fill="#7248ee"/><path d="m46.902.177.199 1.674.35 1.597.148 1.633.352 1.603.148 1.636.411 1.566.209 1.602.412 1.566.21 1.609.412 1.57.127 1.613.331 1.581.127 1.614.331 1.588.128 1.618.412 1.566.208 1.603.412 1.567.21 1.609.412 1.571.133 1.626.337 1.593.133 1.626.337 1.6.148 1.658 1.653.147 1.592.336 1.625.133 1.598.337 1.63.134 1.566.411 1.602.209 1.566.412 1.609.209 1.57.413 1.614.127 1.581.33 1.614.127 1.587.332 1.618.128 1.566.411 1.603.209 1.567.412 1.609.21 1.571.412 1.633.148 1.598.351 1.633.147 1.605.352 1.679.199-1.674.199-1.597.35-1.632.148-1.604.352-1.636.148-1.566.411-1.602.209-1.566.412-1.608.21-1.571.412-1.613.127-1.581.331-1.614.127-1.588.331-1.618.128-1.566.412-1.603.208-1.567.412-1.609.21-1.571.412-1.626.133-1.593.337-1.626.133-1.6.337-1.658.148-.147 1.653-.336 1.592-.133 1.625-.337 1.598-.134 1.63-.411 1.566-.209 1.602-.412 1.566-.209 1.609-.413 1.57-.127 1.614-.33 1.581-.127 1.614-.332 1.587-.128 1.618-.411 1.566-.209 1.603-.412 1.567-.21 1.609-.412 1.571-.148 1.633-.351 1.598-.147 1.633-.352 1.605-.199 1.679-.199-1.674-.35-1.597-.148-1.632-.352-1.604-.148-1.636-.411-1.566-.209-1.602-.412-1.566-.209-1.608-.413-1.571-.127-1.613-.331-1.581-.127-1.614-.331-1.588-.128-1.618-.411-1.566-.209-1.603-.412-1.567-.21-1.609-.412-1.571-.133-1.626-.337-1.593-.133-1.626-.337-1.6-.148-1.658-1.653-.147-1.592-.336-1.625-.133-1.598-.337-1.63-.134-1.566-.411L29 51.832l-1.566-.412-1.609-.209-1.57-.413-1.614-.127-1.581-.33-1.614-.127-1.587-.332-1.618-.128-1.566-.411-1.603-.209-1.567-.412-1.609-.21-1.571-.412-1.632-.148-1.599-.351-1.633-.147-1.604-.352-1.68-.199 1.674-.199 1.597-.35 1.633-.148 1.603-.352 1.636-.148 1.566-.411 1.602-.209 1.566-.412 1.609-.209 1.57-.413 1.613-.127 1.581-.331 1.614-.127 1.588-.331 1.618-.128 1.566-.411 1.603-.209 1.567-.412 1.609-.21 1.571-.412 1.626-.133 1.593-.337 1.626-.133 1.6-.337 1.658-.148.147-1.653.336-1.592.133-1.625.337-1.598.134-1.63.411-1.566.209-1.602.412-1.566.209-1.609.413-1.57.127-1.614.33-1.581.127-1.614.332-1.587.128-1.618.411-1.566.209-1.603.412-1.567.21-1.609.412-1.571.148-1.633.351-1.598.147-1.633.352-1.605z" fill="#fff"/><path d="m45.414 93.806-.191-1.602-.364-1.712-.139-1.538-.361-1.698-.136-1.511-.417-1.633-.196-1.507-.424-1.661-.198-1.514-.433-1.741-.119-1.519-.338-1.676-.119-1.519-.339-1.683-.117-1.484-.415-1.625-.196-1.507-.424-1.662-.198-1.515-.433-1.736-.125-1.532-.344-1.688-.125-1.532-.38-2.091-.58-.062-1.499-.316-1.719-.152-1.505-.318-1.793-.17-1.474-.387-1.695-.233-1.474-.388-1.701-.234-1.44-.378-1.669-.144-1.487-.311-1.708-.146-1.494-.312-1.786-.165-1.474-.387-1.695-.233-1.475-.388-1.701-.234-1.449-.38-1.694-.165-1.506-.331-1.725-.167-1.533-.336-1.606-.19v-2.979l1.601-.19 1.712-.363 1.538-.14 1.697-.36 1.511-.136 1.632-.417 1.508-.197 1.661-.424 1.514-.197 1.741-.433 1.518-.119 1.676-.338 1.519-.12 1.682-.338 1.485-.118 1.625-.414 1.508-.196 1.661-.424 1.515-.198 1.737-.433 1.531-.125 1.688-.344 1.532-.125 2.091-.381.062-.581.317-1.499.152-1.718.318-1.505.17-1.794.387-1.473.233-1.695.387-1.474.234-1.701.378-1.44.144-1.669.311-1.487.146-1.707.312-1.494.165-1.787.388-1.473.233-1.696.387-1.474.234-1.701.381-1.45.165-1.695.331-1.505.167-1.726.336-1.533.189-1.606L48.39 0l.191 1.602.364 1.712.139 1.538.361 1.698.136 1.511.417 1.633.196 1.507.424 1.661.198 1.514.433 1.741.119 1.519.338 1.676.119 1.519.339 1.683.117 1.484.415 1.625.196 1.507.424 1.662.198 1.515.433 1.736.125 1.532.344 1.688.125 1.532.38 2.091.581.062 1.499.317 1.718.152 1.505.317 1.793.17 1.474.387 1.695.233 1.474.387 1.7.234 1.44.378 1.67.144 1.487.311 1.707.147 1.494.312 1.786.165 1.474.387 1.695.233 1.474.387 1.702.234 1.449.381 1.695.165 1.505.331 1.726.167 1.533.336 1.606.189.001 2.979-1.601.19-1.712.364-1.538.139-1.697.36-1.511.137-1.633.417-1.507.196-1.66.424-1.514.198-1.741.433-1.518.119-1.677.339-1.519.119-1.682.339-1.484.117-1.624.414-1.508.197-1.661.424-1.515.198-1.737.433-1.531.125-1.688.344-1.532.125-2.091.38-.062.581-.317 1.499-.152 1.717-.318 1.506-.17 1.793-.387 1.473-.233 1.695-.387 1.474-.234 1.701-.378 1.44-.144 1.669-.311 1.487-.146 1.708-.312 1.493-.165 1.787-.388 1.473-.233 1.696-.387 1.474-.234 1.702-.381 1.449-.165 1.695-.331 1.505-.167 1.726-.336 1.533-.189 1.606zm1.356-10.175.132.504.135-.514.234-1.702.387-1.474.233-1.696.378-1.436.144-1.673.312-1.493.146-1.708.311-1.487.164-1.782.388-1.478.234-1.701.387-1.473.233-1.695.378-1.438.15-1.685.318-1.506.152-1.718.318-1.504.139-1.563 1.361-1.361 1.569-.14 1.699-.346 1.532-.125 1.688-.344 1.495-.122 1.63-.416 1.515-.198 1.662-.424 1.508-.197 1.737-.432 1.523-.12 1.682-.339 1.519-.119 1.677-.339 1.48-.116 1.627-.415 1.514-.198 1.662-.424 1.507-.196.504-.132-.515-.135-1.702-.234-1.474-.387-1.695-.233-1.437-.377-1.673-.144-1.494-.312-1.708-.147-1.487-.311-1.782-.164-1.478-.388-1.701-.234-1.474-.387-1.694-.233-1.439-.378-1.685-.15-1.505-.317-1.719-.152-1.504-.318-1.563-.14-1.361-1.361-.14-1.569-.346-1.7-.125-1.532-.344-1.687-.123-1.495-.416-1.63-.198-1.515-.424-1.662-.196-1.507-.433-1.738-.12-1.522-.339-1.683-.119-1.519-.338-1.676-.116-1.48-.415-1.627-.198-1.514-.424-1.662-.196-1.507-.131-.509-.135.514-.234 1.702-.387 1.474-.233 1.696-.378 1.436-.144 1.673-.312 1.494-.146 1.708-.311 1.487-.164 1.782-.388 1.478-.234 1.701-.387 1.474-.233 1.695-.378 1.438-.15 1.686-.318 1.505-.152 1.718-.318 1.504-.139 1.564-1.361 1.361-1.571.14-1.699.347-1.532.125-1.688.344-1.495.122-1.63.416-1.514.198-1.663.424-1.508.196-1.737.432-1.523.121-1.682.338-1.519.12-1.677.338-1.48.116-1.628.415-1.514.197-1.661.424-1.508.197-.503.132.514.135 1.702.234 1.474.388 1.695.233 1.437.377 1.673.145 1.494.312 1.708.146 1.487.311 1.782.164 1.478.388 1.702.234 1.474.388 1.694.233 1.439.378 1.685.15 1.505.318 1.718.152 1.504.317 1.564.14 1.361 1.361.14 1.569.346 1.7.125 1.532.344 1.687.123 1.495.416 1.63.198 1.515.424 1.662.196 1.507.433 1.738.12 1.522.339 1.683.119 1.519.338 1.676.116 1.48.415 1.627.198 1.514.424 1.662z" fill="#231f20"/></svg></g><g transform="translate(173.0 604.0) rotate(0.0 52.0 29.5) scale(1.5720656035069156 1.517762971728449)"><svg width="66.155" height="38.873" viewBox="0 0 66.155 38.873"><path d="m64.417 20.47-.863-6.504.959-.294.171-8.077C44.145 6.619 21.045 9.043.944 4.323c.121 2.891-.046 6.138.052 9.028l-.092-.024c.173 3.257-.004 6.975.093 10.221l-.029-.007a68.936 68.936 0 0 0-.069 2.685l.086-.002c.027 2.678-.08 5.758.032 8.438 9.265 2.915 22.011 2.324 31.749 2.642 9.731-.321 22.45.272 31.713-2.642.068-3.43.043-7.106-.017-10.533l.172-.044-.219-3.615z" fill="#EE4878"/><g fill="#231f20"><path d="M33.08 38.873h-.159c-2.291-.122-4.628-.161-7.102-.202-8.408-.14-17.102-.284-24.844-3.719l-.891-1.341C.029 30.845.04 27.738.052 24.733c.011-3.008.023-6.119-.032-8.882l3-.061c.056 2.799.044 5.928.033 8.954-.01 2.639-.02 5.356.015 7.836 6.985 2.827 15.021 2.961 22.802 3.09 2.474.041 4.812.08 7.131.201 2.319-.121 4.657-.16 7.131-.201 7.781-.129 15.817-.263 22.804-3.091.035-2.334.024-4.855.014-7.302-.012-2.827-.025-5.751.033-8.414l3 .065c-.057 2.623-.044 5.527-.032 8.335.012 2.81.025 5.714-.032 8.349l-.892 1.339c-7.743 3.434-16.437 3.579-24.844 3.719-2.474.041-4.811.08-7.101.202z"/><path d="M33.08 23.874h-.159c-2.291-.122-4.629-.161-7.103-.202-8.407-.14-17.101-.285-24.842-3.719l-.891-1.326C.022 16.53.037 14.29.052 12.122.067 9.772.084 7.34 0 5.107l1.275-1.54 4.602-.693.447 2.967-3.287.495c.041 1.903.027 3.882.014 5.808-.012 1.809-.025 3.67.008 5.436 6.986 2.83 15.024 2.964 22.807 3.093 2.475.042 4.813.08 7.133.202 2.32-.122 4.659-.16 7.133-.202 7.778-.129 15.811-.263 22.795-3.089.009-.85.015-1.735.021-2.64.018-2.729.037-5.535.135-8.104l-1.131.021-.057-2.999 2.732-.052 1.526 1.583c-.161 2.905-.184 6.294-.206 9.572a485.46 485.46 0 0 1-.033 3.639l-.892 1.35c-7.742 3.434-16.435 3.579-24.842 3.719-2.475.042-4.812.08-7.104.202z"/><path d="M64.417 5.292C54.726.994 43.091 2.034 33 1.498 22.911 2.034 11.272.993 1.584 5.292 11.274 9.59 22.91 8.55 33.001 9.086c10.09-.536 21.728.505 31.417-3.794z"/><path d="M33.08 10.584h-.159c-2.291-.122-4.627-.161-7.101-.202-8.408-.14-17.101-.285-24.844-3.719V3.92C8.717.486 17.411.341 25.819.202 28.293.161 30.63.122 32.921 0h.159c2.291.122 4.627.161 7.101.202 8.407.14 17.101.285 24.844 3.719v2.742c-7.741 3.434-16.434 3.579-24.842 3.719-2.475.042-4.812.08-7.104.202zM5.936 5.292c6.272 1.863 13.198 1.979 19.934 2.091 2.474.041 4.811.08 7.13.201 2.32-.122 4.659-.16 7.133-.202 6.736-.112 13.661-.227 19.931-2.09-6.272-1.863-13.198-1.978-19.933-2.09-2.474-.041-4.812-.08-7.131-.201-2.319.121-4.657.16-7.131.201-6.736.112-13.662.227-19.933 2.09z"/></g></svg></g></svg>