<svg width="96" height="96" viewBox="0 0 96 96" fill="none" xmlns="http://www.w3.org/2000/svg">
<g id="icons8-linkedin-circled">
<path id="Vector" d="M48 87C26.496 87 9 69.5055 9 48C9 26.496 26.496 9 48 9C69.504 9 87 26.496 87 48C87 69.5055 69.504 87 48 87ZM48 12C28.1505 12 12 28.1505 12 48C12 67.8495 28.1505 84 48 84C67.8495 84 84 67.8495 84 48C84 28.1505 67.8495 12 48 12Z" fill="url(#paint0_linear_55_2)"/>
<path id="Vector_2" d="M37.5 39H28.5V66H37.5V39Z" fill="#0A4399"/>
<path id="Vector_3" d="M33.75 36C36.6495 36 39 33.9853 39 31.5C39 29.0147 36.6495 27 33.75 27C30.8505 27 28.5 29.0147 28.5 31.5C28.5 33.9853 30.8505 36 33.75 36Z" fill="#0A4399"/>
<g id="Group">
<path id="Vector_4" d="M60 39H59.2065H59.205C55.9245 39 53.205 41.358 52.6245 44.4705H52.5V39H43.5V66H52.5V53.118V50.8245C52.5105 50.256 52.5555 49.731 52.626 49.2345C53.088 47.2395 54.8655 45.75 57 45.75C59.4855 45.75 61.5 47.7645 61.5 50.25V51.0885V52.8525V66H70.5V52.323V51.0885V49.5C70.5 43.701 65.799 39 60 39Z" fill="#0A4399"/>
</g>
</g>
<defs>
<linearGradient id="paint0_linear_55_2" x1="48" y1="9" x2="48" y2="87" gradientUnits="userSpaceOnUse">
<stop stop-color="#1A6DFF"/>
<stop offset="1" stop-color="#C822FF"/>
</linearGradient>
</defs>
</svg>
