<svg width="96" height="96" viewBox="0 0 96 96" fill="none" xmlns="http://www.w3.org/2000/svg">
<g id="icons8-analyze">
<path id="Vector" d="M48 46.5H36V49.5H48V46.5Z" fill="url(#paint0_linear_33_250)"/>
<path id="Vector_2" d="M48 52.5H34.5V55.5H48V52.5Z" fill="url(#paint1_linear_33_250)"/>
<path id="Vector_3" d="M44.9265 30H31.5735C30.705 30 30 29.295 30 28.4265V19.5735C30 18.705 30.705 18 31.5735 18H44.9265C45.795 18 46.5 18.705 46.5 19.5735V28.4265C46.5 29.295 45.795 30 44.9265 30Z" fill="url(#paint2_linear_33_250)"/>
<path id="Vector_4" d="M49.5 68.9235C57.069 68.1675 63 61.764 63 54C63 49.914 61.353 46.2075 58.6935 43.5H66V40.5H54.495C52.527 39.549 50.3295 39 48 39C45.6705 39 43.4745 39.549 41.505 40.5H30V43.5H37.3065C36.426 44.397 35.6655 45.4065 35.0295 46.5H30V49.5H33.6915C33.3885 50.463 33.1785 51.465 33.075 52.5H30V55.5H33.0765C33.783 62.5755 39.426 68.217 46.5 68.922V72H42V82.5C42 84.981 44.019 87 46.5 87H49.5C51.981 87 54 84.981 54 82.5V72H49.5V68.9235ZM36 54C36 47.3835 41.3835 42 48 42C54.6165 42 60 47.3835 60 54C60 60.6165 54.6165 66 48 66C41.3835 66 36 60.6165 36 54ZM51 82.5C51 83.328 50.328 84 49.5 84H46.5C45.672 84 45 83.328 45 82.5V81H51V82.5ZM51 75V78H45V75H51Z" fill="url(#paint3_linear_33_250)"/>
<path id="Vector_5" d="M74.3025 22.6815L62.8185 11.196C61.4025 9.78 59.52 9 57.516 9H27C22.8645 9 19.5 12.363 19.5 16.4985V61.5V73.4985C19.5 77.6355 22.8645 81 27 81H39V78H27C24.519 78 22.5 75.9795 22.5 73.4985V73.461C23.757 74.4135 25.305 75 27 75H39V72H27C24.519 72 22.5 69.981 22.5 67.5V61.5V16.4985C22.5 14.019 24.519 12 27 12H57.516C57.852 12 58.179 12.045 58.5 12.117V19.4985C58.5 23.6355 61.8645 27 66 27H73.38C73.4535 27.3225 73.5 27.651 73.5 27.984V66V67.5C73.5 69.981 71.481 72 69 72H57V75H69C70.695 75 72.243 74.4135 73.5 73.461V73.4985C73.5 75.9795 71.481 78 69 78H57V81H69C73.1355 81 76.5 77.6355 76.5 73.4985V67.4985V66V27.984C76.5 25.9815 75.7185 24.0975 74.3025 22.6815ZM66 24C63.519 24 61.5 21.9795 61.5 19.4985V14.1195L71.379 24H66Z" fill="url(#paint4_linear_33_250)"/>
<path id="Vector_6" d="M66 34.5H30V37.5H66V34.5Z" fill="url(#paint5_linear_33_250)"/>
</g>
<defs>
<linearGradient id="paint0_linear_33_250" x1="42" y1="46.5" x2="42" y2="49.5" gradientUnits="userSpaceOnUse">
<stop stop-color="white"/>
<stop offset="1" stop-color="#B28CF1"/>
</linearGradient>
<linearGradient id="paint1_linear_33_250" x1="41.25" y1="52.5" x2="41.25" y2="55.5" gradientUnits="userSpaceOnUse">
<stop stop-color="#8AB4FF"/>
<stop offset="1" stop-color="#B28CF1"/>
</linearGradient>
<linearGradient id="paint2_linear_33_250" x1="38.25" y1="17.4" x2="38.25" y2="31.2525" gradientUnits="userSpaceOnUse">
<stop stop-color="#50A4F2"/>
<stop offset="1" stop-color="#B28CF1"/>
</linearGradient>
<linearGradient id="paint3_linear_33_250" x1="48" y1="8.9685" x2="48" y2="84.4185" gradientUnits="userSpaceOnUse">
<stop stop-color="#C822FF"/>
<stop offset="1" stop-color="#7028E4"/>
</linearGradient>
<linearGradient id="paint4_linear_33_250" x1="48" y1="9" x2="48" y2="84.45" gradientUnits="userSpaceOnUse">
<stop stop-color="#50A4F2"/>
<stop offset="1" stop-color="#7028E4"/>
</linearGradient>
<linearGradient id="paint5_linear_33_250" x1="48" y1="8.9685" x2="48" y2="84.4185" gradientUnits="userSpaceOnUse">
<stop stop-color="#E5B2CA"/>
<stop offset="1" stop-color="#7028E4"/>
</linearGradient>
</defs>
</svg>
