<svg xmlns="http://www.w3.org/2000/svg"  viewBox="0 0 64 64" width="96px" height="96px"><linearGradient id="0DhppJMGbRguWINKRx6Awa" x1="11" x2="11" y1="8.333" y2="56.177" gradientUnits="userSpaceOnUse" spreadMethod="reflect"><stop offset="0" stop-color="#1A6DFF"/><stop offset="1" stop-color="#C822FF"/></linearGradient><path fill="url(#0DhppJMGbRguWINKRx6Awa)" d="M8,21H7v-2h1c2.757,0,5-2.243,5-5v-1h2v1C15,17.86,11.86,21,8,21z"/><linearGradient id="0DhppJMGbRguWINKRx6Awb" x1="11" x2="11" y1="8.333" y2="56.177" gradientUnits="userSpaceOnUse" spreadMethod="reflect"><stop offset="0" stop-color="#1A6DFF"/><stop offset="1" stop-color="#C822FF"/></linearGradient><path fill="url(#0DhppJMGbRguWINKRx6Awb)" d="M15,55h-2v-1c0-2.757-2.243-5-5-5H7v-2h1c3.86,0,7,3.14,7,7V55z"/><linearGradient id="0DhppJMGbRguWINKRx6Awc" x1="53" x2="53" y1="8.333" y2="56.177" gradientUnits="userSpaceOnUse" spreadMethod="reflect"><stop offset="0" stop-color="#1A6DFF"/><stop offset="1" stop-color="#C822FF"/></linearGradient><path fill="url(#0DhppJMGbRguWINKRx6Awc)" d="M57,21h-1c-3.86,0-7-3.14-7-7v-1h2v1c0,2.757,2.243,5,5,5h1V21z"/><linearGradient id="0DhppJMGbRguWINKRx6Awd" x1="53" x2="53" y1="8.333" y2="56.177" gradientUnits="userSpaceOnUse" spreadMethod="reflect"><stop offset="0" stop-color="#1A6DFF"/><stop offset="1" stop-color="#C822FF"/></linearGradient><path fill="url(#0DhppJMGbRguWINKRx6Awd)" d="M51,55h-2v-1c0-3.86,3.14-7,7-7h1v2h-1c-2.757,0-5,2.243-5,5V55z"/><linearGradient id="0DhppJMGbRguWINKRx6Awe" x1="32" x2="32" y1="8.333" y2="56.177" gradientUnits="userSpaceOnUse" spreadMethod="reflect"><stop offset="0" stop-color="#1A6DFF"/><stop offset="1" stop-color="#C822FF"/></linearGradient><path fill="url(#0DhppJMGbRguWINKRx6Awe)" d="M9 8H55V10H9z"/><linearGradient id="0DhppJMGbRguWINKRx6Awf" x1="32" x2="32" y1="8.333" y2="56.177" gradientUnits="userSpaceOnUse" spreadMethod="reflect"><stop offset="0" stop-color="#1A6DFF"/><stop offset="1" stop-color="#C822FF"/></linearGradient><path fill="url(#0DhppJMGbRguWINKRx6Awf)" d="M55,12H9c-1.654,0-3,1.346-3,3v38c0,1.654,1.346,3,3,3h46c1.654,0,3-1.346,3-3V15 C58,13.346,56.654,12,55,12z M56,53c0,0.551-0.449,1-1,1H9c-0.551,0-1-0.449-1-1V15c0-0.551,0.449-1,1-1h46c0.551,0,1,0.449,1,1V53z"/><linearGradient id="0DhppJMGbRguWINKRx6Awg" x1="32" x2="32" y1="43" y2="45" gradientUnits="userSpaceOnUse" spreadMethod="reflect"><stop offset="0" stop-color="#8ab4ff"/><stop offset="1" stop-color="#e492ff"/></linearGradient><path fill="url(#0DhppJMGbRguWINKRx6Awg)" d="M17 43H47V45H17z"/><linearGradient id="0DhppJMGbRguWINKRx6Awh" x1="32" x2="32" y1="47" y2="49" gradientUnits="userSpaceOnUse" spreadMethod="reflect"><stop offset="0" stop-color="#8ab4ff"/><stop offset="1" stop-color="#e492ff"/></linearGradient><path fill="url(#0DhppJMGbRguWINKRx6Awh)" d="M21 47H43V49H21z"/><linearGradient id="0DhppJMGbRguWINKRx6Awi" x1="32" x2="32" y1="8.5" y2="56.131" gradientUnits="userSpaceOnUse" spreadMethod="reflect"><stop offset="0" stop-color="#1A6DFF"/><stop offset="1" stop-color="#C822FF"/></linearGradient><path fill="url(#0DhppJMGbRguWINKRx6Awi)" d="M35,37h-9v-2h9c0.551,0,1-0.449,1-1v-3c0-0.551-0.449-1-1-1h-6c-1.654,0-3-1.346-3-3v-3 c0-1.654,1.346-3,3-3h8v2h-8c-0.551,0-1,0.449-1,1v3c0,0.551,0.449,1,1,1h6c1.654,0,3,1.346,3,3v3C38,35.654,36.654,37,35,37z"/><linearGradient id="0DhppJMGbRguWINKRx6Awj" x1="32" x2="32" y1="8.5" y2="56.131" gradientUnits="userSpaceOnUse" spreadMethod="reflect"><stop offset="0" stop-color="#1A6DFF"/><stop offset="1" stop-color="#C822FF"/></linearGradient><path fill="url(#0DhppJMGbRguWINKRx6Awj)" d="M31 19H33V22H31z"/><linearGradient id="0DhppJMGbRguWINKRx6Awk" x1="32" x2="32" y1="8.5" y2="56.131" gradientUnits="userSpaceOnUse" spreadMethod="reflect"><stop offset="0" stop-color="#1A6DFF"/><stop offset="1" stop-color="#C822FF"/></linearGradient><path fill="url(#0DhppJMGbRguWINKRx6Awk)" d="M31 36H33V39H31z"/><linearGradient id="0DhppJMGbRguWINKRx6Awl" x1="16.5" x2="16.5" y1="26" y2="33" gradientUnits="userSpaceOnUse" spreadMethod="reflect"><stop offset="0" stop-color="#8ab4ff"/><stop offset="1" stop-color="#e492ff"/></linearGradient><path fill="url(#0DhppJMGbRguWINKRx6Awl)" d="M20,33h-7c-0.552,0-1-0.448-1-1v-5c0-0.552,0.448-1,1-1h7c0.552,0,1,0.448,1,1v5 C21,32.552,20.552,33,20,33z"/><linearGradient id="0DhppJMGbRguWINKRx6Awm" x1="47.5" x2="47.5" y1="26" y2="33" gradientUnits="userSpaceOnUse" spreadMethod="reflect"><stop offset="0" stop-color="#8ab4ff"/><stop offset="1" stop-color="#e492ff"/></linearGradient><path fill="url(#0DhppJMGbRguWINKRx6Awm)" d="M51,33h-7c-0.552,0-1-0.448-1-1v-5c0-0.552,0.448-1,1-1h7c0.552,0,1,0.448,1,1v5 C52,32.552,51.552,33,51,33z"/></svg>