<svg xmlns="http://www.w3.org/2000/svg"  viewBox="0 0 64 64" width="96px" height="96px"><linearGradient id="NslVXDhCwnDfAVta1tpPCa" x1="32" x2="32" y1="5" y2="59.259" gradientUnits="userSpaceOnUse" spreadMethod="reflect"><stop offset="0" stop-color="#1A6DFF"/><stop offset="1" stop-color="#C822FF"/></linearGradient><path fill="url(#NslVXDhCwnDfAVta1tpPCa)" d="M35,58h-6c-1.654,0-3-1.346-3-3V38H9c-1.654,0-3-1.346-3-3v-6c0-1.654,1.346-3,3-3h17V9 c0-1.654,1.346-3,3-3h6c1.654,0,3,1.346,3,3v17h17c1.654,0,3,1.346,3,3v6c0,1.654-1.346,3-3,3H38v17C38,56.654,36.654,58,35,58z M9,28c-0.552,0-1,0.448-1,1v6c0,0.552,0.448,1,1,1h19v19c0,0.552,0.448,1,1,1h6c0.552,0,1-0.448,1-1V36h19c0.552,0,1-0.448,1-1v-6 c0-0.552-0.448-1-1-1H36V9c0-0.552-0.448-1-1-1h-6c-0.552,0-1,0.448-1,1v19H9z"/><linearGradient id="NslVXDhCwnDfAVta1tpPCb" x1="32" x2="32" y1="9" y2="55.024" gradientUnits="userSpaceOnUse" spreadMethod="reflect"><stop offset="0" stop-color="#8ab4ff"/><stop offset="1" stop-color="#e492ff"/></linearGradient><path fill="url(#NslVXDhCwnDfAVta1tpPCb)" d="M53,30H34V11c0-0.552-0.448-1-1-1h-2c-0.552,0-1,0.448-1,1v19H11c-0.552,0-1,0.448-1,1v2 c0,0.552,0.448,1,1,1h19v19c0,0.552,0.448,1,1,1h2c0.552,0,1-0.448,1-1V34h19c0.552,0,1-0.448,1-1v-2C54,30.448,53.552,30,53,30z"/></svg>