<svg xmlns="http://www.w3.org/2000/svg"  viewBox="0 0 64 64" width="96px" height="96px"><linearGradient id="_rHgyGc4Gvc01ZWhxGc5aa" x1="28" x2="28" y1="37.425" y2="48.653" gradientUnits="userSpaceOnUse"><stop offset="0" stop-color="#8ab4ff"/><stop offset="1" stop-color="#e492ff"/></linearGradient><circle cx="28" cy="43" r="5" fill="url(#_rHgyGc4Gvc01ZWhxGc5aa)"/><linearGradient id="_rHgyGc4Gvc01ZWhxGc5ab" x1="32" x2="32" y1="4.532" y2="55.852" gradientUnits="userSpaceOnUse"><stop offset="0" stop-color="#1A6DFF"/><stop offset="1" stop-color="#C822FF"/></linearGradient><path fill="url(#_rHgyGc4Gvc01ZWhxGc5ab)" d="M54,11c0-2.757-2.243-5-5-5H15c-2.757,0-5,2.243-5,5v38h11v7.07 c0,0.75,0.414,1.431,1.079,1.775c0.668,0.347,1.461,0.291,2.073-0.141L28,54.99l3.848,2.715c0.345,0.243,0.747,0.366,1.151,0.366 c0.314,0,0.63-0.074,0.922-0.226C34.586,57.501,35,56.82,35,56.07V49h11V19h8V11z M28,50c-3.859,0-7-3.141-7-7s3.141-7,7-7 s7,3.141,7,7S31.859,50,28,50z M29.153,53.356c-0.689-0.488-1.618-0.487-2.306-0.001L23,56.07v-5.592 C24.431,51.438,26.151,52,28,52s3.569-0.562,5-1.522v5.592L29.153,53.356z M44,47h-7.95c0.602-1.207,0.95-2.562,0.95-4 c0-4.963-4.037-9-9-9s-9,4.037-9,9c0,1.438,0.347,2.793,0.95,4H12V11c0-1.654,1.346-3,3-3h30.026C44.391,8.838,44,9.87,44,11V47z M52,17h-6v-6c0-1.654,1.346-3,3-3s3,1.346,3,3V17z"/><linearGradient id="_rHgyGc4Gvc01ZWhxGc5ac" x1="28" x2="28" y1="4.532" y2="55.852" gradientUnits="userSpaceOnUse"><stop offset="0" stop-color="#1A6DFF"/><stop offset="1" stop-color="#C822FF"/></linearGradient><rect width="22" height="2" x="17" y="24" fill="url(#_rHgyGc4Gvc01ZWhxGc5ac)"/><linearGradient id="_rHgyGc4Gvc01ZWhxGc5ad" x1="28" x2="28" y1="4.532" y2="55.852" gradientUnits="userSpaceOnUse"><stop offset="0" stop-color="#1A6DFF"/><stop offset="1" stop-color="#C822FF"/></linearGradient><rect width="16" height="2" x="20" y="19" fill="url(#_rHgyGc4Gvc01ZWhxGc5ad)"/><linearGradient id="_rHgyGc4Gvc01ZWhxGc5ae" x1="28" x2="28" y1="4.532" y2="55.852" gradientUnits="userSpaceOnUse"><stop offset="0" stop-color="#1A6DFF"/><stop offset="1" stop-color="#C822FF"/></linearGradient><rect width="22" height="2" x="17" y="14" fill="url(#_rHgyGc4Gvc01ZWhxGc5ae)"/><linearGradient id="_rHgyGc4Gvc01ZWhxGc5af" x1="28" x2="28" y1="4.532" y2="55.852" gradientUnits="userSpaceOnUse"><stop offset="0" stop-color="#1A6DFF"/><stop offset="1" stop-color="#C822FF"/></linearGradient><rect width="16" height="2" x="20" y="29" fill="url(#_rHgyGc4Gvc01ZWhxGc5af)"/></svg>