<svg width="244" height="50" viewBox="0 0 244 50" fill="none" xmlns="http://www.w3.org/2000/svg">
<g id="logo" clip-path="url(#clip0_49_650)">
<g id="content-logo">
<path id="INGDE" d="M-0.179688 40.6641V9.00195C-0.179688 8.3418 0.0572917 7.77474 0.53125 7.30078C1.00521 6.82682 1.57227 6.58984 2.23242 6.58984H6.95508C7.64909 6.58984 8.22461 6.82682 8.68164 7.30078C9.1556 7.77474 9.39258 8.3418 9.39258 9.00195V40.6133C9.39258 41.2734 9.14714 41.8405 8.65625 42.3145C8.18229 42.7715 7.61523 43 6.95508 43H2.23242C1.57227 43 1.00521 42.7799 0.53125 42.3398C0.0572917 41.8828 -0.179688 41.3242 -0.179688 40.6641ZM16.6797 40.6133V9.00195C16.6797 8.3418 16.9082 7.77474 17.3652 7.30078C17.8223 6.82682 18.3809 6.58984 19.041 6.58984H26.5059C27.0983 6.58984 27.7246 6.82682 28.3848 7.30078C29.0449 7.77474 29.5866 8.3418 30.0098 9.00195L45.3457 32.5898V8.95117C45.3457 8.29102 45.5742 7.73242 46.0312 7.27539C46.5052 6.81836 47.0723 6.58984 47.7324 6.58984H52.0996C52.7598 6.58984 53.3184 6.81836 53.7754 7.27539C54.2493 7.73242 54.4863 8.30794 54.4863 9.00195V40.6133C54.4863 41.2734 54.2493 41.8405 53.7754 42.3145C53.3184 42.7715 52.7598 43 52.0996 43H43.6699C43.0098 43 42.3327 42.7715 41.6387 42.3145C40.9447 41.8405 40.3945 41.2734 39.9883 40.6133L25.9473 18.8281V40.6133C25.9473 41.2734 25.7103 41.8405 25.2363 42.3145C24.7793 42.7715 24.2207 43 23.5605 43H19.0918C18.4316 43 17.8646 42.7715 17.3906 42.3145C16.9167 41.8405 16.6797 41.2734 16.6797 40.6133ZM77.1348 43.2031C71.515 43.2031 67.1986 41.6882 64.1855 38.6582C61.1895 35.6283 59.6914 30.9987 59.6914 24.7695C59.6914 18.5234 61.2572 13.9023 64.3887 10.9062C67.5371 7.89323 72.2513 6.38672 78.5312 6.38672H84.1934C87.9342 6.38672 91.3027 7.28385 94.2988 9.07812C97.3118 10.8555 98.8184 13.0814 98.8184 15.7559C98.8184 16.7546 98.5221 17.474 97.9297 17.9141C97.3372 18.3372 96.7617 18.5488 96.2031 18.5488H93.1816C91.7259 18.5488 90.5664 17.7194 89.7031 16.0605C88.8398 14.4017 86.707 13.5723 83.3047 13.5723H78.7852C75.0781 13.5723 72.5645 14.3678 71.2441 15.959C69.9238 17.5501 69.2637 20.4785 69.2637 24.7441C69.2637 29.0098 69.8561 31.9635 71.041 33.6055C72.2259 35.2305 74.3418 36.043 77.3887 36.043H82.5938C85.319 36.043 87.2656 35.5267 88.4336 34.4941C89.6016 33.4447 90.2025 31.9466 90.2363 30H84.498C83.8379 30 83.2708 29.7715 82.7969 29.3145C82.3398 28.8405 82.1113 28.2734 82.1113 27.6133V25.6328C82.1113 24.9727 82.3398 24.4141 82.7969 23.957C83.2708 23.4831 83.8379 23.2461 84.498 23.2461H97.2441C97.9043 23.2461 98.4629 23.4831 98.9199 23.957C99.3939 24.4141 99.6309 24.9727 99.6309 25.6328V28.4512C99.6309 33.1908 98.209 36.8385 95.3652 39.3945C92.5215 41.9336 88.349 43.2031 82.8477 43.2031H77.1348ZM104.836 40.6641V9.05273C104.836 8.35872 105.073 7.77474 105.547 7.30078C106.021 6.82682 106.588 6.58984 107.248 6.58984H121.441C128.788 6.58984 134.128 8.0625 137.463 11.0078C140.814 13.9362 142.49 18.5404 142.49 24.8203C142.49 31.0833 140.814 35.679 137.463 38.6074C134.128 41.5358 128.788 43 121.441 43H107.248C106.588 43 106.021 42.7799 105.547 42.3398C105.073 41.8828 104.836 41.3242 104.836 40.6641ZM114.408 35.8145H121.162C125.715 35.8145 128.813 34.985 130.455 33.3262C132.097 31.6673 132.918 28.832 132.918 24.8203C132.918 20.7917 132.097 17.9479 130.455 16.2891C128.813 14.6133 125.715 13.7754 121.162 13.7754H114.408V35.8145ZM147.695 40.5625V8.95117C147.695 8.29102 147.932 7.73242 148.406 7.27539C148.88 6.81836 149.447 6.58984 150.107 6.58984H179.383C180.043 6.58984 180.602 6.82682 181.059 7.30078C181.533 7.77474 181.77 8.3418 181.77 9.00195V11.3887C181.77 12.0488 181.533 12.6159 181.059 13.0898C180.602 13.5469 180.043 13.7754 179.383 13.7754H157.268V21.1641H176.311C176.971 21.1641 177.529 21.401 177.986 21.875C178.46 22.332 178.697 22.8906 178.697 23.5508V25.9375C178.697 26.5977 178.46 27.1647 177.986 27.6387C177.529 28.0957 176.971 28.3242 176.311 28.3242H157.268V35.8145H179.332C179.975 35.8145 180.525 36.043 180.982 36.5C181.439 36.957 181.668 37.5156 181.668 38.1758V40.6133C181.668 41.2734 181.431 41.8405 180.957 42.3145C180.483 42.7715 179.916 43 179.256 43H150.107C149.447 43 148.88 42.7715 148.406 42.3145C147.932 41.8405 147.695 41.2565 147.695 40.5625Z" fill="#06294B"/>
<g id="v">
<path id="blue-3" d="M213 43L185.287 7L240.713 7L213 43Z" fill="black"/>
<path id="blue-3_2" d="M212.868 37.1277L189.6 7.03195L236.136 7.03195L212.868 37.1277Z" fill="url(#paint0_linear_49_650)"/>
</g>
</g>
</g>
<defs>
<linearGradient id="paint0_linear_49_650" x1="212.868" y1="37.1277" x2="212.868" y2="-2.99998" gradientUnits="userSpaceOnUse">
<stop offset="0.15625" stop-color="#3796F0"/>
<stop offset="1" stop-color="#9E00FF" stop-opacity="0.54"/>
</linearGradient>
<clipPath id="clip0_49_650">
<rect width="244" height="50" fill="white"/>
</clipPath>
</defs>
</svg>
