<svg width="311" height="80" viewBox="0 0 311 80" fill="none" xmlns="http://www.w3.org/2000/svg">
<g id="blue-arrows">
<path id="blue-1" d="M40 40L10 74.641L10 5.35898L40 40Z" fill="#009CFE"/>
<path id="blue-2" d="M56 40L26 74.641L26 5.35898L56 40Z" fill="#011C39"/>
<path id="blue-3" d="M76 40L46 74.641L46 5.35898L76 40Z" fill="#009CFE"/>
<path id="blue-4" d="M96 40L66 74.641L66 5.35898L96 40Z" fill="#009CFE" fill-opacity="0.2"/>
<path id="blue-5" d="M116 40L86 74.641L86 5.35898L116 40Z" fill="#009CFE" fill-opacity="0.28"/>
<path id="blue-6" d="M136 40L106 74.641L106 5.35898L136 40Z" fill="#009CFE" fill-opacity="0.35"/>
<path id="blue-7" d="M156 40L126 74.641L126 5.35898L156 40Z" fill="#009CFE" fill-opacity="0.46"/>
<path id="blue-8" d="M176 40L146 74.641V5.35898L176 40Z" fill="#009CFE" fill-opacity="0.57"/>
<path id="blue-9" d="M196 40L166 74.641V5.35898L196 40Z" fill="#009CFE" fill-opacity="0.6"/>
<path id="blue-10" d="M216 40L186 74.641V5.35898L216 40Z" fill="#009CFE" fill-opacity="0.68"/>
<path id="blue-11" d="M236 40L206 74.641V5.35898L236 40Z" fill="#009CFE" fill-opacity="0.79"/>
<path id="blue-12" d="M256 40L226 74.641V5.35898L256 40Z" fill="#009CFE" fill-opacity="0.87"/>
<path id="blue-13" d="M276 40L246 74.641V5.35898L276 40Z" fill="#009CFE" fill-opacity="0.93"/>
<path id="blue-14" d="M296 40L266 74.641V5.35898L296 40Z" fill="#009CFE"/>
</g>
</svg>
