<svg xmlns="http://www.w3.org/2000/svg" xmlns:xlink="http://www.w3.org/1999/xlink" width="500" zoomAndPan="magnify" viewBox="0 0 375 374.999991" height="500" preserveAspectRatio="xMidYMid meet" version="1.0"><defs><clipPath id="4865edcaae"><path d="M 22 8.84375 L 351.695312 8.84375 L 351.695312 368.09375 L 22 368.09375 Z M 22 8.84375 " clip-rule="nonzero"/></clipPath><clipPath id="bf18324243"><path d="M 128 65 L 340 65 L 340 368.09375 L 128 368.09375 Z M 128 65 " clip-rule="nonzero"/></clipPath></defs><g clip-path="url(#4865edcaae)"><path fill="#009cfe" d="M 53.238281 334.144531 L 22.140625 368.09375 L 100.125 368.09375 L 121.851562 337.023438 L 300.394531 81.585938 L 322.105469 50.519531 L 351.25 8.84375 L 313.058594 50.519531 L 284.601562 81.585938 Z M 53.238281 334.144531 " fill-opacity="1" fill-rule="evenodd"/></g><path fill="#a066cb" d="M 53.238281 81.585938 L 260.617188 81.585938 L 296.921875 50.519531 L 22.140625 50.519531 L 22.140625 333.585938 L 53.238281 299.652344 L 225.410156 111.707031 L 53.238281 259.011719 Z M 53.238281 81.585938 " fill-opacity="1" fill-rule="evenodd"/><g clip-path="url(#bf18324243)"><path fill="#a066cb" d="M 308.898438 110.132812 L 308.898438 337.023438 L 177.242188 337.023438 L 292.1875 134.015625 L 128.566406 368.09375 L 339.976562 368.09375 L 339.976562 65.660156 Z M 308.898438 110.132812 " fill-opacity="1" fill-rule="evenodd"/></g></svg>