<svg xmlns="http://www.w3.org/2000/svg" xmlns:xlink="http://www.w3.org/1999/xlink" width="500" zoomAndPan="magnify" viewBox="0 0 375 374.999991" height="500" preserveAspectRatio="xMidYMid meet" version="1.0"><defs><clipPath id="1e14a722f2"><path d="M 22 6.847656 L 353 6.847656 L 353 368.347656 L 22 368.347656 Z M 22 6.847656 " clip-rule="nonzero"/></clipPath><clipPath id="cb0ba59afd"><path d="M 129 64 L 342 64 L 342 368.347656 L 129 368.347656 Z M 129 64 " clip-rule="nonzero"/></clipPath></defs><g clip-path="url(#1e14a722f2)"><path fill="#299ad6" d="M 53.386719 334.1875 L 22.148438 368.347656 L 100.488281 368.347656 L 122.308594 337.085938 L 301.660156 80.046875 L 323.464844 48.785156 L 352.742188 6.847656 L 314.378906 48.785156 L 285.792969 80.046875 Z M 53.386719 334.1875 " fill-opacity="1" fill-rule="evenodd"/></g><path fill="#315788" d="M 53.386719 80.046875 L 261.699219 80.046875 L 298.171875 48.785156 L 22.148438 48.785156 L 22.148438 333.625 L 53.386719 299.480469 L 226.335938 110.355469 L 53.386719 258.582031 Z M 53.386719 80.046875 " fill-opacity="1" fill-rule="evenodd"/><g clip-path="url(#cb0ba59afd)"><path fill="#315788" d="M 310.199219 108.773438 L 310.199219 337.085938 L 177.949219 337.085938 L 293.414062 132.804688 L 129.054688 368.347656 L 341.417969 368.347656 L 341.417969 64.019531 Z M 310.199219 108.773438 " fill-opacity="1" fill-rule="evenodd"/></g></svg>