<svg xmlns="http://www.w3.org/2000/svg" xmlns:xlink="http://www.w3.org/1999/xlink" width="180" zoomAndPan="magnify" viewBox="0 0 135 33.749998" height="45" preserveAspectRatio="xMidYMid meet" version="1.0"><defs><g/><clipPath id="f4983859c0"><path d="M 2.40625 10.804688 L 14.121094 10.804688 L 14.121094 20.746094 L 2.40625 20.746094 Z M 2.40625 10.804688 " clip-rule="nonzero"/></clipPath><clipPath id="56399390f0"><path d="M 8.15625 1.175781 L 25.726562 1.175781 L 25.726562 20.746094 L 8.15625 20.746094 Z M 8.15625 1.175781 " clip-rule="nonzero"/></clipPath><clipPath id="f69400931a"><path d="M 19.871094 1.175781 L 37.375 1.175781 L 37.375 20.746094 L 19.871094 20.746094 Z M 19.871094 1.175781 " clip-rule="nonzero"/></clipPath><clipPath id="6498f1be80"><path d="M 31 26 L 36 26 L 36 33.5 L 31 33.5 Z M 31 26 " clip-rule="nonzero"/></clipPath><clipPath id="c94fc09064"><path d="M 36 26 L 41 26 L 41 33.5 L 36 33.5 Z M 36 26 " clip-rule="nonzero"/></clipPath></defs><g clip-path="url(#f4983859c0)"><path fill="#86c7ed" d="M 11.148438 10.816406 L 5.324219 10.816406 L 2.40625 15.785156 L 5.324219 20.746094 L 11.148438 20.746094 L 14.066406 15.785156 L 11.148438 10.816406 " fill-opacity="1" fill-rule="nonzero"/></g><g clip-path="url(#56399390f0)"><path fill="#a066cb" d="M 23.882812 12.652344 L 23.6875 12.316406 L 22.808594 10.816406 L 22.804688 10.816406 L 18.882812 4.140625 L 16.972656 0.898438 L 11.148438 0.898438 L 8.230469 5.855469 L 10.195312 9.195312 L 15 17.382812 L 16.972656 20.746094 L 22.808594 20.746094 L 25.714844 15.785156 L 23.882812 12.652344 " fill-opacity="1" fill-rule="nonzero"/></g><g clip-path="url(#f69400931a)"><path fill="#f62992" d="M 35.390625 12.410156 L 35.398438 12.40625 L 30.410156 3.894531 L 30.398438 3.902344 L 28.632812 0.898438 L 22.808594 0.898438 L 19.890625 5.855469 L 22.808594 10.816406 L 25.722656 15.773438 L 25.714844 15.785156 L 28.632812 20.746094 L 34.457031 20.746094 L 37.375 15.785156 L 35.390625 12.410156 " fill-opacity="1" fill-rule="nonzero"/></g><g fill="#86c7ed" fill-opacity="1"><g transform="translate(36.385532, 21.194287)"><g><path d="M 6.828125 -19.875 L 6.828125 0 L 1.546875 0 L 1.546875 -19.875 Z M 6.828125 -19.875 "/></g></g></g><g fill="#86c7ed" fill-opacity="1"><g transform="translate(44.763929, 21.194287)"><g><path d="M 17.234375 0 L 10.578125 0 L 5.546875 -14.953125 L 5.640625 -14.359375 C 5.828125 -13.035156 5.972656 -11.796875 6.078125 -10.640625 C 6.179688 -9.492188 6.234375 -8.1875 6.234375 -6.71875 L 6.234375 0 L 1.546875 0 L 1.546875 -19.875 L 8.0625 -19.875 L 13.265625 -4.859375 C 13.035156 -6.285156 12.859375 -7.570312 12.734375 -8.71875 C 12.609375 -9.863281 12.546875 -11.179688 12.546875 -12.671875 L 12.546875 -19.875 L 17.234375 -19.875 Z M 17.234375 0 "/></g></g></g><g fill="#86c7ed" fill-opacity="1"><g transform="translate(63.550984, 21.194287)"><g><path d="M 10.515625 -20.390625 C 13.171875 -20.390625 15.453125 -19.550781 17.359375 -17.875 L 14.75 -15.15625 C 14.03125 -15.664062 13.378906 -16.039062 12.796875 -16.28125 C 12.210938 -16.519531 11.550781 -16.640625 10.8125 -16.640625 C 9.375 -16.640625 8.25 -16.085938 7.4375 -14.984375 C 6.632812 -13.878906 6.234375 -12.191406 6.234375 -9.921875 C 6.234375 -8.265625 6.363281 -6.953125 6.625 -5.984375 C 6.894531 -5.023438 7.300781 -4.332031 7.84375 -3.90625 C 8.382812 -3.488281 9.085938 -3.28125 9.953125 -3.28125 C 10.804688 -3.28125 11.585938 -3.460938 12.296875 -3.828125 L 12.296875 -7.921875 L 10.03125 -7.921875 L 9.515625 -11.546875 L 17.40625 -11.546875 L 17.40625 -1.65625 C 16.382812 -0.96875 15.222656 -0.429688 13.921875 -0.046875 C 12.628906 0.328125 11.351562 0.515625 10.09375 0.515625 C 3.875 0.515625 0.765625 -2.972656 0.765625 -9.953125 C 0.765625 -12.117188 1.1875 -13.988281 2.03125 -15.5625 C 2.882812 -17.132812 4.046875 -18.332031 5.515625 -19.15625 C 6.984375 -19.976562 8.648438 -20.390625 10.515625 -20.390625 Z M 10.515625 -20.390625 "/></g></g></g><g fill="#86c7ed" fill-opacity="1"><g transform="translate(82.109279, 21.194287)"><g><path d="M 7.484375 -19.875 C 10.628906 -19.875 13.15625 -19.160156 15.0625 -17.734375 C 16.96875 -16.316406 17.921875 -13.742188 17.921875 -10.015625 C 17.921875 -3.335938 14.578125 0 7.890625 0 L 1.546875 0 L 1.546875 -19.875 Z M 6.828125 -16.09375 L 6.828125 -3.78125 L 8.203125 -3.78125 C 9.648438 -3.78125 10.722656 -4.234375 11.421875 -5.140625 C 12.117188 -6.054688 12.46875 -7.679688 12.46875 -10.015625 C 12.46875 -11.609375 12.300781 -12.847656 11.96875 -13.734375 C 11.632812 -14.617188 11.15625 -15.234375 10.53125 -15.578125 C 9.914062 -15.921875 9.128906 -16.09375 8.171875 -16.09375 Z M 6.828125 -16.09375 "/></g></g></g><g fill="#86c7ed" fill-opacity="1"><g transform="translate(100.810549, 21.194287)"><g><path d="M 14.15625 -19.875 L 13.609375 -16.125 L 6.828125 -16.125 L 6.828125 -11.890625 L 12.75 -11.890625 L 12.75 -8.265625 L 6.828125 -8.265625 L 6.828125 -3.75 L 14.0625 -3.75 L 14.0625 0 L 1.546875 0 L 1.546875 -19.875 Z M 14.15625 -19.875 "/></g></g></g><g fill="#86c7ed" fill-opacity="1"><g transform="translate(115.765842, 21.194287)"><g><path d="M 16.984375 -19.875 L 11.71875 0 L 4.96875 0 L -0.546875 -19.875 L 5.03125 -19.875 L 8.4375 -3.859375 L 11.578125 -19.875 Z M 16.984375 -19.875 "/></g></g></g><g fill="#a066cb" fill-opacity="1"><g transform="translate(4.509568, 31.207368)"><g><path d="M 2.09375 -5.75 C 2.988281 -5.75 3.703125 -5.546875 4.234375 -5.140625 C 4.765625 -4.734375 5.03125 -3.988281 5.03125 -2.90625 C 5.03125 -1.84375 4.765625 -1.09375 4.234375 -0.65625 C 3.710938 -0.21875 3.046875 0 2.234375 0 L 0.671875 0 L 0.671875 -5.75 Z M 1.78125 -4.9375 L 1.78125 -0.828125 L 2.3125 -0.828125 C 2.800781 -0.828125 3.179688 -0.976562 3.453125 -1.28125 C 3.734375 -1.582031 3.875 -2.125 3.875 -2.90625 C 3.875 -3.445312 3.800781 -3.863281 3.65625 -4.15625 C 3.519531 -4.457031 3.335938 -4.660156 3.109375 -4.765625 C 2.878906 -4.878906 2.601562 -4.9375 2.28125 -4.9375 Z M 1.78125 -4.9375 "/></g></g></g><g fill="#a066cb" fill-opacity="1"><g transform="translate(9.900691, 31.207368)"><g><path d="M 4.25 -2.3125 C 4.25 -2.25 4.242188 -2.101562 4.234375 -1.875 L 1.46875 -1.875 C 1.5 -1.445312 1.609375 -1.140625 1.796875 -0.953125 C 1.984375 -0.773438 2.234375 -0.6875 2.546875 -0.6875 C 2.742188 -0.6875 2.925781 -0.71875 3.09375 -0.78125 C 3.269531 -0.84375 3.453125 -0.941406 3.640625 -1.078125 L 4.09375 -0.46875 C 3.601562 -0.0703125 3.054688 0.125 2.453125 0.125 C 1.785156 0.125 1.269531 -0.078125 0.90625 -0.484375 C 0.539062 -0.898438 0.359375 -1.460938 0.359375 -2.171875 C 0.359375 -2.617188 0.4375 -3.019531 0.59375 -3.375 C 0.75 -3.738281 0.972656 -4.019531 1.265625 -4.21875 C 1.554688 -4.425781 1.90625 -4.53125 2.3125 -4.53125 C 2.925781 -4.53125 3.398438 -4.332031 3.734375 -3.9375 C 4.078125 -3.550781 4.25 -3.007812 4.25 -2.3125 Z M 3.203125 -2.609375 C 3.203125 -3.378906 2.914062 -3.765625 2.34375 -3.765625 C 2.082031 -3.765625 1.875 -3.671875 1.71875 -3.484375 C 1.570312 -3.296875 1.488281 -2.988281 1.46875 -2.5625 L 3.203125 -2.5625 Z M 2.96875 -6.828125 L 3.40625 -6 L 1.53125 -5.25 L 1.21875 -5.78125 Z M 2.96875 -6.828125 "/></g></g></g><g fill="#a066cb" fill-opacity="1"><g transform="translate(14.468169, 31.207368)"><g><path d="M 4.1875 -4.40625 L 2.75 0 L 1.46875 0 L 0.015625 -4.40625 L 1.171875 -4.40625 L 2.109375 -0.859375 L 3.078125 -4.40625 Z M 4.1875 -4.40625 "/></g></g></g><g fill="#a066cb" fill-opacity="1"><g transform="translate(18.661263, 31.207368)"><g><path d="M 4.25 -2.3125 C 4.25 -2.25 4.242188 -2.101562 4.234375 -1.875 L 1.46875 -1.875 C 1.5 -1.445312 1.609375 -1.140625 1.796875 -0.953125 C 1.984375 -0.773438 2.234375 -0.6875 2.546875 -0.6875 C 2.742188 -0.6875 2.925781 -0.71875 3.09375 -0.78125 C 3.269531 -0.84375 3.453125 -0.941406 3.640625 -1.078125 L 4.09375 -0.46875 C 3.601562 -0.0703125 3.054688 0.125 2.453125 0.125 C 1.785156 0.125 1.269531 -0.078125 0.90625 -0.484375 C 0.539062 -0.898438 0.359375 -1.460938 0.359375 -2.171875 C 0.359375 -2.617188 0.4375 -3.019531 0.59375 -3.375 C 0.75 -3.738281 0.972656 -4.019531 1.265625 -4.21875 C 1.554688 -4.425781 1.90625 -4.53125 2.3125 -4.53125 C 2.925781 -4.53125 3.398438 -4.332031 3.734375 -3.9375 C 4.078125 -3.550781 4.25 -3.007812 4.25 -2.3125 Z M 3.203125 -2.609375 C 3.203125 -3.378906 2.914062 -3.765625 2.34375 -3.765625 C 2.082031 -3.765625 1.875 -3.671875 1.71875 -3.484375 C 1.570312 -3.296875 1.488281 -2.988281 1.46875 -2.5625 L 3.203125 -2.5625 Z M 3.203125 -2.609375 "/></g></g></g><g fill="#a066cb" fill-opacity="1"><g transform="translate(23.22874, 31.207368)"><g><path d="M 1.6875 0.125 C 1.34375 0.125 1.070312 0.0234375 0.875 -0.171875 C 0.6875 -0.367188 0.59375 -0.644531 0.59375 -1 L 0.59375 -6.171875 L 1.671875 -6.28125 L 1.671875 -1.046875 C 1.671875 -0.835938 1.753906 -0.734375 1.921875 -0.734375 C 2.003906 -0.734375 2.085938 -0.75 2.171875 -0.78125 L 2.390625 -0.03125 C 2.171875 0.0703125 1.9375 0.125 1.6875 0.125 Z M 1.6875 0.125 "/></g></g></g><g fill="#a066cb" fill-opacity="1"><g transform="translate(25.683033, 31.207368)"><g><path d="M 2.4375 -4.53125 C 3.09375 -4.53125 3.597656 -4.320312 3.953125 -3.90625 C 4.316406 -3.5 4.5 -2.929688 4.5 -2.203125 C 4.5 -1.742188 4.414062 -1.335938 4.25 -0.984375 C 4.082031 -0.628906 3.84375 -0.351562 3.53125 -0.15625 C 3.226562 0.03125 2.863281 0.125 2.4375 0.125 C 1.78125 0.125 1.269531 -0.078125 0.90625 -0.484375 C 0.539062 -0.898438 0.359375 -1.472656 0.359375 -2.203125 C 0.359375 -2.660156 0.441406 -3.066406 0.609375 -3.421875 C 0.773438 -3.773438 1.015625 -4.046875 1.328125 -4.234375 C 1.640625 -4.429688 2.007812 -4.53125 2.4375 -4.53125 Z M 2.4375 -3.71875 C 1.800781 -3.71875 1.484375 -3.210938 1.484375 -2.203125 C 1.484375 -1.679688 1.5625 -1.296875 1.71875 -1.046875 C 1.875 -0.804688 2.113281 -0.6875 2.4375 -0.6875 C 2.75 -0.6875 2.984375 -0.8125 3.140625 -1.0625 C 3.296875 -1.3125 3.375 -1.691406 3.375 -2.203125 C 3.375 -2.722656 3.296875 -3.101562 3.140625 -3.34375 C 2.984375 -3.59375 2.75 -3.71875 2.4375 -3.71875 Z M 2.4375 -3.71875 "/></g></g></g><g clip-path="url(#6498f1be80)"><g fill="#a066cb" fill-opacity="1"><g transform="translate(30.541699, 31.207368)"><g><path d="M 2.921875 -4.53125 C 3.472656 -4.53125 3.882812 -4.328125 4.15625 -3.921875 C 4.425781 -3.515625 4.5625 -2.945312 4.5625 -2.21875 C 4.5625 -1.757812 4.488281 -1.351562 4.34375 -1 C 4.207031 -0.644531 4.007812 -0.367188 3.75 -0.171875 C 3.488281 0.0234375 3.175781 0.125 2.8125 0.125 C 2.34375 0.125 1.972656 -0.0351562 1.703125 -0.359375 L 1.703125 1.703125 L 0.640625 1.8125 L 0.640625 -4.40625 L 1.578125 -4.40625 L 1.625 -3.859375 C 1.800781 -4.085938 2 -4.253906 2.21875 -4.359375 C 2.445312 -4.472656 2.679688 -4.53125 2.921875 -4.53125 Z M 2.515625 -0.6875 C 3.128906 -0.6875 3.4375 -1.191406 3.4375 -2.203125 C 3.4375 -2.742188 3.363281 -3.132812 3.21875 -3.375 C 3.082031 -3.613281 2.878906 -3.734375 2.609375 -3.734375 C 2.429688 -3.734375 2.265625 -3.675781 2.109375 -3.5625 C 1.953125 -3.457031 1.816406 -3.3125 1.703125 -3.125 L 1.703125 -1.15625 C 1.910156 -0.84375 2.179688 -0.6875 2.515625 -0.6875 Z M 2.515625 -0.6875 "/></g></g></g></g><g clip-path="url(#c94fc09064)"><g fill="#a066cb" fill-opacity="1"><g transform="translate(35.500199, 31.207368)"><g><path d="M 2.921875 -4.53125 C 3.472656 -4.53125 3.882812 -4.328125 4.15625 -3.921875 C 4.425781 -3.515625 4.5625 -2.945312 4.5625 -2.21875 C 4.5625 -1.757812 4.488281 -1.351562 4.34375 -1 C 4.207031 -0.644531 4.007812 -0.367188 3.75 -0.171875 C 3.488281 0.0234375 3.175781 0.125 2.8125 0.125 C 2.34375 0.125 1.972656 -0.0351562 1.703125 -0.359375 L 1.703125 1.703125 L 0.640625 1.8125 L 0.640625 -4.40625 L 1.578125 -4.40625 L 1.625 -3.859375 C 1.800781 -4.085938 2 -4.253906 2.21875 -4.359375 C 2.445312 -4.472656 2.679688 -4.53125 2.921875 -4.53125 Z M 2.515625 -0.6875 C 3.128906 -0.6875 3.4375 -1.191406 3.4375 -2.203125 C 3.4375 -2.742188 3.363281 -3.132812 3.21875 -3.375 C 3.082031 -3.613281 2.878906 -3.734375 2.609375 -3.734375 C 2.429688 -3.734375 2.265625 -3.675781 2.109375 -3.5625 C 1.953125 -3.457031 1.816406 -3.3125 1.703125 -3.125 L 1.703125 -1.15625 C 1.910156 -0.84375 2.179688 -0.6875 2.515625 -0.6875 Z M 2.515625 -0.6875 "/></g></g></g></g><g fill="#a066cb" fill-opacity="1"><g transform="translate(40.458698, 31.207368)"><g><path d="M 4.25 -2.3125 C 4.25 -2.25 4.242188 -2.101562 4.234375 -1.875 L 1.46875 -1.875 C 1.5 -1.445312 1.609375 -1.140625 1.796875 -0.953125 C 1.984375 -0.773438 2.234375 -0.6875 2.546875 -0.6875 C 2.742188 -0.6875 2.925781 -0.71875 3.09375 -0.78125 C 3.269531 -0.84375 3.453125 -0.941406 3.640625 -1.078125 L 4.09375 -0.46875 C 3.601562 -0.0703125 3.054688 0.125 2.453125 0.125 C 1.785156 0.125 1.269531 -0.078125 0.90625 -0.484375 C 0.539062 -0.898438 0.359375 -1.460938 0.359375 -2.171875 C 0.359375 -2.617188 0.4375 -3.019531 0.59375 -3.375 C 0.75 -3.738281 0.972656 -4.019531 1.265625 -4.21875 C 1.554688 -4.425781 1.90625 -4.53125 2.3125 -4.53125 C 2.925781 -4.53125 3.398438 -4.332031 3.734375 -3.9375 C 4.078125 -3.550781 4.25 -3.007812 4.25 -2.3125 Z M 3.203125 -2.609375 C 3.203125 -3.378906 2.914062 -3.765625 2.34375 -3.765625 C 2.082031 -3.765625 1.875 -3.671875 1.71875 -3.484375 C 1.570312 -3.296875 1.488281 -2.988281 1.46875 -2.5625 L 3.203125 -2.5625 Z M 3.203125 -2.609375 "/></g></g></g><g fill="#a066cb" fill-opacity="1"><g transform="translate(45.026176, 31.207368)"><g><path d="M 5.3125 -4.53125 C 5.664062 -4.53125 5.945312 -4.410156 6.15625 -4.171875 C 6.375 -3.929688 6.484375 -3.601562 6.484375 -3.1875 L 6.484375 0 L 5.40625 0 L 5.40625 -3.015625 C 5.40625 -3.492188 5.25 -3.734375 4.9375 -3.734375 C 4.757812 -3.734375 4.609375 -3.675781 4.484375 -3.5625 C 4.359375 -3.457031 4.226562 -3.289062 4.09375 -3.0625 L 4.09375 0 L 3.03125 0 L 3.03125 -3.015625 C 3.03125 -3.492188 2.867188 -3.734375 2.546875 -3.734375 C 2.367188 -3.734375 2.21875 -3.675781 2.09375 -3.5625 C 1.96875 -3.457031 1.835938 -3.289062 1.703125 -3.0625 L 1.703125 0 L 0.640625 0 L 0.640625 -4.40625 L 1.5625 -4.40625 L 1.65625 -3.828125 C 1.988281 -4.296875 2.410156 -4.53125 2.921875 -4.53125 C 3.179688 -4.53125 3.398438 -4.460938 3.578125 -4.328125 C 3.765625 -4.203125 3.898438 -4.023438 3.984375 -3.796875 C 4.160156 -4.023438 4.351562 -4.203125 4.5625 -4.328125 C 4.78125 -4.460938 5.03125 -4.53125 5.3125 -4.53125 Z M 5.3125 -4.53125 "/></g></g></g><g fill="#a066cb" fill-opacity="1"><g transform="translate(52.097864, 31.207368)"><g><path d="M 4.25 -2.3125 C 4.25 -2.25 4.242188 -2.101562 4.234375 -1.875 L 1.46875 -1.875 C 1.5 -1.445312 1.609375 -1.140625 1.796875 -0.953125 C 1.984375 -0.773438 2.234375 -0.6875 2.546875 -0.6875 C 2.742188 -0.6875 2.925781 -0.71875 3.09375 -0.78125 C 3.269531 -0.84375 3.453125 -0.941406 3.640625 -1.078125 L 4.09375 -0.46875 C 3.601562 -0.0703125 3.054688 0.125 2.453125 0.125 C 1.785156 0.125 1.269531 -0.078125 0.90625 -0.484375 C 0.539062 -0.898438 0.359375 -1.460938 0.359375 -2.171875 C 0.359375 -2.617188 0.4375 -3.019531 0.59375 -3.375 C 0.75 -3.738281 0.972656 -4.019531 1.265625 -4.21875 C 1.554688 -4.425781 1.90625 -4.53125 2.3125 -4.53125 C 2.925781 -4.53125 3.398438 -4.332031 3.734375 -3.9375 C 4.078125 -3.550781 4.25 -3.007812 4.25 -2.3125 Z M 3.203125 -2.609375 C 3.203125 -3.378906 2.914062 -3.765625 2.34375 -3.765625 C 2.082031 -3.765625 1.875 -3.671875 1.71875 -3.484375 C 1.570312 -3.296875 1.488281 -2.988281 1.46875 -2.5625 L 3.203125 -2.5625 Z M 3.203125 -2.609375 "/></g></g></g><g fill="#a066cb" fill-opacity="1"><g transform="translate(56.665342, 31.207368)"><g><path d="M 2.984375 -4.53125 C 3.378906 -4.53125 3.6875 -4.410156 3.90625 -4.171875 C 4.125 -3.941406 4.234375 -3.613281 4.234375 -3.1875 L 4.234375 0 L 3.171875 0 L 3.171875 -3.015625 C 3.171875 -3.285156 3.125 -3.472656 3.03125 -3.578125 C 2.9375 -3.679688 2.800781 -3.734375 2.625 -3.734375 C 2.445312 -3.734375 2.285156 -3.675781 2.140625 -3.5625 C 1.992188 -3.445312 1.847656 -3.28125 1.703125 -3.0625 L 1.703125 0 L 0.640625 0 L 0.640625 -4.40625 L 1.5625 -4.40625 L 1.65625 -3.828125 C 2.007812 -4.296875 2.453125 -4.53125 2.984375 -4.53125 Z M 2.984375 -4.53125 "/></g></g></g><g fill="#a066cb" fill-opacity="1"><g transform="translate(61.499048, 31.207368)"><g><path d="M 3.171875 -0.203125 C 3.015625 -0.0976562 2.835938 -0.0195312 2.640625 0.03125 C 2.453125 0.09375 2.257812 0.125 2.0625 0.125 C 1.625 0.113281 1.289062 -0.0078125 1.0625 -0.25 C 0.84375 -0.488281 0.734375 -0.84375 0.734375 -1.3125 L 0.734375 -3.640625 L 0.046875 -3.640625 L 0.046875 -4.40625 L 0.734375 -4.40625 L 0.734375 -5.375 L 1.796875 -5.5 L 1.796875 -4.40625 L 2.828125 -4.40625 L 2.71875 -3.640625 L 1.796875 -3.640625 L 1.796875 -1.34375 C 1.796875 -1.125 1.832031 -0.96875 1.90625 -0.875 C 1.988281 -0.78125 2.109375 -0.734375 2.265625 -0.734375 C 2.421875 -0.734375 2.597656 -0.785156 2.796875 -0.890625 Z M 3.171875 -0.203125 "/></g></g></g><g fill="#a066cb" fill-opacity="1"><g transform="translate(64.618906, 31.207368)"><g/></g></g><g fill="#a066cb" fill-opacity="1"><g transform="translate(66.698812, 31.207368)"><g><path d="M 6.015625 -4.40625 L 5.0625 0 L 3.734375 0 L 3.0625 -3.453125 L 2.375 0 L 1.078125 0 L 0.09375 -4.40625 L 1.171875 -4.40625 L 1.78125 -0.78125 L 2.546875 -4.40625 L 3.640625 -4.40625 L 4.34375 -0.78125 L 5 -4.40625 Z M 6.015625 -4.40625 "/></g></g></g><g fill="#a066cb" fill-opacity="1"><g transform="translate(72.805427, 31.207368)"><g><path d="M 4.25 -2.3125 C 4.25 -2.25 4.242188 -2.101562 4.234375 -1.875 L 1.46875 -1.875 C 1.5 -1.445312 1.609375 -1.140625 1.796875 -0.953125 C 1.984375 -0.773438 2.234375 -0.6875 2.546875 -0.6875 C 2.742188 -0.6875 2.925781 -0.71875 3.09375 -0.78125 C 3.269531 -0.84375 3.453125 -0.941406 3.640625 -1.078125 L 4.09375 -0.46875 C 3.601562 -0.0703125 3.054688 0.125 2.453125 0.125 C 1.785156 0.125 1.269531 -0.078125 0.90625 -0.484375 C 0.539062 -0.898438 0.359375 -1.460938 0.359375 -2.171875 C 0.359375 -2.617188 0.4375 -3.019531 0.59375 -3.375 C 0.75 -3.738281 0.972656 -4.019531 1.265625 -4.21875 C 1.554688 -4.425781 1.90625 -4.53125 2.3125 -4.53125 C 2.925781 -4.53125 3.398438 -4.332031 3.734375 -3.9375 C 4.078125 -3.550781 4.25 -3.007812 4.25 -2.3125 Z M 3.203125 -2.609375 C 3.203125 -3.378906 2.914062 -3.765625 2.34375 -3.765625 C 2.082031 -3.765625 1.875 -3.671875 1.71875 -3.484375 C 1.570312 -3.296875 1.488281 -2.988281 1.46875 -2.5625 L 3.203125 -2.5625 Z M 3.203125 -2.609375 "/></g></g></g><g fill="#a066cb" fill-opacity="1"><g transform="translate(77.372901, 31.207368)"><g><path d="M 2.921875 -4.53125 C 3.429688 -4.53125 3.832031 -4.328125 4.125 -3.921875 C 4.414062 -3.515625 4.5625 -2.941406 4.5625 -2.203125 C 4.5625 -1.753906 4.488281 -1.351562 4.34375 -1 C 4.195312 -0.644531 3.992188 -0.367188 3.734375 -0.171875 C 3.472656 0.0234375 3.164062 0.125 2.8125 0.125 C 2.570312 0.125 2.351562 0.078125 2.15625 -0.015625 C 1.957031 -0.117188 1.789062 -0.265625 1.65625 -0.453125 L 1.578125 0 L 0.640625 0 L 0.640625 -6.171875 L 1.703125 -6.28125 L 1.703125 -3.90625 C 1.847656 -4.101562 2.023438 -4.253906 2.234375 -4.359375 C 2.441406 -4.472656 2.671875 -4.53125 2.921875 -4.53125 Z M 2.53125 -0.671875 C 2.8125 -0.671875 3.03125 -0.796875 3.1875 -1.046875 C 3.351562 -1.296875 3.4375 -1.679688 3.4375 -2.203125 C 3.4375 -2.765625 3.359375 -3.160156 3.203125 -3.390625 C 3.054688 -3.617188 2.847656 -3.734375 2.578125 -3.734375 C 2.242188 -3.734375 1.953125 -3.53125 1.703125 -3.125 L 1.703125 -1.1875 C 1.796875 -1.019531 1.914062 -0.890625 2.0625 -0.796875 C 2.207031 -0.710938 2.363281 -0.671875 2.53125 -0.671875 Z M 2.53125 -0.671875 "/></g></g></g><g fill="#000000" fill-opacity="1"><g transform="translate(82.328055, 31.207368)"><g/></g></g><g fill="#ffca08" fill-opacity="1"><g transform="translate(84.407961, 31.207368)"><g><path d="M 2.5625 -5.875 C 2.894531 -5.875 3.1875 -5.816406 3.4375 -5.703125 C 3.695312 -5.597656 3.894531 -5.445312 4.03125 -5.25 C 4.164062 -5.050781 4.234375 -4.828125 4.234375 -4.578125 C 4.234375 -4.253906 4.132812 -3.96875 3.9375 -3.71875 C 3.738281 -3.476562 3.457031 -3.242188 3.09375 -3.015625 L 4.375 -1.8125 C 4.5625 -2.21875 4.710938 -2.648438 4.828125 -3.109375 L 5.75 -2.84375 C 5.539062 -2.21875 5.285156 -1.6875 4.984375 -1.25 L 5.96875 -0.359375 L 5.109375 0.125 L 4.375 -0.578125 C 3.875 -0.109375 3.265625 0.125 2.546875 0.125 C 2.160156 0.125 1.816406 0.0625 1.515625 -0.0625 C 1.222656 -0.195312 0.992188 -0.382812 0.828125 -0.625 C 0.660156 -0.863281 0.578125 -1.144531 0.578125 -1.46875 C 0.578125 -1.800781 0.671875 -2.09375 0.859375 -2.34375 C 1.046875 -2.601562 1.332031 -2.859375 1.71875 -3.109375 C 1.4375 -3.390625 1.234375 -3.628906 1.109375 -3.828125 C 0.984375 -4.035156 0.921875 -4.269531 0.921875 -4.53125 C 0.921875 -4.78125 0.984375 -5.003906 1.109375 -5.203125 C 1.234375 -5.410156 1.414062 -5.570312 1.65625 -5.6875 C 1.90625 -5.8125 2.207031 -5.875 2.5625 -5.875 Z M 2.578125 -5.15625 C 2.378906 -5.15625 2.222656 -5.097656 2.109375 -4.984375 C 2.003906 -4.878906 1.953125 -4.726562 1.953125 -4.53125 C 1.953125 -4.363281 1.992188 -4.210938 2.078125 -4.078125 C 2.160156 -3.941406 2.300781 -3.78125 2.5 -3.59375 C 2.738281 -3.738281 2.914062 -3.882812 3.03125 -4.03125 C 3.144531 -4.175781 3.203125 -4.34375 3.203125 -4.53125 C 3.203125 -4.726562 3.144531 -4.878906 3.03125 -4.984375 C 2.914062 -5.097656 2.765625 -5.15625 2.578125 -5.15625 Z M 2.328125 -2.53125 C 2.109375 -2.382812 1.945312 -2.226562 1.84375 -2.0625 C 1.738281 -1.90625 1.6875 -1.722656 1.6875 -1.515625 C 1.6875 -1.253906 1.78125 -1.046875 1.96875 -0.890625 C 2.15625 -0.742188 2.40625 -0.671875 2.71875 -0.671875 C 2.9375 -0.671875 3.128906 -0.707031 3.296875 -0.78125 C 3.472656 -0.851562 3.644531 -0.960938 3.8125 -1.109375 Z M 2.328125 -2.53125 "/></g></g></g><g fill="#000000" fill-opacity="1"><g transform="translate(90.61278, 31.207368)"><g/></g></g><g fill="#f62992" fill-opacity="1"><g transform="translate(92.692686, 31.207368)"><g><path d="M 2.421875 -5.484375 C 2.210938 -5.484375 2.0625 -5.429688 1.96875 -5.328125 C 1.875 -5.234375 1.828125 -5.082031 1.828125 -4.875 L 1.828125 -4.40625 L 2.890625 -4.40625 L 2.765625 -3.640625 L 1.828125 -3.640625 L 1.828125 0 L 0.765625 0 L 0.765625 -3.640625 L 0.046875 -3.640625 L 0.046875 -4.40625 L 0.765625 -4.40625 L 0.765625 -4.890625 C 0.765625 -5.304688 0.898438 -5.640625 1.171875 -5.890625 C 1.441406 -6.148438 1.820312 -6.28125 2.3125 -6.28125 C 2.695312 -6.28125 3.078125 -6.195312 3.453125 -6.03125 L 3.140625 -5.3125 C 2.910156 -5.425781 2.671875 -5.484375 2.421875 -5.484375 Z M 2.421875 -5.484375 "/></g></g></g><g fill="#f62992" fill-opacity="1"><g transform="translate(95.579599, 31.207368)"><g><path d="M 2.4375 -4.53125 C 3.09375 -4.53125 3.597656 -4.320312 3.953125 -3.90625 C 4.316406 -3.5 4.5 -2.929688 4.5 -2.203125 C 4.5 -1.742188 4.414062 -1.335938 4.25 -0.984375 C 4.082031 -0.628906 3.84375 -0.351562 3.53125 -0.15625 C 3.226562 0.03125 2.863281 0.125 2.4375 0.125 C 1.78125 0.125 1.269531 -0.078125 0.90625 -0.484375 C 0.539062 -0.898438 0.359375 -1.472656 0.359375 -2.203125 C 0.359375 -2.660156 0.441406 -3.066406 0.609375 -3.421875 C 0.773438 -3.773438 1.015625 -4.046875 1.328125 -4.234375 C 1.640625 -4.429688 2.007812 -4.53125 2.4375 -4.53125 Z M 2.4375 -3.71875 C 1.800781 -3.71875 1.484375 -3.210938 1.484375 -2.203125 C 1.484375 -1.679688 1.5625 -1.296875 1.71875 -1.046875 C 1.875 -0.804688 2.113281 -0.6875 2.4375 -0.6875 C 2.75 -0.6875 2.984375 -0.8125 3.140625 -1.0625 C 3.296875 -1.3125 3.375 -1.691406 3.375 -2.203125 C 3.375 -2.722656 3.296875 -3.101562 3.140625 -3.34375 C 2.984375 -3.59375 2.75 -3.71875 2.4375 -3.71875 Z M 2.4375 -3.71875 "/></g></g></g><g fill="#f62992" fill-opacity="1"><g transform="translate(100.438265, 31.207368)"><g><path d="M 2.8125 -4.515625 C 2.976562 -4.515625 3.125 -4.5 3.25 -4.46875 L 3.078125 -3.4375 C 2.941406 -3.46875 2.8125 -3.484375 2.6875 -3.484375 C 2.425781 -3.484375 2.21875 -3.390625 2.0625 -3.203125 C 1.914062 -3.015625 1.796875 -2.726562 1.703125 -2.34375 L 1.703125 0 L 0.640625 0 L 0.640625 -4.40625 L 1.5625 -4.40625 L 1.671875 -3.546875 C 1.773438 -3.859375 1.925781 -4.097656 2.125 -4.265625 C 2.320312 -4.429688 2.550781 -4.515625 2.8125 -4.515625 Z M 2.8125 -4.515625 "/></g></g></g><g fill="#f62992" fill-opacity="1"><g transform="translate(103.716199, 31.207368)"><g><path d="M 5.3125 -4.53125 C 5.664062 -4.53125 5.945312 -4.410156 6.15625 -4.171875 C 6.375 -3.929688 6.484375 -3.601562 6.484375 -3.1875 L 6.484375 0 L 5.40625 0 L 5.40625 -3.015625 C 5.40625 -3.492188 5.25 -3.734375 4.9375 -3.734375 C 4.757812 -3.734375 4.609375 -3.675781 4.484375 -3.5625 C 4.359375 -3.457031 4.226562 -3.289062 4.09375 -3.0625 L 4.09375 0 L 3.03125 0 L 3.03125 -3.015625 C 3.03125 -3.492188 2.867188 -3.734375 2.546875 -3.734375 C 2.367188 -3.734375 2.21875 -3.675781 2.09375 -3.5625 C 1.96875 -3.457031 1.835938 -3.289062 1.703125 -3.0625 L 1.703125 0 L 0.640625 0 L 0.640625 -4.40625 L 1.5625 -4.40625 L 1.65625 -3.828125 C 1.988281 -4.296875 2.410156 -4.53125 2.921875 -4.53125 C 3.179688 -4.53125 3.398438 -4.460938 3.578125 -4.328125 C 3.765625 -4.203125 3.898438 -4.023438 3.984375 -3.796875 C 4.160156 -4.023438 4.351562 -4.203125 4.5625 -4.328125 C 4.78125 -4.460938 5.03125 -4.53125 5.3125 -4.53125 Z M 5.3125 -4.53125 "/></g></g></g><g fill="#f62992" fill-opacity="1"><g transform="translate(110.787887, 31.207368)"><g><path d="M 3.890625 -1.171875 C 3.890625 -0.992188 3.914062 -0.863281 3.96875 -0.78125 C 4.03125 -0.707031 4.117188 -0.644531 4.234375 -0.59375 L 4 0.109375 C 3.75 0.0859375 3.546875 0.03125 3.390625 -0.0625 C 3.234375 -0.164062 3.113281 -0.320312 3.03125 -0.53125 C 2.882812 -0.3125 2.695312 -0.144531 2.46875 -0.03125 C 2.238281 0.0703125 1.988281 0.125 1.71875 0.125 C 1.28125 0.125 0.929688 0 0.671875 -0.25 C 0.421875 -0.5 0.296875 -0.828125 0.296875 -1.234375 C 0.296875 -1.710938 0.46875 -2.078125 0.8125 -2.328125 C 1.15625 -2.578125 1.648438 -2.703125 2.296875 -2.703125 L 2.84375 -2.703125 L 2.84375 -2.953125 C 2.84375 -3.234375 2.773438 -3.429688 2.640625 -3.546875 C 2.515625 -3.660156 2.3125 -3.71875 2.03125 -3.71875 C 1.707031 -3.71875 1.316406 -3.640625 0.859375 -3.484375 L 0.609375 -4.21875 C 1.160156 -4.425781 1.691406 -4.53125 2.203125 -4.53125 C 3.328125 -4.53125 3.890625 -4.023438 3.890625 -3.015625 Z M 2 -0.65625 C 2.363281 -0.65625 2.644531 -0.832031 2.84375 -1.1875 L 2.84375 -2.078125 L 2.40625 -2.078125 C 1.71875 -2.078125 1.375 -1.820312 1.375 -1.3125 C 1.375 -1.101562 1.425781 -0.941406 1.53125 -0.828125 C 1.632812 -0.710938 1.789062 -0.65625 2 -0.65625 Z M 2 -0.65625 "/></g></g></g><g fill="#f62992" fill-opacity="1"><g transform="translate(115.330405, 31.207368)"><g><path d="M 3.171875 -0.203125 C 3.015625 -0.0976562 2.835938 -0.0195312 2.640625 0.03125 C 2.453125 0.09375 2.257812 0.125 2.0625 0.125 C 1.625 0.113281 1.289062 -0.0078125 1.0625 -0.25 C 0.84375 -0.488281 0.734375 -0.84375 0.734375 -1.3125 L 0.734375 -3.640625 L 0.046875 -3.640625 L 0.046875 -4.40625 L 0.734375 -4.40625 L 0.734375 -5.375 L 1.796875 -5.5 L 1.796875 -4.40625 L 2.828125 -4.40625 L 2.71875 -3.640625 L 1.796875 -3.640625 L 1.796875 -1.34375 C 1.796875 -1.125 1.832031 -0.96875 1.90625 -0.875 C 1.988281 -0.78125 2.109375 -0.734375 2.265625 -0.734375 C 2.421875 -0.734375 2.597656 -0.785156 2.796875 -0.890625 Z M 3.171875 -0.203125 "/></g></g></g><g fill="#f62992" fill-opacity="1"><g transform="translate(118.450267, 31.207368)"><g><path d="M 1.703125 -4.40625 L 1.703125 0 L 0.640625 0 L 0.640625 -4.40625 Z M 1.171875 -6.640625 C 1.367188 -6.640625 1.53125 -6.578125 1.65625 -6.453125 C 1.78125 -6.328125 1.84375 -6.171875 1.84375 -5.984375 C 1.84375 -5.804688 1.78125 -5.65625 1.65625 -5.53125 C 1.53125 -5.40625 1.367188 -5.34375 1.171875 -5.34375 C 0.972656 -5.34375 0.8125 -5.40625 0.6875 -5.53125 C 0.5625 -5.65625 0.5 -5.804688 0.5 -5.984375 C 0.5 -6.171875 0.5625 -6.328125 0.6875 -6.453125 C 0.8125 -6.578125 0.972656 -6.640625 1.171875 -6.640625 Z M 1.171875 -6.640625 "/></g></g></g><g fill="#f62992" fill-opacity="1"><g transform="translate(120.796404, 31.207368)"><g><path d="M 2.4375 -4.53125 C 3.09375 -4.53125 3.597656 -4.320312 3.953125 -3.90625 C 4.316406 -3.5 4.5 -2.929688 4.5 -2.203125 C 4.5 -1.742188 4.414062 -1.335938 4.25 -0.984375 C 4.082031 -0.628906 3.84375 -0.351562 3.53125 -0.15625 C 3.226562 0.03125 2.863281 0.125 2.4375 0.125 C 1.78125 0.125 1.269531 -0.078125 0.90625 -0.484375 C 0.539062 -0.898438 0.359375 -1.472656 0.359375 -2.203125 C 0.359375 -2.660156 0.441406 -3.066406 0.609375 -3.421875 C 0.773438 -3.773438 1.015625 -4.046875 1.328125 -4.234375 C 1.640625 -4.429688 2.007812 -4.53125 2.4375 -4.53125 Z M 2.4375 -3.71875 C 1.800781 -3.71875 1.484375 -3.210938 1.484375 -2.203125 C 1.484375 -1.679688 1.5625 -1.296875 1.71875 -1.046875 C 1.875 -0.804688 2.113281 -0.6875 2.4375 -0.6875 C 2.75 -0.6875 2.984375 -0.8125 3.140625 -1.0625 C 3.296875 -1.3125 3.375 -1.691406 3.375 -2.203125 C 3.375 -2.722656 3.296875 -3.101562 3.140625 -3.34375 C 2.984375 -3.59375 2.75 -3.71875 2.4375 -3.71875 Z M 2.4375 -3.71875 "/></g></g></g><g fill="#f62992" fill-opacity="1"><g transform="translate(125.65507, 31.207368)"><g><path d="M 2.984375 -4.53125 C 3.378906 -4.53125 3.6875 -4.410156 3.90625 -4.171875 C 4.125 -3.941406 4.234375 -3.613281 4.234375 -3.1875 L 4.234375 0 L 3.171875 0 L 3.171875 -3.015625 C 3.171875 -3.285156 3.125 -3.472656 3.03125 -3.578125 C 2.9375 -3.679688 2.800781 -3.734375 2.625 -3.734375 C 2.445312 -3.734375 2.285156 -3.675781 2.140625 -3.5625 C 1.992188 -3.445312 1.847656 -3.28125 1.703125 -3.0625 L 1.703125 0 L 0.640625 0 L 0.640625 -4.40625 L 1.5625 -4.40625 L 1.65625 -3.828125 C 2.007812 -4.296875 2.453125 -4.53125 2.984375 -4.53125 Z M 2.984375 -4.53125 "/></g></g></g></svg>