<svg xmlns="http://www.w3.org/2000/svg" xmlns:xlink="http://www.w3.org/1999/xlink" width="60" height="15" zoomAndPan="magnify" viewBox="0 0 450 112.499997"  preserveAspectRatio="xMidYMid meet" version="1.0">
<defs>
    <g/>
        <clipPath id="806c6d007d">
            <path d="M 7.378906 36.457031 L 46 36.457031 L 46 69.855469 L 7.378906 69.855469 Z M 7.378906 36.457031 " clip-rule="nonzero"/>
        </clipPath>
        <clipPath id="23d4f5cecb">
            <path d="M 26.394531 3.925781 L 84.515625 3.925781 L 84.515625 69.855469 L 26.394531 69.855469 Z M 26.394531 3.925781 " clip-rule="nonzero"/>
        </clipPath>
        <clipPath id="67d83cffba">
            <path d="M 65.140625 3.925781 L 123.046875 3.925781 L 123.046875 69.855469 L 65.140625 69.855469 Z M 65.140625 3.925781 " clip-rule="nonzero"/>
        </clipPath>
</defs>
<g clip-path="url(#806c6d007d)">
    <path fill="#86c7ed" d="M 36.296875 36.492188 L 17.03125 36.492188 L 7.378906 53.191406 L 17.03125 69.855469 L 36.296875 69.855469 L 45.945312 53.191406 L 36.296875 36.492188 " fill-opacity="1" fill-rule="nonzero"/>
</g>
<g clip-path="url(#23d4f5cecb)">
    <path fill="#a066cb" d="M 78.414062 42.65625 L 77.765625 41.53125 L 74.863281 36.492188 L 74.851562 36.492188 L 61.875 14.058594 L 61.871094 14.058594 L 55.5625 3.164062 L 36.296875 3.164062 L 26.644531 19.828125 L 33.140625 31.042969 L 49.039062 58.550781 L 55.5625 69.855469 L 74.863281 69.855469 L 84.476562 53.191406 L 78.414062 42.65625 " fill-opacity="1" fill-rule="nonzero"/>
</g>
<g clip-path="url(#67d83cffba)">
    <path fill="#f62992" d="M 116.488281 41.847656 L 116.515625 41.832031 L 100.011719 13.234375 L 99.976562 13.257812 L 94.128906 3.164062 L 74.863281 3.164062 L 65.210938 19.828125 L 74.863281 36.492188 L 74.871094 36.492188 L 84.507812 53.140625 L 84.476562 53.191406 L 94.128906 69.855469 L 113.394531 69.855469 L 123.046875 53.191406 L 116.488281 41.847656 " fill-opacity="1" fill-rule="nonzero"/>
</g>
<g fill="#86c7ed" fill-opacity="1">
    <g transform="translate(120.979162, 70.856024)">
        <g><path d="M 22.84375 -66.453125 L 22.84375 0 L 5.15625 0 L 5.15625 -66.453125 Z M 22.84375 -66.453125 "/></g>
        </g>
    </g>
    <g fill="#86c7ed" fill-opacity="1">
        <g transform="translate(148.989534, 70.856024)">
            <g>
                <path d="M 57.65625 0 L 35.375 0 L 18.546875 -50 L 18.828125 -48 C 19.472656 -43.601562 19.96875 -39.472656 20.3125 -35.609375 C 20.664062 -31.753906 20.84375 -27.375 20.84375 -22.46875 L 20.84375 0 L 5.15625 0 L 5.15625 -66.453125 L 26.96875 -66.453125 L 44.359375 -16.25 C 43.597656 -21.03125 43.007812 -25.332031 42.59375 -29.15625 C 42.175781 -32.976562 41.96875 -37.378906 41.96875 -42.359375 L 41.96875 -66.453125 L 57.65625 -66.453125 Z M 57.65625 0 "/></g></g></g><g fill="#86c7ed" fill-opacity="1"><g transform="translate(211.79778, 70.856024)"><g><path d="M 35.1875 -68.171875 C 44.039062 -68.171875 51.65625 -65.363281 58.03125 -59.75 L 49.328125 -50.671875 C 46.910156 -52.390625 44.726562 -53.644531 42.78125 -54.4375 C 40.84375 -55.238281 38.628906 -55.640625 36.140625 -55.640625 C 31.359375 -55.640625 27.613281 -53.789062 24.90625 -50.09375 C 22.195312 -46.394531 20.84375 -40.753906 20.84375 -33.171875 C 20.84375 -27.628906 21.285156 -23.25 22.171875 -20.03125 C 23.066406 -16.8125 24.421875 -14.5 26.234375 -13.09375 C 28.054688 -11.695312 30.398438 -11 33.265625 -11 C 36.140625 -11 38.753906 -11.601562 41.109375 -12.8125 L 41.109375 -26.484375 L 33.5625 -26.484375 L 31.84375 -38.625 L 58.21875 -38.625 L 58.21875 -5.546875 C 54.78125 -3.253906 50.894531 -1.46875 46.5625 -0.1875 C 42.226562 1.082031 37.957031 1.71875 33.75 1.71875 C 12.96875 1.71875 2.578125 -9.941406 2.578125 -33.265625 C 2.578125 -40.535156 3.992188 -46.800781 6.828125 -52.0625 C 9.671875 -57.320312 13.546875 -61.320312 18.453125 -64.0625 C 23.359375 -66.800781 28.9375 -68.171875 35.1875 -68.171875 Z M 35.1875 -68.171875 "/></g></g></g><g fill="#86c7ed" fill-opacity="1"><g transform="translate(273.841241, 70.856024)"><g><path d="M 25.046875 -66.453125 C 35.566406 -66.453125 44.015625 -64.078125 50.390625 -59.328125 C 56.765625 -54.578125 59.953125 -45.957031 59.953125 -33.46875 C 59.953125 -11.15625 48.765625 0 26.390625 0 L 5.15625 0 L 5.15625 -66.453125 Z M 22.84375 -53.828125 L 22.84375 -12.625 L 27.4375 -12.625 C 32.28125 -12.625 35.863281 -14.148438 38.1875 -17.203125 C 40.519531 -20.265625 41.6875 -25.6875 41.6875 -33.46875 C 41.6875 -38.820312 41.128906 -42.976562 40.015625 -45.9375 C 38.898438 -48.90625 37.304688 -50.960938 35.234375 -52.109375 C 33.160156 -53.253906 30.53125 -53.828125 27.34375 -53.828125 Z M 22.84375 -53.828125 "/></g></g></g><g fill="#86c7ed" fill-opacity="1"><g transform="translate(336.362691, 70.856024)"><g><path d="M 47.328125 -66.453125 L 45.515625 -53.921875 L 22.84375 -53.921875 L 22.84375 -39.78125 L 42.640625 -39.78125 L 42.640625 -27.625 L 22.84375 -27.625 L 22.84375 -12.53125 L 47.046875 -12.53125 L 47.046875 0 L 5.15625 0 L 5.15625 -66.453125 Z M 47.328125 -66.453125 "/></g></g></g><g fill="#86c7ed" fill-opacity="1"><g transform="translate(386.360719, 70.856024)"><g><path d="M 56.796875 -66.453125 L 39.203125 0 L 16.640625 0 L -1.8125 -66.453125 L 16.828125 -66.453125 L 28.203125 -12.90625 L 38.71875 -66.453125 Z M 56.796875 -66.453125 "/></g></g></g><g fill="#a066cb" fill-opacity="1"><g transform="translate(14.412513, 105.349348)"><g><path d="M 6.984375 -19.234375 C 9.972656 -19.234375 12.363281 -18.554688 14.15625 -17.203125 C 15.945312 -15.847656 16.84375 -13.351562 16.84375 -9.71875 C 16.84375 -6.15625 15.957031 -3.644531 14.1875 -2.1875 C 12.425781 -0.726562 10.191406 0 7.484375 0 L 2.25 0 L 2.25 -19.234375 Z M 5.921875 -16.46875 L 5.921875 -2.75 L 7.734375 -2.75 C 9.367188 -2.75 10.648438 -3.253906 11.578125 -4.265625 C 12.503906 -5.273438 12.96875 -7.09375 12.96875 -9.71875 C 12.96875 -11.53125 12.726562 -12.929688 12.25 -13.921875 C 11.78125 -14.921875 11.160156 -15.59375 10.390625 -15.9375 C 9.617188 -16.289062 8.695312 -16.46875 7.625 -16.46875 Z M 5.921875 -16.46875 "/></g></g></g><g fill="#a066cb" fill-opacity="1"><g transform="translate(32.43593, 105.349348)"><g><path d="M 14.21875 -7.703125 C 14.21875 -7.523438 14.191406 -7.046875 14.140625 -6.265625 L 4.890625 -6.265625 C 5.003906 -4.835938 5.375 -3.816406 6 -3.203125 C 6.632812 -2.585938 7.472656 -2.28125 8.515625 -2.28125 C 9.160156 -2.28125 9.769531 -2.382812 10.34375 -2.59375 C 10.925781 -2.8125 11.539062 -3.144531 12.1875 -3.59375 L 13.65625 -1.5625 C 12.03125 -0.238281 10.210938 0.421875 8.203125 0.421875 C 5.960938 0.421875 4.234375 -0.265625 3.015625 -1.640625 C 1.804688 -3.015625 1.203125 -4.890625 1.203125 -7.265625 C 1.203125 -8.765625 1.457031 -10.113281 1.96875 -11.3125 C 2.488281 -12.507812 3.238281 -13.445312 4.21875 -14.125 C 5.207031 -14.800781 6.378906 -15.140625 7.734375 -15.140625 C 9.796875 -15.140625 11.390625 -14.484375 12.515625 -13.171875 C 13.648438 -11.867188 14.21875 -10.046875 14.21875 -7.703125 Z M 10.6875 -8.734375 C 10.6875 -11.316406 9.726562 -12.609375 7.8125 -12.609375 C 6.945312 -12.609375 6.265625 -12.285156 5.765625 -11.640625 C 5.273438 -11.003906 4.984375 -9.984375 4.890625 -8.578125 L 10.6875 -8.578125 Z M 9.9375 -22.8125 L 11.390625 -20.03125 L 5.09375 -17.53125 L 4.09375 -19.34375 Z M 9.9375 -22.8125 "/></g></g></g><g fill="#a066cb" fill-opacity="1"><g transform="translate(47.705767, 105.349348)"><g><path d="M 13.96875 -14.71875 L 9.1875 0 L 4.921875 0 L 0.0625 -14.71875 L 3.921875 -14.71875 L 7.0625 -2.859375 L 10.296875 -14.71875 Z M 13.96875 -14.71875 "/></g></g></g><g fill="#a066cb" fill-opacity="1"><g transform="translate(61.723976, 105.349348)"><g><path d="M 14.21875 -7.703125 C 14.21875 -7.523438 14.191406 -7.046875 14.140625 -6.265625 L 4.890625 -6.265625 C 5.003906 -4.835938 5.375 -3.816406 6 -3.203125 C 6.632812 -2.585938 7.472656 -2.28125 8.515625 -2.28125 C 9.160156 -2.28125 9.769531 -2.382812 10.34375 -2.59375 C 10.925781 -2.8125 11.539062 -3.144531 12.1875 -3.59375 L 13.65625 -1.5625 C 12.03125 -0.238281 10.210938 0.421875 8.203125 0.421875 C 5.960938 0.421875 4.234375 -0.265625 3.015625 -1.640625 C 1.804688 -3.015625 1.203125 -4.890625 1.203125 -7.265625 C 1.203125 -8.765625 1.457031 -10.113281 1.96875 -11.3125 C 2.488281 -12.507812 3.238281 -13.445312 4.21875 -14.125 C 5.207031 -14.800781 6.378906 -15.140625 7.734375 -15.140625 C 9.796875 -15.140625 11.390625 -14.484375 12.515625 -13.171875 C 13.648438 -11.867188 14.21875 -10.046875 14.21875 -7.703125 Z M 10.6875 -8.734375 C 10.6875 -11.316406 9.726562 -12.609375 7.8125 -12.609375 C 6.945312 -12.609375 6.265625 -12.285156 5.765625 -11.640625 C 5.273438 -11.003906 4.984375 -9.984375 4.890625 -8.578125 L 10.6875 -8.578125 Z M 10.6875 -8.734375 "/></g></g></g><g fill="#a066cb" fill-opacity="1"><g transform="translate(76.993813, 105.349348)"><g><path d="M 5.625 0.421875 C 4.488281 0.421875 3.597656 0.09375 2.953125 -0.5625 C 2.316406 -1.226562 2 -2.164062 2 -3.375 L 2 -20.625 L 5.5625 -21.015625 L 5.5625 -3.484375 C 5.5625 -2.796875 5.84375 -2.453125 6.40625 -2.453125 C 6.675781 -2.453125 6.953125 -2.5 7.234375 -2.59375 L 7.984375 -0.078125 C 7.242188 0.253906 6.457031 0.421875 5.625 0.421875 Z M 5.625 0.421875 "/></g></g></g><g fill="#a066cb" fill-opacity="1"><g transform="translate(85.198922, 105.349348)"><g><path d="M 8.15625 -15.140625 C 10.320312 -15.140625 12.015625 -14.445312 13.234375 -13.0625 C 14.453125 -11.675781 15.0625 -9.78125 15.0625 -7.375 C 15.0625 -5.832031 14.78125 -4.472656 14.21875 -3.296875 C 13.664062 -2.117188 12.867188 -1.203125 11.828125 -0.546875 C 10.785156 0.0976562 9.550781 0.421875 8.125 0.421875 C 5.957031 0.421875 4.257812 -0.269531 3.03125 -1.65625 C 1.8125 -3.039062 1.203125 -4.945312 1.203125 -7.375 C 1.203125 -8.914062 1.476562 -10.269531 2.03125 -11.4375 C 2.582031 -12.601562 3.382812 -13.507812 4.4375 -14.15625 C 5.488281 -14.8125 6.726562 -15.140625 8.15625 -15.140625 Z M 8.15625 -12.4375 C 6.019531 -12.4375 4.953125 -10.75 4.953125 -7.375 C 4.953125 -5.632812 5.21875 -4.347656 5.75 -3.515625 C 6.28125 -2.691406 7.070312 -2.28125 8.125 -2.28125 C 9.1875 -2.28125 9.976562 -2.695312 10.5 -3.53125 C 11.03125 -4.363281 11.296875 -5.644531 11.296875 -7.375 C 11.296875 -9.101562 11.03125 -10.378906 10.5 -11.203125 C 9.976562 -12.023438 9.195312 -12.4375 8.15625 -12.4375 Z M 8.15625 -12.4375 "/></g></g></g><g fill="#a066cb" fill-opacity="1"><g transform="translate(101.44225, 105.349348)"><g><path d="M 9.765625 -15.140625 C 11.617188 -15.140625 12.988281 -14.460938 13.875 -13.109375 C 14.769531 -11.753906 15.21875 -9.851562 15.21875 -7.40625 C 15.21875 -5.882812 14.988281 -4.535156 14.53125 -3.359375 C 14.082031 -2.179688 13.414062 -1.253906 12.53125 -0.578125 C 11.65625 0.0859375 10.613281 0.421875 9.40625 0.421875 C 7.84375 0.421875 6.609375 -0.117188 5.703125 -1.203125 L 5.703125 5.671875 L 2.140625 6.0625 L 2.140625 -14.71875 L 5.265625 -14.71875 L 5.453125 -12.90625 C 6.023438 -13.65625 6.679688 -14.210938 7.421875 -14.578125 C 8.171875 -14.953125 8.953125 -15.140625 9.765625 -15.140625 Z M 8.40625 -2.3125 C 10.46875 -2.3125 11.5 -4 11.5 -7.375 C 11.5 -9.175781 11.265625 -10.472656 10.796875 -11.265625 C 10.335938 -12.066406 9.640625 -12.46875 8.703125 -12.46875 C 8.109375 -12.46875 7.550781 -12.285156 7.03125 -11.921875 C 6.519531 -11.554688 6.078125 -11.070312 5.703125 -10.46875 L 5.703125 -3.84375 C 6.390625 -2.820312 7.289062 -2.3125 8.40625 -2.3125 Z M 8.40625 -2.3125 "/></g></g></g><g fill="#a066cb" fill-opacity="1"><g transform="translate(118.019337, 105.349348)"><g><path d="M 9.765625 -15.140625 C 11.617188 -15.140625 12.988281 -14.460938 13.875 -13.109375 C 14.769531 -11.753906 15.21875 -9.851562 15.21875 -7.40625 C 15.21875 -5.882812 14.988281 -4.535156 14.53125 -3.359375 C 14.082031 -2.179688 13.414062 -1.253906 12.53125 -0.578125 C 11.65625 0.0859375 10.613281 0.421875 9.40625 0.421875 C 7.84375 0.421875 6.609375 -0.117188 5.703125 -1.203125 L 5.703125 5.671875 L 2.140625 6.0625 L 2.140625 -14.71875 L 5.265625 -14.71875 L 5.453125 -12.90625 C 6.023438 -13.65625 6.679688 -14.210938 7.421875 -14.578125 C 8.171875 -14.953125 8.953125 -15.140625 9.765625 -15.140625 Z M 8.40625 -2.3125 C 10.46875 -2.3125 11.5 -4 11.5 -7.375 C 11.5 -9.175781 11.265625 -10.472656 10.796875 -11.265625 C 10.335938 -12.066406 9.640625 -12.46875 8.703125 -12.46875 C 8.109375 -12.46875 7.550781 -12.285156 7.03125 -11.921875 C 6.519531 -11.554688 6.078125 -11.070312 5.703125 -10.46875 L 5.703125 -3.84375 C 6.390625 -2.820312 7.289062 -2.3125 8.40625 -2.3125 Z M 8.40625 -2.3125 "/></g></g></g><g fill="#a066cb" fill-opacity="1"><g transform="translate(134.596424, 105.349348)"><g><path d="M 14.21875 -7.703125 C 14.21875 -7.523438 14.191406 -7.046875 14.140625 -6.265625 L 4.890625 -6.265625 C 5.003906 -4.835938 5.375 -3.816406 6 -3.203125 C 6.632812 -2.585938 7.472656 -2.28125 8.515625 -2.28125 C 9.160156 -2.28125 9.769531 -2.382812 10.34375 -2.59375 C 10.925781 -2.8125 11.539062 -3.144531 12.1875 -3.59375 L 13.65625 -1.5625 C 12.03125 -0.238281 10.210938 0.421875 8.203125 0.421875 C 5.960938 0.421875 4.234375 -0.265625 3.015625 -1.640625 C 1.804688 -3.015625 1.203125 -4.890625 1.203125 -7.265625 C 1.203125 -8.765625 1.457031 -10.113281 1.96875 -11.3125 C 2.488281 -12.507812 3.238281 -13.445312 4.21875 -14.125 C 5.207031 -14.800781 6.378906 -15.140625 7.734375 -15.140625 C 9.796875 -15.140625 11.390625 -14.484375 12.515625 -13.171875 C 13.648438 -11.867188 14.21875 -10.046875 14.21875 -7.703125 Z M 10.6875 -8.734375 C 10.6875 -11.316406 9.726562 -12.609375 7.8125 -12.609375 C 6.945312 -12.609375 6.265625 -12.285156 5.765625 -11.640625 C 5.273438 -11.003906 4.984375 -9.984375 4.890625 -8.578125 L 10.6875 -8.578125 Z M 10.6875 -8.734375 "/></g></g></g><g fill="#a066cb" fill-opacity="1"><g transform="translate(149.866261, 105.349348)"><g><path d="M 17.75 -15.140625 C 18.9375 -15.140625 19.882812 -14.734375 20.59375 -13.921875 C 21.300781 -13.117188 21.65625 -12.03125 21.65625 -10.65625 L 21.65625 0 L 18.09375 0 L 18.09375 -10.109375 C 18.09375 -11.679688 17.550781 -12.46875 16.46875 -12.46875 C 15.894531 -12.46875 15.398438 -12.285156 14.984375 -11.921875 C 14.566406 -11.554688 14.132812 -10.992188 13.6875 -10.234375 L 13.6875 0 L 10.125 0 L 10.125 -10.109375 C 10.125 -11.679688 9.585938 -12.46875 8.515625 -12.46875 C 7.921875 -12.46875 7.414062 -12.285156 7 -11.921875 C 6.582031 -11.554688 6.148438 -10.992188 5.703125 -10.234375 L 5.703125 0 L 2.140625 0 L 2.140625 -14.71875 L 5.234375 -14.71875 L 5.515625 -12.796875 C 6.617188 -14.359375 8.035156 -15.140625 9.765625 -15.140625 C 10.617188 -15.140625 11.351562 -14.921875 11.96875 -14.484375 C 12.59375 -14.046875 13.046875 -13.4375 13.328125 -12.65625 C 13.921875 -13.457031 14.570312 -14.070312 15.28125 -14.5 C 16 -14.925781 16.820312 -15.140625 17.75 -15.140625 Z M 17.75 -15.140625 "/></g></g></g><g fill="#a066cb" fill-opacity="1"><g transform="translate(173.508087, 105.349348)"><g><path d="M 14.21875 -7.703125 C 14.21875 -7.523438 14.191406 -7.046875 14.140625 -6.265625 L 4.890625 -6.265625 C 5.003906 -4.835938 5.375 -3.816406 6 -3.203125 C 6.632812 -2.585938 7.472656 -2.28125 8.515625 -2.28125 C 9.160156 -2.28125 9.769531 -2.382812 10.34375 -2.59375 C 10.925781 -2.8125 11.539062 -3.144531 12.1875 -3.59375 L 13.65625 -1.5625 C 12.03125 -0.238281 10.210938 0.421875 8.203125 0.421875 C 5.960938 0.421875 4.234375 -0.265625 3.015625 -1.640625 C 1.804688 -3.015625 1.203125 -4.890625 1.203125 -7.265625 C 1.203125 -8.765625 1.457031 -10.113281 1.96875 -11.3125 C 2.488281 -12.507812 3.238281 -13.445312 4.21875 -14.125 C 5.207031 -14.800781 6.378906 -15.140625 7.734375 -15.140625 C 9.796875 -15.140625 11.390625 -14.484375 12.515625 -13.171875 C 13.648438 -11.867188 14.21875 -10.046875 14.21875 -7.703125 Z M 10.6875 -8.734375 C 10.6875 -11.316406 9.726562 -12.609375 7.8125 -12.609375 C 6.945312 -12.609375 6.265625 -12.285156 5.765625 -11.640625 C 5.273438 -11.003906 4.984375 -9.984375 4.890625 -8.578125 L 10.6875 -8.578125 Z M 10.6875 -8.734375 "/></g></g></g><g fill="#a066cb" fill-opacity="1"><g transform="translate(188.777924, 105.349348)"><g><path d="M 9.984375 -15.140625 C 11.304688 -15.140625 12.332031 -14.742188 13.0625 -13.953125 C 13.800781 -13.160156 14.171875 -12.0625 14.171875 -10.65625 L 14.171875 0 L 10.609375 0 L 10.609375 -10.109375 C 10.609375 -10.972656 10.453125 -11.582031 10.140625 -11.9375 C 9.835938 -12.289062 9.390625 -12.46875 8.796875 -12.46875 C 8.179688 -12.46875 7.628906 -12.273438 7.140625 -11.890625 C 6.648438 -11.515625 6.171875 -10.960938 5.703125 -10.234375 L 5.703125 0 L 2.140625 0 L 2.140625 -14.71875 L 5.234375 -14.71875 L 5.515625 -12.796875 C 6.710938 -14.359375 8.203125 -15.140625 9.984375 -15.140625 Z M 9.984375 -15.140625 "/></g></g></g><g fill="#a066cb" fill-opacity="1"><g transform="translate(204.937806, 105.349348)"><g><path d="M 10.578125 -0.703125 C 10.054688 -0.328125 9.472656 -0.046875 8.828125 0.140625 C 8.191406 0.328125 7.539062 0.421875 6.875 0.421875 C 5.425781 0.398438 4.328125 -0.0078125 3.578125 -0.8125 C 2.828125 -1.625 2.453125 -2.816406 2.453125 -4.390625 L 2.453125 -12.15625 L 0.140625 -12.15625 L 0.140625 -14.71875 L 2.453125 -14.71875 L 2.453125 -17.984375 L 6.015625 -18.390625 L 6.015625 -14.71875 L 9.4375 -14.71875 L 9.078125 -12.15625 L 6.015625 -12.15625 L 6.015625 -4.484375 C 6.015625 -3.753906 6.140625 -3.234375 6.390625 -2.921875 C 6.640625 -2.609375 7.03125 -2.453125 7.5625 -2.453125 C 8.101562 -2.453125 8.691406 -2.628906 9.328125 -2.984375 Z M 10.578125 -0.703125 "/></g></g></g><g fill="#a066cb" fill-opacity="1"><g transform="translate(215.368011, 105.349348)"><g/></g></g><g fill="#a066cb" fill-opacity="1"><g transform="translate(222.321481, 105.349348)"><g><path d="M 20.125 -14.71875 L 16.921875 0 L 12.46875 0 L 10.234375 -11.546875 L 7.953125 0 L 3.59375 0 L 0.328125 -14.71875 L 3.890625 -14.71875 L 5.953125 -2.609375 L 8.515625 -14.71875 L 12.15625 -14.71875 L 14.5 -2.609375 L 16.703125 -14.71875 Z M 20.125 -14.71875 "/></g></g></g><g fill="#a066cb" fill-opacity="1"><g transform="translate(242.73691, 105.349348)"><g><path d="M 14.21875 -7.703125 C 14.21875 -7.523438 14.191406 -7.046875 14.140625 -6.265625 L 4.890625 -6.265625 C 5.003906 -4.835938 5.375 -3.816406 6 -3.203125 C 6.632812 -2.585938 7.472656 -2.28125 8.515625 -2.28125 C 9.160156 -2.28125 9.769531 -2.382812 10.34375 -2.59375 C 10.925781 -2.8125 11.539062 -3.144531 12.1875 -3.59375 L 13.65625 -1.5625 C 12.03125 -0.238281 10.210938 0.421875 8.203125 0.421875 C 5.960938 0.421875 4.234375 -0.265625 3.015625 -1.640625 C 1.804688 -3.015625 1.203125 -4.890625 1.203125 -7.265625 C 1.203125 -8.765625 1.457031 -10.113281 1.96875 -11.3125 C 2.488281 -12.507812 3.238281 -13.445312 4.21875 -14.125 C 5.207031 -14.800781 6.378906 -15.140625 7.734375 -15.140625 C 9.796875 -15.140625 11.390625 -14.484375 12.515625 -13.171875 C 13.648438 -11.867188 14.21875 -10.046875 14.21875 -7.703125 Z M 10.6875 -8.734375 C 10.6875 -11.316406 9.726562 -12.609375 7.8125 -12.609375 C 6.945312 -12.609375 6.265625 -12.285156 5.765625 -11.640625 C 5.273438 -11.003906 4.984375 -9.984375 4.890625 -8.578125 L 10.6875 -8.578125 Z M 10.6875 -8.734375 "/></g></g></g><g fill="#a066cb" fill-opacity="1"><g transform="translate(258.006735, 105.349348)"><g><path d="M 9.765625 -15.140625 C 11.472656 -15.140625 12.804688 -14.457031 13.765625 -13.09375 C 14.734375 -11.726562 15.21875 -9.820312 15.21875 -7.375 C 15.21875 -5.851562 14.976562 -4.503906 14.5 -3.328125 C 14.03125 -2.148438 13.359375 -1.226562 12.484375 -0.5625 C 11.617188 0.09375 10.59375 0.421875 9.40625 0.421875 C 8.601562 0.421875 7.875 0.253906 7.21875 -0.078125 C 6.5625 -0.410156 5.992188 -0.882812 5.515625 -1.5 L 5.28125 0 L 2.140625 0 L 2.140625 -20.625 L 5.703125 -21.015625 L 5.703125 -13.046875 C 6.179688 -13.710938 6.769531 -14.226562 7.46875 -14.59375 C 8.164062 -14.957031 8.929688 -15.140625 9.765625 -15.140625 Z M 8.4375 -2.25 C 9.394531 -2.25 10.144531 -2.660156 10.6875 -3.484375 C 11.226562 -4.316406 11.5 -5.613281 11.5 -7.375 C 11.5 -9.226562 11.242188 -10.539062 10.734375 -11.3125 C 10.234375 -12.082031 9.53125 -12.46875 8.625 -12.46875 C 7.488281 -12.46875 6.515625 -11.800781 5.703125 -10.46875 L 5.703125 -3.953125 C 6.015625 -3.410156 6.40625 -2.988281 6.875 -2.6875 C 7.351562 -2.394531 7.875 -2.25 8.4375 -2.25 Z M 8.4375 -2.25 "/></g></g></g><g fill="#000000" fill-opacity="1"><g transform="translate(274.572637, 105.349348)"><g/></g></g><g fill="#ffca08" fill-opacity="1"><g transform="translate(281.526107, 105.349348)"><g><path d="M 8.578125 -19.640625 C 9.679688 -19.640625 10.65625 -19.453125 11.5 -19.078125 C 12.34375 -18.710938 12.992188 -18.203125 13.453125 -17.546875 C 13.910156 -16.890625 14.140625 -16.144531 14.140625 -15.3125 C 14.140625 -14.207031 13.804688 -13.253906 13.140625 -12.453125 C 12.484375 -11.648438 11.554688 -10.867188 10.359375 -10.109375 L 14.640625 -6.0625 C 15.253906 -7.394531 15.742188 -8.84375 16.109375 -10.40625 L 19.203125 -9.484375 C 18.515625 -7.410156 17.671875 -5.640625 16.671875 -4.171875 L 19.921875 -1.21875 L 17.0625 0.421875 L 14.640625 -1.921875 C 12.972656 -0.359375 10.929688 0.421875 8.515625 0.421875 C 7.210938 0.421875 6.066406 0.203125 5.078125 -0.234375 C 4.085938 -0.671875 3.3125 -1.289062 2.75 -2.09375 C 2.195312 -2.90625 1.921875 -3.835938 1.921875 -4.890625 C 1.921875 -6.023438 2.234375 -7.015625 2.859375 -7.859375 C 3.492188 -8.703125 4.460938 -9.539062 5.765625 -10.375 C 4.796875 -11.320312 4.101562 -12.140625 3.6875 -12.828125 C 3.269531 -13.515625 3.0625 -14.296875 3.0625 -15.171875 C 3.0625 -15.984375 3.269531 -16.726562 3.6875 -17.40625 C 4.101562 -18.082031 4.722656 -18.625 5.546875 -19.03125 C 6.378906 -19.4375 7.390625 -19.640625 8.578125 -19.640625 Z M 8.59375 -17.21875 C 7.945312 -17.21875 7.4375 -17.03125 7.0625 -16.65625 C 6.695312 -16.289062 6.515625 -15.796875 6.515625 -15.171875 C 6.515625 -14.609375 6.65625 -14.097656 6.9375 -13.640625 C 7.226562 -13.191406 7.707031 -12.644531 8.375 -12 C 9.15625 -12.5 9.738281 -12.992188 10.125 -13.484375 C 10.519531 -13.972656 10.71875 -14.535156 10.71875 -15.171875 C 10.71875 -15.796875 10.523438 -16.289062 10.140625 -16.65625 C 9.765625 -17.03125 9.25 -17.21875 8.59375 -17.21875 Z M 7.796875 -8.453125 C 7.046875 -7.953125 6.5 -7.429688 6.15625 -6.890625 C 5.820312 -6.359375 5.65625 -5.75 5.65625 -5.0625 C 5.65625 -4.1875 5.960938 -3.492188 6.578125 -2.984375 C 7.203125 -2.472656 8.035156 -2.21875 9.078125 -2.21875 C 9.796875 -2.21875 10.445312 -2.34375 11.03125 -2.59375 C 11.613281 -2.851562 12.1875 -3.222656 12.75 -3.703125 Z M 7.796875 -8.453125 "/></g></g></g><g fill="#000000" fill-opacity="1"><g transform="translate(302.269849, 105.349348)"><g/></g></g><g fill="#f62992" fill-opacity="1"><g transform="translate(309.223319, 105.349348)"><g><path d="M 8.09375 -18.3125 C 7.394531 -18.3125 6.890625 -18.148438 6.578125 -17.828125 C 6.273438 -17.503906 6.125 -16.988281 6.125 -16.28125 L 6.125 -14.71875 L 9.65625 -14.71875 L 9.265625 -12.15625 L 6.125 -12.15625 L 6.125 0 L 2.5625 0 L 2.5625 -12.15625 L 0.171875 -12.15625 L 0.171875 -14.71875 L 2.5625 -14.71875 L 2.5625 -16.328125 C 2.5625 -17.722656 3.007812 -18.851562 3.90625 -19.71875 C 4.8125 -20.582031 6.085938 -21.015625 7.734375 -21.015625 C 9.035156 -21.015625 10.304688 -20.722656 11.546875 -20.140625 L 10.515625 -17.75 C 9.722656 -18.125 8.914062 -18.3125 8.09375 -18.3125 Z M 8.09375 -18.3125 "/></g></g></g><g fill="#f62992" fill-opacity="1"><g transform="translate(318.874747, 105.349348)"><g><path d="M 8.15625 -15.140625 C 10.320312 -15.140625 12.015625 -14.445312 13.234375 -13.0625 C 14.453125 -11.675781 15.0625 -9.78125 15.0625 -7.375 C 15.0625 -5.832031 14.78125 -4.472656 14.21875 -3.296875 C 13.664062 -2.117188 12.867188 -1.203125 11.828125 -0.546875 C 10.785156 0.0976562 9.550781 0.421875 8.125 0.421875 C 5.957031 0.421875 4.257812 -0.269531 3.03125 -1.65625 C 1.8125 -3.039062 1.203125 -4.945312 1.203125 -7.375 C 1.203125 -8.914062 1.476562 -10.269531 2.03125 -11.4375 C 2.582031 -12.601562 3.382812 -13.507812 4.4375 -14.15625 C 5.488281 -14.8125 6.726562 -15.140625 8.15625 -15.140625 Z M 8.15625 -12.4375 C 6.019531 -12.4375 4.953125 -10.75 4.953125 -7.375 C 4.953125 -5.632812 5.21875 -4.347656 5.75 -3.515625 C 6.28125 -2.691406 7.070312 -2.28125 8.125 -2.28125 C 9.1875 -2.28125 9.976562 -2.695312 10.5 -3.53125 C 11.03125 -4.363281 11.296875 -5.644531 11.296875 -7.375 C 11.296875 -9.101562 11.03125 -10.378906 10.5 -11.203125 C 9.976562 -12.023438 9.195312 -12.4375 8.15625 -12.4375 Z M 8.15625 -12.4375 "/></g></g></g><g fill="#f62992" fill-opacity="1"><g transform="translate(335.118075, 105.349348)"><g><path d="M 9.40625 -15.109375 C 9.945312 -15.109375 10.4375 -15.046875 10.875 -14.921875 L 10.265625 -11.46875 C 9.816406 -11.570312 9.378906 -11.625 8.953125 -11.625 C 8.085938 -11.625 7.40625 -11.3125 6.90625 -10.6875 C 6.40625 -10.070312 6.003906 -9.125 5.703125 -7.84375 L 5.703125 0 L 2.140625 0 L 2.140625 -14.71875 L 5.234375 -14.71875 L 5.5625 -11.828125 C 5.914062 -12.878906 6.425781 -13.6875 7.09375 -14.25 C 7.757812 -14.820312 8.53125 -15.109375 9.40625 -15.109375 Z M 9.40625 -15.109375 "/></g></g></g><g fill="#f62992" fill-opacity="1"><g transform="translate(346.076754, 105.349348)"><g><path d="M 17.75 -15.140625 C 18.9375 -15.140625 19.882812 -14.734375 20.59375 -13.921875 C 21.300781 -13.117188 21.65625 -12.03125 21.65625 -10.65625 L 21.65625 0 L 18.09375 0 L 18.09375 -10.109375 C 18.09375 -11.679688 17.550781 -12.46875 16.46875 -12.46875 C 15.894531 -12.46875 15.398438 -12.285156 14.984375 -11.921875 C 14.566406 -11.554688 14.132812 -10.992188 13.6875 -10.234375 L 13.6875 0 L 10.125 0 L 10.125 -10.109375 C 10.125 -11.679688 9.585938 -12.46875 8.515625 -12.46875 C 7.921875 -12.46875 7.414062 -12.285156 7 -11.921875 C 6.582031 -11.554688 6.148438 -10.992188 5.703125 -10.234375 L 5.703125 0 L 2.140625 0 L 2.140625 -14.71875 L 5.234375 -14.71875 L 5.515625 -12.796875 C 6.617188 -14.359375 8.035156 -15.140625 9.765625 -15.140625 C 10.617188 -15.140625 11.351562 -14.921875 11.96875 -14.484375 C 12.59375 -14.046875 13.046875 -13.4375 13.328125 -12.65625 C 13.921875 -13.457031 14.570312 -14.070312 15.28125 -14.5 C 16 -14.925781 16.820312 -15.140625 17.75 -15.140625 Z M 17.75 -15.140625 "/></g></g></g><g fill="#f62992" fill-opacity="1"><g transform="translate(369.71858, 105.349348)"><g><path d="M 13.03125 -3.890625 C 13.03125 -3.316406 13.113281 -2.894531 13.28125 -2.625 C 13.457031 -2.351562 13.742188 -2.144531 14.140625 -2 L 13.390625 0.359375 C 12.554688 0.285156 11.875 0.0820312 11.34375 -0.25 C 10.8125 -0.582031 10.40625 -1.09375 10.125 -1.78125 C 9.625 -1.039062 9 -0.488281 8.25 -0.125 C 7.5 0.238281 6.660156 0.421875 5.734375 0.421875 C 4.265625 0.421875 3.101562 0.00390625 2.25 -0.828125 C 1.394531 -1.671875 0.96875 -2.769531 0.96875 -4.125 C 0.96875 -5.71875 1.546875 -6.9375 2.703125 -7.78125 C 3.867188 -8.625 5.53125 -9.046875 7.6875 -9.046875 L 9.515625 -9.046875 L 9.515625 -9.875 C 9.515625 -10.820312 9.296875 -11.484375 8.859375 -11.859375 C 8.421875 -12.242188 7.722656 -12.4375 6.765625 -12.4375 C 5.679688 -12.4375 4.378906 -12.175781 2.859375 -11.65625 L 2.03125 -14.078125 C 3.863281 -14.785156 5.644531 -15.140625 7.375 -15.140625 C 11.144531 -15.140625 13.03125 -13.453125 13.03125 -10.078125 Z M 6.671875 -2.171875 C 7.878906 -2.171875 8.828125 -2.773438 9.515625 -3.984375 L 9.515625 -6.953125 L 8.046875 -6.953125 C 5.742188 -6.953125 4.59375 -6.097656 4.59375 -4.390625 C 4.59375 -3.691406 4.769531 -3.144531 5.125 -2.75 C 5.476562 -2.363281 5.992188 -2.171875 6.671875 -2.171875 Z M 6.671875 -2.171875 "/></g></g></g><g fill="#f62992" fill-opacity="1"><g transform="translate(384.904971, 105.349348)"><g><path d="M 10.578125 -0.703125 C 10.054688 -0.328125 9.472656 -0.046875 8.828125 0.140625 C 8.191406 0.328125 7.539062 0.421875 6.875 0.421875 C 5.425781 0.398438 4.328125 -0.0078125 3.578125 -0.8125 C 2.828125 -1.625 2.453125 -2.816406 2.453125 -4.390625 L 2.453125 -12.15625 L 0.140625 -12.15625 L 0.140625 -14.71875 L 2.453125 -14.71875 L 2.453125 -17.984375 L 6.015625 -18.390625 L 6.015625 -14.71875 L 9.4375 -14.71875 L 9.078125 -12.15625 L 6.015625 -12.15625 L 6.015625 -4.484375 C 6.015625 -3.753906 6.140625 -3.234375 6.390625 -2.921875 C 6.640625 -2.609375 7.03125 -2.453125 7.5625 -2.453125 C 8.101562 -2.453125 8.691406 -2.628906 9.328125 -2.984375 Z M 10.578125 -0.703125 "/></g></g></g><g fill="#f62992" fill-opacity="1"><g transform="translate(395.335188, 105.349348)"><g><path d="M 5.703125 -14.71875 L 5.703125 0 L 2.140625 0 L 2.140625 -14.71875 Z M 3.890625 -22.171875 C 4.554688 -22.171875 5.097656 -21.960938 5.515625 -21.546875 C 5.941406 -21.128906 6.15625 -20.617188 6.15625 -20.015625 C 6.15625 -19.398438 5.941406 -18.882812 5.515625 -18.46875 C 5.097656 -18.0625 4.554688 -17.859375 3.890625 -17.859375 C 3.242188 -17.859375 2.710938 -18.0625 2.296875 -18.46875 C 1.878906 -18.882812 1.671875 -19.398438 1.671875 -20.015625 C 1.671875 -20.617188 1.878906 -21.128906 2.296875 -21.546875 C 2.710938 -21.960938 3.242188 -22.171875 3.890625 -22.171875 Z M 3.890625 -22.171875 "/></g></g></g><g fill="#f62992" fill-opacity="1"><g transform="translate(403.178714, 105.349348)"><g><path d="M 8.15625 -15.140625 C 10.320312 -15.140625 12.015625 -14.445312 13.234375 -13.0625 C 14.453125 -11.675781 15.0625 -9.78125 15.0625 -7.375 C 15.0625 -5.832031 14.78125 -4.472656 14.21875 -3.296875 C 13.664062 -2.117188 12.867188 -1.203125 11.828125 -0.546875 C 10.785156 0.0976562 9.550781 0.421875 8.125 0.421875 C 5.957031 0.421875 4.257812 -0.269531 3.03125 -1.65625 C 1.8125 -3.039062 1.203125 -4.945312 1.203125 -7.375 C 1.203125 -8.914062 1.476562 -10.269531 2.03125 -11.4375 C 2.582031 -12.601562 3.382812 -13.507812 4.4375 -14.15625 C 5.488281 -14.8125 6.726562 -15.140625 8.15625 -15.140625 Z M 8.15625 -12.4375 C 6.019531 -12.4375 4.953125 -10.75 4.953125 -7.375 C 4.953125 -5.632812 5.21875 -4.347656 5.75 -3.515625 C 6.28125 -2.691406 7.070312 -2.28125 8.125 -2.28125 C 9.1875 -2.28125 9.976562 -2.695312 10.5 -3.53125 C 11.03125 -4.363281 11.296875 -5.644531 11.296875 -7.375 C 11.296875 -9.101562 11.03125 -10.378906 10.5 -11.203125 C 9.976562 -12.023438 9.195312 -12.4375 8.15625 -12.4375 Z M 8.15625 -12.4375 "/></g></g></g><g fill="#f62992" fill-opacity="1"><g transform="translate(419.422042, 105.349348)"><g><path d="M 9.984375 -15.140625 C 11.304688 -15.140625 12.332031 -14.742188 13.0625 -13.953125 C 13.800781 -13.160156 14.171875 -12.0625 14.171875 -10.65625 L 14.171875 0 L 10.609375 0 L 10.609375 -10.109375 C 10.609375 -10.972656 10.453125 -11.582031 10.140625 -11.9375 C 9.835938 -12.289062 9.390625 -12.46875 8.796875 -12.46875 C 8.179688 -12.46875 7.628906 -12.273438 7.140625 -11.890625 C 6.648438 -11.515625 6.171875 -10.960938 5.703125 -10.234375 L 5.703125 0 L 2.140625 0 L 2.140625 -14.71875 L 5.234375 -14.71875 L 5.515625 -12.796875 C 6.710938 -14.359375 8.203125 -15.140625 9.984375 -15.140625 Z M 9.984375 -15.140625 "/></g></g></g></svg>